<?xml version="1.0" encoding="utf-8" standalone="no"?>
<!DOCTYPE svg PUBLIC "-//W3C//DTD SVG 1.1//EN"
  "http://www.w3.org/Graphics/SVG/1.1/DTD/svg11.dtd">
<svg xmlns:xlink="http://www.w3.org/1999/xlink" width="1296pt" height="864pt" viewBox="0 0 1296 864" xmlns="http://www.w3.org/2000/svg" version="1.1">
 <metadata>
  <rdf:RDF xmlns:dc="http://purl.org/dc/elements/1.1/" xmlns:cc="http://creativecommons.org/ns#" xmlns:rdf="http://www.w3.org/1999/02/22-rdf-syntax-ns#">
   <cc:Work>
    <dc:type rdf:resource="http://purl.org/dc/dcmitype/StillImage"/>
    <dc:date>2025-11-03T13:58:06.767396</dc:date>
    <dc:format>image/svg+xml</dc:format>
    <dc:creator>
     <cc:Agent>
      <dc:title>Matplotlib v3.8.0, https://matplotlib.org/</dc:title>
     </cc:Agent>
    </dc:creator>
   </cc:Work>
  </rdf:RDF>
 </metadata>
 <defs>
  <style type="text/css">*{stroke-linejoin: round; stroke-linecap: butt}</style>
 </defs>
 <g id="figure_1">
  <g id="patch_1">
   <path d="M 0 864 
L 1296 864 
L 1296 0 
L 0 0 
z
" style="fill: #ffffff"/>
  </g>
  <g id="axes_1">
   <g id="patch_2">
    <path d="M 69.77 836.12 
L 428.4 836.12 
L 428.4 26.88 
L 69.77 26.88 
z
" style="fill: #ffffff"/>
   </g>
   <g id="PolyCollection_1">
    <defs>
     <path id="m3841c0ee83" d="M 227.094102 -64.663636 
L 91.760898 -64.663636 
L 88.796611 -65.282436 
L 87.7015 -65.901235 
L 88.548502 -66.520035 
L 91.251721 -67.138834 
L 95.579802 -67.757634 
L 101.188139 -68.376433 
L 107.663712 -68.995233 
L 114.574506 -69.614032 
L 121.515403 -70.232832 
L 128.144066 -70.851631 
L 134.203069 -71.470431 
L 139.527504 -72.08923 
L 144.039992 -72.70803 
L 147.736669 -73.326829 
L 150.668425 -73.945629 
L 152.921282 -74.564428 
L 154.598866 -75.183228 
L 155.808659 -75.802027 
L 156.652534 -76.420827 
L 157.221218 -77.039626 
L 157.59181 -77.658426 
L 157.82735 -78.277225 
L 157.977562 -78.896025 
L 158.080118 -79.514824 
L 158.162071 -80.133624 
L 158.241325 -80.752423 
L 158.328103 -81.371223 
L 158.426468 -81.990022 
L 158.535881 -82.608822 
L 158.652755 -83.227621 
L 158.771916 -83.846421 
L 158.887858 -84.46522 
L 158.995697 -85.08402 
L 159.091782 -85.702819 
L 159.173953 -86.321619 
L 159.241507 -86.940418 
L 159.294957 -87.559218 
L 159.335674 -88.178017 
L 159.365504 -88.796817 
L 159.38642 -89.415616 
L 159.400247 -90.034416 
L 159.40847 -90.653215 
L 159.412108 -91.272015 
L 159.411654 -91.890814 
L 159.407045 -92.509614 
L 159.397669 -93.128413 
L 159.382395 -93.747213 
L 159.359655 -94.366012 
L 159.327582 -94.984812 
L 159.284229 -95.603611 
L 159.227867 -96.222411 
L 159.157365 -96.84121 
L 159.072599 -97.46001 
L 158.974831 -98.078809 
L 158.866983 -98.697609 
L 158.753703 -99.316408 
L 158.64118 -99.935208 
L 158.53666 -100.554007 
L 158.447718 -101.172807 
L 158.381362 -101.791606 
L 158.343128 -102.410406 
L 158.336318 -103.029205 
L 158.361528 -103.648005 
L 158.416563 -104.266804 
L 158.496753 -104.885604 
L 158.595603 -105.504403 
L 158.705667 -106.123203 
L 158.819457 -106.742002 
L 158.930265 -107.360802 
L 159.032751 -107.979601 
L 159.12326 -108.5984 
L 159.199854 -109.2172 
L 159.262117 -109.835999 
L 159.310812 -110.454799 
L 159.347478 -111.073598 
L 159.374032 -111.692398 
L 159.392444 -112.311197 
L 159.404483 -112.929997 
L 159.411556 -113.548796 
L 159.414616 -114.167596 
L 159.414109 -114.786395 
L 159.409959 -115.405195 
L 159.40157 -116.023994 
L 159.387855 -116.642794 
L 159.367286 -117.261593 
L 159.338017 -117.880393 
L 159.298065 -118.499192 
L 159.245584 -119.117992 
L 159.179217 -119.736791 
L 159.0985 -120.355591 
L 159.00426 -120.97439 
L 158.898919 -121.59319 
L 158.786633 -122.211989 
L 158.673182 -122.830789 
L 158.565572 -123.449588 
L 158.47137 -124.068388 
L 158.397842 -124.687187 
L 158.351039 -125.305987 
L 158.334969 -125.924786 
L 160.520031 -125.924786 
L 160.520031 -125.924786 
L 160.503961 -125.305987 
L 160.457158 -124.687187 
L 160.38363 -124.068388 
L 160.289428 -123.449588 
L 160.181818 -122.830789 
L 160.068367 -122.211989 
L 159.956081 -121.59319 
L 159.85074 -120.97439 
L 159.7565 -120.355591 
L 159.675783 -119.736791 
L 159.609416 -119.117992 
L 159.556935 -118.499192 
L 159.516983 -117.880393 
L 159.487714 -117.261593 
L 159.467145 -116.642794 
L 159.45343 -116.023994 
L 159.445041 -115.405195 
L 159.440891 -114.786395 
L 159.440384 -114.167596 
L 159.443444 -113.548796 
L 159.450517 -112.929997 
L 159.462556 -112.311197 
L 159.480968 -111.692398 
L 159.507522 -111.073598 
L 159.544188 -110.454799 
L 159.592883 -109.835999 
L 159.655146 -109.2172 
L 159.73174 -108.5984 
L 159.822249 -107.979601 
L 159.924735 -107.360802 
L 160.035543 -106.742002 
L 160.149333 -106.123203 
L 160.259397 -105.504403 
L 160.358247 -104.885604 
L 160.438437 -104.266804 
L 160.493472 -103.648005 
L 160.518682 -103.029205 
L 160.511872 -102.410406 
L 160.473638 -101.791606 
L 160.407282 -101.172807 
L 160.31834 -100.554007 
L 160.21382 -99.935208 
L 160.101297 -99.316408 
L 159.988017 -98.697609 
L 159.880169 -98.078809 
L 159.782401 -97.46001 
L 159.697635 -96.84121 
L 159.627133 -96.222411 
L 159.570771 -95.603611 
L 159.527418 -94.984812 
L 159.495345 -94.366012 
L 159.472605 -93.747213 
L 159.457331 -93.128413 
L 159.447955 -92.509614 
L 159.443346 -91.890814 
L 159.442892 -91.272015 
L 159.44653 -90.653215 
L 159.454753 -90.034416 
L 159.46858 -89.415616 
L 159.489496 -88.796817 
L 159.519326 -88.178017 
L 159.560043 -87.559218 
L 159.613493 -86.940418 
L 159.681047 -86.321619 
L 159.763218 -85.702819 
L 159.859303 -85.08402 
L 159.967142 -84.46522 
L 160.083084 -83.846421 
L 160.202245 -83.227621 
L 160.319119 -82.608822 
L 160.428532 -81.990022 
L 160.526897 -81.371223 
L 160.613675 -80.752423 
L 160.692929 -80.133624 
L 160.774882 -79.514824 
L 160.877438 -78.896025 
L 161.02765 -78.277225 
L 161.26319 -77.658426 
L 161.633782 -77.039626 
L 162.202466 -76.420827 
L 163.046341 -75.802027 
L 164.256134 -75.183228 
L 165.933718 -74.564428 
L 168.186575 -73.945629 
L 171.118331 -73.326829 
L 174.815008 -72.70803 
L 179.327496 -72.08923 
L 184.651931 -71.470431 
L 190.710934 -70.851631 
L 197.339597 -70.232832 
L 204.280494 -69.614032 
L 211.191288 -68.995233 
L 217.666861 -68.376433 
L 223.275198 -67.757634 
L 227.603279 -67.138834 
L 230.306498 -66.520035 
L 231.1535 -65.901235 
L 230.058389 -65.282436 
L 227.094102 -64.663636 
z
" style="stroke: #797979; stroke-opacity: 0.5; stroke-width: 1.25"/>
    </defs>
    <g clip-path="url(#p192b672ad2)">
     <use xlink:href="#m3841c0ee83" x="0" y="864" style="fill: #b5caf3; fill-opacity: 0.5; stroke: #797979; stroke-opacity: 0.5; stroke-width: 1.25"/>
    </g>
   </g>
   <g id="PolyCollection_2">
    <defs>
     <path id="m31529b2b0c" d="M 347.620397 -65.060829 
L 329.864603 -65.060829 
L 329.818471 -72.487855 
L 329.789177 -79.914881 
L 329.77675 -87.341906 
L 329.781114 -94.768932 
L 329.802087 -102.195957 
L 329.839388 -109.622983 
L 329.892637 -117.050009 
L 329.96136 -124.477034 
L 330.044997 -131.90406 
L 330.142908 -139.331085 
L 330.254379 -146.758111 
L 330.378629 -154.185137 
L 330.514821 -161.612162 
L 330.662072 -169.039188 
L 330.819458 -176.466213 
L 330.986024 -183.893239 
L 331.160798 -191.320265 
L 331.342794 -198.74729 
L 331.531026 -206.174316 
L 331.724513 -213.601341 
L 331.92229 -221.028367 
L 332.123411 -228.455393 
L 332.326964 -235.882418 
L 332.532067 -243.309444 
L 332.737883 -250.736469 
L 332.94362 -258.163495 
L 333.148534 -265.590521 
L 333.351934 -273.017546 
L 333.553185 -280.444572 
L 333.751708 -287.871597 
L 333.946981 -295.298623 
L 334.138537 -302.725649 
L 334.325969 -310.152674 
L 334.508921 -317.5797 
L 334.687092 -325.006725 
L 334.86023 -332.433751 
L 335.028132 -339.860777 
L 335.190637 -347.287802 
L 335.347625 -354.714828 
L 335.499015 -362.141853 
L 335.644758 -369.568879 
L 335.784832 -376.995905 
L 335.919243 -384.42293 
L 336.048018 -391.849956 
L 336.171203 -399.276981 
L 336.288857 -406.704007 
L 336.401051 -414.131033 
L 336.507867 -421.558058 
L 336.609389 -428.985084 
L 336.70571 -436.412109 
L 336.796921 -443.839135 
L 336.883116 -451.26616 
L 336.964388 -458.693186 
L 337.040828 -466.120212 
L 337.112526 -473.547237 
L 337.179569 -480.974263 
L 337.242042 -488.401288 
L 337.30003 -495.828314 
L 337.353614 -503.25534 
L 337.402876 -510.682365 
L 337.447899 -518.109391 
L 337.488766 -525.536416 
L 337.525564 -532.963442 
L 337.558382 -540.390468 
L 337.587315 -547.817493 
L 337.612461 -555.244519 
L 337.63393 -562.671544 
L 337.651835 -570.09857 
L 337.666301 -577.525596 
L 337.677459 -584.952621 
L 337.685454 -592.379647 
L 337.690439 -599.806672 
L 337.692578 -607.233698 
L 337.692047 -614.660724 
L 337.689032 -622.087749 
L 337.683728 -629.514775 
L 337.676341 -636.9418 
L 337.667087 -644.368826 
L 337.656189 -651.795852 
L 337.643877 -659.222877 
L 337.630388 -666.649903 
L 337.615962 -674.076928 
L 337.600843 -681.503954 
L 337.585275 -688.93098 
L 337.569504 -696.358005 
L 337.553772 -703.785031 
L 337.538318 -711.212056 
L 337.523374 -718.639082 
L 337.509166 -726.066108 
L 337.49591 -733.493133 
L 337.483812 -740.920159 
L 337.473063 -748.347184 
L 337.463842 -755.77421 
L 337.456312 -763.201236 
L 337.450619 -770.628261 
L 337.446893 -778.055287 
L 337.445241 -785.482312 
L 337.445756 -792.909338 
L 337.448508 -800.336364 
L 340.036492 -800.336364 
L 340.036492 -800.336364 
L 340.039244 -792.909338 
L 340.039759 -785.482312 
L 340.038107 -778.055287 
L 340.034381 -770.628261 
L 340.028688 -763.201236 
L 340.021158 -755.77421 
L 340.011937 -748.347184 
L 340.001188 -740.920159 
L 339.98909 -733.493133 
L 339.975834 -726.066108 
L 339.961626 -718.639082 
L 339.946682 -711.212056 
L 339.931228 -703.785031 
L 339.915496 -696.358005 
L 339.899725 -688.93098 
L 339.884157 -681.503954 
L 339.869038 -674.076928 
L 339.854612 -666.649903 
L 339.841123 -659.222877 
L 339.828811 -651.795852 
L 339.817913 -644.368826 
L 339.808659 -636.9418 
L 339.801272 -629.514775 
L 339.795968 -622.087749 
L 339.792953 -614.660724 
L 339.792422 -607.233698 
L 339.794561 -599.806672 
L 339.799546 -592.379647 
L 339.807541 -584.952621 
L 339.818699 -577.525596 
L 339.833165 -570.09857 
L 339.85107 -562.671544 
L 339.872539 -555.244519 
L 339.897685 -547.817493 
L 339.926618 -540.390468 
L 339.959436 -532.963442 
L 339.996234 -525.536416 
L 340.037101 -518.109391 
L 340.082124 -510.682365 
L 340.131386 -503.25534 
L 340.18497 -495.828314 
L 340.242958 -488.401288 
L 340.305431 -480.974263 
L 340.372474 -473.547237 
L 340.444172 -466.120212 
L 340.520612 -458.693186 
L 340.601884 -451.26616 
L 340.688079 -443.839135 
L 340.77929 -436.412109 
L 340.875611 -428.985084 
L 340.977133 -421.558058 
L 341.083949 -414.131033 
L 341.196143 -406.704007 
L 341.313797 -399.276981 
L 341.436982 -391.849956 
L 341.565757 -384.42293 
L 341.700168 -376.995905 
L 341.840242 -369.568879 
L 341.985985 -362.141853 
L 342.137375 -354.714828 
L 342.294363 -347.287802 
L 342.456868 -339.860777 
L 342.62477 -332.433751 
L 342.797908 -325.006725 
L 342.976079 -317.5797 
L 343.159031 -310.152674 
L 343.346463 -302.725649 
L 343.538019 -295.298623 
L 343.733292 -287.871597 
L 343.931815 -280.444572 
L 344.133066 -273.017546 
L 344.336466 -265.590521 
L 344.54138 -258.163495 
L 344.747117 -250.736469 
L 344.952933 -243.309444 
L 345.158036 -235.882418 
L 345.361589 -228.455393 
L 345.56271 -221.028367 
L 345.760487 -213.601341 
L 345.953974 -206.174316 
L 346.142206 -198.74729 
L 346.324202 -191.320265 
L 346.498976 -183.893239 
L 346.665542 -176.466213 
L 346.822928 -169.039188 
L 346.970179 -161.612162 
L 347.106371 -154.185137 
L 347.230621 -146.758111 
L 347.342092 -139.331085 
L 347.440003 -131.90406 
L 347.52364 -124.477034 
L 347.592363 -117.050009 
L 347.645612 -109.622983 
L 347.682913 -102.195957 
L 347.703886 -94.768932 
L 347.70825 -87.341906 
L 347.695823 -79.914881 
L 347.666529 -72.487855 
L 347.620397 -65.060829 
z
" style="stroke: #797979; stroke-opacity: 0.5; stroke-width: 1.25"/>
    </defs>
    <g clip-path="url(#p192b672ad2)">
     <use xlink:href="#m31529b2b0c" x="0" y="864" style="fill: #ecbca7; fill-opacity: 0.5; stroke: #797979; stroke-opacity: 0.5; stroke-width: 1.25"/>
    </g>
   </g>
   <g id="matplotlib.axis_1">
    <g id="xtick_1">
     <g id="line2d_1">
      <defs>
       <path id="m0d3244b560" d="M 0 0 
L 0 3.5 
" style="stroke: #000000; stroke-width: 0.8"/>
      </defs>
      <g>
       <use xlink:href="#m0d3244b560" x="159.4275" y="836.12" style="stroke: #000000; stroke-width: 0.8"/>
      </g>
     </g>
     <g id="text_1">
      <!-- Negative -->
      <g transform="translate(136.986875 850.718437) scale(0.1 -0.1)">
       <defs>
        <path id="DejaVuSans-4e" d="M 628 4666 
L 1478 4666 
L 3547 763 
L 3547 4666 
L 4159 4666 
L 4159 0 
L 3309 0 
L 1241 3903 
L 1241 0 
L 628 0 
L 628 4666 
z
" transform="scale(0.015625)"/>
        <path id="DejaVuSans-65" d="M 3597 1894 
L 3597 1613 
L 953 1613 
Q 991 1019 1311 708 
Q 1631 397 2203 397 
Q 2534 397 2845 478 
Q 3156 559 3463 722 
L 3463 178 
Q 3153 47 2828 -22 
Q 2503 -91 2169 -91 
Q 1331 -91 842 396 
Q 353 884 353 1716 
Q 353 2575 817 3079 
Q 1281 3584 2069 3584 
Q 2775 3584 3186 3129 
Q 3597 2675 3597 1894 
z
M 3022 2063 
Q 3016 2534 2758 2815 
Q 2500 3097 2075 3097 
Q 1594 3097 1305 2825 
Q 1016 2553 972 2059 
L 3022 2063 
z
" transform="scale(0.015625)"/>
        <path id="DejaVuSans-67" d="M 2906 1791 
Q 2906 2416 2648 2759 
Q 2391 3103 1925 3103 
Q 1463 3103 1205 2759 
Q 947 2416 947 1791 
Q 947 1169 1205 825 
Q 1463 481 1925 481 
Q 2391 481 2648 825 
Q 2906 1169 2906 1791 
z
M 3481 434 
Q 3481 -459 3084 -895 
Q 2688 -1331 1869 -1331 
Q 1566 -1331 1297 -1286 
Q 1028 -1241 775 -1147 
L 775 -588 
Q 1028 -725 1275 -790 
Q 1522 -856 1778 -856 
Q 2344 -856 2625 -561 
Q 2906 -266 2906 331 
L 2906 616 
Q 2728 306 2450 153 
Q 2172 0 1784 0 
Q 1141 0 747 490 
Q 353 981 353 1791 
Q 353 2603 747 3093 
Q 1141 3584 1784 3584 
Q 2172 3584 2450 3431 
Q 2728 3278 2906 2969 
L 2906 3500 
L 3481 3500 
L 3481 434 
z
" transform="scale(0.015625)"/>
        <path id="DejaVuSans-61" d="M 2194 1759 
Q 1497 1759 1228 1600 
Q 959 1441 959 1056 
Q 959 750 1161 570 
Q 1363 391 1709 391 
Q 2188 391 2477 730 
Q 2766 1069 2766 1631 
L 2766 1759 
L 2194 1759 
z
M 3341 1997 
L 3341 0 
L 2766 0 
L 2766 531 
Q 2569 213 2275 61 
Q 1981 -91 1556 -91 
Q 1019 -91 701 211 
Q 384 513 384 1019 
Q 384 1609 779 1909 
Q 1175 2209 1959 2209 
L 2766 2209 
L 2766 2266 
Q 2766 2663 2505 2880 
Q 2244 3097 1772 3097 
Q 1472 3097 1187 3025 
Q 903 2953 641 2809 
L 641 3341 
Q 956 3463 1253 3523 
Q 1550 3584 1831 3584 
Q 2591 3584 2966 3190 
Q 3341 2797 3341 1997 
z
" transform="scale(0.015625)"/>
        <path id="DejaVuSans-74" d="M 1172 4494 
L 1172 3500 
L 2356 3500 
L 2356 3053 
L 1172 3053 
L 1172 1153 
Q 1172 725 1289 603 
Q 1406 481 1766 481 
L 2356 481 
L 2356 0 
L 1766 0 
Q 1100 0 847 248 
Q 594 497 594 1153 
L 594 3053 
L 172 3053 
L 172 3500 
L 594 3500 
L 594 4494 
L 1172 4494 
z
" transform="scale(0.015625)"/>
        <path id="DejaVuSans-69" d="M 603 3500 
L 1178 3500 
L 1178 0 
L 603 0 
L 603 3500 
z
M 603 4863 
L 1178 4863 
L 1178 4134 
L 603 4134 
L 603 4863 
z
" transform="scale(0.015625)"/>
        <path id="DejaVuSans-76" d="M 191 3500 
L 800 3500 
L 1894 563 
L 2988 3500 
L 3597 3500 
L 2284 0 
L 1503 0 
L 191 3500 
z
" transform="scale(0.015625)"/>
       </defs>
       <use xlink:href="#DejaVuSans-4e"/>
       <use xlink:href="#DejaVuSans-65" x="74.804688"/>
       <use xlink:href="#DejaVuSans-67" x="136.328125"/>
       <use xlink:href="#DejaVuSans-61" x="199.804688"/>
       <use xlink:href="#DejaVuSans-74" x="261.083984"/>
       <use xlink:href="#DejaVuSans-69" x="300.292969"/>
       <use xlink:href="#DejaVuSans-76" x="328.076172"/>
       <use xlink:href="#DejaVuSans-65" x="387.255859"/>
      </g>
     </g>
    </g>
    <g id="xtick_2">
     <g id="line2d_2">
      <g>
       <use xlink:href="#m0d3244b560" x="338.7425" y="836.12" style="stroke: #000000; stroke-width: 0.8"/>
      </g>
     </g>
     <g id="text_2">
      <!-- Positive -->
      <g transform="translate(319.470625 850.718437) scale(0.1 -0.1)">
       <defs>
        <path id="DejaVuSans-50" d="M 1259 4147 
L 1259 2394 
L 2053 2394 
Q 2494 2394 2734 2622 
Q 2975 2850 2975 3272 
Q 2975 3691 2734 3919 
Q 2494 4147 2053 4147 
L 1259 4147 
z
M 628 4666 
L 2053 4666 
Q 2838 4666 3239 4311 
Q 3641 3956 3641 3272 
Q 3641 2581 3239 2228 
Q 2838 1875 2053 1875 
L 1259 1875 
L 1259 0 
L 628 0 
L 628 4666 
z
" transform="scale(0.015625)"/>
        <path id="DejaVuSans-6f" d="M 1959 3097 
Q 1497 3097 1228 2736 
Q 959 2375 959 1747 
Q 959 1119 1226 758 
Q 1494 397 1959 397 
Q 2419 397 2687 759 
Q 2956 1122 2956 1747 
Q 2956 2369 2687 2733 
Q 2419 3097 1959 3097 
z
M 1959 3584 
Q 2709 3584 3137 3096 
Q 3566 2609 3566 1747 
Q 3566 888 3137 398 
Q 2709 -91 1959 -91 
Q 1206 -91 779 398 
Q 353 888 353 1747 
Q 353 2609 779 3096 
Q 1206 3584 1959 3584 
z
" transform="scale(0.015625)"/>
        <path id="DejaVuSans-73" d="M 2834 3397 
L 2834 2853 
Q 2591 2978 2328 3040 
Q 2066 3103 1784 3103 
Q 1356 3103 1142 2972 
Q 928 2841 928 2578 
Q 928 2378 1081 2264 
Q 1234 2150 1697 2047 
L 1894 2003 
Q 2506 1872 2764 1633 
Q 3022 1394 3022 966 
Q 3022 478 2636 193 
Q 2250 -91 1575 -91 
Q 1294 -91 989 -36 
Q 684 19 347 128 
L 347 722 
Q 666 556 975 473 
Q 1284 391 1588 391 
Q 1994 391 2212 530 
Q 2431 669 2431 922 
Q 2431 1156 2273 1281 
Q 2116 1406 1581 1522 
L 1381 1569 
Q 847 1681 609 1914 
Q 372 2147 372 2553 
Q 372 3047 722 3315 
Q 1072 3584 1716 3584 
Q 2034 3584 2315 3537 
Q 2597 3491 2834 3397 
z
" transform="scale(0.015625)"/>
       </defs>
       <use xlink:href="#DejaVuSans-50"/>
       <use xlink:href="#DejaVuSans-6f" x="56.677734"/>
       <use xlink:href="#DejaVuSans-73" x="117.859375"/>
       <use xlink:href="#DejaVuSans-69" x="169.958984"/>
       <use xlink:href="#DejaVuSans-74" x="197.742188"/>
       <use xlink:href="#DejaVuSans-69" x="236.951172"/>
       <use xlink:href="#DejaVuSans-76" x="264.734375"/>
       <use xlink:href="#DejaVuSans-65" x="323.914062"/>
      </g>
     </g>
    </g>
   </g>
   <g id="matplotlib.axis_2">
    <g id="ytick_1">
     <g id="line2d_3">
      <defs>
       <path id="m3bd260e750" d="M 0 0 
L -3.5 0 
" style="stroke: #000000; stroke-width: 0.8"/>
      </defs>
      <g>
       <use xlink:href="#m3bd260e750" x="69.77" y="799.488653" style="stroke: #000000; stroke-width: 0.8"/>
      </g>
     </g>
     <g id="text_3">
      <!-- 0 -->
      <g transform="translate(56.4075 803.287872) scale(0.1 -0.1)">
       <defs>
        <path id="DejaVuSans-30" d="M 2034 4250 
Q 1547 4250 1301 3770 
Q 1056 3291 1056 2328 
Q 1056 1369 1301 889 
Q 1547 409 2034 409 
Q 2525 409 2770 889 
Q 3016 1369 3016 2328 
Q 3016 3291 2770 3770 
Q 2525 4250 2034 4250 
z
M 2034 4750 
Q 2819 4750 3233 4129 
Q 3647 3509 3647 2328 
Q 3647 1150 3233 529 
Q 2819 -91 2034 -91 
Q 1250 -91 836 529 
Q 422 1150 422 2328 
Q 422 3509 836 4129 
Q 1250 4750 2034 4750 
z
" transform="scale(0.015625)"/>
       </defs>
       <use xlink:href="#DejaVuSans-30"/>
      </g>
     </g>
    </g>
    <g id="ytick_2">
     <g id="line2d_4">
      <g>
       <use xlink:href="#m3bd260e750" x="69.77" y="692.526845" style="stroke: #000000; stroke-width: 0.8"/>
      </g>
     </g>
     <g id="text_4">
      <!-- 20000 -->
      <g transform="translate(30.9575 696.326063) scale(0.1 -0.1)">
       <defs>
        <path id="DejaVuSans-32" d="M 1228 531 
L 3431 531 
L 3431 0 
L 469 0 
L 469 531 
Q 828 903 1448 1529 
Q 2069 2156 2228 2338 
Q 2531 2678 2651 2914 
Q 2772 3150 2772 3378 
Q 2772 3750 2511 3984 
Q 2250 4219 1831 4219 
Q 1534 4219 1204 4116 
Q 875 4013 500 3803 
L 500 4441 
Q 881 4594 1212 4672 
Q 1544 4750 1819 4750 
Q 2544 4750 2975 4387 
Q 3406 4025 3406 3419 
Q 3406 3131 3298 2873 
Q 3191 2616 2906 2266 
Q 2828 2175 2409 1742 
Q 1991 1309 1228 531 
z
" transform="scale(0.015625)"/>
       </defs>
       <use xlink:href="#DejaVuSans-32"/>
       <use xlink:href="#DejaVuSans-30" x="63.623047"/>
       <use xlink:href="#DejaVuSans-30" x="127.246094"/>
       <use xlink:href="#DejaVuSans-30" x="190.869141"/>
       <use xlink:href="#DejaVuSans-30" x="254.492188"/>
      </g>
     </g>
    </g>
    <g id="ytick_3">
     <g id="line2d_5">
      <g>
       <use xlink:href="#m3bd260e750" x="69.77" y="585.565036" style="stroke: #000000; stroke-width: 0.8"/>
      </g>
     </g>
     <g id="text_5">
      <!-- 40000 -->
      <g transform="translate(30.9575 589.364255) scale(0.1 -0.1)">
       <defs>
        <path id="DejaVuSans-34" d="M 2419 4116 
L 825 1625 
L 2419 1625 
L 2419 4116 
z
M 2253 4666 
L 3047 4666 
L 3047 1625 
L 3713 1625 
L 3713 1100 
L 3047 1100 
L 3047 0 
L 2419 0 
L 2419 1100 
L 313 1100 
L 313 1709 
L 2253 4666 
z
" transform="scale(0.015625)"/>
       </defs>
       <use xlink:href="#DejaVuSans-34"/>
       <use xlink:href="#DejaVuSans-30" x="63.623047"/>
       <use xlink:href="#DejaVuSans-30" x="127.246094"/>
       <use xlink:href="#DejaVuSans-30" x="190.869141"/>
       <use xlink:href="#DejaVuSans-30" x="254.492188"/>
      </g>
     </g>
    </g>
    <g id="ytick_4">
     <g id="line2d_6">
      <g>
       <use xlink:href="#m3bd260e750" x="69.77" y="478.603228" style="stroke: #000000; stroke-width: 0.8"/>
      </g>
     </g>
     <g id="text_6">
      <!-- 60000 -->
      <g transform="translate(30.9575 482.402447) scale(0.1 -0.1)">
       <defs>
        <path id="DejaVuSans-36" d="M 2113 2584 
Q 1688 2584 1439 2293 
Q 1191 2003 1191 1497 
Q 1191 994 1439 701 
Q 1688 409 2113 409 
Q 2538 409 2786 701 
Q 3034 994 3034 1497 
Q 3034 2003 2786 2293 
Q 2538 2584 2113 2584 
z
M 3366 4563 
L 3366 3988 
Q 3128 4100 2886 4159 
Q 2644 4219 2406 4219 
Q 1781 4219 1451 3797 
Q 1122 3375 1075 2522 
Q 1259 2794 1537 2939 
Q 1816 3084 2150 3084 
Q 2853 3084 3261 2657 
Q 3669 2231 3669 1497 
Q 3669 778 3244 343 
Q 2819 -91 2113 -91 
Q 1303 -91 875 529 
Q 447 1150 447 2328 
Q 447 3434 972 4092 
Q 1497 4750 2381 4750 
Q 2619 4750 2861 4703 
Q 3103 4656 3366 4563 
z
" transform="scale(0.015625)"/>
       </defs>
       <use xlink:href="#DejaVuSans-36"/>
       <use xlink:href="#DejaVuSans-30" x="63.623047"/>
       <use xlink:href="#DejaVuSans-30" x="127.246094"/>
       <use xlink:href="#DejaVuSans-30" x="190.869141"/>
       <use xlink:href="#DejaVuSans-30" x="254.492188"/>
      </g>
     </g>
    </g>
    <g id="ytick_5">
     <g id="line2d_7">
      <g>
       <use xlink:href="#m3bd260e750" x="69.77" y="371.64142" style="stroke: #000000; stroke-width: 0.8"/>
      </g>
     </g>
     <g id="text_7">
      <!-- 80000 -->
      <g transform="translate(30.9575 375.440639) scale(0.1 -0.1)">
       <defs>
        <path id="DejaVuSans-38" d="M 2034 2216 
Q 1584 2216 1326 1975 
Q 1069 1734 1069 1313 
Q 1069 891 1326 650 
Q 1584 409 2034 409 
Q 2484 409 2743 651 
Q 3003 894 3003 1313 
Q 3003 1734 2745 1975 
Q 2488 2216 2034 2216 
z
M 1403 2484 
Q 997 2584 770 2862 
Q 544 3141 544 3541 
Q 544 4100 942 4425 
Q 1341 4750 2034 4750 
Q 2731 4750 3128 4425 
Q 3525 4100 3525 3541 
Q 3525 3141 3298 2862 
Q 3072 2584 2669 2484 
Q 3125 2378 3379 2068 
Q 3634 1759 3634 1313 
Q 3634 634 3220 271 
Q 2806 -91 2034 -91 
Q 1263 -91 848 271 
Q 434 634 434 1313 
Q 434 1759 690 2068 
Q 947 2378 1403 2484 
z
M 1172 3481 
Q 1172 3119 1398 2916 
Q 1625 2713 2034 2713 
Q 2441 2713 2670 2916 
Q 2900 3119 2900 3481 
Q 2900 3844 2670 4047 
Q 2441 4250 2034 4250 
Q 1625 4250 1398 4047 
Q 1172 3844 1172 3481 
z
" transform="scale(0.015625)"/>
       </defs>
       <use xlink:href="#DejaVuSans-38"/>
       <use xlink:href="#DejaVuSans-30" x="63.623047"/>
       <use xlink:href="#DejaVuSans-30" x="127.246094"/>
       <use xlink:href="#DejaVuSans-30" x="190.869141"/>
       <use xlink:href="#DejaVuSans-30" x="254.492188"/>
      </g>
     </g>
    </g>
    <g id="ytick_6">
     <g id="line2d_8">
      <g>
       <use xlink:href="#m3bd260e750" x="69.77" y="264.679612" style="stroke: #000000; stroke-width: 0.8"/>
      </g>
     </g>
     <g id="text_8">
      <!-- 100000 -->
      <g transform="translate(24.595 268.47883) scale(0.1 -0.1)">
       <defs>
        <path id="DejaVuSans-31" d="M 794 531 
L 1825 531 
L 1825 4091 
L 703 3866 
L 703 4441 
L 1819 4666 
L 2450 4666 
L 2450 531 
L 3481 531 
L 3481 0 
L 794 0 
L 794 531 
z
" transform="scale(0.015625)"/>
       </defs>
       <use xlink:href="#DejaVuSans-31"/>
       <use xlink:href="#DejaVuSans-30" x="63.623047"/>
       <use xlink:href="#DejaVuSans-30" x="127.246094"/>
       <use xlink:href="#DejaVuSans-30" x="190.869141"/>
       <use xlink:href="#DejaVuSans-30" x="254.492188"/>
       <use xlink:href="#DejaVuSans-30" x="318.115234"/>
      </g>
     </g>
    </g>
    <g id="ytick_7">
     <g id="line2d_9">
      <g>
       <use xlink:href="#m3bd260e750" x="69.77" y="157.717803" style="stroke: #000000; stroke-width: 0.8"/>
      </g>
     </g>
     <g id="text_9">
      <!-- 120000 -->
      <g transform="translate(24.595 161.517022) scale(0.1 -0.1)">
       <use xlink:href="#DejaVuSans-31"/>
       <use xlink:href="#DejaVuSans-32" x="63.623047"/>
       <use xlink:href="#DejaVuSans-30" x="127.246094"/>
       <use xlink:href="#DejaVuSans-30" x="190.869141"/>
       <use xlink:href="#DejaVuSans-30" x="254.492188"/>
       <use xlink:href="#DejaVuSans-30" x="318.115234"/>
      </g>
     </g>
    </g>
    <g id="ytick_8">
     <g id="line2d_10">
      <g>
       <use xlink:href="#m3bd260e750" x="69.77" y="50.755995" style="stroke: #000000; stroke-width: 0.8"/>
      </g>
     </g>
     <g id="text_10">
      <!-- 140000 -->
      <g transform="translate(24.595 54.555214) scale(0.1 -0.1)">
       <use xlink:href="#DejaVuSans-31"/>
       <use xlink:href="#DejaVuSans-34" x="63.623047"/>
       <use xlink:href="#DejaVuSans-30" x="127.246094"/>
       <use xlink:href="#DejaVuSans-30" x="190.869141"/>
       <use xlink:href="#DejaVuSans-30" x="254.492188"/>
       <use xlink:href="#DejaVuSans-30" x="318.115234"/>
      </g>
     </g>
    </g>
    <g id="text_11">
     <!-- normalised DNA abundance -->
     <g transform="translate(18.515312 501.261719) rotate(-90) scale(0.1 -0.1)">
      <defs>
       <path id="DejaVuSans-6e" d="M 3513 2113 
L 3513 0 
L 2938 0 
L 2938 2094 
Q 2938 2591 2744 2837 
Q 2550 3084 2163 3084 
Q 1697 3084 1428 2787 
Q 1159 2491 1159 1978 
L 1159 0 
L 581 0 
L 581 3500 
L 1159 3500 
L 1159 2956 
Q 1366 3272 1645 3428 
Q 1925 3584 2291 3584 
Q 2894 3584 3203 3211 
Q 3513 2838 3513 2113 
z
" transform="scale(0.015625)"/>
       <path id="DejaVuSans-72" d="M 2631 2963 
Q 2534 3019 2420 3045 
Q 2306 3072 2169 3072 
Q 1681 3072 1420 2755 
Q 1159 2438 1159 1844 
L 1159 0 
L 581 0 
L 581 3500 
L 1159 3500 
L 1159 2956 
Q 1341 3275 1631 3429 
Q 1922 3584 2338 3584 
Q 2397 3584 2469 3576 
Q 2541 3569 2628 3553 
L 2631 2963 
z
" transform="scale(0.015625)"/>
       <path id="DejaVuSans-6d" d="M 3328 2828 
Q 3544 3216 3844 3400 
Q 4144 3584 4550 3584 
Q 5097 3584 5394 3201 
Q 5691 2819 5691 2113 
L 5691 0 
L 5113 0 
L 5113 2094 
Q 5113 2597 4934 2840 
Q 4756 3084 4391 3084 
Q 3944 3084 3684 2787 
Q 3425 2491 3425 1978 
L 3425 0 
L 2847 0 
L 2847 2094 
Q 2847 2600 2669 2842 
Q 2491 3084 2119 3084 
Q 1678 3084 1418 2786 
Q 1159 2488 1159 1978 
L 1159 0 
L 581 0 
L 581 3500 
L 1159 3500 
L 1159 2956 
Q 1356 3278 1631 3431 
Q 1906 3584 2284 3584 
Q 2666 3584 2933 3390 
Q 3200 3197 3328 2828 
z
" transform="scale(0.015625)"/>
       <path id="DejaVuSans-6c" d="M 603 4863 
L 1178 4863 
L 1178 0 
L 603 0 
L 603 4863 
z
" transform="scale(0.015625)"/>
       <path id="DejaVuSans-64" d="M 2906 2969 
L 2906 4863 
L 3481 4863 
L 3481 0 
L 2906 0 
L 2906 525 
Q 2725 213 2448 61 
Q 2172 -91 1784 -91 
Q 1150 -91 751 415 
Q 353 922 353 1747 
Q 353 2572 751 3078 
Q 1150 3584 1784 3584 
Q 2172 3584 2448 3432 
Q 2725 3281 2906 2969 
z
M 947 1747 
Q 947 1113 1208 752 
Q 1469 391 1925 391 
Q 2381 391 2643 752 
Q 2906 1113 2906 1747 
Q 2906 2381 2643 2742 
Q 2381 3103 1925 3103 
Q 1469 3103 1208 2742 
Q 947 2381 947 1747 
z
" transform="scale(0.015625)"/>
       <path id="DejaVuSans-20" transform="scale(0.015625)"/>
       <path id="DejaVuSans-44" d="M 1259 4147 
L 1259 519 
L 2022 519 
Q 2988 519 3436 956 
Q 3884 1394 3884 2338 
Q 3884 3275 3436 3711 
Q 2988 4147 2022 4147 
L 1259 4147 
z
M 628 4666 
L 1925 4666 
Q 3281 4666 3915 4102 
Q 4550 3538 4550 2338 
Q 4550 1131 3912 565 
Q 3275 0 1925 0 
L 628 0 
L 628 4666 
z
" transform="scale(0.015625)"/>
       <path id="DejaVuSans-41" d="M 2188 4044 
L 1331 1722 
L 3047 1722 
L 2188 4044 
z
M 1831 4666 
L 2547 4666 
L 4325 0 
L 3669 0 
L 3244 1197 
L 1141 1197 
L 716 0 
L 50 0 
L 1831 4666 
z
" transform="scale(0.015625)"/>
       <path id="DejaVuSans-62" d="M 3116 1747 
Q 3116 2381 2855 2742 
Q 2594 3103 2138 3103 
Q 1681 3103 1420 2742 
Q 1159 2381 1159 1747 
Q 1159 1113 1420 752 
Q 1681 391 2138 391 
Q 2594 391 2855 752 
Q 3116 1113 3116 1747 
z
M 1159 2969 
Q 1341 3281 1617 3432 
Q 1894 3584 2278 3584 
Q 2916 3584 3314 3078 
Q 3713 2572 3713 1747 
Q 3713 922 3314 415 
Q 2916 -91 2278 -91 
Q 1894 -91 1617 61 
Q 1341 213 1159 525 
L 1159 0 
L 581 0 
L 581 4863 
L 1159 4863 
L 1159 2969 
z
" transform="scale(0.015625)"/>
       <path id="DejaVuSans-75" d="M 544 1381 
L 544 3500 
L 1119 3500 
L 1119 1403 
Q 1119 906 1312 657 
Q 1506 409 1894 409 
Q 2359 409 2629 706 
Q 2900 1003 2900 1516 
L 2900 3500 
L 3475 3500 
L 3475 0 
L 2900 0 
L 2900 538 
Q 2691 219 2414 64 
Q 2138 -91 1772 -91 
Q 1169 -91 856 284 
Q 544 659 544 1381 
z
M 1991 3584 
L 1991 3584 
z
" transform="scale(0.015625)"/>
       <path id="DejaVuSans-63" d="M 3122 3366 
L 3122 2828 
Q 2878 2963 2633 3030 
Q 2388 3097 2138 3097 
Q 1578 3097 1268 2742 
Q 959 2388 959 1747 
Q 959 1106 1268 751 
Q 1578 397 2138 397 
Q 2388 397 2633 464 
Q 2878 531 3122 666 
L 3122 134 
Q 2881 22 2623 -34 
Q 2366 -91 2075 -91 
Q 1284 -91 818 406 
Q 353 903 353 1747 
Q 353 2603 823 3093 
Q 1294 3584 2113 3584 
Q 2378 3584 2631 3529 
Q 2884 3475 3122 3366 
z
" transform="scale(0.015625)"/>
      </defs>
      <use xlink:href="#DejaVuSans-6e"/>
      <use xlink:href="#DejaVuSans-6f" x="63.378906"/>
      <use xlink:href="#DejaVuSans-72" x="124.560547"/>
      <use xlink:href="#DejaVuSans-6d" x="163.923828"/>
      <use xlink:href="#DejaVuSans-61" x="261.335938"/>
      <use xlink:href="#DejaVuSans-6c" x="322.615234"/>
      <use xlink:href="#DejaVuSans-69" x="350.398438"/>
      <use xlink:href="#DejaVuSans-73" x="378.181641"/>
      <use xlink:href="#DejaVuSans-65" x="430.28125"/>
      <use xlink:href="#DejaVuSans-64" x="491.804688"/>
      <use xlink:href="#DejaVuSans-20" x="555.28125"/>
      <use xlink:href="#DejaVuSans-44" x="587.068359"/>
      <use xlink:href="#DejaVuSans-4e" x="664.070312"/>
      <use xlink:href="#DejaVuSans-41" x="738.875"/>
      <use xlink:href="#DejaVuSans-20" x="807.283203"/>
      <use xlink:href="#DejaVuSans-61" x="839.070312"/>
      <use xlink:href="#DejaVuSans-62" x="900.349609"/>
      <use xlink:href="#DejaVuSans-75" x="963.826172"/>
      <use xlink:href="#DejaVuSans-6e" x="1027.205078"/>
      <use xlink:href="#DejaVuSans-64" x="1090.583984"/>
      <use xlink:href="#DejaVuSans-61" x="1154.060547"/>
      <use xlink:href="#DejaVuSans-6e" x="1215.339844"/>
      <use xlink:href="#DejaVuSans-63" x="1278.71875"/>
      <use xlink:href="#DejaVuSans-65" x="1333.699219"/>
     </g>
    </g>
   </g>
   <g id="patch_3">
    <path d="M 69.77 836.12 
L 69.77 26.88 
" style="fill: none; stroke: #000000; stroke-width: 0.8; stroke-linejoin: miter; stroke-linecap: square"/>
   </g>
   <g id="patch_4">
    <path d="M 428.4 836.12 
L 428.4 26.88 
" style="fill: none; stroke: #000000; stroke-width: 0.8; stroke-linejoin: miter; stroke-linecap: square"/>
   </g>
   <g id="patch_5">
    <path d="M 69.77 836.12 
L 428.4 836.12 
" style="fill: none; stroke: #000000; stroke-width: 0.8; stroke-linejoin: miter; stroke-linecap: square"/>
   </g>
   <g id="patch_6">
    <path d="M 69.77 26.88 
L 428.4 26.88 
" style="fill: none; stroke: #000000; stroke-width: 0.8; stroke-linejoin: miter; stroke-linecap: square"/>
   </g>
   <g id="PathCollection_1">
    <defs>
     <path id="mf8d7b9bae9" d="M 0 2.5 
C 0.663008 2.5 1.29895 2.236584 1.767767 1.767767 
C 2.236584 1.29895 2.5 0.663008 2.5 0 
C 2.5 -0.663008 2.236584 -1.29895 1.767767 -1.767767 
C 1.29895 -2.236584 0.663008 -2.5 0 -2.5 
C -0.663008 -2.5 -1.29895 -2.236584 -1.767767 -1.767767 
C -2.236584 -1.29895 -2.5 -0.663008 -2.5 0 
C -2.5 0.663008 -2.236584 1.29895 -1.767767 1.767767 
C -1.29895 2.236584 -0.663008 2.5 0 2.5 
z
"/>
    </defs>
    <g clip-path="url(#p192b672ad2)">
     <use xlink:href="#mf8d7b9bae9" x="167.793281" y="797.059568" style="fill-opacity: 0.5"/>
     <use xlink:href="#mf8d7b9bae9" x="168.698151" y="797.594538" style="fill-opacity: 0.5"/>
     <use xlink:href="#mf8d7b9bae9" x="143.990404" y="798.666073" style="fill-opacity: 0.5"/>
     <use xlink:href="#mf8d7b9bae9" x="165.689962" y="798.774385" style="fill-opacity: 0.5"/>
     <use xlink:href="#mf8d7b9bae9" x="148.814174" y="797.037294" style="fill-opacity: 0.5"/>
     <use xlink:href="#mf8d7b9bae9" x="152.222049" y="795.787227" style="fill-opacity: 0.5"/>
     <use xlink:href="#mf8d7b9bae9" x="172.797908" y="798.63348" style="fill-opacity: 0.5"/>
     <use xlink:href="#mf8d7b9bae9" x="170.055163" y="797.578544" style="fill-opacity: 0.5"/>
     <use xlink:href="#mf8d7b9bae9" x="158.7004" y="798.504748" style="fill-opacity: 0.5"/>
     <use xlink:href="#mf8d7b9bae9" x="146.107153" y="798.696099" style="fill-opacity: 0.5"/>
     <use xlink:href="#mf8d7b9bae9" x="172.207215" y="798.971747" style="fill-opacity: 0.5"/>
     <use xlink:href="#mf8d7b9bae9" x="148.118734" y="798.631797" style="fill-opacity: 0.5"/>
     <use xlink:href="#mf8d7b9bae9" x="142.968064" y="798.425839" style="fill-opacity: 0.5"/>
     <use xlink:href="#mf8d7b9bae9" x="148.852452" y="798.520437" style="fill-opacity: 0.5"/>
     <use xlink:href="#mf8d7b9bae9" x="176.0083" y="795.453428" style="fill-opacity: 0.5"/>
     <use xlink:href="#mf8d7b9bae9" x="170.158346" y="798.723604" style="fill-opacity: 0.5"/>
     <use xlink:href="#mf8d7b9bae9" x="144.303664" y="798.660662" style="fill-opacity: 0.5"/>
     <use xlink:href="#mf8d7b9bae9" x="160.499095" y="798.635215" style="fill-opacity: 0.5"/>
     <use xlink:href="#mf8d7b9bae9" x="172.998974" y="798.154332" style="fill-opacity: 0.5"/>
     <use xlink:href="#mf8d7b9bae9" x="157.463225" y="798.798073" style="fill-opacity: 0.5"/>
     <use xlink:href="#mf8d7b9bae9" x="148.413871" y="798.648778" style="fill-opacity: 0.5"/>
     <use xlink:href="#mf8d7b9bae9" x="145.123359" y="796.543878" style="fill-opacity: 0.5"/>
     <use xlink:href="#mf8d7b9bae9" x="141.782624" y="794.29785" style="fill-opacity: 0.5"/>
     <use xlink:href="#mf8d7b9bae9" x="166.352461" y="798.42545" style="fill-opacity: 0.5"/>
     <use xlink:href="#mf8d7b9bae9" x="146.391352" y="783.827385" style="fill-opacity: 0.5"/>
     <use xlink:href="#mf8d7b9bae9" x="165.629614" y="797.022365" style="fill-opacity: 0.5"/>
     <use xlink:href="#mf8d7b9bae9" x="149.080833" y="795.889215" style="fill-opacity: 0.5"/>
     <use xlink:href="#mf8d7b9bae9" x="145.975966" y="791.719269" style="fill-opacity: 0.5"/>
     <use xlink:href="#mf8d7b9bae9" x="145.596039" y="797.71668" style="fill-opacity: 0.5"/>
     <use xlink:href="#mf8d7b9bae9" x="170.107089" y="798.092069" style="fill-opacity: 0.5"/>
     <use xlink:href="#mf8d7b9bae9" x="160.679621" y="797.226469" style="fill-opacity: 0.5"/>
     <use xlink:href="#mf8d7b9bae9" x="171.071155" y="798.15073" style="fill-opacity: 0.5"/>
     <use xlink:href="#mf8d7b9bae9" x="165.744177" y="796.495207" style="fill-opacity: 0.5"/>
     <use xlink:href="#mf8d7b9bae9" x="158.084234" y="761.149471" style="fill-opacity: 0.5"/>
     <use xlink:href="#mf8d7b9bae9" x="170.968769" y="798.284421" style="fill-opacity: 0.5"/>
     <use xlink:href="#mf8d7b9bae9" x="150.305331" y="798.219201" style="fill-opacity: 0.5"/>
     <use xlink:href="#mf8d7b9bae9" x="167.014323" y="798.787923" style="fill-opacity: 0.5"/>
     <use xlink:href="#mf8d7b9bae9" x="142.23009" y="798.256392" style="fill-opacity: 0.5"/>
     <use xlink:href="#mf8d7b9bae9" x="145.205649" y="799.123447" style="fill-opacity: 0.5"/>
     <use xlink:href="#mf8d7b9bae9" x="168.696444" y="799.23578" style="fill-opacity: 0.5"/>
     <use xlink:href="#mf8d7b9bae9" x="156.454664" y="798.444393" style="fill-opacity: 0.5"/>
     <use xlink:href="#mf8d7b9bae9" x="175.922197" y="798.451175" style="fill-opacity: 0.5"/>
     <use xlink:href="#mf8d7b9bae9" x="163.234131" y="798.553156" style="fill-opacity: 0.5"/>
     <use xlink:href="#mf8d7b9bae9" x="159.302236" y="798.699674" style="fill-opacity: 0.5"/>
     <use xlink:href="#mf8d7b9bae9" x="171.314383" y="798.43488" style="fill-opacity: 0.5"/>
     <use xlink:href="#mf8d7b9bae9" x="141.779689" y="798.094866" style="fill-opacity: 0.5"/>
     <use xlink:href="#mf8d7b9bae9" x="143.969205" y="796.671113" style="fill-opacity: 0.5"/>
     <use xlink:href="#mf8d7b9bae9" x="151.355812" y="798.62181" style="fill-opacity: 0.5"/>
     <use xlink:href="#mf8d7b9bae9" x="148.401504" y="798.295608" style="fill-opacity: 0.5"/>
     <use xlink:href="#mf8d7b9bae9" x="170.674359" y="798.091124" style="fill-opacity: 0.5"/>
     <use xlink:href="#mf8d7b9bae9" x="176.699007" y="798.673547" style="fill-opacity: 0.5"/>
     <use xlink:href="#mf8d7b9bae9" x="158.778774" y="797.334944" style="fill-opacity: 0.5"/>
     <use xlink:href="#mf8d7b9bae9" x="166.789843" y="797.921837" style="fill-opacity: 0.5"/>
     <use xlink:href="#mf8d7b9bae9" x="175.271719" y="798.375023" style="fill-opacity: 0.5"/>
     <use xlink:href="#mf8d7b9bae9" x="175.068484" y="799.168751" style="fill-opacity: 0.5"/>
     <use xlink:href="#mf8d7b9bae9" x="162.361913" y="799.336364" style="fill-opacity: 0.5"/>
     <use xlink:href="#mf8d7b9bae9" x="151.510391" y="798.78309" style="fill-opacity: 0.5"/>
     <use xlink:href="#mf8d7b9bae9" x="157.704848" y="797.957976" style="fill-opacity: 0.5"/>
     <use xlink:href="#mf8d7b9bae9" x="167.118206" y="798.633489" style="fill-opacity: 0.5"/>
     <use xlink:href="#mf8d7b9bae9" x="148.66123" y="798.889332" style="fill-opacity: 0.5"/>
     <use xlink:href="#mf8d7b9bae9" x="149.66934" y="798.665228" style="fill-opacity: 0.5"/>
     <use xlink:href="#mf8d7b9bae9" x="156.227313" y="797.48075" style="fill-opacity: 0.5"/>
     <use xlink:href="#mf8d7b9bae9" x="146.125189" y="798.30328" style="fill-opacity: 0.5"/>
     <use xlink:href="#mf8d7b9bae9" x="165.613341" y="797.757157" style="fill-opacity: 0.5"/>
     <use xlink:href="#mf8d7b9bae9" x="167.814162" y="798.479146" style="fill-opacity: 0.5"/>
     <use xlink:href="#mf8d7b9bae9" x="163.854175" y="798.395152" style="fill-opacity: 0.5"/>
     <use xlink:href="#mf8d7b9bae9" x="153.01875" y="798.662503" style="fill-opacity: 0.5"/>
     <use xlink:href="#mf8d7b9bae9" x="157.97214" y="798.970244" style="fill-opacity: 0.5"/>
     <use xlink:href="#mf8d7b9bae9" x="148.78223" y="798.379123" style="fill-opacity: 0.5"/>
     <use xlink:href="#mf8d7b9bae9" x="146.172861" y="795.829349" style="fill-opacity: 0.5"/>
     <use xlink:href="#mf8d7b9bae9" x="169.660459" y="795.144216" style="fill-opacity: 0.5"/>
     <use xlink:href="#mf8d7b9bae9" x="144.135707" y="738.075214" style="fill-opacity: 0.5"/>
    </g>
   </g>
   <g id="PathCollection_2">
    <g clip-path="url(#p192b672ad2)">
     <use xlink:href="#mf8d7b9bae9" x="322.39566" y="797.209077" style="fill-opacity: 0.5"/>
     <use xlink:href="#mf8d7b9bae9" x="325.259309" y="63.663636" style="fill-opacity: 0.5"/>
     <use xlink:href="#mf8d7b9bae9" x="323.657245" y="501.696389" style="fill-opacity: 0.5"/>
     <use xlink:href="#mf8d7b9bae9" x="332.743848" y="798.613023" style="fill-opacity: 0.5"/>
     <use xlink:href="#mf8d7b9bae9" x="326.574092" y="791.488129" style="fill-opacity: 0.5"/>
     <use xlink:href="#mf8d7b9bae9" x="347.272652" y="791.364888" style="fill-opacity: 0.5"/>
     <use xlink:href="#mf8d7b9bae9" x="341.425129" y="797.890342" style="fill-opacity: 0.5"/>
     <use xlink:href="#mf8d7b9bae9" x="330.472247" y="707.659661" style="fill-opacity: 0.5"/>
     <use xlink:href="#mf8d7b9bae9" x="338.614075" y="798.939171" style="fill-opacity: 0.5"/>
    </g>
   </g>
   <g id="text_12">
    <!-- A) -->
    <g transform="translate(69.77 20.88) scale(0.12 -0.12)">
     <defs>
      <path id="DejaVuSans-29" d="M 513 4856 
L 1013 4856 
Q 1481 4119 1714 3412 
Q 1947 2706 1947 2009 
Q 1947 1309 1714 600 
Q 1481 -109 1013 -844 
L 513 -844 
Q 928 -128 1133 580 
Q 1338 1288 1338 2009 
Q 1338 2731 1133 3434 
Q 928 4138 513 4856 
z
" transform="scale(0.015625)"/>
     </defs>
     <use xlink:href="#DejaVuSans-41"/>
     <use xlink:href="#DejaVuSans-29" x="68.408203"/>
    </g>
   </g>
  </g>
  <g id="axes_2">
   <g id="patch_7">
    <path d="M 498.17 836.12 
L 856.8 836.12 
L 856.8 26.88 
L 498.17 26.88 
z
" style="fill: #ffffff"/>
   </g>
   <g id="PolyCollection_3">
    <defs>
     <path id="m2cb8c3c3b9" d="M 656.675109 -64.663636 
L 518.979891 -64.663636 
L 516.800303 -65.282436 
L 516.1015 -65.901235 
L 516.924811 -66.520035 
L 519.215247 -67.138834 
L 522.827562 -67.757634 
L 527.541494 -68.376433 
L 533.083942 -68.995233 
L 539.155004 -69.614032 
L 545.454429 -70.232832 
L 551.705315 -70.851631 
L 557.672582 -71.470431 
L 563.174778 -72.08923 
L 568.088881 -72.70803 
L 572.348733 -73.326829 
L 575.938482 -73.945629 
L 578.882762 -74.564428 
L 581.235417 -75.183228 
L 583.068321 -75.802027 
L 584.46149 -76.420827 
L 585.49516 -77.039626 
L 586.244143 -77.658426 
L 586.774344 -78.277225 
L 587.141147 -78.896025 
L 587.389214 -79.514824 
L 587.553259 -80.133624 
L 587.659355 -80.752423 
L 587.726477 -81.371223 
L 587.768022 -81.990022 
L 587.79318 -82.608822 
L 587.808085 -83.227621 
L 587.816719 -83.846421 
L 587.821596 -84.46522 
L 587.824261 -85.08402 
L 587.825627 -85.702819 
L 587.826206 -86.321619 
L 587.826246 -86.940418 
L 587.825822 -87.559218 
L 587.824872 -88.178017 
L 587.823208 -88.796817 
L 587.820512 -89.415616 
L 587.816312 -90.034416 
L 587.809954 -90.653215 
L 587.800577 -91.272015 
L 587.787096 -91.890814 
L 587.768199 -92.509614 
L 587.742381 -93.128413 
L 587.708017 -93.747213 
L 587.663477 -94.366012 
L 587.607298 -94.984812 
L 587.538395 -95.603611 
L 587.456301 -96.222411 
L 587.361403 -96.84121 
L 587.255149 -97.46001 
L 587.140167 -98.078809 
L 587.020285 -98.697609 
L 586.900395 -99.316408 
L 586.786176 -99.935208 
L 586.683671 -100.554007 
L 586.598778 -101.172807 
L 586.536686 -101.791606 
L 586.501354 -102.410406 
L 586.495093 -103.029205 
L 586.518317 -103.648005 
L 586.569498 -104.266804 
L 586.645329 -104.885604 
L 586.74108 -105.504403 
L 586.851083 -106.123203 
L 586.969287 -106.742002 
L 587.089794 -107.360802 
L 587.207325 -107.979601 
L 587.317557 -108.5984 
L 587.417316 -109.2172 
L 587.504607 -109.835999 
L 587.578525 -110.454799 
L 587.639064 -111.073598 
L 587.686865 -111.692398 
L 587.722948 -112.311197 
L 587.748453 -112.929997 
L 587.764419 -113.548796 
L 587.771611 -114.167596 
L 587.770405 -114.786395 
L 587.760737 -115.405195 
L 587.74211 -116.023994 
L 587.713666 -116.642794 
L 587.674316 -117.261593 
L 587.62293 -117.880393 
L 587.55857 -118.499192 
L 587.480754 -119.117992 
L 587.389725 -119.736791 
L 587.286686 -120.355591 
L 587.173968 -120.97439 
L 587.055087 -121.59319 
L 586.934668 -122.211989 
L 586.81821 -122.830789 
L 586.711706 -123.449588 
L 586.621157 -124.068388 
L 586.552012 -124.687187 
L 586.508637 -125.305987 
L 586.493854 -125.924786 
L 589.161146 -125.924786 
L 589.161146 -125.924786 
L 589.146363 -125.305987 
L 589.102988 -124.687187 
L 589.033843 -124.068388 
L 588.943294 -123.449588 
L 588.83679 -122.830789 
L 588.720332 -122.211989 
L 588.599913 -121.59319 
L 588.481032 -120.97439 
L 588.368314 -120.355591 
L 588.265275 -119.736791 
L 588.174246 -119.117992 
L 588.09643 -118.499192 
L 588.03207 -117.880393 
L 587.980684 -117.261593 
L 587.941334 -116.642794 
L 587.91289 -116.023994 
L 587.894263 -115.405195 
L 587.884595 -114.786395 
L 587.883389 -114.167596 
L 587.890581 -113.548796 
L 587.906547 -112.929997 
L 587.932052 -112.311197 
L 587.968135 -111.692398 
L 588.015936 -111.073598 
L 588.076475 -110.454799 
L 588.150393 -109.835999 
L 588.237684 -109.2172 
L 588.337443 -108.5984 
L 588.447675 -107.979601 
L 588.565206 -107.360802 
L 588.685713 -106.742002 
L 588.803917 -106.123203 
L 588.91392 -105.504403 
L 589.009671 -104.885604 
L 589.085502 -104.266804 
L 589.136683 -103.648005 
L 589.159907 -103.029205 
L 589.153646 -102.410406 
L 589.118314 -101.791606 
L 589.056222 -101.172807 
L 588.971329 -100.554007 
L 588.868824 -99.935208 
L 588.754605 -99.316408 
L 588.634715 -98.697609 
L 588.514833 -98.078809 
L 588.399851 -97.46001 
L 588.293597 -96.84121 
L 588.198699 -96.222411 
L 588.116605 -95.603611 
L 588.047702 -94.984812 
L 587.991523 -94.366012 
L 587.946983 -93.747213 
L 587.912619 -93.128413 
L 587.886801 -92.509614 
L 587.867904 -91.890814 
L 587.854423 -91.272015 
L 587.845046 -90.653215 
L 587.838688 -90.034416 
L 587.834488 -89.415616 
L 587.831792 -88.796817 
L 587.830128 -88.178017 
L 587.829178 -87.559218 
L 587.828754 -86.940418 
L 587.828794 -86.321619 
L 587.829373 -85.702819 
L 587.830739 -85.08402 
L 587.833404 -84.46522 
L 587.838281 -83.846421 
L 587.846915 -83.227621 
L 587.86182 -82.608822 
L 587.886978 -81.990022 
L 587.928523 -81.371223 
L 587.995645 -80.752423 
L 588.101741 -80.133624 
L 588.265786 -79.514824 
L 588.513853 -78.896025 
L 588.880656 -78.277225 
L 589.410857 -77.658426 
L 590.15984 -77.039626 
L 591.19351 -76.420827 
L 592.586679 -75.802027 
L 594.419583 -75.183228 
L 596.772238 -74.564428 
L 599.716518 -73.945629 
L 603.306267 -73.326829 
L 607.566119 -72.70803 
L 612.480222 -72.08923 
L 617.982418 -71.470431 
L 623.949685 -70.851631 
L 630.200571 -70.232832 
L 636.499996 -69.614032 
L 642.571058 -68.995233 
L 648.113506 -68.376433 
L 652.827438 -67.757634 
L 656.439753 -67.138834 
L 658.730189 -66.520035 
L 659.5535 -65.901235 
L 658.854697 -65.282436 
L 656.675109 -64.663636 
z
" style="stroke: #797979; stroke-opacity: 0.5; stroke-width: 1.25"/>
    </defs>
    <g clip-path="url(#p747dc4f919)">
     <use xlink:href="#m2cb8c3c3b9" x="0" y="864" style="fill: #b5caf3; fill-opacity: 0.5; stroke: #797979; stroke-opacity: 0.5; stroke-width: 1.25"/>
    </g>
   </g>
   <g id="PolyCollection_4">
    <defs>
     <path id="m98faa40cba" d="M 797.291408 -64.831249 
L 736.993592 -64.831249 
L 736.942079 -72.260594 
L 737.117844 -79.689938 
L 737.516168 -87.119283 
L 738.127327 -94.548628 
L 738.936977 -101.977972 
L 739.926694 -109.407317 
L 741.074657 -116.836661 
L 742.356424 -124.266006 
L 743.745781 -131.69535 
L 745.2156 -139.124695 
L 746.738685 -146.55404 
L 748.288564 -153.983384 
L 749.840196 -161.412729 
L 751.370565 -168.842073 
L 752.859154 -176.271418 
L 754.288289 -183.700763 
L 755.643342 -191.130107 
L 756.912811 -198.559452 
L 758.088286 -205.988796 
L 759.164312 -213.418141 
L 760.138175 -220.847486 
L 761.009624 -228.27683 
L 761.780552 -235.706175 
L 762.454663 -243.135519 
L 763.037122 -250.564864 
L 763.534223 -257.994209 
L 763.953069 -265.423553 
L 764.301288 -272.852898 
L 764.586776 -280.282242 
L 764.817471 -287.711587 
L 765.001167 -295.140931 
L 765.145366 -302.570276 
L 765.257148 -309.999621 
L 765.343082 -317.428965 
L 765.409154 -324.85831 
L 765.460724 -332.287654 
L 765.502496 -339.716999 
L 765.538505 -347.146344 
L 765.572126 -354.575688 
L 765.606088 -362.005033 
L 765.642501 -369.434377 
L 765.682895 -376.863722 
L 765.728267 -384.293067 
L 765.779134 -391.722411 
L 765.835593 -399.151756 
L 765.897382 -406.5811 
L 765.96395 -414.010445 
L 766.034519 -421.43979 
L 766.108149 -428.869134 
L 766.183803 -436.298479 
L 766.260398 -443.727823 
L 766.336858 -451.157168 
L 766.412157 -458.586512 
L 766.485351 -466.015857 
L 766.555608 -473.445202 
L 766.622221 -480.874546 
L 766.684616 -488.303891 
L 766.742361 -495.733235 
L 766.795151 -503.16258 
L 766.842806 -510.591925 
L 766.885249 -518.021269 
L 766.922492 -525.450614 
L 766.954614 -532.879958 
L 766.981742 -540.309303 
L 767.004028 -547.738648 
L 767.021632 -555.167992 
L 767.034705 -562.597337 
L 767.043373 -570.026681 
L 767.047726 -577.456026 
L 767.047814 -584.885371 
L 767.043637 -592.314715 
L 767.035149 -599.74406 
L 767.022263 -607.173404 
L 767.004854 -614.602749 
L 766.982775 -622.032093 
L 766.955867 -629.461438 
L 766.923982 -636.890783 
L 766.886996 -644.320127 
L 766.844833 -651.749472 
L 766.79749 -659.178816 
L 766.74505 -666.608161 
L 766.687708 -674.037506 
L 766.625787 -681.46685 
L 766.559748 -688.896195 
L 766.490202 -696.325539 
L 766.417909 -703.754884 
L 766.343776 -711.184229 
L 766.268846 -718.613573 
L 766.194277 -726.042918 
L 766.12132 -733.472262 
L 766.051283 -740.901607 
L 765.985498 -748.330952 
L 765.92528 -755.760296 
L 765.871882 -763.189641 
L 765.826453 -770.618985 
L 765.789998 -778.04833 
L 765.763342 -785.477674 
L 765.747097 -792.907019 
L 765.74164 -800.336364 
L 768.54336 -800.336364 
L 768.54336 -800.336364 
L 768.537903 -792.907019 
L 768.521658 -785.477674 
L 768.495002 -778.04833 
L 768.458547 -770.618985 
L 768.413118 -763.189641 
L 768.35972 -755.760296 
L 768.299502 -748.330952 
L 768.233717 -740.901607 
L 768.16368 -733.472262 
L 768.090723 -726.042918 
L 768.016154 -718.613573 
L 767.941224 -711.184229 
L 767.867091 -703.754884 
L 767.794798 -696.325539 
L 767.725252 -688.896195 
L 767.659213 -681.46685 
L 767.597292 -674.037506 
L 767.53995 -666.608161 
L 767.48751 -659.178816 
L 767.440167 -651.749472 
L 767.398004 -644.320127 
L 767.361018 -636.890783 
L 767.329133 -629.461438 
L 767.302225 -622.032093 
L 767.280146 -614.602749 
L 767.262737 -607.173404 
L 767.249851 -599.74406 
L 767.241363 -592.314715 
L 767.237186 -584.885371 
L 767.237274 -577.456026 
L 767.241627 -570.026681 
L 767.250295 -562.597337 
L 767.263368 -555.167992 
L 767.280972 -547.738648 
L 767.303258 -540.309303 
L 767.330386 -532.879958 
L 767.362508 -525.450614 
L 767.399751 -518.021269 
L 767.442194 -510.591925 
L 767.489849 -503.16258 
L 767.542639 -495.733235 
L 767.600384 -488.303891 
L 767.662779 -480.874546 
L 767.729392 -473.445202 
L 767.799649 -466.015857 
L 767.872843 -458.586512 
L 767.948142 -451.157168 
L 768.024602 -443.727823 
L 768.101197 -436.298479 
L 768.176851 -428.869134 
L 768.250481 -421.43979 
L 768.32105 -414.010445 
L 768.387618 -406.5811 
L 768.449407 -399.151756 
L 768.505866 -391.722411 
L 768.556733 -384.293067 
L 768.602105 -376.863722 
L 768.642499 -369.434377 
L 768.678912 -362.005033 
L 768.712874 -354.575688 
L 768.746495 -347.146344 
L 768.782504 -339.716999 
L 768.824276 -332.287654 
L 768.875846 -324.85831 
L 768.941918 -317.428965 
L 769.027852 -309.999621 
L 769.139634 -302.570276 
L 769.283833 -295.140931 
L 769.467529 -287.711587 
L 769.698224 -280.282242 
L 769.983712 -272.852898 
L 770.331931 -265.423553 
L 770.750777 -257.994209 
L 771.247878 -250.564864 
L 771.830337 -243.135519 
L 772.504448 -235.706175 
L 773.275376 -228.27683 
L 774.146825 -220.847486 
L 775.120688 -213.418141 
L 776.196714 -205.988796 
L 777.372189 -198.559452 
L 778.641658 -191.130107 
L 779.996711 -183.700763 
L 781.425846 -176.271418 
L 782.914435 -168.842073 
L 784.444804 -161.412729 
L 785.996436 -153.983384 
L 787.546315 -146.55404 
L 789.0694 -139.124695 
L 790.539219 -131.69535 
L 791.928576 -124.266006 
L 793.210343 -116.836661 
L 794.358306 -109.407317 
L 795.348023 -101.977972 
L 796.157673 -94.548628 
L 796.768832 -87.119283 
L 797.167156 -79.689938 
L 797.342921 -72.260594 
L 797.291408 -64.831249 
z
" style="stroke: #797979; stroke-opacity: 0.5; stroke-width: 1.25"/>
    </defs>
    <g clip-path="url(#p747dc4f919)">
     <use xlink:href="#m98faa40cba" x="0" y="864" style="fill: #ecbca7; fill-opacity: 0.5; stroke: #797979; stroke-opacity: 0.5; stroke-width: 1.25"/>
    </g>
   </g>
   <g id="matplotlib.axis_3">
    <g id="xtick_3">
     <g id="line2d_11">
      <g>
       <use xlink:href="#m0d3244b560" x="587.8275" y="836.12" style="stroke: #000000; stroke-width: 0.8"/>
      </g>
     </g>
     <g id="text_13">
      <!-- Negative -->
      <g transform="translate(565.386875 850.718437) scale(0.1 -0.1)">
       <use xlink:href="#DejaVuSans-4e"/>
       <use xlink:href="#DejaVuSans-65" x="74.804688"/>
       <use xlink:href="#DejaVuSans-67" x="136.328125"/>
       <use xlink:href="#DejaVuSans-61" x="199.804688"/>
       <use xlink:href="#DejaVuSans-74" x="261.083984"/>
       <use xlink:href="#DejaVuSans-69" x="300.292969"/>
       <use xlink:href="#DejaVuSans-76" x="328.076172"/>
       <use xlink:href="#DejaVuSans-65" x="387.255859"/>
      </g>
     </g>
    </g>
    <g id="xtick_4">
     <g id="line2d_12">
      <g>
       <use xlink:href="#m0d3244b560" x="767.1425" y="836.12" style="stroke: #000000; stroke-width: 0.8"/>
      </g>
     </g>
     <g id="text_14">
      <!-- Positive -->
      <g transform="translate(747.870625 850.718437) scale(0.1 -0.1)">
       <use xlink:href="#DejaVuSans-50"/>
       <use xlink:href="#DejaVuSans-6f" x="56.677734"/>
       <use xlink:href="#DejaVuSans-73" x="117.859375"/>
       <use xlink:href="#DejaVuSans-69" x="169.958984"/>
       <use xlink:href="#DejaVuSans-74" x="197.742188"/>
       <use xlink:href="#DejaVuSans-69" x="236.951172"/>
       <use xlink:href="#DejaVuSans-76" x="264.734375"/>
       <use xlink:href="#DejaVuSans-65" x="323.914062"/>
      </g>
     </g>
    </g>
   </g>
   <g id="matplotlib.axis_4">
    <g id="ytick_9">
     <g id="line2d_13">
      <g>
       <use xlink:href="#m3bd260e750" x="498.17" y="799.488653" style="stroke: #000000; stroke-width: 0.8"/>
      </g>
     </g>
     <g id="text_15">
      <!-- 0 -->
      <g transform="translate(484.8075 803.287872) scale(0.1 -0.1)">
       <use xlink:href="#DejaVuSans-30"/>
      </g>
     </g>
    </g>
    <g id="ytick_10">
     <g id="line2d_14">
      <g>
       <use xlink:href="#m3bd260e750" x="498.17" y="692.526845" style="stroke: #000000; stroke-width: 0.8"/>
      </g>
     </g>
     <g id="text_16">
      <!-- 20000 -->
      <g transform="translate(459.3575 696.326063) scale(0.1 -0.1)">
       <use xlink:href="#DejaVuSans-32"/>
       <use xlink:href="#DejaVuSans-30" x="63.623047"/>
       <use xlink:href="#DejaVuSans-30" x="127.246094"/>
       <use xlink:href="#DejaVuSans-30" x="190.869141"/>
       <use xlink:href="#DejaVuSans-30" x="254.492188"/>
      </g>
     </g>
    </g>
    <g id="ytick_11">
     <g id="line2d_15">
      <g>
       <use xlink:href="#m3bd260e750" x="498.17" y="585.565036" style="stroke: #000000; stroke-width: 0.8"/>
      </g>
     </g>
     <g id="text_17">
      <!-- 40000 -->
      <g transform="translate(459.3575 589.364255) scale(0.1 -0.1)">
       <use xlink:href="#DejaVuSans-34"/>
       <use xlink:href="#DejaVuSans-30" x="63.623047"/>
       <use xlink:href="#DejaVuSans-30" x="127.246094"/>
       <use xlink:href="#DejaVuSans-30" x="190.869141"/>
       <use xlink:href="#DejaVuSans-30" x="254.492188"/>
      </g>
     </g>
    </g>
    <g id="ytick_12">
     <g id="line2d_16">
      <g>
       <use xlink:href="#m3bd260e750" x="498.17" y="478.603228" style="stroke: #000000; stroke-width: 0.8"/>
      </g>
     </g>
     <g id="text_18">
      <!-- 60000 -->
      <g transform="translate(459.3575 482.402447) scale(0.1 -0.1)">
       <use xlink:href="#DejaVuSans-36"/>
       <use xlink:href="#DejaVuSans-30" x="63.623047"/>
       <use xlink:href="#DejaVuSans-30" x="127.246094"/>
       <use xlink:href="#DejaVuSans-30" x="190.869141"/>
       <use xlink:href="#DejaVuSans-30" x="254.492188"/>
      </g>
     </g>
    </g>
    <g id="ytick_13">
     <g id="line2d_17">
      <g>
       <use xlink:href="#m3bd260e750" x="498.17" y="371.64142" style="stroke: #000000; stroke-width: 0.8"/>
      </g>
     </g>
     <g id="text_19">
      <!-- 80000 -->
      <g transform="translate(459.3575 375.440639) scale(0.1 -0.1)">
       <use xlink:href="#DejaVuSans-38"/>
       <use xlink:href="#DejaVuSans-30" x="63.623047"/>
       <use xlink:href="#DejaVuSans-30" x="127.246094"/>
       <use xlink:href="#DejaVuSans-30" x="190.869141"/>
       <use xlink:href="#DejaVuSans-30" x="254.492188"/>
      </g>
     </g>
    </g>
    <g id="ytick_14">
     <g id="line2d_18">
      <g>
       <use xlink:href="#m3bd260e750" x="498.17" y="264.679612" style="stroke: #000000; stroke-width: 0.8"/>
      </g>
     </g>
     <g id="text_20">
      <!-- 100000 -->
      <g transform="translate(452.995 268.47883) scale(0.1 -0.1)">
       <use xlink:href="#DejaVuSans-31"/>
       <use xlink:href="#DejaVuSans-30" x="63.623047"/>
       <use xlink:href="#DejaVuSans-30" x="127.246094"/>
       <use xlink:href="#DejaVuSans-30" x="190.869141"/>
       <use xlink:href="#DejaVuSans-30" x="254.492188"/>
       <use xlink:href="#DejaVuSans-30" x="318.115234"/>
      </g>
     </g>
    </g>
    <g id="ytick_15">
     <g id="line2d_19">
      <g>
       <use xlink:href="#m3bd260e750" x="498.17" y="157.717803" style="stroke: #000000; stroke-width: 0.8"/>
      </g>
     </g>
     <g id="text_21">
      <!-- 120000 -->
      <g transform="translate(452.995 161.517022) scale(0.1 -0.1)">
       <use xlink:href="#DejaVuSans-31"/>
       <use xlink:href="#DejaVuSans-32" x="63.623047"/>
       <use xlink:href="#DejaVuSans-30" x="127.246094"/>
       <use xlink:href="#DejaVuSans-30" x="190.869141"/>
       <use xlink:href="#DejaVuSans-30" x="254.492188"/>
       <use xlink:href="#DejaVuSans-30" x="318.115234"/>
      </g>
     </g>
    </g>
    <g id="ytick_16">
     <g id="line2d_20">
      <g>
       <use xlink:href="#m3bd260e750" x="498.17" y="50.755995" style="stroke: #000000; stroke-width: 0.8"/>
      </g>
     </g>
     <g id="text_22">
      <!-- 140000 -->
      <g transform="translate(452.995 54.555214) scale(0.1 -0.1)">
       <use xlink:href="#DejaVuSans-31"/>
       <use xlink:href="#DejaVuSans-34" x="63.623047"/>
       <use xlink:href="#DejaVuSans-30" x="127.246094"/>
       <use xlink:href="#DejaVuSans-30" x="190.869141"/>
       <use xlink:href="#DejaVuSans-30" x="254.492188"/>
       <use xlink:href="#DejaVuSans-30" x="318.115234"/>
      </g>
     </g>
    </g>
    <g id="text_23">
     <!-- normalised DNA abundance -->
     <g transform="translate(446.915313 501.261719) rotate(-90) scale(0.1 -0.1)">
      <use xlink:href="#DejaVuSans-6e"/>
      <use xlink:href="#DejaVuSans-6f" x="63.378906"/>
      <use xlink:href="#DejaVuSans-72" x="124.560547"/>
      <use xlink:href="#DejaVuSans-6d" x="163.923828"/>
      <use xlink:href="#DejaVuSans-61" x="261.335938"/>
      <use xlink:href="#DejaVuSans-6c" x="322.615234"/>
      <use xlink:href="#DejaVuSans-69" x="350.398438"/>
      <use xlink:href="#DejaVuSans-73" x="378.181641"/>
      <use xlink:href="#DejaVuSans-65" x="430.28125"/>
      <use xlink:href="#DejaVuSans-64" x="491.804688"/>
      <use xlink:href="#DejaVuSans-20" x="555.28125"/>
      <use xlink:href="#DejaVuSans-44" x="587.068359"/>
      <use xlink:href="#DejaVuSans-4e" x="664.070312"/>
      <use xlink:href="#DejaVuSans-41" x="738.875"/>
      <use xlink:href="#DejaVuSans-20" x="807.283203"/>
      <use xlink:href="#DejaVuSans-61" x="839.070312"/>
      <use xlink:href="#DejaVuSans-62" x="900.349609"/>
      <use xlink:href="#DejaVuSans-75" x="963.826172"/>
      <use xlink:href="#DejaVuSans-6e" x="1027.205078"/>
      <use xlink:href="#DejaVuSans-64" x="1090.583984"/>
      <use xlink:href="#DejaVuSans-61" x="1154.060547"/>
      <use xlink:href="#DejaVuSans-6e" x="1215.339844"/>
      <use xlink:href="#DejaVuSans-63" x="1278.71875"/>
      <use xlink:href="#DejaVuSans-65" x="1333.699219"/>
     </g>
    </g>
   </g>
   <g id="patch_8">
    <path d="M 498.17 836.12 
L 498.17 26.88 
" style="fill: none; stroke: #000000; stroke-width: 0.8; stroke-linejoin: miter; stroke-linecap: square"/>
   </g>
   <g id="patch_9">
    <path d="M 856.8 836.12 
L 856.8 26.88 
" style="fill: none; stroke: #000000; stroke-width: 0.8; stroke-linejoin: miter; stroke-linecap: square"/>
   </g>
   <g id="patch_10">
    <path d="M 498.17 836.12 
L 856.8 836.12 
" style="fill: none; stroke: #000000; stroke-width: 0.8; stroke-linejoin: miter; stroke-linecap: square"/>
   </g>
   <g id="patch_11">
    <path d="M 498.17 26.88 
L 856.8 26.88 
" style="fill: none; stroke: #000000; stroke-width: 0.8; stroke-linejoin: miter; stroke-linecap: square"/>
   </g>
   <g id="PathCollection_3">
    <g clip-path="url(#p747dc4f919)">
     <use xlink:href="#mf8d7b9bae9" x="605.641463" y="797.059568" style="fill-opacity: 0.5"/>
     <use xlink:href="#mf8d7b9bae9" x="591.946384" y="797.209077" style="fill-opacity: 0.5"/>
     <use xlink:href="#mf8d7b9bae9" x="572.697423" y="797.594538" style="fill-opacity: 0.5"/>
     <use xlink:href="#mf8d7b9bae9" x="572.922491" y="798.666073" style="fill-opacity: 0.5"/>
     <use xlink:href="#mf8d7b9bae9" x="574.480629" y="798.774385" style="fill-opacity: 0.5"/>
     <use xlink:href="#mf8d7b9bae9" x="604.537939" y="797.037294" style="fill-opacity: 0.5"/>
     <use xlink:href="#mf8d7b9bae9" x="590.862434" y="795.787227" style="fill-opacity: 0.5"/>
     <use xlink:href="#mf8d7b9bae9" x="592.897729" y="798.63348" style="fill-opacity: 0.5"/>
     <use xlink:href="#mf8d7b9bae9" x="596.718795" y="797.578544" style="fill-opacity: 0.5"/>
     <use xlink:href="#mf8d7b9bae9" x="581.816363" y="798.504748" style="fill-opacity: 0.5"/>
     <use xlink:href="#mf8d7b9bae9" x="571.279654" y="798.971747" style="fill-opacity: 0.5"/>
     <use xlink:href="#mf8d7b9bae9" x="577.629961" y="798.631797" style="fill-opacity: 0.5"/>
     <use xlink:href="#mf8d7b9bae9" x="579.163922" y="798.425839" style="fill-opacity: 0.5"/>
     <use xlink:href="#mf8d7b9bae9" x="585.092877" y="798.520437" style="fill-opacity: 0.5"/>
     <use xlink:href="#mf8d7b9bae9" x="598.196132" y="798.154332" style="fill-opacity: 0.5"/>
     <use xlink:href="#mf8d7b9bae9" x="600.034558" y="798.798073" style="fill-opacity: 0.5"/>
     <use xlink:href="#mf8d7b9bae9" x="576.126923" y="798.648778" style="fill-opacity: 0.5"/>
     <use xlink:href="#mf8d7b9bae9" x="570.974757" y="796.543878" style="fill-opacity: 0.5"/>
     <use xlink:href="#mf8d7b9bae9" x="575.47358" y="797.226469" style="fill-opacity: 0.5"/>
     <use xlink:href="#mf8d7b9bae9" x="589.258303" y="798.15073" style="fill-opacity: 0.5"/>
     <use xlink:href="#mf8d7b9bae9" x="593.184153" y="796.495207" style="fill-opacity: 0.5"/>
     <use xlink:href="#mf8d7b9bae9" x="593.611187" y="761.149471" style="fill-opacity: 0.5"/>
     <use xlink:href="#mf8d7b9bae9" x="598.806474" y="798.284421" style="fill-opacity: 0.5"/>
     <use xlink:href="#mf8d7b9bae9" x="571.066434" y="798.219201" style="fill-opacity: 0.5"/>
     <use xlink:href="#mf8d7b9bae9" x="594.232847" y="798.787923" style="fill-opacity: 0.5"/>
     <use xlink:href="#mf8d7b9bae9" x="584.49358" y="798.256392" style="fill-opacity: 0.5"/>
     <use xlink:href="#mf8d7b9bae9" x="582.513644" y="799.123447" style="fill-opacity: 0.5"/>
     <use xlink:href="#mf8d7b9bae9" x="575.076958" y="799.23578" style="fill-opacity: 0.5"/>
     <use xlink:href="#mf8d7b9bae9" x="576.963612" y="798.444393" style="fill-opacity: 0.5"/>
     <use xlink:href="#mf8d7b9bae9" x="589.266819" y="798.451175" style="fill-opacity: 0.5"/>
     <use xlink:href="#mf8d7b9bae9" x="591.986631" y="798.553156" style="fill-opacity: 0.5"/>
     <use xlink:href="#mf8d7b9bae9" x="597.068039" y="798.699674" style="fill-opacity: 0.5"/>
     <use xlink:href="#mf8d7b9bae9" x="572.681808" y="798.43488" style="fill-opacity: 0.5"/>
     <use xlink:href="#mf8d7b9bae9" x="597.232107" y="798.094866" style="fill-opacity: 0.5"/>
     <use xlink:href="#mf8d7b9bae9" x="595.89129" y="796.671113" style="fill-opacity: 0.5"/>
     <use xlink:href="#mf8d7b9bae9" x="598.926164" y="798.62181" style="fill-opacity: 0.5"/>
     <use xlink:href="#mf8d7b9bae9" x="585.288502" y="798.295608" style="fill-opacity: 0.5"/>
     <use xlink:href="#mf8d7b9bae9" x="586.046524" y="798.091124" style="fill-opacity: 0.5"/>
     <use xlink:href="#mf8d7b9bae9" x="576.51637" y="798.673547" style="fill-opacity: 0.5"/>
     <use xlink:href="#mf8d7b9bae9" x="581.066035" y="797.334944" style="fill-opacity: 0.5"/>
     <use xlink:href="#mf8d7b9bae9" x="578.57811" y="798.613023" style="fill-opacity: 0.5"/>
     <use xlink:href="#mf8d7b9bae9" x="572.581399" y="798.375023" style="fill-opacity: 0.5"/>
     <use xlink:href="#mf8d7b9bae9" x="587.922388" y="799.336364" style="fill-opacity: 0.5"/>
     <use xlink:href="#mf8d7b9bae9" x="590.455767" y="798.78309" style="fill-opacity: 0.5"/>
     <use xlink:href="#mf8d7b9bae9" x="602.127106" y="797.957976" style="fill-opacity: 0.5"/>
     <use xlink:href="#mf8d7b9bae9" x="580.074434" y="798.633489" style="fill-opacity: 0.5"/>
     <use xlink:href="#mf8d7b9bae9" x="570.396669" y="798.889332" style="fill-opacity: 0.5"/>
     <use xlink:href="#mf8d7b9bae9" x="599.407815" y="798.665228" style="fill-opacity: 0.5"/>
     <use xlink:href="#mf8d7b9bae9" x="591.523044" y="797.48075" style="fill-opacity: 0.5"/>
     <use xlink:href="#mf8d7b9bae9" x="599.720117" y="798.30328" style="fill-opacity: 0.5"/>
     <use xlink:href="#mf8d7b9bae9" x="571.018881" y="797.757157" style="fill-opacity: 0.5"/>
     <use xlink:href="#mf8d7b9bae9" x="595.89307" y="798.479146" style="fill-opacity: 0.5"/>
     <use xlink:href="#mf8d7b9bae9" x="588.994111" y="798.970244" style="fill-opacity: 0.5"/>
     <use xlink:href="#mf8d7b9bae9" x="581.096476" y="798.379123" style="fill-opacity: 0.5"/>
     <use xlink:href="#mf8d7b9bae9" x="594.027663" y="795.829349" style="fill-opacity: 0.5"/>
     <use xlink:href="#mf8d7b9bae9" x="594.692809" y="795.144216" style="fill-opacity: 0.5"/>
     <use xlink:href="#mf8d7b9bae9" x="572.882728" y="738.075214" style="fill-opacity: 0.5"/>
    </g>
   </g>
   <g id="PathCollection_4">
    <g clip-path="url(#p747dc4f919)">
     <use xlink:href="#mf8d7b9bae9" x="751.545444" y="798.696099" style="fill-opacity: 0.5"/>
     <use xlink:href="#mf8d7b9bae9" x="777.281905" y="795.453428" style="fill-opacity: 0.5"/>
     <use xlink:href="#mf8d7b9bae9" x="753.175617" y="798.723604" style="fill-opacity: 0.5"/>
     <use xlink:href="#mf8d7b9bae9" x="775.624018" y="798.660662" style="fill-opacity: 0.5"/>
     <use xlink:href="#mf8d7b9bae9" x="776.039046" y="798.635215" style="fill-opacity: 0.5"/>
     <use xlink:href="#mf8d7b9bae9" x="775.251203" y="794.29785" style="fill-opacity: 0.5"/>
     <use xlink:href="#mf8d7b9bae9" x="778.040027" y="798.42545" style="fill-opacity: 0.5"/>
     <use xlink:href="#mf8d7b9bae9" x="754.713715" y="783.827385" style="fill-opacity: 0.5"/>
     <use xlink:href="#mf8d7b9bae9" x="783.210128" y="797.022365" style="fill-opacity: 0.5"/>
     <use xlink:href="#mf8d7b9bae9" x="783.784075" y="795.889215" style="fill-opacity: 0.5"/>
     <use xlink:href="#mf8d7b9bae9" x="775.897086" y="791.719269" style="fill-opacity: 0.5"/>
     <use xlink:href="#mf8d7b9bae9" x="779.083357" y="797.71668" style="fill-opacity: 0.5"/>
     <use xlink:href="#mf8d7b9bae9" x="771.245257" y="63.663636" style="fill-opacity: 0.5"/>
     <use xlink:href="#mf8d7b9bae9" x="784.953594" y="798.092069" style="fill-opacity: 0.5"/>
     <use xlink:href="#mf8d7b9bae9" x="768.642906" y="501.696389" style="fill-opacity: 0.5"/>
     <use xlink:href="#mf8d7b9bae9" x="773.552039" y="797.921837" style="fill-opacity: 0.5"/>
     <use xlink:href="#mf8d7b9bae9" x="761.688779" y="799.168751" style="fill-opacity: 0.5"/>
     <use xlink:href="#mf8d7b9bae9" x="770.667369" y="791.488129" style="fill-opacity: 0.5"/>
     <use xlink:href="#mf8d7b9bae9" x="780.613918" y="791.364888" style="fill-opacity: 0.5"/>
     <use xlink:href="#mf8d7b9bae9" x="784.129859" y="797.890342" style="fill-opacity: 0.5"/>
     <use xlink:href="#mf8d7b9bae9" x="761.726912" y="707.659661" style="fill-opacity: 0.5"/>
     <use xlink:href="#mf8d7b9bae9" x="758.283353" y="798.939171" style="fill-opacity: 0.5"/>
     <use xlink:href="#mf8d7b9bae9" x="783.848415" y="798.395152" style="fill-opacity: 0.5"/>
     <use xlink:href="#mf8d7b9bae9" x="758.29598" y="798.662503" style="fill-opacity: 0.5"/>
    </g>
   </g>
   <g id="text_24">
    <!-- B) -->
    <g transform="translate(498.17 20.88) scale(0.12 -0.12)">
     <defs>
      <path id="DejaVuSans-42" d="M 1259 2228 
L 1259 519 
L 2272 519 
Q 2781 519 3026 730 
Q 3272 941 3272 1375 
Q 3272 1813 3026 2020 
Q 2781 2228 2272 2228 
L 1259 2228 
z
M 1259 4147 
L 1259 2741 
L 2194 2741 
Q 2656 2741 2882 2914 
Q 3109 3088 3109 3444 
Q 3109 3797 2882 3972 
Q 2656 4147 2194 4147 
L 1259 4147 
z
M 628 4666 
L 2241 4666 
Q 2963 4666 3353 4366 
Q 3744 4066 3744 3513 
Q 3744 3084 3544 2831 
Q 3344 2578 2956 2516 
Q 3422 2416 3680 2098 
Q 3938 1781 3938 1306 
Q 3938 681 3513 340 
Q 3088 0 2303 0 
L 628 0 
L 628 4666 
z
" transform="scale(0.015625)"/>
     </defs>
     <use xlink:href="#DejaVuSans-42"/>
     <use xlink:href="#DejaVuSans-29" x="68.603516"/>
    </g>
   </g>
  </g>
  <g id="axes_3">
   <g id="patch_12">
    <path d="M 926.57 836.12 
L 1285.2 836.12 
L 1285.2 26.88 
L 926.57 26.88 
z
" style="fill: #ffffff"/>
   </g>
   <g id="PolyCollection_5">
    <defs>
     <path id="m14cac28a5b" d="M 1079.514559 -64.663636 
L 952.940441 -64.663636 
L 948.466726 -65.049363 
L 945.590763 -65.435089 
L 944.5015 -65.820815 
L 945.245213 -66.206541 
L 947.723412 -66.592267 
L 951.710012 -66.977994 
L 956.883911 -67.36372 
L 962.870576 -67.749446 
L 969.285278 -68.135172 
L 975.77128 -68.520898 
L 982.028283 -68.906624 
L 987.828899 -69.292351 
L 993.023445 -69.678077 
L 997.535122 -70.063803 
L 1001.348654 -70.449529 
L 1004.495563 -70.835255 
L 1007.038831 -71.220982 
L 1009.058878 -71.606708 
L 1010.642012 -71.992434 
L 1011.871797 -72.37816 
L 1012.823315 -72.763886 
L 1013.559985 -73.149613 
L 1014.13248 -73.535339 
L 1014.579192 -73.921065 
L 1014.927726 -74.306791 
L 1015.19696 -74.692517 
L 1015.399257 -75.078244 
L 1015.542586 -75.46397 
L 1015.63235 -75.849696 
L 1015.672885 -76.235422 
L 1015.668605 -76.621148 
L 1015.624839 -77.006875 
L 1015.548363 -77.392601 
L 1015.447634 -77.778327 
L 1015.332693 -78.164053 
L 1015.214735 -78.549779 
L 1015.105345 -78.935506 
L 1015.0155 -79.321232 
L 1014.954464 -79.706958 
L 1014.928771 -80.092684 
L 1014.941495 -80.47841 
L 1014.991963 -80.864136 
L 1015.075972 -81.249863 
L 1015.186493 -81.635589 
L 1015.314712 -82.021315 
L 1015.451235 -82.407041 
L 1015.587224 -82.792767 
L 1015.715301 -83.178494 
L 1015.830105 -83.56422 
L 1015.928469 -83.949946 
L 1016.009267 -84.335672 
L 1016.073033 -84.721398 
L 1016.121463 -85.107125 
L 1016.156902 -85.492851 
L 1016.181914 -85.878577 
L 1016.198951 -86.264303 
L 1016.21016 -86.650029 
L 1016.217285 -87.035756 
L 1016.221664 -87.421482 
L 1016.224266 -87.807208 
L 1016.225762 -88.192934 
L 1016.226594 -88.57866 
L 1016.227042 -88.964387 
L 1016.227276 -89.350113 
L 1016.227393 -89.735839 
L 1016.227451 -90.121565 
L 1016.227478 -90.507291 
L 1016.22749 -90.893017 
L 1016.227495 -91.278744 
L 1016.227495 -91.66447 
L 1016.227491 -92.050196 
L 1016.227481 -92.435922 
L 1016.227458 -92.821648 
L 1016.227409 -93.207375 
L 1016.227307 -93.593101 
L 1016.227104 -93.978827 
L 1016.226712 -94.364553 
L 1016.225978 -94.750279 
L 1016.22465 -95.136006 
L 1016.222323 -95.521732 
L 1016.218381 -95.907458 
L 1016.211922 -96.293184 
L 1016.201689 -96.67891 
L 1016.186023 -97.064637 
L 1016.162857 -97.450363 
L 1016.12979 -97.836089 
L 1016.084258 -98.221815 
L 1016.023838 -98.607541 
L 1015.94666 -98.993268 
L 1015.851907 -99.378994 
L 1015.740324 -99.76472 
L 1015.614636 -100.150446 
L 1015.479758 -100.536172 
L 1015.342692 -100.921899 
L 1015.212057 -101.307625 
L 1015.097257 -101.693351 
L 1015.007393 -102.079077 
L 1014.950081 -102.464803 
L 1014.930384 -102.850529 
L 1017.524616 -102.850529 
L 1017.524616 -102.850529 
L 1017.504919 -102.464803 
L 1017.447607 -102.079077 
L 1017.357743 -101.693351 
L 1017.242943 -101.307625 
L 1017.112308 -100.921899 
L 1016.975242 -100.536172 
L 1016.840364 -100.150446 
L 1016.714676 -99.76472 
L 1016.603093 -99.378994 
L 1016.50834 -98.993268 
L 1016.431162 -98.607541 
L 1016.370742 -98.221815 
L 1016.32521 -97.836089 
L 1016.292143 -97.450363 
L 1016.268977 -97.064637 
L 1016.253311 -96.67891 
L 1016.243078 -96.293184 
L 1016.236619 -95.907458 
L 1016.232677 -95.521732 
L 1016.23035 -95.136006 
L 1016.229022 -94.750279 
L 1016.228288 -94.364553 
L 1016.227896 -93.978827 
L 1016.227693 -93.593101 
L 1016.227591 -93.207375 
L 1016.227542 -92.821648 
L 1016.227519 -92.435922 
L 1016.227509 -92.050196 
L 1016.227505 -91.66447 
L 1016.227505 -91.278744 
L 1016.22751 -90.893017 
L 1016.227522 -90.507291 
L 1016.227549 -90.121565 
L 1016.227607 -89.735839 
L 1016.227724 -89.350113 
L 1016.227958 -88.964387 
L 1016.228406 -88.57866 
L 1016.229238 -88.192934 
L 1016.230734 -87.807208 
L 1016.233336 -87.421482 
L 1016.237715 -87.035756 
L 1016.24484 -86.650029 
L 1016.256049 -86.264303 
L 1016.273086 -85.878577 
L 1016.298098 -85.492851 
L 1016.333537 -85.107125 
L 1016.381967 -84.721398 
L 1016.445733 -84.335672 
L 1016.526531 -83.949946 
L 1016.624895 -83.56422 
L 1016.739699 -83.178494 
L 1016.867776 -82.792767 
L 1017.003765 -82.407041 
L 1017.140288 -82.021315 
L 1017.268507 -81.635589 
L 1017.379028 -81.249863 
L 1017.463037 -80.864136 
L 1017.513505 -80.47841 
L 1017.526229 -80.092684 
L 1017.500536 -79.706958 
L 1017.4395 -79.321232 
L 1017.349655 -78.935506 
L 1017.240265 -78.549779 
L 1017.122307 -78.164053 
L 1017.007366 -77.778327 
L 1016.906637 -77.392601 
L 1016.830161 -77.006875 
L 1016.786395 -76.621148 
L 1016.782115 -76.235422 
L 1016.82265 -75.849696 
L 1016.912414 -75.46397 
L 1017.055743 -75.078244 
L 1017.25804 -74.692517 
L 1017.527274 -74.306791 
L 1017.875808 -73.921065 
L 1018.32252 -73.535339 
L 1018.895015 -73.149613 
L 1019.631685 -72.763886 
L 1020.583203 -72.37816 
L 1021.812988 -71.992434 
L 1023.396122 -71.606708 
L 1025.416169 -71.220982 
L 1027.959437 -70.835255 
L 1031.106346 -70.449529 
L 1034.919878 -70.063803 
L 1039.431555 -69.678077 
L 1044.626101 -69.292351 
L 1050.426717 -68.906624 
L 1056.68372 -68.520898 
L 1063.169722 -68.135172 
L 1069.584424 -67.749446 
L 1075.571089 -67.36372 
L 1080.744988 -66.977994 
L 1084.731588 -66.592267 
L 1087.209787 -66.206541 
L 1087.9535 -65.820815 
L 1086.864237 -65.435089 
L 1083.988274 -65.049363 
L 1079.514559 -64.663636 
z
" style="stroke: #797979; stroke-opacity: 0.5; stroke-width: 1.25"/>
    </defs>
    <g clip-path="url(#p9ad60eb700)">
     <use xlink:href="#m14cac28a5b" x="0" y="864" style="fill: #b5caf3; fill-opacity: 0.5; stroke: #797979; stroke-opacity: 0.5; stroke-width: 1.25"/>
    </g>
   </g>
   <g id="PolyCollection_6">
    <defs>
     <path id="mbcd4116130" d="M 1214.512418 -64.831249 
L 1176.572582 -64.831249 
L 1176.490281 -72.260594 
L 1176.496134 -79.689938 
L 1176.589639 -87.119283 
L 1176.769038 -94.548628 
L 1177.031363 -101.977972 
L 1177.372503 -109.407317 
L 1177.787306 -116.836661 
L 1178.269696 -124.266006 
L 1178.812812 -131.69535 
L 1179.409161 -139.124695 
L 1180.05078 -146.55404 
L 1180.729405 -153.983384 
L 1181.436637 -161.412729 
L 1182.164107 -168.842073 
L 1182.90363 -176.271418 
L 1183.647347 -183.700763 
L 1184.387853 -191.130107 
L 1185.118306 -198.559452 
L 1185.832516 -205.988796 
L 1186.525018 -213.418141 
L 1187.191111 -220.847486 
L 1187.826897 -228.27683 
L 1188.429277 -235.706175 
L 1188.995948 -243.135519 
L 1189.525371 -250.564864 
L 1190.016732 -257.994209 
L 1190.469884 -265.423553 
L 1190.885283 -272.852898 
L 1191.263919 -280.282242 
L 1191.607239 -287.711587 
L 1191.917064 -295.140931 
L 1192.195518 -302.570276 
L 1192.444942 -309.999621 
L 1192.667825 -317.428965 
L 1192.866736 -324.85831 
L 1193.044255 -332.287654 
L 1193.202923 -339.716999 
L 1193.34519 -347.146344 
L 1193.473375 -354.575688 
L 1193.589631 -362.005033 
L 1193.695926 -369.434377 
L 1193.794018 -376.863722 
L 1193.885449 -384.293067 
L 1193.971542 -391.722411 
L 1194.0534 -399.151756 
L 1194.131916 -406.5811 
L 1194.207783 -414.010445 
L 1194.28151 -421.43979 
L 1194.353438 -428.869134 
L 1194.423761 -436.298479 
L 1194.492546 -443.727823 
L 1194.559752 -451.157168 
L 1194.625251 -458.586512 
L 1194.68885 -466.015857 
L 1194.750304 -473.445202 
L 1194.809337 -480.874546 
L 1194.865655 -488.303891 
L 1194.918956 -495.733235 
L 1194.968944 -503.16258 
L 1195.015335 -510.591925 
L 1195.057864 -518.021269 
L 1195.096291 -525.450614 
L 1195.1304 -532.879958 
L 1195.160006 -540.309303 
L 1195.18495 -547.738648 
L 1195.205106 -555.167992 
L 1195.220374 -562.597337 
L 1195.230683 -570.026681 
L 1195.235992 -577.456026 
L 1195.236287 -584.885371 
L 1195.23158 -592.314715 
L 1195.221916 -599.74406 
L 1195.207369 -607.173404 
L 1195.188043 -614.602749 
L 1195.164081 -622.032093 
L 1195.135659 -629.461438 
L 1195.102996 -636.890783 
L 1195.066352 -644.320127 
L 1195.026032 -651.749472 
L 1194.982387 -659.178816 
L 1194.935817 -666.608161 
L 1194.886767 -674.037506 
L 1194.835731 -681.46685 
L 1194.783245 -688.896195 
L 1194.729884 -696.325539 
L 1194.67626 -703.754884 
L 1194.623009 -711.184229 
L 1194.570787 -718.613573 
L 1194.520259 -726.042918 
L 1194.472089 -733.472262 
L 1194.426927 -740.901607 
L 1194.385397 -748.330952 
L 1194.348087 -755.760296 
L 1194.315534 -763.189641 
L 1194.288218 -770.618985 
L 1194.266545 -778.04833 
L 1194.250841 -785.477674 
L 1194.241348 -792.907019 
L 1194.238214 -800.336364 
L 1196.846786 -800.336364 
L 1196.846786 -800.336364 
L 1196.843652 -792.907019 
L 1196.834159 -785.477674 
L 1196.818455 -778.04833 
L 1196.796782 -770.618985 
L 1196.769466 -763.189641 
L 1196.736913 -755.760296 
L 1196.699603 -748.330952 
L 1196.658073 -740.901607 
L 1196.612911 -733.472262 
L 1196.564741 -726.042918 
L 1196.514213 -718.613573 
L 1196.461991 -711.184229 
L 1196.40874 -703.754884 
L 1196.355116 -696.325539 
L 1196.301755 -688.896195 
L 1196.249269 -681.46685 
L 1196.198233 -674.037506 
L 1196.149183 -666.608161 
L 1196.102613 -659.178816 
L 1196.058968 -651.749472 
L 1196.018648 -644.320127 
L 1195.982004 -636.890783 
L 1195.949341 -629.461438 
L 1195.920919 -622.032093 
L 1195.896957 -614.602749 
L 1195.877631 -607.173404 
L 1195.863084 -599.74406 
L 1195.85342 -592.314715 
L 1195.848713 -584.885371 
L 1195.849008 -577.456026 
L 1195.854317 -570.026681 
L 1195.864626 -562.597337 
L 1195.879894 -555.167992 
L 1195.90005 -547.738648 
L 1195.924994 -540.309303 
L 1195.9546 -532.879958 
L 1195.988709 -525.450614 
L 1196.027136 -518.021269 
L 1196.069665 -510.591925 
L 1196.116056 -503.16258 
L 1196.166044 -495.733235 
L 1196.219345 -488.303891 
L 1196.275663 -480.874546 
L 1196.334696 -473.445202 
L 1196.39615 -466.015857 
L 1196.459749 -458.586512 
L 1196.525248 -451.157168 
L 1196.592454 -443.727823 
L 1196.661239 -436.298479 
L 1196.731562 -428.869134 
L 1196.80349 -421.43979 
L 1196.877217 -414.010445 
L 1196.953084 -406.5811 
L 1197.0316 -399.151756 
L 1197.113458 -391.722411 
L 1197.199551 -384.293067 
L 1197.290982 -376.863722 
L 1197.389074 -369.434377 
L 1197.495369 -362.005033 
L 1197.611625 -354.575688 
L 1197.73981 -347.146344 
L 1197.882077 -339.716999 
L 1198.040745 -332.287654 
L 1198.218264 -324.85831 
L 1198.417175 -317.428965 
L 1198.640058 -309.999621 
L 1198.889482 -302.570276 
L 1199.167936 -295.140931 
L 1199.477761 -287.711587 
L 1199.821081 -280.282242 
L 1200.199717 -272.852898 
L 1200.615116 -265.423553 
L 1201.068268 -257.994209 
L 1201.559629 -250.564864 
L 1202.089052 -243.135519 
L 1202.655723 -235.706175 
L 1203.258103 -228.27683 
L 1203.893889 -220.847486 
L 1204.559982 -213.418141 
L 1205.252484 -205.988796 
L 1205.966694 -198.559452 
L 1206.697147 -191.130107 
L 1207.437653 -183.700763 
L 1208.18137 -176.271418 
L 1208.920893 -168.842073 
L 1209.648363 -161.412729 
L 1210.355595 -153.983384 
L 1211.03422 -146.55404 
L 1211.675839 -139.124695 
L 1212.272188 -131.69535 
L 1212.815304 -124.266006 
L 1213.297694 -116.836661 
L 1213.712497 -109.407317 
L 1214.053637 -101.977972 
L 1214.315962 -94.548628 
L 1214.495361 -87.119283 
L 1214.588866 -79.689938 
L 1214.594719 -72.260594 
L 1214.512418 -64.831249 
z
" style="stroke: #797979; stroke-opacity: 0.5; stroke-width: 1.25"/>
    </defs>
    <g clip-path="url(#p9ad60eb700)">
     <use xlink:href="#mbcd4116130" x="0" y="864" style="fill: #ecbca7; fill-opacity: 0.5; stroke: #797979; stroke-opacity: 0.5; stroke-width: 1.25"/>
    </g>
   </g>
   <g id="matplotlib.axis_5">
    <g id="xtick_5">
     <g id="line2d_21">
      <g>
       <use xlink:href="#m0d3244b560" x="1016.2275" y="836.12" style="stroke: #000000; stroke-width: 0.8"/>
      </g>
     </g>
     <g id="text_25">
      <!-- Negative -->
      <g transform="translate(993.786875 850.718437) scale(0.1 -0.1)">
       <use xlink:href="#DejaVuSans-4e"/>
       <use xlink:href="#DejaVuSans-65" x="74.804688"/>
       <use xlink:href="#DejaVuSans-67" x="136.328125"/>
       <use xlink:href="#DejaVuSans-61" x="199.804688"/>
       <use xlink:href="#DejaVuSans-74" x="261.083984"/>
       <use xlink:href="#DejaVuSans-69" x="300.292969"/>
       <use xlink:href="#DejaVuSans-76" x="328.076172"/>
       <use xlink:href="#DejaVuSans-65" x="387.255859"/>
      </g>
     </g>
    </g>
    <g id="xtick_6">
     <g id="line2d_22">
      <g>
       <use xlink:href="#m0d3244b560" x="1195.5425" y="836.12" style="stroke: #000000; stroke-width: 0.8"/>
      </g>
     </g>
     <g id="text_26">
      <!-- Positive -->
      <g transform="translate(1176.270625 850.718437) scale(0.1 -0.1)">
       <use xlink:href="#DejaVuSans-50"/>
       <use xlink:href="#DejaVuSans-6f" x="56.677734"/>
       <use xlink:href="#DejaVuSans-73" x="117.859375"/>
       <use xlink:href="#DejaVuSans-69" x="169.958984"/>
       <use xlink:href="#DejaVuSans-74" x="197.742188"/>
       <use xlink:href="#DejaVuSans-69" x="236.951172"/>
       <use xlink:href="#DejaVuSans-76" x="264.734375"/>
       <use xlink:href="#DejaVuSans-65" x="323.914062"/>
      </g>
     </g>
    </g>
   </g>
   <g id="matplotlib.axis_6">
    <g id="ytick_17">
     <g id="line2d_23">
      <g>
       <use xlink:href="#m3bd260e750" x="926.57" y="799.488653" style="stroke: #000000; stroke-width: 0.8"/>
      </g>
     </g>
     <g id="text_27">
      <!-- 0 -->
      <g transform="translate(913.2075 803.287872) scale(0.1 -0.1)">
       <use xlink:href="#DejaVuSans-30"/>
      </g>
     </g>
    </g>
    <g id="ytick_18">
     <g id="line2d_24">
      <g>
       <use xlink:href="#m3bd260e750" x="926.57" y="692.526845" style="stroke: #000000; stroke-width: 0.8"/>
      </g>
     </g>
     <g id="text_28">
      <!-- 20000 -->
      <g transform="translate(887.7575 696.326063) scale(0.1 -0.1)">
       <use xlink:href="#DejaVuSans-32"/>
       <use xlink:href="#DejaVuSans-30" x="63.623047"/>
       <use xlink:href="#DejaVuSans-30" x="127.246094"/>
       <use xlink:href="#DejaVuSans-30" x="190.869141"/>
       <use xlink:href="#DejaVuSans-30" x="254.492188"/>
      </g>
     </g>
    </g>
    <g id="ytick_19">
     <g id="line2d_25">
      <g>
       <use xlink:href="#m3bd260e750" x="926.57" y="585.565036" style="stroke: #000000; stroke-width: 0.8"/>
      </g>
     </g>
     <g id="text_29">
      <!-- 40000 -->
      <g transform="translate(887.7575 589.364255) scale(0.1 -0.1)">
       <use xlink:href="#DejaVuSans-34"/>
       <use xlink:href="#DejaVuSans-30" x="63.623047"/>
       <use xlink:href="#DejaVuSans-30" x="127.246094"/>
       <use xlink:href="#DejaVuSans-30" x="190.869141"/>
       <use xlink:href="#DejaVuSans-30" x="254.492188"/>
      </g>
     </g>
    </g>
    <g id="ytick_20">
     <g id="line2d_26">
      <g>
       <use xlink:href="#m3bd260e750" x="926.57" y="478.603228" style="stroke: #000000; stroke-width: 0.8"/>
      </g>
     </g>
     <g id="text_30">
      <!-- 60000 -->
      <g transform="translate(887.7575 482.402447) scale(0.1 -0.1)">
       <use xlink:href="#DejaVuSans-36"/>
       <use xlink:href="#DejaVuSans-30" x="63.623047"/>
       <use xlink:href="#DejaVuSans-30" x="127.246094"/>
       <use xlink:href="#DejaVuSans-30" x="190.869141"/>
       <use xlink:href="#DejaVuSans-30" x="254.492188"/>
      </g>
     </g>
    </g>
    <g id="ytick_21">
     <g id="line2d_27">
      <g>
       <use xlink:href="#m3bd260e750" x="926.57" y="371.64142" style="stroke: #000000; stroke-width: 0.8"/>
      </g>
     </g>
     <g id="text_31">
      <!-- 80000 -->
      <g transform="translate(887.7575 375.440639) scale(0.1 -0.1)">
       <use xlink:href="#DejaVuSans-38"/>
       <use xlink:href="#DejaVuSans-30" x="63.623047"/>
       <use xlink:href="#DejaVuSans-30" x="127.246094"/>
       <use xlink:href="#DejaVuSans-30" x="190.869141"/>
       <use xlink:href="#DejaVuSans-30" x="254.492188"/>
      </g>
     </g>
    </g>
    <g id="ytick_22">
     <g id="line2d_28">
      <g>
       <use xlink:href="#m3bd260e750" x="926.57" y="264.679612" style="stroke: #000000; stroke-width: 0.8"/>
      </g>
     </g>
     <g id="text_32">
      <!-- 100000 -->
      <g transform="translate(881.395 268.47883) scale(0.1 -0.1)">
       <use xlink:href="#DejaVuSans-31"/>
       <use xlink:href="#DejaVuSans-30" x="63.623047"/>
       <use xlink:href="#DejaVuSans-30" x="127.246094"/>
       <use xlink:href="#DejaVuSans-30" x="190.869141"/>
       <use xlink:href="#DejaVuSans-30" x="254.492188"/>
       <use xlink:href="#DejaVuSans-30" x="318.115234"/>
      </g>
     </g>
    </g>
    <g id="ytick_23">
     <g id="line2d_29">
      <g>
       <use xlink:href="#m3bd260e750" x="926.57" y="157.717803" style="stroke: #000000; stroke-width: 0.8"/>
      </g>
     </g>
     <g id="text_33">
      <!-- 120000 -->
      <g transform="translate(881.395 161.517022) scale(0.1 -0.1)">
       <use xlink:href="#DejaVuSans-31"/>
       <use xlink:href="#DejaVuSans-32" x="63.623047"/>
       <use xlink:href="#DejaVuSans-30" x="127.246094"/>
       <use xlink:href="#DejaVuSans-30" x="190.869141"/>
       <use xlink:href="#DejaVuSans-30" x="254.492188"/>
       <use xlink:href="#DejaVuSans-30" x="318.115234"/>
      </g>
     </g>
    </g>
    <g id="ytick_24">
     <g id="line2d_30">
      <g>
       <use xlink:href="#m3bd260e750" x="926.57" y="50.755995" style="stroke: #000000; stroke-width: 0.8"/>
      </g>
     </g>
     <g id="text_34">
      <!-- 140000 -->
      <g transform="translate(881.395 54.555214) scale(0.1 -0.1)">
       <use xlink:href="#DejaVuSans-31"/>
       <use xlink:href="#DejaVuSans-34" x="63.623047"/>
       <use xlink:href="#DejaVuSans-30" x="127.246094"/>
       <use xlink:href="#DejaVuSans-30" x="190.869141"/>
       <use xlink:href="#DejaVuSans-30" x="254.492188"/>
       <use xlink:href="#DejaVuSans-30" x="318.115234"/>
      </g>
     </g>
    </g>
    <g id="text_35">
     <!-- normalised DNA abundance -->
     <g transform="translate(875.315313 501.261719) rotate(-90) scale(0.1 -0.1)">
      <use xlink:href="#DejaVuSans-6e"/>
      <use xlink:href="#DejaVuSans-6f" x="63.378906"/>
      <use xlink:href="#DejaVuSans-72" x="124.560547"/>
      <use xlink:href="#DejaVuSans-6d" x="163.923828"/>
      <use xlink:href="#DejaVuSans-61" x="261.335938"/>
      <use xlink:href="#DejaVuSans-6c" x="322.615234"/>
      <use xlink:href="#DejaVuSans-69" x="350.398438"/>
      <use xlink:href="#DejaVuSans-73" x="378.181641"/>
      <use xlink:href="#DejaVuSans-65" x="430.28125"/>
      <use xlink:href="#DejaVuSans-64" x="491.804688"/>
      <use xlink:href="#DejaVuSans-20" x="555.28125"/>
      <use xlink:href="#DejaVuSans-44" x="587.068359"/>
      <use xlink:href="#DejaVuSans-4e" x="664.070312"/>
      <use xlink:href="#DejaVuSans-41" x="738.875"/>
      <use xlink:href="#DejaVuSans-20" x="807.283203"/>
      <use xlink:href="#DejaVuSans-61" x="839.070312"/>
      <use xlink:href="#DejaVuSans-62" x="900.349609"/>
      <use xlink:href="#DejaVuSans-75" x="963.826172"/>
      <use xlink:href="#DejaVuSans-6e" x="1027.205078"/>
      <use xlink:href="#DejaVuSans-64" x="1090.583984"/>
      <use xlink:href="#DejaVuSans-61" x="1154.060547"/>
      <use xlink:href="#DejaVuSans-6e" x="1215.339844"/>
      <use xlink:href="#DejaVuSans-63" x="1278.71875"/>
      <use xlink:href="#DejaVuSans-65" x="1333.699219"/>
     </g>
    </g>
   </g>
   <g id="patch_13">
    <path d="M 926.57 836.12 
L 926.57 26.88 
" style="fill: none; stroke: #000000; stroke-width: 0.8; stroke-linejoin: miter; stroke-linecap: square"/>
   </g>
   <g id="patch_14">
    <path d="M 1285.2 836.12 
L 1285.2 26.88 
" style="fill: none; stroke: #000000; stroke-width: 0.8; stroke-linejoin: miter; stroke-linecap: square"/>
   </g>
   <g id="patch_15">
    <path d="M 926.57 836.12 
L 1285.2 836.12 
" style="fill: none; stroke: #000000; stroke-width: 0.8; stroke-linejoin: miter; stroke-linecap: square"/>
   </g>
   <g id="patch_16">
    <path d="M 926.57 26.88 
L 1285.2 26.88 
" style="fill: none; stroke: #000000; stroke-width: 0.8; stroke-linejoin: miter; stroke-linecap: square"/>
   </g>
   <g id="PathCollection_5">
    <g clip-path="url(#p9ad60eb700)">
     <use xlink:href="#mf8d7b9bae9" x="1020.551454" y="797.059568" style="fill-opacity: 0.5"/>
     <use xlink:href="#mf8d7b9bae9" x="1003.086001" y="797.209077" style="fill-opacity: 0.5"/>
     <use xlink:href="#mf8d7b9bae9" x="1002.746977" y="797.594538" style="fill-opacity: 0.5"/>
     <use xlink:href="#mf8d7b9bae9" x="1033.379628" y="798.666073" style="fill-opacity: 0.5"/>
     <use xlink:href="#mf8d7b9bae9" x="1000.693439" y="798.774385" style="fill-opacity: 0.5"/>
     <use xlink:href="#mf8d7b9bae9" x="1026.227772" y="797.037294" style="fill-opacity: 0.5"/>
     <use xlink:href="#mf8d7b9bae9" x="1033.211005" y="795.787227" style="fill-opacity: 0.5"/>
     <use xlink:href="#mf8d7b9bae9" x="1010.618255" y="798.63348" style="fill-opacity: 0.5"/>
     <use xlink:href="#mf8d7b9bae9" x="1023.044953" y="797.578544" style="fill-opacity: 0.5"/>
     <use xlink:href="#mf8d7b9bae9" x="1020.538967" y="798.504748" style="fill-opacity: 0.5"/>
     <use xlink:href="#mf8d7b9bae9" x="999.307941" y="798.696099" style="fill-opacity: 0.5"/>
     <use xlink:href="#mf8d7b9bae9" x="1027.21641" y="798.971747" style="fill-opacity: 0.5"/>
     <use xlink:href="#mf8d7b9bae9" x="1032.816048" y="798.631797" style="fill-opacity: 0.5"/>
     <use xlink:href="#mf8d7b9bae9" x="1012.643686" y="798.425839" style="fill-opacity: 0.5"/>
     <use xlink:href="#mf8d7b9bae9" x="1018.511964" y="798.520437" style="fill-opacity: 0.5"/>
     <use xlink:href="#mf8d7b9bae9" x="1026.905978" y="795.453428" style="fill-opacity: 0.5"/>
     <use xlink:href="#mf8d7b9bae9" x="1005.482049" y="798.723604" style="fill-opacity: 0.5"/>
     <use xlink:href="#mf8d7b9bae9" x="1012.550981" y="798.660662" style="fill-opacity: 0.5"/>
     <use xlink:href="#mf8d7b9bae9" x="1015.502704" y="798.635215" style="fill-opacity: 0.5"/>
     <use xlink:href="#mf8d7b9bae9" x="1009.173713" y="798.154332" style="fill-opacity: 0.5"/>
     <use xlink:href="#mf8d7b9bae9" x="1008.103169" y="798.798073" style="fill-opacity: 0.5"/>
     <use xlink:href="#mf8d7b9bae9" x="1025.391637" y="798.648778" style="fill-opacity: 0.5"/>
     <use xlink:href="#mf8d7b9bae9" x="1019.837239" y="796.543878" style="fill-opacity: 0.5"/>
     <use xlink:href="#mf8d7b9bae9" x="1008.490857" y="794.29785" style="fill-opacity: 0.5"/>
     <use xlink:href="#mf8d7b9bae9" x="1026.884562" y="798.42545" style="fill-opacity: 0.5"/>
     <use xlink:href="#mf8d7b9bae9" x="1022.793673" y="783.827385" style="fill-opacity: 0.5"/>
     <use xlink:href="#mf8d7b9bae9" x="1023.774638" y="797.022365" style="fill-opacity: 0.5"/>
     <use xlink:href="#mf8d7b9bae9" x="1015.5366" y="795.889215" style="fill-opacity: 0.5"/>
     <use xlink:href="#mf8d7b9bae9" x="1002.728457" y="791.719269" style="fill-opacity: 0.5"/>
     <use xlink:href="#mf8d7b9bae9" x="1007.404878" y="797.71668" style="fill-opacity: 0.5"/>
     <use xlink:href="#mf8d7b9bae9" x="1032.306753" y="797.226469" style="fill-opacity: 0.5"/>
     <use xlink:href="#mf8d7b9bae9" x="1026.746793" y="798.15073" style="fill-opacity: 0.5"/>
     <use xlink:href="#mf8d7b9bae9" x="1013.081107" y="796.495207" style="fill-opacity: 0.5"/>
     <use xlink:href="#mf8d7b9bae9" x="1032.840801" y="761.149471" style="fill-opacity: 0.5"/>
     <use xlink:href="#mf8d7b9bae9" x="1029.913532" y="798.284421" style="fill-opacity: 0.5"/>
     <use xlink:href="#mf8d7b9bae9" x="1025.427516" y="798.219201" style="fill-opacity: 0.5"/>
     <use xlink:href="#mf8d7b9bae9" x="1022.027764" y="798.787923" style="fill-opacity: 0.5"/>
     <use xlink:href="#mf8d7b9bae9" x="1012.235524" y="798.256392" style="fill-opacity: 0.5"/>
     <use xlink:href="#mf8d7b9bae9" x="1020.415502" y="799.123447" style="fill-opacity: 0.5"/>
     <use xlink:href="#mf8d7b9bae9" x="1017.521956" y="799.23578" style="fill-opacity: 0.5"/>
     <use xlink:href="#mf8d7b9bae9" x="1016.992286" y="798.444393" style="fill-opacity: 0.5"/>
     <use xlink:href="#mf8d7b9bae9" x="1002.090944" y="798.451175" style="fill-opacity: 0.5"/>
     <use xlink:href="#mf8d7b9bae9" x="1024.24708" y="798.553156" style="fill-opacity: 0.5"/>
     <use xlink:href="#mf8d7b9bae9" x="1024.301488" y="798.699674" style="fill-opacity: 0.5"/>
     <use xlink:href="#mf8d7b9bae9" x="1004.758808" y="798.43488" style="fill-opacity: 0.5"/>
     <use xlink:href="#mf8d7b9bae9" x="1004.211022" y="798.094866" style="fill-opacity: 0.5"/>
     <use xlink:href="#mf8d7b9bae9" x="1028.882632" y="796.671113" style="fill-opacity: 0.5"/>
     <use xlink:href="#mf8d7b9bae9" x="1000.236676" y="798.62181" style="fill-opacity: 0.5"/>
     <use xlink:href="#mf8d7b9bae9" x="1001.847866" y="798.091124" style="fill-opacity: 0.5"/>
     <use xlink:href="#mf8d7b9bae9" x="1012.779296" y="798.673547" style="fill-opacity: 0.5"/>
     <use xlink:href="#mf8d7b9bae9" x="1027.516155" y="799.336364" style="fill-opacity: 0.5"/>
     <use xlink:href="#mf8d7b9bae9" x="1027.351334" y="798.78309" style="fill-opacity: 0.5"/>
     <use xlink:href="#mf8d7b9bae9" x="1015.806967" y="798.633489" style="fill-opacity: 0.5"/>
     <use xlink:href="#mf8d7b9bae9" x="1022.69493" y="798.889332" style="fill-opacity: 0.5"/>
     <use xlink:href="#mf8d7b9bae9" x="1001.878414" y="798.665228" style="fill-opacity: 0.5"/>
     <use xlink:href="#mf8d7b9bae9" x="1007.354866" y="797.48075" style="fill-opacity: 0.5"/>
     <use xlink:href="#mf8d7b9bae9" x="1000.722369" y="798.30328" style="fill-opacity: 0.5"/>
     <use xlink:href="#mf8d7b9bae9" x="1004.247556" y="797.757157" style="fill-opacity: 0.5"/>
     <use xlink:href="#mf8d7b9bae9" x="1026.396258" y="798.479146" style="fill-opacity: 0.5"/>
     <use xlink:href="#mf8d7b9bae9" x="1010.231829" y="798.395152" style="fill-opacity: 0.5"/>
     <use xlink:href="#mf8d7b9bae9" x="1026.190523" y="798.662503" style="fill-opacity: 0.5"/>
     <use xlink:href="#mf8d7b9bae9" x="1025.347914" y="798.970244" style="fill-opacity: 0.5"/>
     <use xlink:href="#mf8d7b9bae9" x="1018.845045" y="795.829349" style="fill-opacity: 0.5"/>
     <use xlink:href="#mf8d7b9bae9" x="1009.510109" y="795.144216" style="fill-opacity: 0.5"/>
    </g>
   </g>
   <g id="PathCollection_6">
    <g clip-path="url(#p9ad60eb700)">
     <use xlink:href="#mf8d7b9bae9" x="1185.047249" y="63.663636" style="fill-opacity: 0.5"/>
     <use xlink:href="#mf8d7b9bae9" x="1209.725267" y="798.092069" style="fill-opacity: 0.5"/>
     <use xlink:href="#mf8d7b9bae9" x="1186.584979" y="501.696389" style="fill-opacity: 0.5"/>
     <use xlink:href="#mf8d7b9bae9" x="1205.602685" y="798.295608" style="fill-opacity: 0.5"/>
     <use xlink:href="#mf8d7b9bae9" x="1180.901995" y="797.334944" style="fill-opacity: 0.5"/>
     <use xlink:href="#mf8d7b9bae9" x="1210.688836" y="797.921837" style="fill-opacity: 0.5"/>
     <use xlink:href="#mf8d7b9bae9" x="1202.540854" y="798.613023" style="fill-opacity: 0.5"/>
     <use xlink:href="#mf8d7b9bae9" x="1198.950325" y="798.375023" style="fill-opacity: 0.5"/>
     <use xlink:href="#mf8d7b9bae9" x="1206.390704" y="799.168751" style="fill-opacity: 0.5"/>
     <use xlink:href="#mf8d7b9bae9" x="1196.187787" y="797.957976" style="fill-opacity: 0.5"/>
     <use xlink:href="#mf8d7b9bae9" x="1199.240817" y="791.488129" style="fill-opacity: 0.5"/>
     <use xlink:href="#mf8d7b9bae9" x="1196.777337" y="791.364888" style="fill-opacity: 0.5"/>
     <use xlink:href="#mf8d7b9bae9" x="1196.812532" y="797.890342" style="fill-opacity: 0.5"/>
     <use xlink:href="#mf8d7b9bae9" x="1206.122936" y="707.659661" style="fill-opacity: 0.5"/>
     <use xlink:href="#mf8d7b9bae9" x="1192.873306" y="798.939171" style="fill-opacity: 0.5"/>
     <use xlink:href="#mf8d7b9bae9" x="1186.368028" y="798.379123" style="fill-opacity: 0.5"/>
     <use xlink:href="#mf8d7b9bae9" x="1207.366023" y="738.075214" style="fill-opacity: 0.5"/>
    </g>
   </g>
   <g id="text_36">
    <!-- C) -->
    <g transform="translate(926.57 20.88) scale(0.12 -0.12)">
     <defs>
      <path id="DejaVuSans-43" d="M 4122 4306 
L 4122 3641 
Q 3803 3938 3442 4084 
Q 3081 4231 2675 4231 
Q 1875 4231 1450 3742 
Q 1025 3253 1025 2328 
Q 1025 1406 1450 917 
Q 1875 428 2675 428 
Q 3081 428 3442 575 
Q 3803 722 4122 1019 
L 4122 359 
Q 3791 134 3420 21 
Q 3050 -91 2638 -91 
Q 1578 -91 968 557 
Q 359 1206 359 2328 
Q 359 3453 968 4101 
Q 1578 4750 2638 4750 
Q 3056 4750 3426 4639 
Q 3797 4528 4122 4306 
z
" transform="scale(0.015625)"/>
     </defs>
     <use xlink:href="#DejaVuSans-43"/>
     <use xlink:href="#DejaVuSans-29" x="69.824219"/>
    </g>
   </g>
  </g>
 </g>
 <defs>
  <clipPath id="p192b672ad2">
   <rect x="69.77" y="26.88" width="358.63" height="809.24"/>
  </clipPath>
  <clipPath id="p747dc4f919">
   <rect x="498.17" y="26.88" width="358.63" height="809.24"/>
  </clipPath>
  <clipPath id="p9ad60eb700">
   <rect x="926.57" y="26.88" width="358.63" height="809.24"/>
  </clipPath>
 </defs>
</svg>
