<?xml version="1.0" encoding="utf-8" standalone="no"?>
<!DOCTYPE svg PUBLIC "-//W3C//DTD SVG 1.1//EN"
  "http://www.w3.org/Graphics/SVG/1.1/DTD/svg11.dtd">
<svg xmlns:xlink="http://www.w3.org/1999/xlink" width="864pt" height="576pt" viewBox="0 0 864 576" xmlns="http://www.w3.org/2000/svg" version="1.1">
 <metadata>
  <rdf:RDF xmlns:dc="http://purl.org/dc/elements/1.1/" xmlns:cc="http://creativecommons.org/ns#" xmlns:rdf="http://www.w3.org/1999/02/22-rdf-syntax-ns#">
   <cc:Work>
    <dc:type rdf:resource="http://purl.org/dc/dcmitype/StillImage"/>
    <dc:date>2025-09-08T19:24:43.193122</dc:date>
    <dc:format>image/svg+xml</dc:format>
    <dc:creator>
     <cc:Agent>
      <dc:title>Matplotlib v3.8.0, https://matplotlib.org/</dc:title>
     </cc:Agent>
    </dc:creator>
   </cc:Work>
  </rdf:RDF>
 </metadata>
 <defs>
  <style type="text/css">*{stroke-linejoin: round; stroke-linecap: butt}</style>
 </defs>
 <g id="figure_1">
  <g id="patch_1">
   <path d="M 0 576 
L 864 576 
L 864 0 
L 0 0 
z
" style="fill: #ffffff"/>
  </g>
  <g id="patch_2">
   <path d="M 98.1872 565.2 
L 636.5072 565.2 
L 636.5072 26.88 
L 98.1872 26.88 
z
" style="fill: #ffffff"/>
  </g>
  <g id="pane3d_1">
   <g id="patch_3">
    <path d="M 138.834072 432.46754 
L 316.604917 283.456493 
L 314.133732 68.555925 
L 127.855636 204.493195 
" style="fill: #f2f2f2; opacity: 0.5; stroke: #f2f2f2; stroke-linejoin: miter"/>
   </g>
  </g>
  <g id="pane3d_2">
   <g id="patch_4">
    <path d="M 316.604917 283.456493 
L 601.863694 366.369957 
L 612.043574 144.067386 
L 314.133732 68.555925 
" style="fill: #e6e6e6; opacity: 0.5; stroke: #e6e6e6; stroke-linejoin: miter"/>
   </g>
  </g>
  <g id="pane3d_3">
   <g id="patch_5">
    <path d="M 138.834072 432.46754 
L 441.222308 531.227537 
L 601.863694 366.369957 
L 316.604917 283.456493 
" style="fill: #ececec; opacity: 0.5; stroke: #ececec; stroke-linejoin: miter"/>
   </g>
  </g>
  <g id="grid3d_1"/>
  <g id="grid3d_2"/>
  <g id="grid3d_3"/>
  <g id="axis3d_1">
   <g id="line2d_1">
    <path d="M 138.834072 432.46754 
L 441.222308 531.227537 
" style="fill: none; stroke: #000000; stroke-width: 0.8; stroke-linecap: square"/>
   </g>
   <g id="text_1">
    <!-- 10 pwCF samples -->
    <g transform="translate(227.179541 504.647053) rotate(-341.912962) scale(0.1 -0.1)">
     <defs>
      <path id="DejaVuSans-31" d="M 794 531 
L 1825 531 
L 1825 4091 
L 703 3866 
L 703 4441 
L 1819 4666 
L 2450 4666 
L 2450 531 
L 3481 531 
L 3481 0 
L 794 0 
L 794 531 
z
" transform="scale(0.015625)"/>
      <path id="DejaVuSans-30" d="M 2034 4250 
Q 1547 4250 1301 3770 
Q 1056 3291 1056 2328 
Q 1056 1369 1301 889 
Q 1547 409 2034 409 
Q 2525 409 2770 889 
Q 3016 1369 3016 2328 
Q 3016 3291 2770 3770 
Q 2525 4250 2034 4250 
z
M 2034 4750 
Q 2819 4750 3233 4129 
Q 3647 3509 3647 2328 
Q 3647 1150 3233 529 
Q 2819 -91 2034 -91 
Q 1250 -91 836 529 
Q 422 1150 422 2328 
Q 422 3509 836 4129 
Q 1250 4750 2034 4750 
z
" transform="scale(0.015625)"/>
      <path id="DejaVuSans-20" transform="scale(0.015625)"/>
      <path id="DejaVuSans-70" d="M 1159 525 
L 1159 -1331 
L 581 -1331 
L 581 3500 
L 1159 3500 
L 1159 2969 
Q 1341 3281 1617 3432 
Q 1894 3584 2278 3584 
Q 2916 3584 3314 3078 
Q 3713 2572 3713 1747 
Q 3713 922 3314 415 
Q 2916 -91 2278 -91 
Q 1894 -91 1617 61 
Q 1341 213 1159 525 
z
M 3116 1747 
Q 3116 2381 2855 2742 
Q 2594 3103 2138 3103 
Q 1681 3103 1420 2742 
Q 1159 2381 1159 1747 
Q 1159 1113 1420 752 
Q 1681 391 2138 391 
Q 2594 391 2855 752 
Q 3116 1113 3116 1747 
z
" transform="scale(0.015625)"/>
      <path id="DejaVuSans-77" d="M 269 3500 
L 844 3500 
L 1563 769 
L 2278 3500 
L 2956 3500 
L 3675 769 
L 4391 3500 
L 4966 3500 
L 4050 0 
L 3372 0 
L 2619 2869 
L 1863 0 
L 1184 0 
L 269 3500 
z
" transform="scale(0.015625)"/>
      <path id="DejaVuSans-43" d="M 4122 4306 
L 4122 3641 
Q 3803 3938 3442 4084 
Q 3081 4231 2675 4231 
Q 1875 4231 1450 3742 
Q 1025 3253 1025 2328 
Q 1025 1406 1450 917 
Q 1875 428 2675 428 
Q 3081 428 3442 575 
Q 3803 722 4122 1019 
L 4122 359 
Q 3791 134 3420 21 
Q 3050 -91 2638 -91 
Q 1578 -91 968 557 
Q 359 1206 359 2328 
Q 359 3453 968 4101 
Q 1578 4750 2638 4750 
Q 3056 4750 3426 4639 
Q 3797 4528 4122 4306 
z
" transform="scale(0.015625)"/>
      <path id="DejaVuSans-46" d="M 628 4666 
L 3309 4666 
L 3309 4134 
L 1259 4134 
L 1259 2759 
L 3109 2759 
L 3109 2228 
L 1259 2228 
L 1259 0 
L 628 0 
L 628 4666 
z
" transform="scale(0.015625)"/>
      <path id="DejaVuSans-73" d="M 2834 3397 
L 2834 2853 
Q 2591 2978 2328 3040 
Q 2066 3103 1784 3103 
Q 1356 3103 1142 2972 
Q 928 2841 928 2578 
Q 928 2378 1081 2264 
Q 1234 2150 1697 2047 
L 1894 2003 
Q 2506 1872 2764 1633 
Q 3022 1394 3022 966 
Q 3022 478 2636 193 
Q 2250 -91 1575 -91 
Q 1294 -91 989 -36 
Q 684 19 347 128 
L 347 722 
Q 666 556 975 473 
Q 1284 391 1588 391 
Q 1994 391 2212 530 
Q 2431 669 2431 922 
Q 2431 1156 2273 1281 
Q 2116 1406 1581 1522 
L 1381 1569 
Q 847 1681 609 1914 
Q 372 2147 372 2553 
Q 372 3047 722 3315 
Q 1072 3584 1716 3584 
Q 2034 3584 2315 3537 
Q 2597 3491 2834 3397 
z
" transform="scale(0.015625)"/>
      <path id="DejaVuSans-61" d="M 2194 1759 
Q 1497 1759 1228 1600 
Q 959 1441 959 1056 
Q 959 750 1161 570 
Q 1363 391 1709 391 
Q 2188 391 2477 730 
Q 2766 1069 2766 1631 
L 2766 1759 
L 2194 1759 
z
M 3341 1997 
L 3341 0 
L 2766 0 
L 2766 531 
Q 2569 213 2275 61 
Q 1981 -91 1556 -91 
Q 1019 -91 701 211 
Q 384 513 384 1019 
Q 384 1609 779 1909 
Q 1175 2209 1959 2209 
L 2766 2209 
L 2766 2266 
Q 2766 2663 2505 2880 
Q 2244 3097 1772 3097 
Q 1472 3097 1187 3025 
Q 903 2953 641 2809 
L 641 3341 
Q 956 3463 1253 3523 
Q 1550 3584 1831 3584 
Q 2591 3584 2966 3190 
Q 3341 2797 3341 1997 
z
" transform="scale(0.015625)"/>
      <path id="DejaVuSans-6d" d="M 3328 2828 
Q 3544 3216 3844 3400 
Q 4144 3584 4550 3584 
Q 5097 3584 5394 3201 
Q 5691 2819 5691 2113 
L 5691 0 
L 5113 0 
L 5113 2094 
Q 5113 2597 4934 2840 
Q 4756 3084 4391 3084 
Q 3944 3084 3684 2787 
Q 3425 2491 3425 1978 
L 3425 0 
L 2847 0 
L 2847 2094 
Q 2847 2600 2669 2842 
Q 2491 3084 2119 3084 
Q 1678 3084 1418 2786 
Q 1159 2488 1159 1978 
L 1159 0 
L 581 0 
L 581 3500 
L 1159 3500 
L 1159 2956 
Q 1356 3278 1631 3431 
Q 1906 3584 2284 3584 
Q 2666 3584 2933 3390 
Q 3200 3197 3328 2828 
z
" transform="scale(0.015625)"/>
      <path id="DejaVuSans-6c" d="M 603 4863 
L 1178 4863 
L 1178 0 
L 603 0 
L 603 4863 
z
" transform="scale(0.015625)"/>
      <path id="DejaVuSans-65" d="M 3597 1894 
L 3597 1613 
L 953 1613 
Q 991 1019 1311 708 
Q 1631 397 2203 397 
Q 2534 397 2845 478 
Q 3156 559 3463 722 
L 3463 178 
Q 3153 47 2828 -22 
Q 2503 -91 2169 -91 
Q 1331 -91 842 396 
Q 353 884 353 1716 
Q 353 2575 817 3079 
Q 1281 3584 2069 3584 
Q 2775 3584 3186 3129 
Q 3597 2675 3597 1894 
z
M 3022 2063 
Q 3016 2534 2758 2815 
Q 2500 3097 2075 3097 
Q 1594 3097 1305 2825 
Q 1016 2553 972 2059 
L 3022 2063 
z
" transform="scale(0.015625)"/>
     </defs>
     <use xlink:href="#DejaVuSans-31"/>
     <use xlink:href="#DejaVuSans-30" x="63.623047"/>
     <use xlink:href="#DejaVuSans-20" x="127.246094"/>
     <use xlink:href="#DejaVuSans-70" x="159.033203"/>
     <use xlink:href="#DejaVuSans-77" x="222.509766"/>
     <use xlink:href="#DejaVuSans-43" x="304.296875"/>
     <use xlink:href="#DejaVuSans-46" x="374.121094"/>
     <use xlink:href="#DejaVuSans-20" x="431.640625"/>
     <use xlink:href="#DejaVuSans-73" x="463.427734"/>
     <use xlink:href="#DejaVuSans-61" x="515.527344"/>
     <use xlink:href="#DejaVuSans-6d" x="576.806641"/>
     <use xlink:href="#DejaVuSans-70" x="674.21875"/>
     <use xlink:href="#DejaVuSans-6c" x="737.695312"/>
     <use xlink:href="#DejaVuSans-65" x="765.478516"/>
     <use xlink:href="#DejaVuSans-73" x="827.001953"/>
    </g>
   </g>
  </g>
  <g id="axis3d_2">
   <g id="line2d_2">
    <path d="M 601.863694 366.369957 
L 441.222308 531.227537 
" style="fill: none; stroke: #000000; stroke-width: 0.8; stroke-linecap: square"/>
   </g>
   <g id="text_2">
    <!-- 54 class taxonomies -->
    <g transform="translate(518.471834 511.558528) rotate(-45.742112) scale(0.1 -0.1)">
     <defs>
      <path id="DejaVuSans-35" d="M 691 4666 
L 3169 4666 
L 3169 4134 
L 1269 4134 
L 1269 2991 
Q 1406 3038 1543 3061 
Q 1681 3084 1819 3084 
Q 2600 3084 3056 2656 
Q 3513 2228 3513 1497 
Q 3513 744 3044 326 
Q 2575 -91 1722 -91 
Q 1428 -91 1123 -41 
Q 819 9 494 109 
L 494 744 
Q 775 591 1075 516 
Q 1375 441 1709 441 
Q 2250 441 2565 725 
Q 2881 1009 2881 1497 
Q 2881 1984 2565 2268 
Q 2250 2553 1709 2553 
Q 1456 2553 1204 2497 
Q 953 2441 691 2322 
L 691 4666 
z
" transform="scale(0.015625)"/>
      <path id="DejaVuSans-34" d="M 2419 4116 
L 825 1625 
L 2419 1625 
L 2419 4116 
z
M 2253 4666 
L 3047 4666 
L 3047 1625 
L 3713 1625 
L 3713 1100 
L 3047 1100 
L 3047 0 
L 2419 0 
L 2419 1100 
L 313 1100 
L 313 1709 
L 2253 4666 
z
" transform="scale(0.015625)"/>
      <path id="DejaVuSans-63" d="M 3122 3366 
L 3122 2828 
Q 2878 2963 2633 3030 
Q 2388 3097 2138 3097 
Q 1578 3097 1268 2742 
Q 959 2388 959 1747 
Q 959 1106 1268 751 
Q 1578 397 2138 397 
Q 2388 397 2633 464 
Q 2878 531 3122 666 
L 3122 134 
Q 2881 22 2623 -34 
Q 2366 -91 2075 -91 
Q 1284 -91 818 406 
Q 353 903 353 1747 
Q 353 2603 823 3093 
Q 1294 3584 2113 3584 
Q 2378 3584 2631 3529 
Q 2884 3475 3122 3366 
z
" transform="scale(0.015625)"/>
      <path id="DejaVuSans-74" d="M 1172 4494 
L 1172 3500 
L 2356 3500 
L 2356 3053 
L 1172 3053 
L 1172 1153 
Q 1172 725 1289 603 
Q 1406 481 1766 481 
L 2356 481 
L 2356 0 
L 1766 0 
Q 1100 0 847 248 
Q 594 497 594 1153 
L 594 3053 
L 172 3053 
L 172 3500 
L 594 3500 
L 594 4494 
L 1172 4494 
z
" transform="scale(0.015625)"/>
      <path id="DejaVuSans-78" d="M 3513 3500 
L 2247 1797 
L 3578 0 
L 2900 0 
L 1881 1375 
L 863 0 
L 184 0 
L 1544 1831 
L 300 3500 
L 978 3500 
L 1906 2253 
L 2834 3500 
L 3513 3500 
z
" transform="scale(0.015625)"/>
      <path id="DejaVuSans-6f" d="M 1959 3097 
Q 1497 3097 1228 2736 
Q 959 2375 959 1747 
Q 959 1119 1226 758 
Q 1494 397 1959 397 
Q 2419 397 2687 759 
Q 2956 1122 2956 1747 
Q 2956 2369 2687 2733 
Q 2419 3097 1959 3097 
z
M 1959 3584 
Q 2709 3584 3137 3096 
Q 3566 2609 3566 1747 
Q 3566 888 3137 398 
Q 2709 -91 1959 -91 
Q 1206 -91 779 398 
Q 353 888 353 1747 
Q 353 2609 779 3096 
Q 1206 3584 1959 3584 
z
" transform="scale(0.015625)"/>
      <path id="DejaVuSans-6e" d="M 3513 2113 
L 3513 0 
L 2938 0 
L 2938 2094 
Q 2938 2591 2744 2837 
Q 2550 3084 2163 3084 
Q 1697 3084 1428 2787 
Q 1159 2491 1159 1978 
L 1159 0 
L 581 0 
L 581 3500 
L 1159 3500 
L 1159 2956 
Q 1366 3272 1645 3428 
Q 1925 3584 2291 3584 
Q 2894 3584 3203 3211 
Q 3513 2838 3513 2113 
z
" transform="scale(0.015625)"/>
      <path id="DejaVuSans-69" d="M 603 3500 
L 1178 3500 
L 1178 0 
L 603 0 
L 603 3500 
z
M 603 4863 
L 1178 4863 
L 1178 4134 
L 603 4134 
L 603 4863 
z
" transform="scale(0.015625)"/>
     </defs>
     <use xlink:href="#DejaVuSans-35"/>
     <use xlink:href="#DejaVuSans-34" x="63.623047"/>
     <use xlink:href="#DejaVuSans-20" x="127.246094"/>
     <use xlink:href="#DejaVuSans-63" x="159.033203"/>
     <use xlink:href="#DejaVuSans-6c" x="214.013672"/>
     <use xlink:href="#DejaVuSans-61" x="241.796875"/>
     <use xlink:href="#DejaVuSans-73" x="303.076172"/>
     <use xlink:href="#DejaVuSans-73" x="355.175781"/>
     <use xlink:href="#DejaVuSans-20" x="407.275391"/>
     <use xlink:href="#DejaVuSans-74" x="439.0625"/>
     <use xlink:href="#DejaVuSans-61" x="478.271484"/>
     <use xlink:href="#DejaVuSans-78" x="539.550781"/>
     <use xlink:href="#DejaVuSans-6f" x="595.605469"/>
     <use xlink:href="#DejaVuSans-6e" x="656.787109"/>
     <use xlink:href="#DejaVuSans-6f" x="720.166016"/>
     <use xlink:href="#DejaVuSans-6d" x="781.347656"/>
     <use xlink:href="#DejaVuSans-69" x="878.759766"/>
     <use xlink:href="#DejaVuSans-65" x="906.542969"/>
     <use xlink:href="#DejaVuSans-73" x="968.066406"/>
    </g>
   </g>
  </g>
  <g id="axis3d_3">
   <g id="line2d_3">
    <path d="M 601.863694 366.369957 
L 612.043574 144.067386 
" style="fill: none; stroke: #000000; stroke-width: 0.8; stroke-linecap: square"/>
   </g>
   <g id="text_3">
    <!-- Normalized MGI read depth -->
    <g transform="translate(646.972362 320.878308) rotate(-87.378092) scale(0.1 -0.1)">
     <defs>
      <path id="DejaVuSans-4e" d="M 628 4666 
L 1478 4666 
L 3547 763 
L 3547 4666 
L 4159 4666 
L 4159 0 
L 3309 0 
L 1241 3903 
L 1241 0 
L 628 0 
L 628 4666 
z
" transform="scale(0.015625)"/>
      <path id="DejaVuSans-72" d="M 2631 2963 
Q 2534 3019 2420 3045 
Q 2306 3072 2169 3072 
Q 1681 3072 1420 2755 
Q 1159 2438 1159 1844 
L 1159 0 
L 581 0 
L 581 3500 
L 1159 3500 
L 1159 2956 
Q 1341 3275 1631 3429 
Q 1922 3584 2338 3584 
Q 2397 3584 2469 3576 
Q 2541 3569 2628 3553 
L 2631 2963 
z
" transform="scale(0.015625)"/>
      <path id="DejaVuSans-7a" d="M 353 3500 
L 3084 3500 
L 3084 2975 
L 922 459 
L 3084 459 
L 3084 0 
L 275 0 
L 275 525 
L 2438 3041 
L 353 3041 
L 353 3500 
z
" transform="scale(0.015625)"/>
      <path id="DejaVuSans-64" d="M 2906 2969 
L 2906 4863 
L 3481 4863 
L 3481 0 
L 2906 0 
L 2906 525 
Q 2725 213 2448 61 
Q 2172 -91 1784 -91 
Q 1150 -91 751 415 
Q 353 922 353 1747 
Q 353 2572 751 3078 
Q 1150 3584 1784 3584 
Q 2172 3584 2448 3432 
Q 2725 3281 2906 2969 
z
M 947 1747 
Q 947 1113 1208 752 
Q 1469 391 1925 391 
Q 2381 391 2643 752 
Q 2906 1113 2906 1747 
Q 2906 2381 2643 2742 
Q 2381 3103 1925 3103 
Q 1469 3103 1208 2742 
Q 947 2381 947 1747 
z
" transform="scale(0.015625)"/>
      <path id="DejaVuSans-4d" d="M 628 4666 
L 1569 4666 
L 2759 1491 
L 3956 4666 
L 4897 4666 
L 4897 0 
L 4281 0 
L 4281 4097 
L 3078 897 
L 2444 897 
L 1241 4097 
L 1241 0 
L 628 0 
L 628 4666 
z
" transform="scale(0.015625)"/>
      <path id="DejaVuSans-47" d="M 3809 666 
L 3809 1919 
L 2778 1919 
L 2778 2438 
L 4434 2438 
L 4434 434 
Q 4069 175 3628 42 
Q 3188 -91 2688 -91 
Q 1594 -91 976 548 
Q 359 1188 359 2328 
Q 359 3472 976 4111 
Q 1594 4750 2688 4750 
Q 3144 4750 3555 4637 
Q 3966 4525 4313 4306 
L 4313 3634 
Q 3963 3931 3569 4081 
Q 3175 4231 2741 4231 
Q 1884 4231 1454 3753 
Q 1025 3275 1025 2328 
Q 1025 1384 1454 906 
Q 1884 428 2741 428 
Q 3075 428 3337 486 
Q 3600 544 3809 666 
z
" transform="scale(0.015625)"/>
      <path id="DejaVuSans-49" d="M 628 4666 
L 1259 4666 
L 1259 0 
L 628 0 
L 628 4666 
z
" transform="scale(0.015625)"/>
      <path id="DejaVuSans-68" d="M 3513 2113 
L 3513 0 
L 2938 0 
L 2938 2094 
Q 2938 2591 2744 2837 
Q 2550 3084 2163 3084 
Q 1697 3084 1428 2787 
Q 1159 2491 1159 1978 
L 1159 0 
L 581 0 
L 581 4863 
L 1159 4863 
L 1159 2956 
Q 1366 3272 1645 3428 
Q 1925 3584 2291 3584 
Q 2894 3584 3203 3211 
Q 3513 2838 3513 2113 
z
" transform="scale(0.015625)"/>
     </defs>
     <use xlink:href="#DejaVuSans-4e"/>
     <use xlink:href="#DejaVuSans-6f" x="74.804688"/>
     <use xlink:href="#DejaVuSans-72" x="135.986328"/>
     <use xlink:href="#DejaVuSans-6d" x="175.349609"/>
     <use xlink:href="#DejaVuSans-61" x="272.761719"/>
     <use xlink:href="#DejaVuSans-6c" x="334.041016"/>
     <use xlink:href="#DejaVuSans-69" x="361.824219"/>
     <use xlink:href="#DejaVuSans-7a" x="389.607422"/>
     <use xlink:href="#DejaVuSans-65" x="442.097656"/>
     <use xlink:href="#DejaVuSans-64" x="503.621094"/>
     <use xlink:href="#DejaVuSans-20" x="567.097656"/>
     <use xlink:href="#DejaVuSans-4d" x="598.884766"/>
     <use xlink:href="#DejaVuSans-47" x="685.164062"/>
     <use xlink:href="#DejaVuSans-49" x="762.654297"/>
     <use xlink:href="#DejaVuSans-20" x="792.146484"/>
     <use xlink:href="#DejaVuSans-72" x="823.933594"/>
     <use xlink:href="#DejaVuSans-65" x="862.796875"/>
     <use xlink:href="#DejaVuSans-61" x="924.320312"/>
     <use xlink:href="#DejaVuSans-64" x="985.599609"/>
     <use xlink:href="#DejaVuSans-20" x="1049.076172"/>
     <use xlink:href="#DejaVuSans-64" x="1080.863281"/>
     <use xlink:href="#DejaVuSans-65" x="1144.339844"/>
     <use xlink:href="#DejaVuSans-70" x="1205.863281"/>
     <use xlink:href="#DejaVuSans-74" x="1269.339844"/>
     <use xlink:href="#DejaVuSans-68" x="1308.548828"/>
    </g>
   </g>
  </g>
  <g id="axes_1">
   <g id="Poly3DCollection_1">
    <path d="M 304.421059 309.076558 
L 331.342527 317.024118 
L 334.069874 314.656862 
L 336.620418 289.843106 
L 309.751486 291.589452 
L 307.170388 306.576732 
z
" clip-path="url(#pe5c8325bfb)" style="fill: #a1547c"/>
    <path d="M 298.882277 312.903142 
L 325.864114 321.657313 
L 328.541034 312.142831 
L 331.342527 317.024118 
L 304.421059 309.076558 
L 301.650051 310.598344 
z
" clip-path="url(#pe5c8325bfb)" style="fill: #306da0"/>
    <path d="M 309.751486 291.589452 
L 336.620418 289.843106 
L 339.496125 309.075978 
L 342.147431 298.334508 
L 313.493852 139.462942 
L 312.643794 301.329681 
z
" clip-path="url(#pe5c8325bfb)" style="fill: #224f73"/>
    <path d="M 320.499429 265.338304 
L 346.786073 152.464806 
L 350.048481 253.159103 
L 323.45318 285.774302 
z
" clip-path="url(#pe5c8325bfb)" style="fill: #a75781"/>
    <path d="M 336.620418 289.843106 
L 363.887957 307.416883 
L 366.598694 315.013746 
L 369.262417 295.448176 
L 342.147431 298.334508 
L 339.496125 309.075978 
z
" clip-path="url(#pe5c8325bfb)" style="fill: #532b40"/>
    <path d="M 293.337641 318.389944 
L 320.35357 326.169142 
L 323.115522 324.182659 
L 325.864114 321.657313 
L 298.882277 312.903142 
L 296.121999 316.181979 
z
" clip-path="url(#pe5c8325bfb)" style="fill: #214d70"/>
    <path d="M 331.342527 317.024118 
L 358.510543 322.900323 
L 361.219788 322.51576 
L 363.887957 307.416883 
L 336.620418 289.843106 
L 334.069874 314.656862 
z
" clip-path="url(#pe5c8325bfb)" style="fill: #a1547d"/>
    <path d="M 313.493852 139.462942 
L 342.147431 298.334508 
L 344.905717 305.399409 
L 346.786073 152.464806 
L 320.499429 265.338304 
L 318.085583 295.831422 
z
" clip-path="url(#pe5c8325bfb)" style="fill: #512a3e"/>
    <path d="M 325.864114 321.657313 
L 353.089671 329.866984 
L 355.795909 324.423958 
L 358.510543 322.900323 
L 331.342527 317.024118 
L 328.541034 312.142831 
z
" clip-path="url(#pe5c8325bfb)" style="fill: #d972a8"/>
    <path d="M 287.754979 323.379584 
L 314.820716 331.443186 
L 317.594314 329.107202 
L 320.35357 326.169142 
L 293.337641 318.389944 
L 290.55147 320.96361 
z
" clip-path="url(#pe5c8325bfb)" style="fill: #224f73"/>
    <path d="M 363.887957 307.416883 
L 391.461636 278.960885 
L 393.968099 323.762786 
L 396.634407 319.142678 
L 369.262417 295.448176 
L 366.598694 315.013746 
z
" clip-path="url(#pe5c8325bfb)" style="fill: #773e5c"/>
    <path d="M 342.147431 298.334508 
L 369.262417 295.448176 
L 371.948897 298.029085 
L 374.622787 176.045726 
L 346.786073 152.464806 
L 344.905717 305.399409 
z
" clip-path="url(#pe5c8325bfb)" style="fill: #a4567f"/>
    <path d="M 320.35357 326.169142 
L 347.632019 334.753183 
L 350.361594 331.685418 
L 353.089671 329.866984 
L 325.864114 321.657313 
L 323.115522 324.182659 
z
" clip-path="url(#pe5c8325bfb)" style="fill: #c46697"/>
    <path d="M 282.137561 328.158519 
L 309.252182 336.288526 
L 312.040255 333.858355 
L 314.820716 331.443186 
L 287.754979 323.379584 
L 284.950254 325.771582 
z
" clip-path="url(#pe5c8325bfb)" style="fill: #357ab2"/>
    <path d="M 358.510543 322.900323 
L 385.950563 332.642967 
L 388.627445 330.545619 
L 391.461636 278.960885 
L 363.887957 307.416883 
L 361.219788 322.51576 
z
" clip-path="url(#pe5c8325bfb)" style="fill: #944d73"/>
    <path d="M 353.089671 329.866984 
L 380.572095 337.990905 
L 383.273245 330.508101 
L 385.950563 332.642967 
L 358.510543 322.900323 
L 355.795909 324.423958 
z
" clip-path="url(#pe5c8325bfb)" style="fill: #efef30"/>
    <path d="M 314.820716 331.443186 
L 342.143002 339.49448 
L 344.891122 337.081313 
L 347.632019 334.753183 
L 320.35357 326.169142 
L 317.594314 329.107202 
z
" clip-path="url(#pe5c8325bfb)" style="fill: #b9618f"/>
    <path d="M 276.488515 332.94058 
L 303.652236 341.131648 
L 306.456159 338.710461 
L 309.252182 336.288526 
L 282.137561 328.158519 
L 279.316651 330.530166 
z
" clip-path="url(#pe5c8325bfb)" style="fill: #26567e"/>
    <path d="M 391.461636 278.960885 
L 419.282956 297.607901 
L 421.593985 332.022729 
L 424.281992 323.833599 
L 396.634407 319.142678 
L 393.968099 323.762786 
z
" clip-path="url(#pe5c8325bfb)" style="fill: #4f293d"/>
    <path d="M 347.632019 334.753183 
L 375.164846 342.222225 
L 377.872084 340.601771 
L 380.572095 337.990905 
L 353.089671 329.866984 
L 350.361594 331.685418 
z
" clip-path="url(#pe5c8325bfb)" style="fill: #86861b"/>
    <path d="M 369.262417 295.448176 
L 396.634407 319.142678 
L 399.262224 321.341167 
L 402.805139 153.278799 
L 374.622787 176.045726 
L 371.948897 298.029085 
z
" clip-path="url(#pe5c8325bfb)" style="fill: #944d73"/>
    <path d="M 346.786073 152.464806 
L 374.622787 176.045726 
L 377.300169 272.832112 
L 350.048481 253.159103 
z
" clip-path="url(#pe5c8325bfb)" style="fill: #5f3149"/>
    <path d="M 309.252182 336.288526 
L 336.624594 344.458486 
L 339.38812 342.043801 
L 342.143002 339.49448 
L 314.820716 331.443186 
L 312.040255 333.858355 
z
" clip-path="url(#pe5c8325bfb)" style="fill: #f7f731"/>
    <path d="M 270.807923 337.746365 
L 298.018952 345.870883 
L 300.840018 343.528628 
L 303.652236 341.131648 
L 276.488515 332.94058 
L 273.652408 335.351834 
z
" clip-path="url(#pe5c8325bfb)" style="fill: #316fa3"/>
    <path d="M 385.950563 332.642967 
L 413.650357 340.266801 
L 416.303421 337.731933 
L 419.282956 297.607901 
L 391.461636 278.960885 
L 388.627445 330.545619 
z
" clip-path="url(#pe5c8325bfb)" style="fill: #a2547d"/>
    <path d="M 380.572095 337.990905 
L 408.316253 346.252895 
L 411.017636 339.019349 
L 413.650357 340.266801 
L 385.950563 332.642967 
L 383.273245 330.508101 
z
" clip-path="url(#pe5c8325bfb)" style="fill: #de74ab"/>
    <path d="M 342.143002 339.49448 
L 369.727322 347.868816 
L 372.449849 345.438377 
L 375.164846 342.222225 
L 347.632019 334.753183 
L 344.891122 337.081313 
z
" clip-path="url(#pe5c8325bfb)" style="fill: #585812"/>
    <path d="M 396.634407 319.142678 
L 424.281992 323.833599 
L 426.829026 329.029285 
L 430.644311 217.132484 
L 402.805139 153.278799 
L 399.262224 321.341167 
z
" clip-path="url(#pe5c8325bfb)" style="fill: #9e537b"/>
    <path d="M 303.652236 341.131648 
L 331.074979 349.39241 
L 333.853806 346.940315 
L 336.624594 344.458486 
L 309.252182 336.288526 
L 306.456159 338.710461 
z
" clip-path="url(#pe5c8325bfb)" style="fill: #f27ebb"/>
    <path d="M 374.622787 176.045726 
L 402.805139 153.278799 
L 404.564786 311.820971 
L 377.300169 272.832112 
z
" clip-path="url(#pe5c8325bfb)" style="fill: #723c58"/>
    <path d="M 419.282956 297.607901 
L 447.184484 321.056252 
L 449.473134 340.878597 
L 452.310366 323.416252 
L 424.281992 323.833599 
L 421.593985 332.022729 
z
" clip-path="url(#pe5c8325bfb)" style="fill: #502a3e"/>
    <path d="M 265.095221 342.562876 
L 292.35751 350.86325 
L 295.192508 348.384902 
L 298.018952 345.870883 
L 270.807923 337.746365 
L 267.955986 340.171044 
z
" clip-path="url(#pe5c8325bfb)" style="fill: #2b6390"/>
    <path d="M 375.164846 342.222225 
L 402.966768 350.136294 
L 405.64225 348.718363 
L 408.316253 346.252895 
L 380.572095 337.990905 
L 377.872084 340.601771 
z
" clip-path="url(#pe5c8325bfb)" style="fill: #4f293d"/>
    <path d="M 336.624594 344.458486 
L 364.259436 352.820395 
L 366.997182 350.329665 
L 369.727322 347.868816 
L 342.143002 339.49448 
L 339.38812 342.043801 
z
" clip-path="url(#pe5c8325bfb)" style="fill: #98981e"/>
    <path d="M 413.650357 340.266801 
L 441.612401 348.596306 
L 444.225164 347.067356 
L 447.184484 321.056252 
L 419.282956 297.607901 
L 416.303421 337.731933 
z
" clip-path="url(#pe5c8325bfb)" style="fill: #9e537b"/>
    <path d="M 298.018952 345.870883 
L 325.493068 354.231917 
L 328.288238 351.838493 
L 331.074979 349.39241 
L 303.652236 341.131648 
L 300.840018 343.528628 
z
" clip-path="url(#pe5c8325bfb)" style="fill: #525210"/>
    <path d="M 408.316253 346.252895 
L 436.327895 354.411832 
L 438.990052 350.229219 
L 441.612401 348.596306 
L 413.650357 340.266801 
L 411.017636 339.019349 
z
" clip-path="url(#pe5c8325bfb)" style="fill: #ec7bb7"/>
    <path d="M 259.350424 347.404949 
L 286.66174 355.73086 
L 289.513865 353.306723 
L 292.35751 350.86325 
L 265.095221 342.562876 
L 262.227444 345.006953 
z
" clip-path="url(#pe5c8325bfb)" style="fill: #132d41"/>
    <path d="M 369.727322 347.868816 
L 397.575208 356.159426 
L 400.271392 353.742466 
L 402.966768 350.136294 
L 375.164846 342.222225 
L 372.449849 345.438377 
z
" clip-path="url(#pe5c8325bfb)" style="fill: #a0547c"/>
    <path d="M 331.074979 349.39241 
L 358.760642 357.73397 
L 361.513921 355.277764 
L 364.259436 352.820395 
L 336.624594 344.458486 
L 333.853806 346.940315 
z
" clip-path="url(#pe5c8325bfb)" style="fill: #a0a020"/>
    <path d="M 424.281992 323.833599 
L 452.310366 323.416252 
L 454.678086 335.75248 
L 460.086025 162.984469 
L 430.644311 217.132484 
L 426.829026 329.029285 
z
" clip-path="url(#pe5c8325bfb)" style="fill: #9c5178"/>
    <path d="M 402.805139 153.278799 
L 430.644311 217.132484 
L 432.820046 257.329313 
L 404.564786 311.820971 
z
" clip-path="url(#pe5c8325bfb)" style="fill: #502a3e"/>
    <path d="M 292.35751 350.86325 
L 319.880641 359.200507 
L 322.691215 356.752825 
L 325.493068 354.231917 
L 298.018952 345.870883 
L 295.192508 348.384902 
z
" clip-path="url(#pe5c8325bfb)" style="fill: #a2547d"/>
    <path d="M 402.966768 350.136294 
L 431.028097 359.149288 
L 433.679354 356.981576 
L 436.327895 354.411832 
L 408.316253 346.252895 
L 405.64225 348.718363 
z
" clip-path="url(#pe5c8325bfb)" style="fill: #4f293d"/>
    <path d="M 253.57483 352.337597 
L 280.93523 360.706829 
L 283.802896 358.23646 
L 286.66174 355.73086 
L 259.350424 347.404949 
L 256.46644 349.85826 
z
" clip-path="url(#pe5c8325bfb)" style="fill: #981113"/>
    <path d="M 364.259436 352.820395 
L 392.159285 361.175026 
L 394.871103 358.649509 
L 397.575208 356.159426 
L 369.727322 347.868816 
L 366.997182 350.329665 
z
" clip-path="url(#pe5c8325bfb)" style="fill: #f9f932"/>
    <path d="M 441.612401 348.596306 
L 469.899996 353.972169 
L 472.430197 355.049433 
L 475.484293 329.625602 
L 447.184484 321.056252 
L 444.225164 347.067356 
z
" clip-path="url(#pe5c8325bfb)" style="fill: #9f537b"/>
    <path d="M 325.493068 354.231917 
L 353.230785 362.68465 
L 355.999619 360.206615 
L 358.760642 357.73397 
L 331.074979 349.39241 
L 328.288238 351.838493 
z
" clip-path="url(#pe5c8325bfb)" style="fill: #525210"/>
    <path d="M 436.327895 354.411832 
L 464.609985 362.688345 
L 467.270748 357.626924 
L 469.899996 353.972169 
L 441.612401 348.596306 
L 438.990052 350.229219 
z
" clip-path="url(#pe5c8325bfb)" style="fill: #e577b1"/>
    <path d="M 447.184484 321.056252 
L 475.484293 329.625602 
L 477.714674 344.809008 
L 482.549648 235.907275 
L 452.310366 323.416252 
L 449.473134 340.878597 
z
" clip-path="url(#pe5c8325bfb)" style="fill: #5b2f46"/>
    <path d="M 286.66174 355.73086 
L 314.235826 364.137872 
L 317.061792 361.628257 
L 319.880641 359.200507 
L 292.35751 350.86325 
L 289.513865 353.306723 
z
" clip-path="url(#pe5c8325bfb)" style="fill: #bf6494"/>
    <path d="M 397.575208 356.159426 
L 425.692007 364.485085 
L 428.360092 362.148957 
L 431.028097 359.149288 
L 402.966768 350.136294 
L 400.271392 353.742466 
z
" clip-path="url(#pe5c8325bfb)" style="fill: #a1a120"/>
    <path d="M 247.765504 357.247804 
L 275.175466 365.665285 
L 278.059452 363.184117 
L 280.93523 360.706829 
L 253.57483 352.337597 
L 250.674238 354.788507 
z
" clip-path="url(#pe5c8325bfb)" style="fill: #183750"/>
    <path d="M 358.760642 357.73397 
L 386.712987 366.161934 
L 389.440025 363.650733 
L 392.159285 361.175026 
L 364.259436 352.820395 
L 361.513921 355.277764 
z
" clip-path="url(#pe5c8325bfb)" style="fill: #dcdc2c"/>
    <path d="M 460.086025 162.984469 
L 486.190798 303.218045 
L 488.424465 315.808832 
L 460.209048 309.875497 
z
" clip-path="url(#pe5c8325bfb)" style="fill: #61324b"/>
    <path d="M 319.880641 359.200507 
L 347.669482 367.645205 
L 350.454058 365.158234 
L 353.230785 362.68465 
L 325.493068 354.231917 
L 322.691215 356.752825 
z
" clip-path="url(#pe5c8325bfb)" style="fill: #914c70"/>
    <path d="M 431.028097 359.149288 
L 459.369082 367.281637 
L 461.985147 365.447407 
L 464.609985 362.688345 
L 436.327895 354.411832 
L 433.679354 356.981576 
z
" clip-path="url(#pe5c8325bfb)" style="fill: #562d43"/>
    <path d="M 452.310366 323.416252 
L 482.549648 235.907275 
L 482.763356 344.625469 
L 486.190798 303.218045 
L 460.086025 162.984469 
L 454.678086 335.75248 
z
" clip-path="url(#pe5c8325bfb)" style="fill: #995076"/>
    <path d="M 430.644311 217.132484 
L 460.086025 162.984469 
L 460.209048 309.875497 
L 432.820046 257.329313 
z
" clip-path="url(#pe5c8325bfb)" style="fill: #814364"/>
    <path d="M 280.93523 360.706829 
L 308.559636 369.155928 
L 311.401637 366.63513 
L 314.235826 364.137872 
L 286.66174 355.73086 
L 283.802896 358.23646 
z
" clip-path="url(#pe5c8325bfb)" style="fill: #f3f331"/>
    <path d="M 482.549648 235.907275 
L 508.598619 354.930433 
L 511.093509 354.183403 
L 515.317804 291.206322 
L 486.190798 303.218045 
L 482.763356 344.625469 
z
" clip-path="url(#pe5c8325bfb)" style="fill: #542c41"/>
    <path d="M 392.159285 361.175026 
L 420.32834 369.644594 
L 423.013675 367.087042 
L 425.692007 364.485085 
L 397.575208 356.159426 
L 394.871103 358.649509 
z
" clip-path="url(#pe5c8325bfb)" style="fill: #3375ab"/>
    <path d="M 241.923562 362.194647 
L 269.383168 370.66107 
L 272.283421 368.159568 
L 275.175466 365.665285 
L 247.765504 357.247804 
L 244.848712 359.719951 
z
" clip-path="url(#pe5c8325bfb)" style="fill: #d9191b"/>
    <path d="M 353.230785 362.68465 
L 381.235891 371.101058 
L 383.9783 368.648564 
L 386.712987 366.161934 
L 358.760642 357.73397 
L 355.999619 360.206615 
z
" clip-path="url(#pe5c8325bfb)" style="fill: #f9f932"/>
    <path d="M 486.190798 303.218045 
L 515.317804 291.206322 
L 518.677588 260.504285 
L 488.424465 315.808832 
z
" clip-path="url(#pe5c8325bfb)" style="fill: #f17eba"/>
    <path d="M 469.899996 353.972169 
L 498.315548 366.585225 
L 501.080713 356.418632 
L 504.994206 302.001152 
L 475.484293 329.625602 
L 472.430197 355.049433 
z
" clip-path="url(#pe5c8325bfb)" style="fill: #b25d8a"/>
    <path d="M 464.609985 362.688345 
L 493.156006 371.493553 
L 495.935017 361.027932 
L 498.315548 366.585225 
L 469.899996 353.972169 
L 467.270748 357.626924 
z
" clip-path="url(#pe5c8325bfb)" style="fill: #f1f130"/>
    <path d="M 314.235826 364.137872 
L 342.076556 372.639315 
L 344.876855 370.116033 
L 347.669482 367.645205 
L 319.880641 359.200507 
L 317.061792 361.628257 
z
" clip-path="url(#pe5c8325bfb)" style="fill: #b4b424"/>
    <path d="M 425.692007 364.485085 
L 454.081552 372.89936 
L 456.721504 370.533833 
L 459.369082 367.281637 
L 431.028097 359.149288 
L 428.360092 362.148957 
z
" clip-path="url(#pe5c8325bfb)" style="fill: #954e73"/>
    <path d="M 275.175466 365.665285 
L 302.850724 374.168235 
L 305.709036 371.644164 
L 308.559636 369.155928 
L 280.93523 360.706829 
L 278.059452 363.184117 
z
" clip-path="url(#pe5c8325bfb)" style="fill: #dada2c"/>
    <path d="M 475.484293 329.625602 
L 504.994206 302.001152 
L 506.235933 350.347759 
L 508.598619 354.930433 
L 482.549648 235.907275 
L 477.714674 344.809008 
z
" clip-path="url(#pe5c8325bfb)" style="fill: #954e73"/>
    <path d="M 386.712987 366.161934 
L 414.935824 374.67227 
L 417.635966 372.148398 
L 420.32834 369.644594 
L 392.159285 361.175026 
L 389.440025 363.650733 
z
" clip-path="url(#pe5c8325bfb)" style="fill: #2d6898"/>
    <path d="M 236.048138 367.156201 
L 263.557554 375.670522 
L 266.474554 373.164419 
L 269.383168 370.66107 
L 241.923562 362.194647 
L 238.990091 364.674869 
z
" clip-path="url(#pe5c8325bfb)" style="fill: #132c40"/>
    <path d="M 347.669482 367.645205 
L 375.727441 376.173234 
L 378.485565 373.639897 
L 381.235891 371.101058 
L 353.230785 362.68465 
L 350.454058 365.158234 
z
" clip-path="url(#pe5c8325bfb)" style="fill: #c9c928"/>
    <path d="M 459.369082 367.281637 
L 487.965647 376.48349 
L 490.56671 373.891768 
L 493.156006 371.493553 
L 464.609985 362.688345 
L 461.985147 365.447407 
z
" clip-path="url(#pe5c8325bfb)" style="fill: #542c41"/>
    <path d="M 504.994206 302.001152 
L 533.49102 328.269087 
L 534.731685 366.279344 
L 537.368778 360.228511 
L 508.598619 354.930433 
L 506.235933 350.347759 
z
" clip-path="url(#pe5c8325bfb)" style="fill: #4f293d"/>
    <path d="M 308.559636 369.155928 
L 336.451901 377.685939 
L 339.266916 374.975226 
L 342.076556 372.639315 
L 314.235826 364.137872 
L 311.401637 366.63513 
z
" clip-path="url(#pe5c8325bfb)" style="fill: #e7e72e"/>
    <path d="M 420.32834 369.644594 
L 448.770881 378.166827 
L 451.428598 375.615652 
L 454.081552 372.89936 
L 425.692007 364.485085 
L 423.013675 367.087042 
z
" clip-path="url(#pe5c8325bfb)" style="fill: #c3c327"/>
    <path d="M 269.383168 370.66107 
L 297.109222 379.208648 
L 299.98393 376.675971 
L 302.850724 374.168235 
L 275.175466 365.665285 
L 272.283421 368.159568 
z
" clip-path="url(#pe5c8325bfb)" style="fill: #d9191b"/>
    <path d="M 508.598619 354.930433 
L 537.368778 360.228511 
L 539.73793 362.134743 
L 548.18251 183.606584 
L 515.317804 291.206322 
L 511.093509 354.183403 
z
" clip-path="url(#pe5c8325bfb)" style="fill: #9f537b"/>
    <path d="M 381.235891 371.101058 
L 409.51362 379.576737 
L 412.228469 377.141331 
L 414.935824 374.67227 
L 386.712987 366.161934 
L 383.9783 368.648564 
z
" clip-path="url(#pe5c8325bfb)" style="fill: #1f4768"/>
    <path d="M 230.139806 372.163782 
L 257.699018 380.724792 
L 260.632313 378.187615 
L 263.557554 375.670522 
L 236.048138 367.156201 
L 233.098289 369.660886 
z
" clip-path="url(#pe5c8325bfb)" style="fill: #de191b"/>
    <path d="M 493.156006 371.493553 
L 521.988289 379.94877 
L 524.619233 374.947819 
L 527.139719 373.386697 
L 498.315548 366.585225 
L 495.935017 361.027932 
z
" clip-path="url(#pe5c8325bfb)" style="fill: #d971a8"/>
    <path d="M 342.076556 372.639315 
L 370.187562 381.204301 
L 372.961464 378.701066 
L 375.727441 376.173234 
L 347.669482 367.645205 
L 344.876855 370.116033 
z
" clip-path="url(#pe5c8325bfb)" style="fill: #606013"/>
    <path d="M 498.315548 366.585225 
L 527.139719 373.386697 
L 529.633095 372.437201 
L 533.49102 328.269087 
L 504.994206 302.001152 
L 501.080713 356.418632 
z
" clip-path="url(#pe5c8325bfb)" style="fill: #a1547c"/>
    <path d="M 454.081552 372.89936 
L 482.741624 381.68142 
L 485.356777 379.103271 
L 487.965647 376.48349 
L 459.369082 367.281637 
L 456.721504 370.533833 
z
" clip-path="url(#pe5c8325bfb)" style="fill: #904b6f"/>
    <path d="M 302.850724 374.168235 
L 330.794865 382.733528 
L 333.627504 380.215656 
L 336.451901 377.685939 
L 308.559636 369.155928 
L 305.709036 371.644164 
z
" clip-path="url(#pe5c8325bfb)" style="fill: #fefe33"/>
    <path d="M 533.49102 328.269087 
L 561.46661 370.377887 
L 563.669926 375.679609 
L 566.673474 359.904629 
L 537.368778 360.228511 
L 534.731685 366.279344 
z
" clip-path="url(#pe5c8325bfb)" style="fill: #502a3d"/>
    <path d="M 414.935824 374.67227 
L 443.433337 383.248014 
L 446.105823 380.710208 
L 448.770881 378.166827 
L 420.32834 369.644594 
L 417.635966 372.148398 
z
" clip-path="url(#pe5c8325bfb)" style="fill: #fbfb32"/>
    <path d="M 263.557554 375.670522 
L 291.334616 384.263615 
L 294.225955 381.726753 
L 297.109222 379.208648 
L 269.383168 370.66107 
L 266.474554 373.164419 
z
" clip-path="url(#pe5c8325bfb)" style="fill: #bebe26"/>
    <path d="M 375.727441 376.173234 
L 404.058463 384.778643 
L 406.78979 382.191619 
L 409.51362 379.576737 
L 381.235891 371.101058 
L 378.485565 373.639897 
z
" clip-path="url(#pe5c8325bfb)" style="fill: #367bb4"/>
    <path d="M 487.965647 376.48349 
L 516.858346 384.882525 
L 519.421241 382.609536 
L 521.988289 379.94877 
L 493.156006 371.493553 
L 490.56671 373.891768 
z
" clip-path="url(#pe5c8325bfb)" style="fill: #562d42"/>
    <path d="M 224.197357 377.185036 
L 251.806782 385.801962 
L 254.757073 383.258099 
L 257.699018 380.724792 
L 230.139806 372.163782 
L 227.172636 374.664895 
z
" clip-path="url(#pe5c8325bfb)" style="fill: #193a55"/>
    <path d="M 336.451901 377.685939 
L 364.615974 386.305675 
L 367.405745 383.749752 
L 370.187562 381.204301 
L 342.076556 372.639315 
L 339.266916 374.975226 
z
" clip-path="url(#pe5c8325bfb)" style="fill: #eded2f"/>
    <path d="M 448.770881 378.166827 
L 477.490484 386.787642 
L 480.121366 384.15772 
L 482.741624 381.68142 
L 454.081552 372.89936 
L 451.428598 375.615652 
z
" clip-path="url(#pe5c8325bfb)" style="fill: #d0d02a"/>
    <path d="M 527.139719 373.386697 
L 556.140071 383.64881 
L 558.665068 380.769799 
L 561.46661 370.377887 
L 533.49102 328.269087 
L 529.633095 372.437201 
z
" clip-path="url(#pe5c8325bfb)" style="fill: #9e527a"/>
    <path d="M 297.109222 379.208648 
L 325.105657 387.840291 
L 327.954392 385.289897 
L 330.794865 382.733528 
L 302.850724 374.168235 
L 299.98393 376.675971 
z
" clip-path="url(#pe5c8325bfb)" style="fill: #f6f631"/>
    <path d="M 409.51362 379.576737 
L 438.06554 388.332604 
L 440.753206 385.79253 
L 443.433337 383.248014 
L 414.935824 374.67227 
L 412.228469 377.141331 
z
" clip-path="url(#pe5c8325bfb)" style="fill: #12283b"/>
    <path d="M 521.988289 379.94877 
L 551.109051 388.320379 
L 553.634926 385.797443 
L 556.140071 383.64881 
L 527.139719 373.386697 
L 524.619233 374.947819 
z
" clip-path="url(#pe5c8325bfb)" style="fill: #b05c88"/>
    <path d="M 257.699018 380.724792 
L 285.527286 389.373009 
L 288.435141 386.816537 
L 291.334616 384.263615 
L 263.557554 375.670522 
L 260.632313 378.187615 
z
" clip-path="url(#pe5c8325bfb)" style="fill: #dcdc2c"/>
    <path d="M 370.187562 381.204301 
L 398.573191 389.820524 
L 401.31967 387.315457 
L 404.058463 384.778643 
L 375.727441 376.173234 
L 372.961464 378.701066 
z
" clip-path="url(#pe5c8325bfb)" style="fill: #361c3a"/>
    <path d="M 482.741624 381.68142 
L 511.686868 390.269083 
L 514.270628 387.770609 
L 516.858346 384.882525 
L 487.965647 376.48349 
L 485.356777 379.103271 
z
" clip-path="url(#pe5c8325bfb)" style="fill: #a85882"/>
    <path d="M 218.221197 382.243947 
L 245.88068 390.90789 
L 248.847943 388.349751 
L 251.806782 385.801962 
L 224.197357 377.185036 
L 221.21368 379.715344 
z
" clip-path="url(#pe5c8325bfb)" style="fill: #9d9d1f"/>
    <path d="M 515.317804 291.206322 
L 548.18251 183.606584 
L 544.992379 349.888006 
L 518.677588 260.504285 
z
" clip-path="url(#pe5c8325bfb)" style="fill: #914c70"/>
    <path d="M 330.794865 382.733528 
L 359.012363 391.420358 
L 361.818195 388.862539 
L 364.615974 386.305675 
L 336.451901 377.685939 
L 333.627504 380.215656 
z
" clip-path="url(#pe5c8325bfb)" style="fill: #572d43"/>
    <path d="M 443.433337 383.248014 
L 472.209271 391.919822 
L 474.854069 389.32998 
L 477.490484 386.787642 
L 448.770881 378.166827 
L 446.105823 380.710208 
z
" clip-path="url(#pe5c8325bfb)" style="fill: #3579b1"/>
    <path d="M 291.334616 384.263615 
L 319.383364 392.940545 
L 322.248663 390.390412 
L 325.105657 387.840291 
L 297.109222 379.208648 
L 294.225955 381.726753 
z
" clip-path="url(#pe5c8325bfb)" style="fill: #616113"/>
    <path d="M 404.058463 384.778643 
L 432.666697 393.458783 
L 435.369874 390.901804 
L 438.06554 388.332604 
L 409.51362 379.576737 
L 406.78979 382.191619 
z
" clip-path="url(#pe5c8325bfb)" style="fill: #245277"/>
    <path d="M 516.858346 384.882525 
L 546.018296 393.880794 
L 548.560489 391.287736 
L 551.109051 388.320379 
L 521.988289 379.94877 
L 519.421241 382.609536 
z
" clip-path="url(#pe5c8325bfb)" style="fill: #582e44"/>
    <path d="M 251.806782 385.801962 
L 279.686221 394.494674 
L 282.610955 391.930285 
L 285.527286 389.373009 
L 257.699018 380.724792 
L 254.757073 383.258099 
z
" clip-path="url(#pe5c8325bfb)" style="fill: #f9f932"/>
    <path d="M 364.615974 386.305675 
L 393.05575 395.011692 
L 395.818325 392.434256 
L 398.573191 389.820524 
L 370.187562 381.204301 
L 367.405745 383.749752 
z
" clip-path="url(#pe5c8325bfb)" style="fill: #295d88"/>
    <path d="M 477.490484 386.787642 
L 506.491102 395.502608 
L 509.092204 392.900124 
L 511.686868 390.269083 
L 482.741624 381.68142 
L 480.121366 384.15772 
z
" clip-path="url(#pe5c8325bfb)" style="fill: #f27fbc"/>
    <path d="M 212.210676 387.328878 
L 239.920403 396.042206 
L 242.904711 393.466912 
L 245.88068 390.90789 
L 218.221197 382.243947 
L 215.220142 384.779793 
z
" clip-path="url(#pe5c8325bfb)" style="fill: #3171a5"/>
    <path d="M 325.105657 387.840291 
L 353.376438 396.558112 
L 356.198443 393.982342 
L 359.012363 391.420358 
L 330.794865 382.733528 
L 327.954392 385.289897 
z
" clip-path="url(#pe5c8325bfb)" style="fill: #aa5984"/>
    <path d="M 438.06554 388.332604 
L 466.898527 397.034871 
L 469.557355 394.493045 
L 472.209271 391.919822 
L 443.433337 383.248014 
L 440.753206 385.79253 
z
" clip-path="url(#pe5c8325bfb)" style="fill: #592f45"/>
    <path d="M 537.368778 360.228511 
L 566.673474 359.904629 
L 568.63936 370.798792 
L 579.576925 154.709146 
L 548.18251 183.606584 
L 539.73793 362.134743 
z
" clip-path="url(#pe5c8325bfb)" style="fill: #9e537a"/>
    <path d="M 285.527286 389.373009 
L 313.628434 398.103803 
L 316.510122 395.525597 
L 319.383364 392.940545 
L 291.334616 384.263615 
L 288.435141 386.816537 
z
" clip-path="url(#pe5c8325bfb)" style="fill: #275a83"/>
    <path d="M 398.573191 389.820524 
L 427.23719 398.56965 
L 429.955793 396.016971 
L 432.666697 393.458783 
L 404.058463 384.778643 
L 401.31967 387.315457 
z
" clip-path="url(#pe5c8325bfb)" style="fill: #142d41"/>
    <path d="M 511.686868 390.269083 
L 540.912487 399.074371 
L 543.466587 396.546103 
L 546.018296 393.880794 
L 516.858346 384.882525 
L 514.270628 387.770609 
z
" clip-path="url(#pe5c8325bfb)" style="fill: #8a486b"/>
    <path d="M 245.88068 390.90789 
L 273.811593 399.654497 
L 276.753117 397.069734 
L 279.686221 394.494674 
L 251.806782 385.801962 
L 248.847943 388.349751 
z
" clip-path="url(#pe5c8325bfb)" style="fill: #3273a8"/>
    <path d="M 359.012363 391.420358 
L 387.506777 400.158076 
L 390.285245 397.588161 
L 393.05575 395.011692 
L 364.615974 386.305675 
L 361.818195 388.862539 
z
" clip-path="url(#pe5c8325bfb)" style="fill: #a31314"/>
    <path d="M 472.209271 391.919822 
L 501.268116 400.665623 
L 503.883313 398.082747 
L 506.491102 395.502608 
L 477.490484 386.787642 
L 474.854069 389.32998 
z
" clip-path="url(#pe5c8325bfb)" style="fill: #d46fa4"/>
    <path d="M 206.165691 392.446042 
L 233.925703 401.207024 
L 236.927382 398.621062 
L 239.920403 396.042206 
L 212.210676 387.328878 
L 209.192571 389.88528 
z
" clip-path="url(#pe5c8325bfb)" style="fill: #b31416"/>
    <path d="M 319.383364 392.940545 
L 347.707881 401.715951 
L 350.546245 399.131706 
L 353.376438 396.558112 
L 325.105657 387.840291 
L 322.248663 390.390412 
z
" clip-path="url(#pe5c8325bfb)" style="fill: #595912"/>
    <path d="M 432.666697 393.458783 
L 461.556083 402.232457 
L 464.23082 399.648285 
L 466.898527 397.034871 
L 438.06554 388.332604 
L 435.369874 390.901804 
z
" clip-path="url(#pe5c8325bfb)" style="fill: #7c4160"/>
    <path d="M 279.686221 394.494674 
L 307.839987 403.277804 
L 310.738326 400.68203 
L 313.628434 398.103803 
L 285.527286 389.373009 
L 282.610955 391.930285 
z
" clip-path="url(#pe5c8325bfb)" style="fill: #c6c628"/>
    <path d="M 393.05575 395.011692 
L 421.775346 403.796735 
L 424.512517 400.950591 
L 427.23719 398.56965 
L 398.573191 389.820524 
L 395.818325 392.434256 
z
" clip-path="url(#pe5c8325bfb)" style="fill: #e9e92f"/>
    <path d="M 506.491102 395.502608 
L 535.777206 404.297927 
L 538.349436 401.655625 
L 540.912487 399.074371 
L 511.686868 390.269083 
L 509.092204 392.900124 
z
" clip-path="url(#pe5c8325bfb)" style="fill: #d9d92b"/>
    <path d="M 239.920403 396.042206 
L 267.902656 404.830294 
L 270.86142 402.239662 
L 273.811593 399.654497 
L 245.88068 390.90789 
L 242.904711 393.466912 
z
" clip-path="url(#pe5c8325bfb)" style="fill: #306ea1"/>
    <path d="M 353.376438 396.558112 
L 381.925594 405.360468 
L 384.720208 402.759716 
L 387.506777 400.158076 
L 359.012363 391.420358 
L 356.198443 393.982342 
z
" clip-path="url(#pe5c8325bfb)" style="fill: #cc1719"/>
    <path d="M 466.898527 397.034871 
L 496.01456 405.871141 
L 498.644837 403.276413 
L 501.268116 400.665623 
L 472.209271 391.919822 
L 469.557355 394.493045 
z
" clip-path="url(#pe5c8325bfb)" style="fill: #522b3f"/>
    <path d="M 200.085743 397.589718 
L 227.896271 406.402191 
L 230.915277 403.798395 
L 233.925703 401.207024 
L 206.165691 392.446042 
L 203.130094 395.014177 
z
" clip-path="url(#pe5c8325bfb)" style="fill: #cc1719"/>
    <path d="M 548.18251 183.606584 
L 579.576925 154.709146 
L 574.138928 352.01292 
L 544.992379 349.888006 
z
" clip-path="url(#pe5c8325bfb)" style="fill: #723b58"/>
    <path d="M 313.628434 398.103803 
L 342.006565 406.922979 
L 344.861259 404.301264 
L 347.707881 401.715951 
L 319.383364 392.940545 
L 316.510122 395.525597 
z
" clip-path="url(#pe5c8325bfb)" style="fill: #f37fbc"/>
    <path d="M 427.23719 398.56965 
L 456.183697 407.400972 
L 458.874025 404.799072 
L 461.556083 402.232457 
L 432.666697 393.458783 
L 429.955793 396.016971 
z
" clip-path="url(#pe5c8325bfb)" style="fill: #512a57"/>
    <path d="M 273.811593 399.654497 
L 302.017992 408.484962 
L 304.93323 405.879313 
L 307.839987 403.277804 
L 279.686221 394.494674 
L 276.753117 397.069734 
z
" clip-path="url(#pe5c8325bfb)" style="fill: #2b628f"/>
    <path d="M 387.506777 400.158076 
L 416.282301 409.007322 
L 419.032833 406.394879 
L 421.775346 403.796735 
L 393.05575 395.011692 
L 390.285245 397.588161 
z
" clip-path="url(#pe5c8325bfb)" style="fill: #153046"/>
    <path d="M 501.268116 400.665623 
L 530.612892 409.529729 
L 533.199126 406.899494 
L 535.777206 404.297927 
L 506.491102 395.502608 
L 503.883313 398.082747 
z
" clip-path="url(#pe5c8325bfb)" style="fill: #91911d"/>
    <path d="M 233.925703 401.207024 
L 261.959593 410.045537 
L 264.935604 407.441848 
L 267.902656 404.830294 
L 239.920403 396.042206 
L 236.927382 398.621062 
z
" clip-path="url(#pe5c8325bfb)" style="fill: #3374a9"/>
    <path d="M 347.707881 401.715951 
L 376.312028 410.571515 
L 379.122884 407.962211 
L 381.925594 405.360468 
L 353.376438 396.558112 
L 350.546245 399.131706 
z
" clip-path="url(#pe5c8325bfb)" style="fill: #153046"/>
    <path d="M 461.556083 402.232457 
L 490.730952 411.087959 
L 493.376571 408.476552 
L 496.01456 405.871141 
L 466.898527 397.034871 
L 464.23082 399.648285 
z
" clip-path="url(#pe5c8325bfb)" style="fill: #a6a621"/>
    <path d="M 193.970627 402.763146 
L 221.831744 411.62596 
L 224.868387 409.009593 
L 227.896271 406.402191 
L 200.085743 397.589718 
L 197.032006 400.156214 
z
" clip-path="url(#pe5c8325bfb)" style="fill: #ce1719"/>
    <path d="M 307.839987 403.277804 
L 336.271996 412.144178 
L 339.143467 409.533001 
L 342.006565 406.922979 
L 313.628434 398.103803 
L 310.738326 400.68203 
z
" clip-path="url(#pe5c8325bfb)" style="fill: #5a5a12"/>
    <path d="M 421.775346 403.796735 
L 450.779022 412.66238 
L 453.485042 410.042387 
L 456.183697 407.400972 
L 427.23719 398.56965 
L 424.512517 400.950591 
z
" clip-path="url(#pe5c8325bfb)" style="fill: #285c86"/>
    <path d="M 267.902656 404.830294 
L 296.162147 413.724287 
L 299.09428 411.098064 
L 302.017992 408.484962 
L 273.811593 399.654497 
L 270.86142 402.239662 
z
" clip-path="url(#pe5c8325bfb)" style="fill: #626214"/>
    <path d="M 381.925594 405.360468 
L 410.757366 414.236956 
L 413.523793 411.625664 
L 416.282301 409.007322 
L 387.506777 400.158076 
L 384.720208 402.759716 
z
" clip-path="url(#pe5c8325bfb)" style="fill: #981113"/>
    <path d="M 496.01456 405.871141 
L 525.423985 414.614783 
L 528.020947 412.110349 
L 530.612892 409.529729 
L 501.268116 400.665623 
L 498.644837 403.276413 
z
" clip-path="url(#pe5c8325bfb)" style="fill: #8f4a9a"/>
    <path d="M 227.896271 406.402191 
L 255.982102 415.299019 
L 258.975322 412.674034 
L 261.959593 410.045537 
L 233.925703 401.207024 
L 230.915277 403.798395 
z
" clip-path="url(#pe5c8325bfb)" style="fill: #367cb4"/>
    <path d="M 342.006565 406.922979 
L 370.665747 415.824197 
L 373.49299 413.184665 
L 376.312028 410.571515 
L 347.707881 401.715951 
L 344.861259 404.301264 
z
" clip-path="url(#pe5c8325bfb)" style="fill: #dc191b"/>
    <path d="M 456.183697 407.400972 
L 485.417431 416.295703 
L 488.078069 413.688031 
L 490.730952 411.087959 
L 461.556083 402.232457 
L 458.874025 404.799072 
z
" clip-path="url(#pe5c8325bfb)" style="fill: #8c496c"/>
    <path d="M 187.820038 407.966585 
L 215.731904 416.881504 
L 218.786259 414.249804 
L 221.831744 411.62596 
L 193.970627 402.763146 
L 190.899786 405.361098 
z
" clip-path="url(#pe5c8325bfb)" style="fill: #cf1819"/>
    <path d="M 302.017992 408.484962 
L 330.504087 417.408729 
L 333.392265 414.775843 
L 336.271996 412.144178 
L 307.839987 403.277804 
L 304.93323 405.879313 
z
" clip-path="url(#pe5c8325bfb)" style="fill: #737317"/>
    <path d="M 416.282301 409.007322 
L 445.343198 417.932966 
L 448.065028 415.296298 
L 450.779022 412.66238 
L 421.775346 403.796735 
L 419.032833 406.394879 
z
" clip-path="url(#pe5c8325bfb)" style="fill: #f4f431"/>
    <path d="M 261.959593 410.045537 
L 290.272077 418.991084 
L 293.221403 416.353828 
L 296.162147 413.724287 
L 267.902656 404.830294 
L 264.935604 407.441848 
z
" clip-path="url(#pe5c8325bfb)" style="fill: #17354d"/>
    <path d="M 376.312028 410.571515 
L 405.200046 419.514099 
L 407.98275 416.872249 
L 410.757366 414.236956 
L 381.925594 405.360468 
L 379.122884 407.962211 
z
" clip-path="url(#pe5c8325bfb)" style="fill: #275983"/>
    <path d="M 490.730952 411.087959 
L 520.195797 420.021288 
L 522.812855 417.34104 
L 525.423985 414.614783 
L 496.01456 405.871141 
L 493.376571 408.476552 
z
" clip-path="url(#pe5c8325bfb)" style="fill: #306ea1"/>
    <path d="M 221.831744 411.62596 
L 249.969519 420.575551 
L 252.980163 417.932168 
L 255.982102 415.299019 
L 227.896271 406.402191 
L 224.868387 409.009593 
z
" clip-path="url(#pe5c8325bfb)" style="fill: #306d9f"/>
    <path d="M 336.271996 412.144178 
L 364.986476 421.104745 
L 367.830257 418.462968 
L 370.665747 415.824197 
L 342.006565 406.922979 
L 339.143467 409.533001 
z
" clip-path="url(#pe5c8325bfb)" style="fill: #122a3d"/>
    <path d="M 450.779022 412.66238 
L 480.07058 421.635256 
L 482.747508 418.97899 
L 485.417431 416.295703 
L 456.183697 407.400972 
L 453.485042 410.042387 
z
" clip-path="url(#pe5c8325bfb)" style="fill: #a7a721"/>
    <path d="M 181.633666 413.200296 
L 209.596339 422.165966 
L 212.668628 419.520747 
L 215.731904 416.881504 
L 187.820038 407.966585 
L 184.731344 410.57964 
z
" clip-path="url(#pe5c8325bfb)" style="fill: #ca1719"/>
    <path d="M 296.162147 413.724287 
L 324.702362 422.69437 
L 327.607476 420.049303 
L 330.504087 417.408729 
L 302.017992 408.484962 
L 299.09428 411.098064 
z
" clip-path="url(#pe5c8325bfb)" style="fill: #98981e"/>
    <path d="M 410.757366 414.236956 
L 439.875683 423.227676 
L 442.613483 420.57278 
L 445.343198 417.932966 
L 416.282301 409.007322 
L 413.523793 411.625664 
z
" clip-path="url(#pe5c8325bfb)" style="fill: #542c41"/>
    <path d="M 255.982102 415.299019 
L 284.347503 424.287358 
L 287.314155 421.637361 
L 290.272077 418.991084 
L 261.959593 410.045537 
L 258.975322 412.674034 
z
" clip-path="url(#pe5c8325bfb)" style="fill: #1f4768"/>
    <path d="M 370.665747 415.824197 
L 399.610205 424.82156 
L 402.409214 422.163104 
L 405.200046 419.514099 
L 376.312028 410.571515 
L 373.49299 413.184665 
z
" clip-path="url(#pe5c8325bfb)" style="fill: #aeae23"/>
    <path d="M 485.417431 416.295703 
L 514.942564 425.274268 
L 517.571824 422.685466 
L 520.195797 420.021288 
L 490.730952 411.087959 
L 488.078069 413.688031 
z
" clip-path="url(#pe5c8325bfb)" style="fill: #311934"/>
    <path d="M 215.731904 416.881504 
L 243.921784 425.885797 
L 246.95003 423.225138 
L 249.969519 420.575551 
L 221.831744 411.62596 
L 218.786259 414.249804 
z
" clip-path="url(#pe5c8325bfb)" style="fill: #e9e92f"/>
    <path d="M 330.504087 417.408729 
L 359.273928 426.417179 
L 362.13437 423.753314 
L 364.986476 421.104745 
L 336.271996 412.144178 
L 333.392265 414.775843 
z
" clip-path="url(#pe5c8325bfb)" style="fill: #e01a1c"/>
    <path d="M 445.343198 417.932966 
L 474.69374 426.945745 
L 477.386195 424.281863 
L 480.07058 421.635256 
L 450.779022 412.66238 
L 448.065028 415.296298 
z
" clip-path="url(#pe5c8325bfb)" style="fill: #e7e72e"/>
    <path d="M 175.411197 418.464546 
L 203.424837 427.482672 
L 206.515156 424.821925 
L 209.596339 422.165966 
L 181.633666 413.200296 
L 178.526963 415.828587 
z
" clip-path="url(#pe5c8325bfb)" style="fill: #cd1719"/>
    <path d="M 290.272077 418.991084 
L 318.866561 428.007787 
L 321.788805 425.35365 
L 324.702362 422.69437 
L 296.162147 413.724287 
L 293.221403 416.353828 
z
" clip-path="url(#pe5c8325bfb)" style="fill: #64344d"/>
    <path d="M 405.200046 419.514099 
L 434.376354 428.532214 
L 437.13001 425.879256 
L 439.875683 423.227676 
L 410.757366 414.236956 
L 407.98275 416.872249 
z
" clip-path="url(#pe5c8325bfb)" style="fill: #245278"/>
    <path d="M 249.969519 420.575551 
L 278.388234 429.619358 
L 281.372247 426.95011 
L 284.347503 424.287358 
L 255.982102 415.299019 
L 252.980163 417.932168 
z
" clip-path="url(#pe5c8325bfb)" style="fill: #6f6f16"/>
    <path d="M 364.986476 421.104745 
L 393.987599 430.148263 
L 396.803048 427.475905 
L 399.610205 424.82156 
L 370.665747 415.824197 
L 367.830257 418.462968 
z
" clip-path="url(#pe5c8325bfb)" style="fill: #3273a8"/>
    <path d="M 480.07058 421.635256 
L 509.654769 430.688507 
L 512.301415 428.016845 
L 514.942564 425.274268 
L 485.417431 416.295703 
L 482.747508 418.97899 
z
" clip-path="url(#pe5c8325bfb)" style="fill: #623269"/>
    <path d="M 209.596339 422.165966 
L 237.838398 431.222904 
L 240.884574 428.5512 
L 243.921784 425.885797 
L 215.731904 416.881504 
L 212.668628 419.520747 
z
" clip-path="url(#pe5c8325bfb)" style="fill: #142d42"/>
    <path d="M 324.702362 422.69437 
L 353.527795 431.758003 
L 356.405051 429.076604 
L 359.273928 426.417179 
L 330.504087 417.408729 
L 327.607476 420.049303 
z
" clip-path="url(#pe5c8325bfb)" style="fill: #2e6898"/>
    <path d="M 439.875683 423.227676 
L 469.285188 432.292228 
L 471.993511 429.611097 
L 474.69374 426.945745 
L 445.343198 417.932966 
L 442.613483 420.57278 
z
" clip-path="url(#pe5c8325bfb)" style="fill: #eeee30"/>
    <path d="M 169.152316 423.759601 
L 197.217107 432.832533 
L 200.325538 430.153955 
L 203.424837 427.482672 
L 175.411197 418.464546 
L 172.286328 421.108206 
z
" clip-path="url(#pe5c8325bfb)" style="fill: #d01819"/>
    <path d="M 284.347503 424.287358 
L 312.996618 433.368678 
L 315.935955 430.689155 
L 318.866561 428.007787 
L 290.272077 418.991084 
L 287.314155 421.637361 
z
" clip-path="url(#pe5c8325bfb)" style="fill: #5b5b12"/>
    <path d="M 399.610205 424.82156 
L 428.844233 433.903083 
L 431.614417 431.208154 
L 434.376354 428.532214 
L 405.200046 419.514099 
L 402.409214 422.163104 
z
" clip-path="url(#pe5c8325bfb)" style="fill: #d5181a"/>
    <path d="M 243.921784 425.885797 
L 272.393824 434.979949 
L 275.395394 432.293697 
L 278.388234 429.619358 
L 249.969519 420.575551 
L 246.95003 423.225138 
z
" clip-path="url(#pe5c8325bfb)" style="fill: #367bb4"/>
    <path d="M 359.273928 426.417179 
L 388.331835 435.516581 
L 391.163868 432.83018 
L 393.987599 430.148263 
L 364.986476 421.104745 
L 362.13437 423.753314 
z
" clip-path="url(#pe5c8325bfb)" style="fill: #2f6c9e"/>
    <path d="M 474.69374 426.945745 
L 504.338087 436.055443 
L 507.000386 433.366254 
L 509.654769 430.688507 
L 480.07058 421.635256 
L 477.386195 424.281863 
z
" clip-path="url(#pe5c8325bfb)" style="fill: #132b3e"/>
    <path d="M 203.424837 427.482672 
L 231.719151 436.591212 
L 234.783316 433.904513 
L 237.838398 431.222904 
L 209.596339 422.165966 
L 206.515156 424.821925 
z
" clip-path="url(#pe5c8325bfb)" style="fill: #1b3d59"/>
    <path d="M 318.866561 428.007787 
L 347.747786 437.130314 
L 350.64205 434.441621 
L 353.527795 431.758003 
L 324.702362 422.69437 
L 321.788805 425.35365 
z
" clip-path="url(#pe5c8325bfb)" style="fill: #122a3e"/>
    <path d="M 434.376354 428.532214 
L 463.844804 437.667052 
L 466.568985 434.976479 
L 469.285188 432.292228 
L 439.875683 423.227676 
L 437.13001 425.879256 
z
" clip-path="url(#pe5c8325bfb)" style="fill: #545411"/>
    <path d="M 278.388234 429.619358 
L 307.09184 438.744946 
L 310.048622 436.056095 
L 312.996618 433.368678 
L 284.347503 424.287358 
L 281.372247 426.95011 
z
" clip-path="url(#pe5c8325bfb)" style="fill: #234f74"/>
    <path d="M 393.987599 430.148263 
L 423.279669 439.288548 
L 426.066109 436.586284 
L 428.844233 433.903083 
L 399.610205 424.82156 
L 396.803048 427.475905 
z
" clip-path="url(#pe5c8325bfb)" style="fill: #295e89"/>
    <path d="M 237.838398 431.222904 
L 266.36394 440.368832 
L 269.383349 437.671398 
L 272.393824 434.979949 
L 243.921784 425.885797 
L 240.884574 428.5512 
z
" clip-path="url(#pe5c8325bfb)" style="fill: #1b3d59"/>
    <path d="M 353.527795 431.758003 
L 382.642681 440.910907 
L 385.491477 438.198959 
L 388.331835 435.516581 
L 359.273928 426.417179 
L 356.405051 429.076604 
z
" clip-path="url(#pe5c8325bfb)" style="fill: #306ea1"/>
    <path d="M 469.285188 432.292228 
L 498.98999 441.454092 
L 501.668052 438.74812 
L 504.338087 436.055443 
L 474.69374 426.945745 
L 471.993511 429.611097 
z
" clip-path="url(#pe5c8325bfb)" style="fill: #214b6d"/>
    <path d="M 197.217107 432.832533 
L 225.563894 441.99663 
L 228.645902 439.284564 
L 231.719151 436.591212 
L 203.424837 427.482672 
L 200.325538 430.153955 
z
" clip-path="url(#pe5c8325bfb)" style="fill: #d2181a"/>
    <path d="M 312.996618 433.368678 
L 341.933627 442.538177 
L 344.845005 439.831674 
L 347.747786 437.130314 
L 318.866561 428.007787 
L 315.935955 430.689155 
z
" clip-path="url(#pe5c8325bfb)" style="fill: #951112"/>
    <path d="M 428.844233 433.903083 
L 458.37216 443.07845 
L 461.112577 440.365572 
L 463.844804 437.667052 
L 434.376354 428.532214 
L 431.614417 431.208154 
z
" clip-path="url(#pe5c8325bfb)" style="fill: #c2c227"/>
    <path d="M 272.393824 434.979949 
L 301.152299 444.166054 
L 304.126501 441.454747 
L 307.09184 438.744946 
L 278.388234 429.619358 
L 275.395394 432.293697 
z
" clip-path="url(#pe5c8325bfb)" style="fill: #1d4361"/>
    <path d="M 388.331835 435.516581 
L 417.682147 444.707957 
L 420.485065 441.991935 
L 423.279669 439.288548 
L 393.987599 430.148263 
L 391.163868 432.83018 
z
" clip-path="url(#pe5c8325bfb)" style="fill: #f2f230"/>
    <path d="M 231.719151 436.591212 
L 260.298488 445.796222 
L 263.335514 443.070478 
L 266.36394 440.368832 
L 237.838398 431.222904 
L 234.783316 433.904513 
z
" clip-path="url(#pe5c8325bfb)" style="fill: #2f6c9e"/>
    <path d="M 347.747786 437.130314 
L 376.919817 446.340618 
L 379.785481 443.621748 
L 382.642681 440.910907 
L 353.527795 431.758003 
L 350.64205 434.441621 
z
" clip-path="url(#pe5c8325bfb)" style="fill: #153046"/>
    <path d="M 463.844804 437.667052 
L 493.610284 446.88117 
L 496.304139 444.162725 
L 498.98999 441.454092 
L 469.285188 432.292228 
L 466.568985 434.976479 
z
" clip-path="url(#pe5c8325bfb)" style="fill: #132d41"/>
    <path d="M 307.09184 438.744946 
L 336.084959 447.973359 
L 339.013629 445.252692 
L 341.933627 442.538177 
L 312.996618 433.368678 
L 310.048622 436.056095 
z
" clip-path="url(#pe5c8325bfb)" style="fill: #12293c"/>
    <path d="M 423.279669 439.288548 
L 452.867086 448.520342 
L 455.623738 445.792974 
L 458.37216 443.07845 
L 428.844233 433.903083 
L 426.066109 436.586284 
z
" clip-path="url(#pe5c8325bfb)" style="fill: #d7d72b"/>
    <path d="M 266.36394 440.368832 
L 295.177415 449.612805 
L 298.169232 446.882139 
L 301.152299 444.166054 
L 272.393824 434.979949 
L 269.383349 437.671398 
z
" clip-path="url(#pe5c8325bfb)" style="fill: #964e74"/>
    <path d="M 382.642681 440.910907 
L 412.051417 450.156879 
L 414.871081 447.413058 
L 417.682147 444.707957 
L 388.331835 435.516581 
L 385.491477 438.198959 
z
" clip-path="url(#pe5c8325bfb)" style="fill: #306ea1"/>
    <path d="M 225.563894 441.99663 
L 254.196923 451.252308 
L 257.252215 448.519597 
L 260.298488 445.796222 
L 231.719151 436.591212 
L 228.645902 439.284564 
z
" clip-path="url(#pe5c8325bfb)" style="fill: #c01618"/>
    <path d="M 341.933627 442.538177 
L 371.162948 451.798589 
L 374.045653 449.066411 
L 376.919817 446.340618 
L 347.747786 437.130314 
L 344.845005 439.831674 
z
" clip-path="url(#pe5c8325bfb)" style="fill: #981113"/>
    <path d="M 458.37216 443.07845 
L 488.198447 452.346766 
L 490.90905 449.581814 
L 493.610284 446.88117 
L 463.844804 437.667052 
L 461.112577 440.365572 
z
" clip-path="url(#pe5c8325bfb)" style="fill: #3171a5"/>
    <path d="M 301.152299 444.166054 
L 330.201536 453.444673 
L 333.147622 450.705905 
L 336.084959 447.973359 
L 307.09184 438.744946 
L 304.126501 441.454747 
z
" clip-path="url(#pe5c8325bfb)" style="fill: #961112"/>
    <path d="M 417.682147 444.707957 
L 447.329288 453.993006 
L 450.102324 451.251012 
L 452.867086 448.520342 
L 423.279669 439.288548 
L 420.485065 441.991935 
z
" clip-path="url(#pe5c8325bfb)" style="fill: #dede2c"/>
    <path d="M 260.298488 445.796222 
L 289.166907 455.088716 
L 292.176545 452.341799 
L 295.177415 449.612805 
L 266.36394 440.368832 
L 263.335514 443.070478 
z
" clip-path="url(#pe5c8325bfb)" style="fill: #f4f431"/>
    <path d="M 376.919817 446.340618 
L 406.387153 455.638546 
L 409.22349 452.894272 
L 412.051417 450.156879 
L 382.642681 440.910907 
L 379.785481 443.621748 
z
" clip-path="url(#pe5c8325bfb)" style="fill: #e01a1b"/>
    <path d="M 336.084959 447.973359 
L 365.371766 457.289665 
L 368.271658 454.534322 
L 371.162948 451.798589 
L 341.933627 442.538177 
L 339.013629 445.252692 
z
" clip-path="url(#pe5c8325bfb)" style="fill: #2f6c9d"/>
    <path d="M 452.867086 448.520342 
L 482.754393 457.843151 
L 485.480461 455.091315 
L 488.198447 452.346766 
L 458.37216 443.07845 
L 455.623738 445.792974 
z
" clip-path="url(#pe5c8325bfb)" style="fill: #9a1213"/>
    <path d="M 295.177415 449.612805 
L 324.282981 458.944813 
L 327.246675 456.191599 
L 330.201536 453.444673 
L 301.152299 444.166054 
L 298.169232 446.882139 
z
" clip-path="url(#pe5c8325bfb)" style="fill: #af1415"/>
    <path d="M 412.051417 450.156879 
L 441.758446 459.498327 
L 444.548062 456.738363 
L 447.329288 453.993006 
L 417.682147 444.707957 
L 414.871081 447.413058 
z
" clip-path="url(#pe5c8325bfb)" style="fill: #d1d12a"/>
    <path d="M 254.196923 451.252308 
L 283.120626 460.60387 
L 286.148301 457.843818 
L 289.166907 455.088716 
L 260.298488 445.796222 
L 257.252215 448.519597 
z
" clip-path="url(#pe5c8325bfb)" style="fill: #17354e"/>
    <path d="M 371.162948 451.798589 
L 400.689054 461.153589 
L 403.542336 458.394431 
L 406.387153 455.638546 
L 376.919817 446.340618 
L 374.045653 449.066411 
z
" clip-path="url(#pe5c8325bfb)" style="fill: #142f44"/>
    <path d="M 330.201536 453.444673 
L 359.545973 462.81701 
L 362.463217 460.049787 
L 365.371766 457.289665 
L 336.084959 447.973359 
L 333.147622 450.705905 
z
" clip-path="url(#pe5c8325bfb)" style="fill: #d8191a"/>
    <path d="M 447.329288 453.993006 
L 477.277805 463.371504 
L 480.020186 460.603201 
L 482.754393 457.843151 
L 452.867086 448.520342 
L 450.102324 451.251012 
z
" clip-path="url(#pe5c8325bfb)" style="fill: #af1415"/>
    <path d="M 289.166907 455.088716 
L 318.329054 464.481681 
L 321.310474 461.710066 
L 324.282981 458.944813 
L 295.177415 449.612805 
L 292.176545 452.341799 
z
" clip-path="url(#pe5c8325bfb)" style="fill: #122a3e"/>
    <path d="M 406.387153 455.638546 
L 436.154262 465.036596 
L 438.96054 462.263324 
L 441.758446 459.498327 
L 412.051417 450.156879 
L 409.22349 452.894272 
z
" clip-path="url(#pe5c8325bfb)" style="fill: #656514"/>
    <path d="M 365.371766 457.289665 
L 394.956812 466.703875 
L 397.827216 463.925028 
L 400.689054 461.153589 
L 371.162948 451.798589 
L 368.271658 454.534322 
z
" clip-path="url(#pe5c8325bfb)" style="fill: #142e43"/>
    <path d="M 324.282981 458.944813 
L 353.68524 468.374043 
L 356.619988 465.590219 
L 359.545973 462.81701 
L 330.201536 453.444673 
L 327.246675 456.191599 
z
" clip-path="url(#pe5c8325bfb)" style="fill: #285b85"/>
    <path d="M 441.758446 459.498327 
L 471.768372 468.933013 
L 474.527213 466.148095 
L 477.277805 463.371504 
L 447.329288 453.993006 
L 444.548062 456.738363 
z
" clip-path="url(#pe5c8325bfb)" style="fill: #af1415"/>
    <path d="M 283.120626 460.60387 
L 312.339378 470.049861 
L 315.338702 467.2616 
L 318.329054 464.481681 
L 289.166907 455.088716 
L 286.148301 457.843818 
z
" clip-path="url(#pe5c8325bfb)" style="fill: #971113"/>
    <path d="M 400.689054 461.153589 
L 430.516473 470.604893 
L 433.339573 467.818179 
L 436.154262 465.036596 
L 406.387153 455.638546 
L 403.542336 458.394431 
z
" clip-path="url(#pe5c8325bfb)" style="fill: #6c6c16"/>
    <path d="M 359.545973 462.81701 
L 389.190143 472.284572 
L 392.077806 469.488934 
L 394.956812 466.703875 
L 365.371766 457.289665 
L 362.463217 460.049787 
z
" clip-path="url(#pe5c8325bfb)" style="fill: #367cb5"/>
    <path d="M 318.329054 464.481681 
L 347.789254 473.963345 
L 350.741673 471.164498 
L 353.68524 468.374043 
L 324.282981 458.944813 
L 321.310474 461.710066 
z
" clip-path="url(#pe5c8325bfb)" style="fill: #de191b"/>
    <path d="M 436.154262 465.036596 
L 466.225847 474.525279 
L 469.001246 471.726295 
L 471.768372 468.933013 
L 441.758446 459.498327 
L 438.96054 462.263324 
z
" clip-path="url(#pe5c8325bfb)" style="fill: #af1415"/>
    <path d="M 394.956812 466.703875 
L 424.844666 476.213173 
L 427.684813 473.40643 
L 430.516473 470.604893 
L 400.689054 461.153589 
L 397.827216 463.925028 
z
" clip-path="url(#pe5c8325bfb)" style="fill: #93931d"/>
    <path d="M 353.68524 468.374043 
L 383.38872 477.898689 
L 386.293794 475.087939 
L 389.190143 472.284572 
L 359.545973 462.81701 
L 356.619988 465.590219 
z
" clip-path="url(#pe5c8325bfb)" style="fill: #25547b"/>
    <path d="M 312.339378 470.049861 
L 341.85774 479.592711 
L 344.82796 476.773503 
L 347.789254 473.963345 
L 318.329054 464.481681 
L 315.338702 467.2616 
z
" clip-path="url(#pe5c8325bfb)" style="fill: #cc1719"/>
    <path d="M 430.516473 470.604893 
L 460.649795 480.1558 
L 463.44225 477.323695 
L 466.225847 474.525279 
L 436.154262 465.036596 
L 433.339573 467.818179 
z
" clip-path="url(#pe5c8325bfb)" style="fill: #2f6c9d"/>
    <path d="M 389.190143 472.284572 
L 419.138642 481.852084 
L 421.995987 479.025151 
L 424.844666 476.213173 
L 394.956812 466.703875 
L 392.077806 469.488934 
z
" clip-path="url(#pe5c8325bfb)" style="fill: #d7d72b"/>
    <path d="M 347.789254 473.963345 
L 377.552224 483.550157 
L 380.474877 480.718349 
L 383.38872 477.898689 
L 353.68524 468.374043 
L 350.741673 471.164498 
z
" clip-path="url(#pe5c8325bfb)" style="fill: #1e4666"/>
    <path d="M 424.844666 476.213173 
L 455.040015 485.81949 
L 457.849165 482.982014 
L 460.649795 480.1558 
L 430.516473 470.604893 
L 427.684813 473.40643 
z
" clip-path="url(#pe5c8325bfb)" style="fill: #d3181a"/>
    <path d="M 383.38872 477.898689 
L 413.398055 487.525153 
L 416.272689 484.684329 
L 419.138642 481.852084 
L 389.190143 472.284572 
L 386.293794 475.087939 
z
" clip-path="url(#pe5c8325bfb)" style="fill: #153047"/>
    <path d="M 341.85774 479.592711 
L 371.680346 489.233406 
L 374.620729 486.386008 
L 377.552224 483.550157 
L 347.789254 473.963345 
L 344.82796 476.773503 
z
" clip-path="url(#pe5c8325bfb)" style="fill: #ca1719"/>
    <path d="M 419.138642 481.852084 
L 449.396226 491.514844 
L 452.222382 488.663755 
L 455.040015 485.81949 
L 424.844666 476.213173 
L 421.995987 479.025151 
z
" clip-path="url(#pe5c8325bfb)" style="fill: #af1415"/>
    <path d="M 377.552224 483.550157 
L 407.622588 493.23269 
L 410.514713 490.372974 
L 413.398055 487.525153 
L 383.38872 477.898689 
L 380.474877 480.718349 
z
" clip-path="url(#pe5c8325bfb)" style="fill: #3273a8"/>
    <path d="M 413.398055 487.525153 
L 443.718017 497.248505 
L 446.561423 494.378223 
L 449.396226 491.514844 
L 419.138642 481.852084 
L 416.272689 484.684329 
z
" clip-path="url(#pe5c8325bfb)" style="fill: #af1415"/>
    <path d="M 371.680346 489.233406 
L 401.811942 498.971764 
L 404.721676 496.099483 
L 407.622588 493.23269 
L 377.552224 483.550157 
L 374.620729 486.386008 
z
" clip-path="url(#pe5c8325bfb)" style="fill: #7c7c19"/>
    <path d="M 407.622588 493.23269 
L 438.005157 503.015364 
L 440.865942 500.127539 
L 443.718017 497.248505 
L 413.398055 487.525153 
L 410.514713 490.372974 
z
" clip-path="url(#pe5c8325bfb)" style="fill: #af1415"/>
    <path d="M 401.811942 498.971764 
L 432.257299 508.817552 
L 435.135623 505.912022 
L 438.005157 503.015364 
L 407.622588 493.23269 
L 404.721676 496.099483 
z
" clip-path="url(#pe5c8325bfb)" style="fill: #122a3e"/>
   </g>
   <g id="text_4">
    <!-- class -->
    <g transform="translate(352.453137 20.88) scale(0.12 -0.12)">
     <use xlink:href="#DejaVuSans-63"/>
     <use xlink:href="#DejaVuSans-6c" x="54.980469"/>
     <use xlink:href="#DejaVuSans-61" x="82.763672"/>
     <use xlink:href="#DejaVuSans-73" x="144.042969"/>
     <use xlink:href="#DejaVuSans-73" x="196.142578"/>
    </g>
   </g>
  </g>
  <g id="axes_2">
   <g id="patch_6">
    <path d="M 675.6139 565.2 
L 702.5299 565.2 
L 702.5299 26.88 
L 675.6139 26.88 
z
" style="fill: #ffffff"/>
   </g>
   <g id="QuadMesh_1">
    <path d="M 675.6139 565.2 
L 702.5299 565.2 
L 702.5299 497.91 
L 675.6139 497.91 
L 675.6139 565.2 
" clip-path="url(#p074e3e4022)" style="fill: #e41a1c"/>
    <path d="M 675.6139 497.91 
L 702.5299 497.91 
L 702.5299 430.62 
L 675.6139 430.62 
L 675.6139 497.91 
" clip-path="url(#p074e3e4022)" style="fill: #377eb8"/>
    <path d="M 675.6139 430.62 
L 702.5299 430.62 
L 702.5299 363.33 
L 675.6139 363.33 
L 675.6139 430.62 
" clip-path="url(#p074e3e4022)" style="fill: #4daf4a"/>
    <path d="M 675.6139 363.33 
L 702.5299 363.33 
L 702.5299 296.04 
L 675.6139 296.04 
L 675.6139 363.33 
" clip-path="url(#p074e3e4022)" style="fill: #984ea3"/>
    <path d="M 675.6139 296.04 
L 702.5299 296.04 
L 702.5299 228.75 
L 675.6139 228.75 
L 675.6139 296.04 
" clip-path="url(#p074e3e4022)" style="fill: #ff7f00"/>
    <path d="M 675.6139 228.75 
L 702.5299 228.75 
L 702.5299 161.46 
L 675.6139 161.46 
L 675.6139 228.75 
" clip-path="url(#p074e3e4022)" style="fill: #ffff33"/>
    <path d="M 675.6139 161.46 
L 702.5299 161.46 
L 702.5299 94.17 
L 675.6139 94.17 
L 675.6139 161.46 
" clip-path="url(#p074e3e4022)" style="fill: #a65628"/>
    <path d="M 675.6139 94.17 
L 702.5299 94.17 
L 702.5299 26.88 
L 675.6139 26.88 
L 675.6139 94.17 
" clip-path="url(#p074e3e4022)" style="fill: #f781bf"/>
   </g>
   <g id="matplotlib.axis_1"/>
   <g id="matplotlib.axis_2">
    <g id="ytick_1">
     <g id="line2d_4">
      <defs>
       <path id="m8045f6b546" d="M 0 0 
L 3.5 0 
" style="stroke: #000000; stroke-width: 0.8"/>
      </defs>
      <g>
       <use xlink:href="#m8045f6b546" x="702.5299" y="531.555" style="stroke: #000000; stroke-width: 0.8"/>
      </g>
     </g>
     <g id="text_5">
      <!-- Not seen in this sample -->
      <g transform="translate(709.5299 535.354219) scale(0.1 -0.1)">
       <use xlink:href="#DejaVuSans-4e"/>
       <use xlink:href="#DejaVuSans-6f" x="74.804688"/>
       <use xlink:href="#DejaVuSans-74" x="135.986328"/>
       <use xlink:href="#DejaVuSans-20" x="175.195312"/>
       <use xlink:href="#DejaVuSans-73" x="206.982422"/>
       <use xlink:href="#DejaVuSans-65" x="259.082031"/>
       <use xlink:href="#DejaVuSans-65" x="320.605469"/>
       <use xlink:href="#DejaVuSans-6e" x="382.128906"/>
       <use xlink:href="#DejaVuSans-20" x="445.507812"/>
       <use xlink:href="#DejaVuSans-69" x="477.294922"/>
       <use xlink:href="#DejaVuSans-6e" x="505.078125"/>
       <use xlink:href="#DejaVuSans-20" x="568.457031"/>
       <use xlink:href="#DejaVuSans-74" x="600.244141"/>
       <use xlink:href="#DejaVuSans-68" x="639.453125"/>
       <use xlink:href="#DejaVuSans-69" x="702.832031"/>
       <use xlink:href="#DejaVuSans-73" x="730.615234"/>
       <use xlink:href="#DejaVuSans-20" x="782.714844"/>
       <use xlink:href="#DejaVuSans-73" x="814.501953"/>
       <use xlink:href="#DejaVuSans-61" x="866.601562"/>
       <use xlink:href="#DejaVuSans-6d" x="927.880859"/>
       <use xlink:href="#DejaVuSans-70" x="1025.292969"/>
       <use xlink:href="#DejaVuSans-6c" x="1088.769531"/>
       <use xlink:href="#DejaVuSans-65" x="1116.552734"/>
      </g>
     </g>
    </g>
    <g id="ytick_2">
     <g id="line2d_5">
      <g>
       <use xlink:href="#m8045f6b546" x="702.5299" y="464.265" style="stroke: #000000; stroke-width: 0.8"/>
      </g>
     </g>
     <g id="text_6">
      <!-- MGI Only -->
      <g transform="translate(709.5299 468.064219) scale(0.1 -0.1)">
       <defs>
        <path id="DejaVuSans-4f" d="M 2522 4238 
Q 1834 4238 1429 3725 
Q 1025 3213 1025 2328 
Q 1025 1447 1429 934 
Q 1834 422 2522 422 
Q 3209 422 3611 934 
Q 4013 1447 4013 2328 
Q 4013 3213 3611 3725 
Q 3209 4238 2522 4238 
z
M 2522 4750 
Q 3503 4750 4090 4092 
Q 4678 3434 4678 2328 
Q 4678 1225 4090 567 
Q 3503 -91 2522 -91 
Q 1538 -91 948 565 
Q 359 1222 359 2328 
Q 359 3434 948 4092 
Q 1538 4750 2522 4750 
z
" transform="scale(0.015625)"/>
        <path id="DejaVuSans-79" d="M 2059 -325 
Q 1816 -950 1584 -1140 
Q 1353 -1331 966 -1331 
L 506 -1331 
L 506 -850 
L 844 -850 
Q 1081 -850 1212 -737 
Q 1344 -625 1503 -206 
L 1606 56 
L 191 3500 
L 800 3500 
L 1894 763 
L 2988 3500 
L 3597 3500 
L 2059 -325 
z
" transform="scale(0.015625)"/>
       </defs>
       <use xlink:href="#DejaVuSans-4d"/>
       <use xlink:href="#DejaVuSans-47" x="86.279297"/>
       <use xlink:href="#DejaVuSans-49" x="163.769531"/>
       <use xlink:href="#DejaVuSans-20" x="193.261719"/>
       <use xlink:href="#DejaVuSans-4f" x="225.048828"/>
       <use xlink:href="#DejaVuSans-6e" x="303.759766"/>
       <use xlink:href="#DejaVuSans-6c" x="367.138672"/>
       <use xlink:href="#DejaVuSans-79" x="394.921875"/>
      </g>
     </g>
    </g>
    <g id="ytick_3">
     <g id="line2d_6">
      <g>
       <use xlink:href="#m8045f6b546" x="702.5299" y="396.975" style="stroke: #000000; stroke-width: 0.8"/>
      </g>
     </g>
     <g id="text_7">
      <!-- MinION Only -->
      <g transform="translate(709.5299 400.774219) scale(0.1 -0.1)">
       <use xlink:href="#DejaVuSans-4d"/>
       <use xlink:href="#DejaVuSans-69" x="86.279297"/>
       <use xlink:href="#DejaVuSans-6e" x="114.0625"/>
       <use xlink:href="#DejaVuSans-49" x="177.441406"/>
       <use xlink:href="#DejaVuSans-4f" x="206.933594"/>
       <use xlink:href="#DejaVuSans-4e" x="285.644531"/>
       <use xlink:href="#DejaVuSans-20" x="360.449219"/>
       <use xlink:href="#DejaVuSans-4f" x="392.236328"/>
       <use xlink:href="#DejaVuSans-6e" x="470.947266"/>
       <use xlink:href="#DejaVuSans-6c" x="534.326172"/>
       <use xlink:href="#DejaVuSans-79" x="562.109375"/>
      </g>
     </g>
    </g>
    <g id="ytick_4">
     <g id="line2d_7">
      <g>
       <use xlink:href="#m8045f6b546" x="702.5299" y="329.685" style="stroke: #000000; stroke-width: 0.8"/>
      </g>
     </g>
     <g id="text_8">
      <!-- MGI + MinION -->
      <g transform="translate(709.5299 333.484219) scale(0.1 -0.1)">
       <defs>
        <path id="DejaVuSans-2b" d="M 2944 4013 
L 2944 2272 
L 4684 2272 
L 4684 1741 
L 2944 1741 
L 2944 0 
L 2419 0 
L 2419 1741 
L 678 1741 
L 678 2272 
L 2419 2272 
L 2419 4013 
L 2944 4013 
z
" transform="scale(0.015625)"/>
       </defs>
       <use xlink:href="#DejaVuSans-4d"/>
       <use xlink:href="#DejaVuSans-47" x="86.279297"/>
       <use xlink:href="#DejaVuSans-49" x="163.769531"/>
       <use xlink:href="#DejaVuSans-20" x="193.261719"/>
       <use xlink:href="#DejaVuSans-2b" x="225.048828"/>
       <use xlink:href="#DejaVuSans-20" x="308.837891"/>
       <use xlink:href="#DejaVuSans-4d" x="340.625"/>
       <use xlink:href="#DejaVuSans-69" x="426.904297"/>
       <use xlink:href="#DejaVuSans-6e" x="454.6875"/>
       <use xlink:href="#DejaVuSans-49" x="518.066406"/>
       <use xlink:href="#DejaVuSans-4f" x="547.558594"/>
       <use xlink:href="#DejaVuSans-4e" x="626.269531"/>
      </g>
     </g>
    </g>
    <g id="ytick_5">
     <g id="line2d_8">
      <g>
       <use xlink:href="#m8045f6b546" x="702.5299" y="262.395" style="stroke: #000000; stroke-width: 0.8"/>
      </g>
     </g>
     <g id="text_9">
      <!-- Promethion Only -->
      <g transform="translate(709.5299 266.194219) scale(0.1 -0.1)">
       <defs>
        <path id="DejaVuSans-50" d="M 1259 4147 
L 1259 2394 
L 2053 2394 
Q 2494 2394 2734 2622 
Q 2975 2850 2975 3272 
Q 2975 3691 2734 3919 
Q 2494 4147 2053 4147 
L 1259 4147 
z
M 628 4666 
L 2053 4666 
Q 2838 4666 3239 4311 
Q 3641 3956 3641 3272 
Q 3641 2581 3239 2228 
Q 2838 1875 2053 1875 
L 1259 1875 
L 1259 0 
L 628 0 
L 628 4666 
z
" transform="scale(0.015625)"/>
       </defs>
       <use xlink:href="#DejaVuSans-50"/>
       <use xlink:href="#DejaVuSans-72" x="58.552734"/>
       <use xlink:href="#DejaVuSans-6f" x="97.416016"/>
       <use xlink:href="#DejaVuSans-6d" x="158.597656"/>
       <use xlink:href="#DejaVuSans-65" x="256.009766"/>
       <use xlink:href="#DejaVuSans-74" x="317.533203"/>
       <use xlink:href="#DejaVuSans-68" x="356.742188"/>
       <use xlink:href="#DejaVuSans-69" x="420.121094"/>
       <use xlink:href="#DejaVuSans-6f" x="447.904297"/>
       <use xlink:href="#DejaVuSans-6e" x="509.085938"/>
       <use xlink:href="#DejaVuSans-20" x="572.464844"/>
       <use xlink:href="#DejaVuSans-4f" x="604.251953"/>
       <use xlink:href="#DejaVuSans-6e" x="682.962891"/>
       <use xlink:href="#DejaVuSans-6c" x="746.341797"/>
       <use xlink:href="#DejaVuSans-79" x="774.125"/>
      </g>
     </g>
    </g>
    <g id="ytick_6">
     <g id="line2d_9">
      <g>
       <use xlink:href="#m8045f6b546" x="702.5299" y="195.105" style="stroke: #000000; stroke-width: 0.8"/>
      </g>
     </g>
     <g id="text_10">
      <!-- MGI + Promethion -->
      <g transform="translate(709.5299 198.904219) scale(0.1 -0.1)">
       <use xlink:href="#DejaVuSans-4d"/>
       <use xlink:href="#DejaVuSans-47" x="86.279297"/>
       <use xlink:href="#DejaVuSans-49" x="163.769531"/>
       <use xlink:href="#DejaVuSans-20" x="193.261719"/>
       <use xlink:href="#DejaVuSans-2b" x="225.048828"/>
       <use xlink:href="#DejaVuSans-20" x="308.837891"/>
       <use xlink:href="#DejaVuSans-50" x="340.625"/>
       <use xlink:href="#DejaVuSans-72" x="399.177734"/>
       <use xlink:href="#DejaVuSans-6f" x="438.041016"/>
       <use xlink:href="#DejaVuSans-6d" x="499.222656"/>
       <use xlink:href="#DejaVuSans-65" x="596.634766"/>
       <use xlink:href="#DejaVuSans-74" x="658.158203"/>
       <use xlink:href="#DejaVuSans-68" x="697.367188"/>
       <use xlink:href="#DejaVuSans-69" x="760.746094"/>
       <use xlink:href="#DejaVuSans-6f" x="788.529297"/>
       <use xlink:href="#DejaVuSans-6e" x="849.710938"/>
      </g>
     </g>
    </g>
    <g id="ytick_7">
     <g id="line2d_10">
      <g>
       <use xlink:href="#m8045f6b546" x="702.5299" y="127.815" style="stroke: #000000; stroke-width: 0.8"/>
      </g>
     </g>
     <g id="text_11">
      <!-- MinION + Promethion -->
      <g transform="translate(709.5299 131.614219) scale(0.1 -0.1)">
       <use xlink:href="#DejaVuSans-4d"/>
       <use xlink:href="#DejaVuSans-69" x="86.279297"/>
       <use xlink:href="#DejaVuSans-6e" x="114.0625"/>
       <use xlink:href="#DejaVuSans-49" x="177.441406"/>
       <use xlink:href="#DejaVuSans-4f" x="206.933594"/>
       <use xlink:href="#DejaVuSans-4e" x="285.644531"/>
       <use xlink:href="#DejaVuSans-20" x="360.449219"/>
       <use xlink:href="#DejaVuSans-2b" x="392.236328"/>
       <use xlink:href="#DejaVuSans-20" x="476.025391"/>
       <use xlink:href="#DejaVuSans-50" x="507.8125"/>
       <use xlink:href="#DejaVuSans-72" x="566.365234"/>
       <use xlink:href="#DejaVuSans-6f" x="605.228516"/>
       <use xlink:href="#DejaVuSans-6d" x="666.410156"/>
       <use xlink:href="#DejaVuSans-65" x="763.822266"/>
       <use xlink:href="#DejaVuSans-74" x="825.345703"/>
       <use xlink:href="#DejaVuSans-68" x="864.554688"/>
       <use xlink:href="#DejaVuSans-69" x="927.933594"/>
       <use xlink:href="#DejaVuSans-6f" x="955.716797"/>
       <use xlink:href="#DejaVuSans-6e" x="1016.898438"/>
      </g>
     </g>
    </g>
    <g id="ytick_8">
     <g id="line2d_11">
      <g>
       <use xlink:href="#m8045f6b546" x="702.5299" y="60.525" style="stroke: #000000; stroke-width: 0.8"/>
      </g>
     </g>
     <g id="text_12">
      <!-- All -->
      <g transform="translate(709.5299 64.324219) scale(0.1 -0.1)">
       <defs>
        <path id="DejaVuSans-41" d="M 2188 4044 
L 1331 1722 
L 3047 1722 
L 2188 4044 
z
M 1831 4666 
L 2547 4666 
L 4325 0 
L 3669 0 
L 3244 1197 
L 1141 1197 
L 716 0 
L 50 0 
L 1831 4666 
z
" transform="scale(0.015625)"/>
       </defs>
       <use xlink:href="#DejaVuSans-41"/>
       <use xlink:href="#DejaVuSans-6c" x="68.408203"/>
       <use xlink:href="#DejaVuSans-6c" x="96.191406"/>
      </g>
     </g>
    </g>
    <g id="text_13">
     <!-- How the taxa were detected -->
     <g transform="translate(838.933025 366.990781) rotate(-90) scale(0.1 -0.1)">
      <defs>
       <path id="DejaVuSans-48" d="M 628 4666 
L 1259 4666 
L 1259 2753 
L 3553 2753 
L 3553 4666 
L 4184 4666 
L 4184 0 
L 3553 0 
L 3553 2222 
L 1259 2222 
L 1259 0 
L 628 0 
L 628 4666 
z
" transform="scale(0.015625)"/>
      </defs>
      <use xlink:href="#DejaVuSans-48"/>
      <use xlink:href="#DejaVuSans-6f" x="75.195312"/>
      <use xlink:href="#DejaVuSans-77" x="136.376953"/>
      <use xlink:href="#DejaVuSans-20" x="218.164062"/>
      <use xlink:href="#DejaVuSans-74" x="249.951172"/>
      <use xlink:href="#DejaVuSans-68" x="289.160156"/>
      <use xlink:href="#DejaVuSans-65" x="352.539062"/>
      <use xlink:href="#DejaVuSans-20" x="414.0625"/>
      <use xlink:href="#DejaVuSans-74" x="445.849609"/>
      <use xlink:href="#DejaVuSans-61" x="485.058594"/>
      <use xlink:href="#DejaVuSans-78" x="546.337891"/>
      <use xlink:href="#DejaVuSans-61" x="605.517578"/>
      <use xlink:href="#DejaVuSans-20" x="666.796875"/>
      <use xlink:href="#DejaVuSans-77" x="698.583984"/>
      <use xlink:href="#DejaVuSans-65" x="780.371094"/>
      <use xlink:href="#DejaVuSans-72" x="841.894531"/>
      <use xlink:href="#DejaVuSans-65" x="880.757812"/>
      <use xlink:href="#DejaVuSans-20" x="942.28125"/>
      <use xlink:href="#DejaVuSans-64" x="974.068359"/>
      <use xlink:href="#DejaVuSans-65" x="1037.544922"/>
      <use xlink:href="#DejaVuSans-74" x="1099.068359"/>
      <use xlink:href="#DejaVuSans-65" x="1138.277344"/>
      <use xlink:href="#DejaVuSans-63" x="1199.800781"/>
      <use xlink:href="#DejaVuSans-74" x="1254.78125"/>
      <use xlink:href="#DejaVuSans-65" x="1293.990234"/>
      <use xlink:href="#DejaVuSans-64" x="1355.513672"/>
     </g>
    </g>
   </g>
   <g id="LineCollection_1"/>
   <g id="patch_7">
    <path d="M 675.6139 565.2 
L 689.0719 565.2 
L 702.5299 565.2 
L 702.5299 26.88 
L 689.0719 26.88 
L 675.6139 26.88 
L 675.6139 565.2 
z
" style="fill: none; stroke: #000000; stroke-width: 0.8; stroke-linejoin: miter; stroke-linecap: square"/>
   </g>
  </g>
 </g>
 <defs>
  <clipPath id="pe5c8325bfb">
   <rect x="98.1872" y="26.88" width="538.32" height="538.32"/>
  </clipPath>
  <clipPath id="p074e3e4022">
   <rect x="675.6139" y="26.88" width="26.916" height="538.32"/>
  </clipPath>
 </defs>
</svg>
