<?xml version="1.0" encoding="utf-8" standalone="no"?>
<!DOCTYPE svg PUBLIC "-//W3C//DTD SVG 1.1//EN"
  "http://www.w3.org/Graphics/SVG/1.1/DTD/svg11.dtd">
<svg xmlns:xlink="http://www.w3.org/1999/xlink" width="864pt" height="576pt" viewBox="0 0 864 576" xmlns="http://www.w3.org/2000/svg" version="1.1">
 <metadata>
  <rdf:RDF xmlns:dc="http://purl.org/dc/elements/1.1/" xmlns:cc="http://creativecommons.org/ns#" xmlns:rdf="http://www.w3.org/1999/02/22-rdf-syntax-ns#">
   <cc:Work>
    <dc:type rdf:resource="http://purl.org/dc/dcmitype/StillImage"/>
    <dc:date>2025-05-05T17:01:02.423288</dc:date>
    <dc:format>image/svg+xml</dc:format>
    <dc:creator>
     <cc:Agent>
      <dc:title>Matplotlib v3.8.0, https://matplotlib.org/</dc:title>
     </cc:Agent>
    </dc:creator>
   </cc:Work>
  </rdf:RDF>
 </metadata>
 <defs>
  <style type="text/css">*{stroke-linejoin: round; stroke-linecap: butt}</style>
 </defs>
 <g id="figure_1">
  <g id="patch_1">
   <path d="M 0 576 
L 864 576 
L 864 0 
L 0 0 
z
" style="fill: #ffffff"/>
  </g>
  <g id="patch_2">
   <path d="M 98.1872 565.2 
L 636.5072 565.2 
L 636.5072 26.88 
L 98.1872 26.88 
z
" style="fill: #ffffff"/>
  </g>
  <g id="pane3d_1">
   <g id="patch_3">
    <path d="M 138.834072 432.46754 
L 316.604917 283.456493 
L 314.133732 68.555925 
L 127.855636 204.493195 
" style="fill: #f2f2f2; opacity: 0.5; stroke: #f2f2f2; stroke-linejoin: miter"/>
   </g>
  </g>
  <g id="pane3d_2">
   <g id="patch_4">
    <path d="M 316.604917 283.456493 
L 601.863694 366.369957 
L 612.043574 144.067386 
L 314.133732 68.555925 
" style="fill: #e6e6e6; opacity: 0.5; stroke: #e6e6e6; stroke-linejoin: miter"/>
   </g>
  </g>
  <g id="pane3d_3">
   <g id="patch_5">
    <path d="M 138.834072 432.46754 
L 441.222308 531.227537 
L 601.863694 366.369957 
L 316.604917 283.456493 
" style="fill: #ececec; opacity: 0.5; stroke: #ececec; stroke-linejoin: miter"/>
   </g>
  </g>
  <g id="grid3d_1"/>
  <g id="grid3d_2"/>
  <g id="grid3d_3"/>
  <g id="axis3d_1">
   <g id="line2d_1">
    <path d="M 138.834072 432.46754 
L 441.222308 531.227537 
" style="fill: none; stroke: #000000; stroke-width: 0.8; stroke-linecap: square"/>
   </g>
   <g id="text_1">
    <!-- 10 pwCF samples -->
    <g transform="translate(227.179541 504.647053) rotate(-341.912962) scale(0.1 -0.1)">
     <defs>
      <path id="DejaVuSans-31" d="M 794 531 
L 1825 531 
L 1825 4091 
L 703 3866 
L 703 4441 
L 1819 4666 
L 2450 4666 
L 2450 531 
L 3481 531 
L 3481 0 
L 794 0 
L 794 531 
z
" transform="scale(0.015625)"/>
      <path id="DejaVuSans-30" d="M 2034 4250 
Q 1547 4250 1301 3770 
Q 1056 3291 1056 2328 
Q 1056 1369 1301 889 
Q 1547 409 2034 409 
Q 2525 409 2770 889 
Q 3016 1369 3016 2328 
Q 3016 3291 2770 3770 
Q 2525 4250 2034 4250 
z
M 2034 4750 
Q 2819 4750 3233 4129 
Q 3647 3509 3647 2328 
Q 3647 1150 3233 529 
Q 2819 -91 2034 -91 
Q 1250 -91 836 529 
Q 422 1150 422 2328 
Q 422 3509 836 4129 
Q 1250 4750 2034 4750 
z
" transform="scale(0.015625)"/>
      <path id="DejaVuSans-20" transform="scale(0.015625)"/>
      <path id="DejaVuSans-70" d="M 1159 525 
L 1159 -1331 
L 581 -1331 
L 581 3500 
L 1159 3500 
L 1159 2969 
Q 1341 3281 1617 3432 
Q 1894 3584 2278 3584 
Q 2916 3584 3314 3078 
Q 3713 2572 3713 1747 
Q 3713 922 3314 415 
Q 2916 -91 2278 -91 
Q 1894 -91 1617 61 
Q 1341 213 1159 525 
z
M 3116 1747 
Q 3116 2381 2855 2742 
Q 2594 3103 2138 3103 
Q 1681 3103 1420 2742 
Q 1159 2381 1159 1747 
Q 1159 1113 1420 752 
Q 1681 391 2138 391 
Q 2594 391 2855 752 
Q 3116 1113 3116 1747 
z
" transform="scale(0.015625)"/>
      <path id="DejaVuSans-77" d="M 269 3500 
L 844 3500 
L 1563 769 
L 2278 3500 
L 2956 3500 
L 3675 769 
L 4391 3500 
L 4966 3500 
L 4050 0 
L 3372 0 
L 2619 2869 
L 1863 0 
L 1184 0 
L 269 3500 
z
" transform="scale(0.015625)"/>
      <path id="DejaVuSans-43" d="M 4122 4306 
L 4122 3641 
Q 3803 3938 3442 4084 
Q 3081 4231 2675 4231 
Q 1875 4231 1450 3742 
Q 1025 3253 1025 2328 
Q 1025 1406 1450 917 
Q 1875 428 2675 428 
Q 3081 428 3442 575 
Q 3803 722 4122 1019 
L 4122 359 
Q 3791 134 3420 21 
Q 3050 -91 2638 -91 
Q 1578 -91 968 557 
Q 359 1206 359 2328 
Q 359 3453 968 4101 
Q 1578 4750 2638 4750 
Q 3056 4750 3426 4639 
Q 3797 4528 4122 4306 
z
" transform="scale(0.015625)"/>
      <path id="DejaVuSans-46" d="M 628 4666 
L 3309 4666 
L 3309 4134 
L 1259 4134 
L 1259 2759 
L 3109 2759 
L 3109 2228 
L 1259 2228 
L 1259 0 
L 628 0 
L 628 4666 
z
" transform="scale(0.015625)"/>
      <path id="DejaVuSans-73" d="M 2834 3397 
L 2834 2853 
Q 2591 2978 2328 3040 
Q 2066 3103 1784 3103 
Q 1356 3103 1142 2972 
Q 928 2841 928 2578 
Q 928 2378 1081 2264 
Q 1234 2150 1697 2047 
L 1894 2003 
Q 2506 1872 2764 1633 
Q 3022 1394 3022 966 
Q 3022 478 2636 193 
Q 2250 -91 1575 -91 
Q 1294 -91 989 -36 
Q 684 19 347 128 
L 347 722 
Q 666 556 975 473 
Q 1284 391 1588 391 
Q 1994 391 2212 530 
Q 2431 669 2431 922 
Q 2431 1156 2273 1281 
Q 2116 1406 1581 1522 
L 1381 1569 
Q 847 1681 609 1914 
Q 372 2147 372 2553 
Q 372 3047 722 3315 
Q 1072 3584 1716 3584 
Q 2034 3584 2315 3537 
Q 2597 3491 2834 3397 
z
" transform="scale(0.015625)"/>
      <path id="DejaVuSans-61" d="M 2194 1759 
Q 1497 1759 1228 1600 
Q 959 1441 959 1056 
Q 959 750 1161 570 
Q 1363 391 1709 391 
Q 2188 391 2477 730 
Q 2766 1069 2766 1631 
L 2766 1759 
L 2194 1759 
z
M 3341 1997 
L 3341 0 
L 2766 0 
L 2766 531 
Q 2569 213 2275 61 
Q 1981 -91 1556 -91 
Q 1019 -91 701 211 
Q 384 513 384 1019 
Q 384 1609 779 1909 
Q 1175 2209 1959 2209 
L 2766 2209 
L 2766 2266 
Q 2766 2663 2505 2880 
Q 2244 3097 1772 3097 
Q 1472 3097 1187 3025 
Q 903 2953 641 2809 
L 641 3341 
Q 956 3463 1253 3523 
Q 1550 3584 1831 3584 
Q 2591 3584 2966 3190 
Q 3341 2797 3341 1997 
z
" transform="scale(0.015625)"/>
      <path id="DejaVuSans-6d" d="M 3328 2828 
Q 3544 3216 3844 3400 
Q 4144 3584 4550 3584 
Q 5097 3584 5394 3201 
Q 5691 2819 5691 2113 
L 5691 0 
L 5113 0 
L 5113 2094 
Q 5113 2597 4934 2840 
Q 4756 3084 4391 3084 
Q 3944 3084 3684 2787 
Q 3425 2491 3425 1978 
L 3425 0 
L 2847 0 
L 2847 2094 
Q 2847 2600 2669 2842 
Q 2491 3084 2119 3084 
Q 1678 3084 1418 2786 
Q 1159 2488 1159 1978 
L 1159 0 
L 581 0 
L 581 3500 
L 1159 3500 
L 1159 2956 
Q 1356 3278 1631 3431 
Q 1906 3584 2284 3584 
Q 2666 3584 2933 3390 
Q 3200 3197 3328 2828 
z
" transform="scale(0.015625)"/>
      <path id="DejaVuSans-6c" d="M 603 4863 
L 1178 4863 
L 1178 0 
L 603 0 
L 603 4863 
z
" transform="scale(0.015625)"/>
      <path id="DejaVuSans-65" d="M 3597 1894 
L 3597 1613 
L 953 1613 
Q 991 1019 1311 708 
Q 1631 397 2203 397 
Q 2534 397 2845 478 
Q 3156 559 3463 722 
L 3463 178 
Q 3153 47 2828 -22 
Q 2503 -91 2169 -91 
Q 1331 -91 842 396 
Q 353 884 353 1716 
Q 353 2575 817 3079 
Q 1281 3584 2069 3584 
Q 2775 3584 3186 3129 
Q 3597 2675 3597 1894 
z
M 3022 2063 
Q 3016 2534 2758 2815 
Q 2500 3097 2075 3097 
Q 1594 3097 1305 2825 
Q 1016 2553 972 2059 
L 3022 2063 
z
" transform="scale(0.015625)"/>
     </defs>
     <use xlink:href="#DejaVuSans-31"/>
     <use xlink:href="#DejaVuSans-30" x="63.623047"/>
     <use xlink:href="#DejaVuSans-20" x="127.246094"/>
     <use xlink:href="#DejaVuSans-70" x="159.033203"/>
     <use xlink:href="#DejaVuSans-77" x="222.509766"/>
     <use xlink:href="#DejaVuSans-43" x="304.296875"/>
     <use xlink:href="#DejaVuSans-46" x="374.121094"/>
     <use xlink:href="#DejaVuSans-20" x="431.640625"/>
     <use xlink:href="#DejaVuSans-73" x="463.427734"/>
     <use xlink:href="#DejaVuSans-61" x="515.527344"/>
     <use xlink:href="#DejaVuSans-6d" x="576.806641"/>
     <use xlink:href="#DejaVuSans-70" x="674.21875"/>
     <use xlink:href="#DejaVuSans-6c" x="737.695312"/>
     <use xlink:href="#DejaVuSans-65" x="765.478516"/>
     <use xlink:href="#DejaVuSans-73" x="827.001953"/>
    </g>
   </g>
  </g>
  <g id="axis3d_2">
   <g id="line2d_2">
    <path d="M 601.863694 366.369957 
L 441.222308 531.227537 
" style="fill: none; stroke: #000000; stroke-width: 0.8; stroke-linecap: square"/>
   </g>
   <g id="text_2">
    <!-- 18 class taxonomies -->
    <g transform="translate(518.471834 511.558528) rotate(-45.742112) scale(0.1 -0.1)">
     <defs>
      <path id="DejaVuSans-38" d="M 2034 2216 
Q 1584 2216 1326 1975 
Q 1069 1734 1069 1313 
Q 1069 891 1326 650 
Q 1584 409 2034 409 
Q 2484 409 2743 651 
Q 3003 894 3003 1313 
Q 3003 1734 2745 1975 
Q 2488 2216 2034 2216 
z
M 1403 2484 
Q 997 2584 770 2862 
Q 544 3141 544 3541 
Q 544 4100 942 4425 
Q 1341 4750 2034 4750 
Q 2731 4750 3128 4425 
Q 3525 4100 3525 3541 
Q 3525 3141 3298 2862 
Q 3072 2584 2669 2484 
Q 3125 2378 3379 2068 
Q 3634 1759 3634 1313 
Q 3634 634 3220 271 
Q 2806 -91 2034 -91 
Q 1263 -91 848 271 
Q 434 634 434 1313 
Q 434 1759 690 2068 
Q 947 2378 1403 2484 
z
M 1172 3481 
Q 1172 3119 1398 2916 
Q 1625 2713 2034 2713 
Q 2441 2713 2670 2916 
Q 2900 3119 2900 3481 
Q 2900 3844 2670 4047 
Q 2441 4250 2034 4250 
Q 1625 4250 1398 4047 
Q 1172 3844 1172 3481 
z
" transform="scale(0.015625)"/>
      <path id="DejaVuSans-63" d="M 3122 3366 
L 3122 2828 
Q 2878 2963 2633 3030 
Q 2388 3097 2138 3097 
Q 1578 3097 1268 2742 
Q 959 2388 959 1747 
Q 959 1106 1268 751 
Q 1578 397 2138 397 
Q 2388 397 2633 464 
Q 2878 531 3122 666 
L 3122 134 
Q 2881 22 2623 -34 
Q 2366 -91 2075 -91 
Q 1284 -91 818 406 
Q 353 903 353 1747 
Q 353 2603 823 3093 
Q 1294 3584 2113 3584 
Q 2378 3584 2631 3529 
Q 2884 3475 3122 3366 
z
" transform="scale(0.015625)"/>
      <path id="DejaVuSans-74" d="M 1172 4494 
L 1172 3500 
L 2356 3500 
L 2356 3053 
L 1172 3053 
L 1172 1153 
Q 1172 725 1289 603 
Q 1406 481 1766 481 
L 2356 481 
L 2356 0 
L 1766 0 
Q 1100 0 847 248 
Q 594 497 594 1153 
L 594 3053 
L 172 3053 
L 172 3500 
L 594 3500 
L 594 4494 
L 1172 4494 
z
" transform="scale(0.015625)"/>
      <path id="DejaVuSans-78" d="M 3513 3500 
L 2247 1797 
L 3578 0 
L 2900 0 
L 1881 1375 
L 863 0 
L 184 0 
L 1544 1831 
L 300 3500 
L 978 3500 
L 1906 2253 
L 2834 3500 
L 3513 3500 
z
" transform="scale(0.015625)"/>
      <path id="DejaVuSans-6f" d="M 1959 3097 
Q 1497 3097 1228 2736 
Q 959 2375 959 1747 
Q 959 1119 1226 758 
Q 1494 397 1959 397 
Q 2419 397 2687 759 
Q 2956 1122 2956 1747 
Q 2956 2369 2687 2733 
Q 2419 3097 1959 3097 
z
M 1959 3584 
Q 2709 3584 3137 3096 
Q 3566 2609 3566 1747 
Q 3566 888 3137 398 
Q 2709 -91 1959 -91 
Q 1206 -91 779 398 
Q 353 888 353 1747 
Q 353 2609 779 3096 
Q 1206 3584 1959 3584 
z
" transform="scale(0.015625)"/>
      <path id="DejaVuSans-6e" d="M 3513 2113 
L 3513 0 
L 2938 0 
L 2938 2094 
Q 2938 2591 2744 2837 
Q 2550 3084 2163 3084 
Q 1697 3084 1428 2787 
Q 1159 2491 1159 1978 
L 1159 0 
L 581 0 
L 581 3500 
L 1159 3500 
L 1159 2956 
Q 1366 3272 1645 3428 
Q 1925 3584 2291 3584 
Q 2894 3584 3203 3211 
Q 3513 2838 3513 2113 
z
" transform="scale(0.015625)"/>
      <path id="DejaVuSans-69" d="M 603 3500 
L 1178 3500 
L 1178 0 
L 603 0 
L 603 3500 
z
M 603 4863 
L 1178 4863 
L 1178 4134 
L 603 4134 
L 603 4863 
z
" transform="scale(0.015625)"/>
     </defs>
     <use xlink:href="#DejaVuSans-31"/>
     <use xlink:href="#DejaVuSans-38" x="63.623047"/>
     <use xlink:href="#DejaVuSans-20" x="127.246094"/>
     <use xlink:href="#DejaVuSans-63" x="159.033203"/>
     <use xlink:href="#DejaVuSans-6c" x="214.013672"/>
     <use xlink:href="#DejaVuSans-61" x="241.796875"/>
     <use xlink:href="#DejaVuSans-73" x="303.076172"/>
     <use xlink:href="#DejaVuSans-73" x="355.175781"/>
     <use xlink:href="#DejaVuSans-20" x="407.275391"/>
     <use xlink:href="#DejaVuSans-74" x="439.0625"/>
     <use xlink:href="#DejaVuSans-61" x="478.271484"/>
     <use xlink:href="#DejaVuSans-78" x="539.550781"/>
     <use xlink:href="#DejaVuSans-6f" x="595.605469"/>
     <use xlink:href="#DejaVuSans-6e" x="656.787109"/>
     <use xlink:href="#DejaVuSans-6f" x="720.166016"/>
     <use xlink:href="#DejaVuSans-6d" x="781.347656"/>
     <use xlink:href="#DejaVuSans-69" x="878.759766"/>
     <use xlink:href="#DejaVuSans-65" x="906.542969"/>
     <use xlink:href="#DejaVuSans-73" x="968.066406"/>
    </g>
   </g>
  </g>
  <g id="axis3d_3">
   <g id="line2d_3">
    <path d="M 601.863694 366.369957 
L 612.043574 144.067386 
" style="fill: none; stroke: #000000; stroke-width: 0.8; stroke-linecap: square"/>
   </g>
   <g id="text_3">
    <!-- Normalized MGI read depth -->
    <g transform="translate(646.972362 320.878308) rotate(-87.378092) scale(0.1 -0.1)">
     <defs>
      <path id="DejaVuSans-4e" d="M 628 4666 
L 1478 4666 
L 3547 763 
L 3547 4666 
L 4159 4666 
L 4159 0 
L 3309 0 
L 1241 3903 
L 1241 0 
L 628 0 
L 628 4666 
z
" transform="scale(0.015625)"/>
      <path id="DejaVuSans-72" d="M 2631 2963 
Q 2534 3019 2420 3045 
Q 2306 3072 2169 3072 
Q 1681 3072 1420 2755 
Q 1159 2438 1159 1844 
L 1159 0 
L 581 0 
L 581 3500 
L 1159 3500 
L 1159 2956 
Q 1341 3275 1631 3429 
Q 1922 3584 2338 3584 
Q 2397 3584 2469 3576 
Q 2541 3569 2628 3553 
L 2631 2963 
z
" transform="scale(0.015625)"/>
      <path id="DejaVuSans-7a" d="M 353 3500 
L 3084 3500 
L 3084 2975 
L 922 459 
L 3084 459 
L 3084 0 
L 275 0 
L 275 525 
L 2438 3041 
L 353 3041 
L 353 3500 
z
" transform="scale(0.015625)"/>
      <path id="DejaVuSans-64" d="M 2906 2969 
L 2906 4863 
L 3481 4863 
L 3481 0 
L 2906 0 
L 2906 525 
Q 2725 213 2448 61 
Q 2172 -91 1784 -91 
Q 1150 -91 751 415 
Q 353 922 353 1747 
Q 353 2572 751 3078 
Q 1150 3584 1784 3584 
Q 2172 3584 2448 3432 
Q 2725 3281 2906 2969 
z
M 947 1747 
Q 947 1113 1208 752 
Q 1469 391 1925 391 
Q 2381 391 2643 752 
Q 2906 1113 2906 1747 
Q 2906 2381 2643 2742 
Q 2381 3103 1925 3103 
Q 1469 3103 1208 2742 
Q 947 2381 947 1747 
z
" transform="scale(0.015625)"/>
      <path id="DejaVuSans-4d" d="M 628 4666 
L 1569 4666 
L 2759 1491 
L 3956 4666 
L 4897 4666 
L 4897 0 
L 4281 0 
L 4281 4097 
L 3078 897 
L 2444 897 
L 1241 4097 
L 1241 0 
L 628 0 
L 628 4666 
z
" transform="scale(0.015625)"/>
      <path id="DejaVuSans-47" d="M 3809 666 
L 3809 1919 
L 2778 1919 
L 2778 2438 
L 4434 2438 
L 4434 434 
Q 4069 175 3628 42 
Q 3188 -91 2688 -91 
Q 1594 -91 976 548 
Q 359 1188 359 2328 
Q 359 3472 976 4111 
Q 1594 4750 2688 4750 
Q 3144 4750 3555 4637 
Q 3966 4525 4313 4306 
L 4313 3634 
Q 3963 3931 3569 4081 
Q 3175 4231 2741 4231 
Q 1884 4231 1454 3753 
Q 1025 3275 1025 2328 
Q 1025 1384 1454 906 
Q 1884 428 2741 428 
Q 3075 428 3337 486 
Q 3600 544 3809 666 
z
" transform="scale(0.015625)"/>
      <path id="DejaVuSans-49" d="M 628 4666 
L 1259 4666 
L 1259 0 
L 628 0 
L 628 4666 
z
" transform="scale(0.015625)"/>
      <path id="DejaVuSans-68" d="M 3513 2113 
L 3513 0 
L 2938 0 
L 2938 2094 
Q 2938 2591 2744 2837 
Q 2550 3084 2163 3084 
Q 1697 3084 1428 2787 
Q 1159 2491 1159 1978 
L 1159 0 
L 581 0 
L 581 4863 
L 1159 4863 
L 1159 2956 
Q 1366 3272 1645 3428 
Q 1925 3584 2291 3584 
Q 2894 3584 3203 3211 
Q 3513 2838 3513 2113 
z
" transform="scale(0.015625)"/>
     </defs>
     <use xlink:href="#DejaVuSans-4e"/>
     <use xlink:href="#DejaVuSans-6f" x="74.804688"/>
     <use xlink:href="#DejaVuSans-72" x="135.986328"/>
     <use xlink:href="#DejaVuSans-6d" x="175.349609"/>
     <use xlink:href="#DejaVuSans-61" x="272.761719"/>
     <use xlink:href="#DejaVuSans-6c" x="334.041016"/>
     <use xlink:href="#DejaVuSans-69" x="361.824219"/>
     <use xlink:href="#DejaVuSans-7a" x="389.607422"/>
     <use xlink:href="#DejaVuSans-65" x="442.097656"/>
     <use xlink:href="#DejaVuSans-64" x="503.621094"/>
     <use xlink:href="#DejaVuSans-20" x="567.097656"/>
     <use xlink:href="#DejaVuSans-4d" x="598.884766"/>
     <use xlink:href="#DejaVuSans-47" x="685.164062"/>
     <use xlink:href="#DejaVuSans-49" x="762.654297"/>
     <use xlink:href="#DejaVuSans-20" x="792.146484"/>
     <use xlink:href="#DejaVuSans-72" x="823.933594"/>
     <use xlink:href="#DejaVuSans-65" x="862.796875"/>
     <use xlink:href="#DejaVuSans-61" x="924.320312"/>
     <use xlink:href="#DejaVuSans-64" x="985.599609"/>
     <use xlink:href="#DejaVuSans-20" x="1049.076172"/>
     <use xlink:href="#DejaVuSans-64" x="1080.863281"/>
     <use xlink:href="#DejaVuSans-65" x="1144.339844"/>
     <use xlink:href="#DejaVuSans-70" x="1205.863281"/>
     <use xlink:href="#DejaVuSans-74" x="1269.339844"/>
     <use xlink:href="#DejaVuSans-68" x="1308.548828"/>
    </g>
   </g>
  </g>
  <g id="axes_1">
   <g id="Poly3DCollection_1">
    <path d="M 315.042116 298.403273 
L 341.890181 307.997006 
L 350.170328 278.326614 
L 323.395972 280.136119 
z
" clip-path="url(#p299a00f410)" style="fill: #d670a5"/>
    <path d="M 341.890181 307.997006 
L 368.95172 300.635438 
L 377.288029 295.74781 
L 350.170328 278.326614 
z
" clip-path="url(#p299a00f410)" style="fill: #d16da1"/>
    <path d="M 333.352041 305.868799 
L 360.528264 303.02134 
L 368.95172 300.635438 
L 341.890181 307.997006 
z
" clip-path="url(#p299a00f410)" style="fill: #bd6392"/>
    <path d="M 304.344861 146.461523 
L 333.352041 305.868799 
L 341.890181 307.997006 
L 315.042116 298.403273 
z
" clip-path="url(#p299a00f410)" style="fill: #63344d"/>
    <path d="M 368.95172 300.635438 
L 396.302346 323.987818 
L 404.830206 267.35014 
L 377.288029 295.74781 
z
" clip-path="url(#p299a00f410)" style="fill: #c66899"/>
    <path d="M 324.895167 322.577713 
L 352.118727 328.501749 
L 360.528264 303.02134 
L 333.352041 305.868799 
z
" clip-path="url(#p299a00f410)" style="fill: #e175ae"/>
    <path d="M 360.528264 303.02134 
L 388.009541 326.834371 
L 396.302346 323.987818 
L 368.95172 300.635438 
z
" clip-path="url(#p299a00f410)" style="fill: #592f45"/>
    <path d="M 297.91675 314.578454 
L 324.895167 322.577713 
L 333.352041 305.868799 
L 304.344861 146.461523 
z
" clip-path="url(#p299a00f410)" style="fill: #da72a9"/>
    <path d="M 396.302346 323.987818 
L 423.897743 331.700583 
L 432.492905 285.836529 
L 404.830206 267.35014 
z
" clip-path="url(#p299a00f410)" style="fill: #db72a9"/>
    <path d="M 388.009541 326.834371 
L 415.735273 331.588294 
L 423.897743 331.700583 
L 396.302346 323.987818 
z
" clip-path="url(#p299a00f410)" style="fill: #834566"/>
    <path d="M 352.118727 328.501749 
L 379.620597 338.301097 
L 388.009541 326.834371 
L 360.528264 303.02134 
z
" clip-path="url(#p299a00f410)" style="fill: #c06494"/>
    <path d="M 423.897743 331.700583 
L 451.775509 338.447719 
L 460.222256 309.100995 
L 432.492905 285.836529 
z
" clip-path="url(#p299a00f410)" style="fill: #de74ac"/>
    <path d="M 288.718677 291.740821 
L 314.511343 177.784541 
L 324.895167 322.577713 
L 297.91675 314.578454 
z
" clip-path="url(#p299a00f410)" style="fill: #974f75"/>
    <path d="M 379.620597 338.301097 
L 407.380865 345.977684 
L 415.735273 331.588294 
L 388.009541 326.834371 
z
" clip-path="url(#p299a00f410)" style="fill: #df74ac"/>
    <path d="M 415.735273 331.588294 
L 443.835604 331.219493 
L 451.775509 338.447719 
L 423.897743 331.700583 
z
" clip-path="url(#p299a00f410)" style="fill: #8c496c"/>
    <path d="M 271.623568 335.985026 
L 298.735862 337.706792 
L 306.957434 289.229205 
L 280.338583 322.088303 
z
" clip-path="url(#p299a00f410)" style="fill: #eaea2f"/>
    <path d="M 451.775509 338.447719 
L 479.891347 347.347125 
L 488.384847 317.55402 
L 460.222256 309.100995 
z
" clip-path="url(#p299a00f410)" style="fill: #d871a7"/>
    <path d="M 262.730812 344.428489 
L 290.013245 352.697336 
L 298.735862 337.706792 
L 271.623568 335.985026 
z
" clip-path="url(#p299a00f410)" style="fill: #e1e12d"/>
    <path d="M 407.380865 345.977684 
L 435.405635 354.362064 
L 443.835604 331.219493 
L 415.735273 331.588294 
z
" clip-path="url(#p299a00f410)" style="fill: #da72a9"/>
    <path d="M 280.338583 322.088303 
L 306.957434 289.229205 
L 314.511343 177.784541 
L 288.718677 291.740821 
z
" clip-path="url(#p299a00f410)" style="fill: #ec7bb6"/>
    <path d="M 253.734966 351.772307 
L 281.098925 360.284241 
L 290.013245 352.697336 
L 262.730812 344.428489 
z
" clip-path="url(#p299a00f410)" style="fill: #545411"/>
    <path d="M 298.735862 337.706792 
L 326.284406 350.273284 
L 334.705411 309.42092 
L 306.957434 289.229205 
z
" clip-path="url(#p299a00f410)" style="fill: #d26ea3"/>
    <path d="M 290.013245 352.697336 
L 317.551394 360.465881 
L 326.284406 350.273284 
L 298.735862 337.706792 
z
" clip-path="url(#p299a00f410)" style="fill: #e678b2"/>
    <path d="M 314.511343 177.784541 
L 342.750806 201.795726 
L 352.118727 328.501749 
L 324.895167 322.577713 
z
" clip-path="url(#p299a00f410)" style="fill: #61324b"/>
    <path d="M 479.891347 347.347125 
L 508.253084 356.932466 
L 517.839763 289.981109 
L 488.384847 317.55402 
z
" clip-path="url(#p299a00f410)" style="fill: #d971a8"/>
    <path d="M 326.284406 350.273284 
L 354.023712 356.584628 
L 362.633193 349.210271 
L 334.705411 309.42092 
z
" clip-path="url(#p299a00f410)" style="fill: #d16da2"/>
    <path d="M 443.835604 331.219493 
L 474.01124 243.491028 
L 479.891347 347.347125 
L 451.775509 338.447719 
z
" clip-path="url(#p299a00f410)" style="fill: #9a5177"/>
    <path d="M 244.649487 358.818152 
L 272.088275 367.107861 
L 281.098925 360.284241 
L 253.734966 351.772307 
z
" clip-path="url(#p299a00f410)" style="fill: #757517"/>
    <path d="M 281.098925 360.284241 
L 308.721302 368.575941 
L 317.551394 360.465881 
L 290.013245 352.697336 
z
" clip-path="url(#p299a00f410)" style="fill: #ed7cb7"/>
    <path d="M 317.551394 360.465881 
L 345.370173 369.666441 
L 354.023712 356.584628 
L 326.284406 350.273284 
z
" clip-path="url(#p299a00f410)" style="fill: #d26da2"/>
    <path d="M 342.750806 201.795726 
L 371.053445 178.931652 
L 379.620597 338.301097 
L 352.118727 328.501749 
z
" clip-path="url(#p299a00f410)" style="fill: #723c58"/>
    <path d="M 500.325766 362.929553 
L 529.183191 368.295787 
L 536.928915 364.90987 
L 508.253084 356.932466 
z
" clip-path="url(#p299a00f410)" style="fill: #934d72"/>
    <path d="M 508.253084 356.932466 
L 536.928915 364.90987 
L 546.150375 316.047035 
L 517.839763 289.981109 
z
" clip-path="url(#p299a00f410)" style="fill: #db72a9"/>
    <path d="M 474.01124 243.491028 
L 500.325766 362.929553 
L 508.253084 356.932466 
L 479.891347 347.347125 
z
" clip-path="url(#p299a00f410)" style="fill: #66354f"/>
    <path d="M 435.405635 354.362064 
L 463.753881 359.787052 
L 474.01124 243.491028 
L 443.835604 331.219493 
z
" clip-path="url(#p299a00f410)" style="fill: #dc73aa"/>
    <path d="M 235.497201 366.492615 
L 263.034291 375.774652 
L 272.088275 367.107861 
L 244.649487 358.818152 
z
" clip-path="url(#p299a00f410)" style="fill: #66346d"/>
    <path d="M 272.088275 367.107861 
L 299.765662 373.555038 
L 308.721302 368.575941 
L 281.098925 360.284241 
z
" clip-path="url(#p299a00f410)" style="fill: #944d72"/>
    <path d="M 308.721302 368.575941 
L 336.614024 377.046524 
L 345.370173 369.666441 
L 317.551394 360.465881 
z
" clip-path="url(#p299a00f410)" style="fill: #6f3a56"/>
    <path d="M 354.023712 356.584628 
L 382.050823 365.34975 
L 390.780408 294.160414 
L 362.633193 349.210271 
z
" clip-path="url(#p299a00f410)" style="fill: #da72a8"/>
    <path d="M 536.928915 364.90987 
L 565.862828 373.601015 
L 573.903715 357.880045 
L 546.150375 316.047035 
z
" clip-path="url(#p299a00f410)" style="fill: #d971a8"/>
    <path d="M 306.957434 289.229205 
L 334.705411 309.42092 
L 342.750806 201.795726 
L 314.511343 177.784541 
z
" clip-path="url(#p299a00f410)" style="fill: #d36ea3"/>
    <path d="M 345.370173 369.666441 
L 373.450105 378.061711 
L 382.050823 365.34975 
L 354.023712 356.584628 
z
" clip-path="url(#p299a00f410)" style="fill: #dc73aa"/>
    <path d="M 371.053445 178.931652 
L 399.548642 243.680565 
L 407.380865 345.977684 
L 379.620597 338.301097 
z
" clip-path="url(#p299a00f410)" style="fill: #532b40"/>
    <path d="M 492.239994 372.465478 
L 521.129467 379.320426 
L 529.183191 368.295787 
L 500.325766 362.929553 
z
" clip-path="url(#p299a00f410)" style="fill: #ef7db9"/>
    <path d="M 463.753881 359.787052 
L 492.239994 372.465478 
L 500.325766 362.929553 
L 474.01124 243.491028 
z
" clip-path="url(#p299a00f410)" style="fill: #824464"/>
    <path d="M 529.183191 368.295787 
L 558.569282 368.024098 
L 565.862828 373.601015 
L 536.928915 364.90987 
z
" clip-path="url(#p299a00f410)" style="fill: #904b6f"/>
    <path d="M 226.295916 375.321326 
L 253.889797 383.98837 
L 263.034291 375.774652 
L 235.497201 366.492615 
z
" clip-path="url(#p299a00f410)" style="fill: #d3d32a"/>
    <path d="M 334.705411 309.42092 
L 362.633193 349.210271 
L 371.053445 178.931652 
L 342.750806 201.795726 
z
" clip-path="url(#p299a00f410)" style="fill: #ce6c9f"/>
    <path d="M 263.034291 375.774652 
L 290.820043 384.506921 
L 299.765662 373.555038 
L 272.088275 367.107861 
z
" clip-path="url(#p299a00f410)" style="fill: #d871a7"/>
    <path d="M 299.765662 373.555038 
L 327.762815 382.882238 
L 336.614024 377.046524 
L 308.721302 368.575941 
z
" clip-path="url(#p299a00f410)" style="fill: #572d43"/>
    <path d="M 336.614024 377.046524 
L 364.77733 384.663858 
L 373.450105 378.061711 
L 345.370173 369.666441 
z
" clip-path="url(#p299a00f410)" style="fill: #964e74"/>
    <path d="M 373.450105 378.061711 
L 401.804981 386.608403 
L 410.327461 376.842982 
L 382.050823 365.34975 
z
" clip-path="url(#p299a00f410)" style="fill: #dc73aa"/>
    <path d="M 382.050823 365.34975 
L 410.327461 376.842982 
L 418.953728 347.722386 
L 390.780408 294.160414 
z
" clip-path="url(#p299a00f410)" style="fill: #d26ea2"/>
    <path d="M 399.548642 243.680565 
L 428.946341 189.082956 
L 435.405635 354.362064 
L 407.380865 345.977684 
z
" clip-path="url(#p299a00f410)" style="fill: #7d4261"/>
    <path d="M 456.142046 331.066548 
L 485.481557 319.106338 
L 492.239994 372.465478 
L 463.753881 359.787052 
z
" clip-path="url(#p299a00f410)" style="fill: #7c4160"/>
    <path d="M 428.946341 189.082956 
L 456.142046 331.066548 
L 463.753881 359.787052 
L 435.405635 354.362064 
z
" clip-path="url(#p299a00f410)" style="fill: #592f45"/>
    <path d="M 521.129467 379.320426 
L 550.200485 389.644149 
L 558.569282 368.024098 
L 529.183191 368.295787 
z
" clip-path="url(#p299a00f410)" style="fill: #d36ea3"/>
    <path d="M 216.97672 382.980148 
L 244.640872 391.374008 
L 253.889797 383.98837 
L 226.295916 375.321326 
z
" clip-path="url(#p299a00f410)" style="fill: #1e4464"/>
    <path d="M 410.327461 376.842982 
L 438.89707 384.489395 
L 447.580621 353.989901 
L 418.953728 347.722386 
z
" clip-path="url(#p299a00f410)" style="fill: #dd73ab"/>
    <path d="M 253.889797 383.98837 
L 281.747937 392.488424 
L 290.820043 384.506921 
L 263.034291 375.774652 
z
" clip-path="url(#p299a00f410)" style="fill: #e8e82e"/>
    <path d="M 362.633193 349.210271 
L 390.780408 294.160414 
L 399.548642 243.680565 
L 371.053445 178.931652 
z
" clip-path="url(#p299a00f410)" style="fill: #f07eba"/>
    <path d="M 290.820043 384.506921 
L 318.874227 393.157648 
L 327.762815 382.882238 
L 299.765662 373.555038 
z
" clip-path="url(#p299a00f410)" style="fill: #db72a9"/>
    <path d="M 327.762815 382.882238 
L 356.02356 391.715927 
L 364.77733 384.663858 
L 336.614024 377.046524 
z
" clip-path="url(#p299a00f410)" style="fill: #5e3149"/>
    <path d="M 364.77733 384.663858 
L 393.219932 394.473022 
L 401.804981 386.608403 
L 373.450105 378.061711 
z
" clip-path="url(#p299a00f410)" style="fill: #61334b"/>
    <path d="M 401.804981 386.608403 
L 430.437039 395.363198 
L 438.89707 384.489395 
L 410.327461 376.842982 
z
" clip-path="url(#p299a00f410)" style="fill: #d971a8"/>
    <path d="M 207.590431 391.217656 
L 235.337832 399.935875 
L 244.640872 391.374008 
L 216.97672 382.980148 
z
" clip-path="url(#p299a00f410)" style="fill: #3171a5"/>
    <path d="M 244.640872 391.374008 
L 272.595395 400.599529 
L 281.747937 392.488424 
L 253.889797 383.98837 
z
" clip-path="url(#p299a00f410)" style="fill: #713b58"/>
    <path d="M 281.747937 392.488424 
L 309.885963 401.385425 
L 318.874227 393.157648 
L 290.820043 384.506921 
z
" clip-path="url(#p299a00f410)" style="fill: #b4b424"/>
    <path d="M 318.874227 393.157648 
L 347.204931 401.955358 
L 356.02356 391.715927 
L 327.762815 382.882238 
z
" clip-path="url(#p299a00f410)" style="fill: #d972a8"/>
    <path d="M 418.953728 347.722386 
L 447.580621 353.989901 
L 456.142046 331.066548 
L 428.946341 189.082956 
z
" clip-path="url(#p299a00f410)" style="fill: #e276af"/>
    <path d="M 356.02356 391.715927 
L 384.559566 401.165418 
L 393.219932 394.473022 
L 364.77733 384.663858 
z
" clip-path="url(#p299a00f410)" style="fill: #532b40"/>
    <path d="M 393.219932 394.473022 
L 421.943471 402.910425 
L 430.437039 395.363198 
L 401.804981 386.608403 
z
" clip-path="url(#p299a00f410)" style="fill: #914c70"/>
    <path d="M 390.780408 294.160414 
L 418.953728 347.722386 
L 428.946341 189.082956 
L 399.548642 243.680565 
z
" clip-path="url(#p299a00f410)" style="fill: #c7689a"/>
    <path d="M 430.437039 395.363198 
L 459.352128 404.099633 
L 467.83574 388.102476 
L 438.89707 384.489395 
z
" clip-path="url(#p299a00f410)" style="fill: #db72a9"/>
    <path d="M 438.89707 384.489395 
L 467.83574 388.102476 
L 477.78979 298.111162 
L 447.580621 353.989901 
z
" clip-path="url(#p299a00f410)" style="fill: #de74ab"/>
    <path d="M 447.580621 353.989901 
L 477.78979 298.111162 
L 485.481557 319.106338 
L 456.142046 331.066548 
z
" clip-path="url(#p299a00f410)" style="fill: #be6393"/>
    <path d="M 198.109684 399.218264 
L 225.935828 408.014759 
L 235.337832 399.935875 
L 207.590431 391.217656 
z
" clip-path="url(#p299a00f410)" style="fill: #285b85"/>
    <path d="M 235.337832 399.935875 
L 263.359861 408.762501 
L 272.595395 400.599529 
L 244.640872 391.374008 
z
" clip-path="url(#p299a00f410)" style="fill: #e377af"/>
    <path d="M 272.595395 400.599529 
L 300.802085 408.690057 
L 309.885963 401.385425 
L 281.747937 392.488424 
z
" clip-path="url(#p299a00f410)" style="fill: #a3a321"/>
    <path d="M 309.885963 401.385425 
L 338.299299 410.23459 
L 347.204931 401.955358 
L 318.874227 393.157648 
z
" clip-path="url(#p299a00f410)" style="fill: #db72a9"/>
    <path d="M 485.481557 319.106338 
L 518.057415 210.465709 
L 521.129467 379.320426 
L 492.239994 372.465478 
z
" clip-path="url(#p299a00f410)" style="fill: #904b6f"/>
    <path d="M 347.204931 401.955358 
L 375.815238 410.654106 
L 384.559566 401.165418 
L 356.02356 391.715927 
z
" clip-path="url(#p299a00f410)" style="fill: #e075ae"/>
    <path d="M 384.559566 401.165418 
L 413.410077 405.586101 
L 421.943471 402.910425 
L 393.219932 394.473022 
z
" clip-path="url(#p299a00f410)" style="fill: #984f76"/>
    <path d="M 421.943471 402.910425 
L 451.060804 404.624019 
L 459.352128 404.099633 
L 430.437039 395.363198 
z
" clip-path="url(#p299a00f410)" style="fill: #9e537a"/>
    <path d="M 459.352128 404.099633 
L 488.549401 413.115875 
L 496.857583 402.341623 
L 467.83574 388.102476 
z
" clip-path="url(#p299a00f410)" style="fill: #d770a6"/>
    <path d="M 467.83574 388.102476 
L 496.857583 402.341623 
L 505.168024 389.07313 
L 477.78979 298.111162 
z
" clip-path="url(#p299a00f410)" style="fill: #9f537b"/>
    <path d="M 188.54509 407.342334 
L 216.451014 416.250355 
L 225.935828 408.014759 
L 198.109684 399.218264 
z
" clip-path="url(#p299a00f410)" style="fill: #3170a3"/>
    <path d="M 496.857583 402.341623 
L 526.200752 413.483215 
L 534.726513 391.490293 
L 505.168024 389.07313 
z
" clip-path="url(#p299a00f410)" style="fill: #d06da1"/>
    <path d="M 225.935828 408.014759 
L 254.035887 416.807109 
L 263.359861 408.762501 
L 235.337832 399.935875 
z
" clip-path="url(#p299a00f410)" style="fill: #9d527a"/>
    <path d="M 263.359861 408.762501 
L 291.660229 417.699476 
L 300.802085 408.690057 
L 272.595395 400.599529 
z
" clip-path="url(#p299a00f410)" style="fill: #e0e02d"/>
    <path d="M 300.802085 408.690057 
L 329.300843 417.243921 
L 338.299299 410.23459 
L 309.885963 401.385425 
z
" clip-path="url(#p299a00f410)" style="fill: #7b405f"/>
    <path d="M 338.299299 410.23459 
L 366.994643 419.19463 
L 375.815238 410.654106 
L 347.204931 401.955358 
z
" clip-path="url(#p299a00f410)" style="fill: #d670a6"/>
    <path d="M 375.815238 410.654106 
L 404.711214 419.479176 
L 413.410077 405.586101 
L 384.559566 401.165418 
z
" clip-path="url(#p299a00f410)" style="fill: #db73aa"/>
    <path d="M 451.060804 404.624019 
L 480.233187 421.249997 
L 488.549401 413.115875 
L 459.352128 404.099633 
z
" clip-path="url(#p299a00f410)" style="fill: #66354f"/>
    <path d="M 488.549401 413.115875 
L 518.038917 422.095603 
L 526.200752 413.483215 
L 496.857583 402.341623 
z
" clip-path="url(#p299a00f410)" style="fill: #d871a7"/>
    <path d="M 413.410077 405.586101 
L 442.578024 411.657596 
L 451.060804 404.624019 
L 421.943471 402.910425 
z
" clip-path="url(#p299a00f410)" style="fill: #c06495"/>
    <path d="M 178.891727 415.488848 
L 206.877713 424.497251 
L 216.451014 416.250355 
L 188.54509 407.342334 
z
" clip-path="url(#p299a00f410)" style="fill: #17344c"/>
    <path d="M 216.451014 416.250355 
L 244.633219 425.187756 
L 254.035887 416.807109 
L 225.935828 408.014759 
z
" clip-path="url(#p299a00f410)" style="fill: #ed7cb8"/>
    <path d="M 254.035887 416.807109 
L 282.422034 425.940396 
L 291.660229 417.699476 
L 263.359861 408.762501 
z
" clip-path="url(#p299a00f410)" style="fill: #626214"/>
    <path d="M 291.660229 417.699476 
L 320.241928 426.678883 
L 329.300843 417.243921 
L 300.802085 408.690057 
z
" clip-path="url(#p299a00f410)" style="fill: #dc73aa"/>
    <path d="M 329.300843 417.243921 
L 358.091689 426.931275 
L 366.994643 419.19463 
L 338.299299 410.23459 
z
" clip-path="url(#p299a00f410)" style="fill: #502a3e"/>
    <path d="M 477.78979 298.111162 
L 505.168024 389.07313 
L 518.057415 210.465709 
L 485.481557 319.106338 
z
" clip-path="url(#p299a00f410)" style="fill: #bb6291"/>
    <path d="M 366.994643 419.19463 
L 395.976363 428.139096 
L 404.711214 419.479176 
L 375.815238 410.654106 
z
" clip-path="url(#p299a00f410)" style="fill: #e578b1"/>
    <path d="M 404.711214 419.479176 
L 433.8914 428.85029 
L 442.578024 411.657596 
L 413.410077 405.586101 
z
" clip-path="url(#p299a00f410)" style="fill: #d871a7"/>
    <path d="M 480.233187 421.249997 
L 509.823659 430.060483 
L 518.038917 422.095603 
L 488.549401 413.115875 
z
" clip-path="url(#p299a00f410)" style="fill: #934d72"/>
    <path d="M 442.578024 411.657596 
L 471.862331 428.361944 
L 480.233187 421.249997 
L 451.060804 404.624019 
z
" clip-path="url(#p299a00f410)" style="fill: #5f3249"/>
    <path d="M 169.150923 423.726361 
L 197.217036 432.830577 
L 206.877713 424.497251 
L 178.891727 415.488848 
z
" clip-path="url(#p299a00f410)" style="fill: #1c3f5c"/>
    <path d="M 206.877713 424.497251 
L 235.142573 433.566476 
L 244.633219 425.187756 
L 216.451014 416.250355 
z
" clip-path="url(#p299a00f410)" style="fill: #e678b2"/>
    <path d="M 518.057415 210.465709 
L 549.620418 181.402306 
L 550.200485 389.644149 
L 521.129467 379.320426 
z
" clip-path="url(#p299a00f410)" style="fill: #713b57"/>
    <path d="M 244.633219 425.187756 
L 273.099943 434.302484 
L 282.422034 425.940396 
L 254.035887 416.807109 
z
" clip-path="url(#p299a00f410)" style="fill: #9e537a"/>
    <path d="M 282.422034 425.940396 
L 311.088651 434.996446 
L 320.241928 426.678883 
L 291.660229 417.699476 
z
" clip-path="url(#p299a00f410)" style="fill: #b15c89"/>
    <path d="M 320.241928 426.678883 
L 349.110451 435.786654 
L 358.091689 426.931275 
L 329.300843 417.243921 
z
" clip-path="url(#p299a00f410)" style="fill: #da72a8"/>
    <path d="M 358.091689 426.931275 
L 387.165588 435.72412 
L 395.976363 428.139096 
L 366.994643 419.19463 
z
" clip-path="url(#p299a00f410)" style="fill: #814364"/>
    <path d="M 395.976363 428.139096 
L 425.248472 437.278569 
L 433.8914 428.85029 
L 404.711214 419.479176 
z
" clip-path="url(#p299a00f410)" style="fill: #c56798"/>
    <path d="M 471.862331 428.361944 
L 501.524005 438.395794 
L 509.823659 430.060483 
L 480.233187 421.249997 
z
" clip-path="url(#p299a00f410)" style="fill: #64344e"/>
    <path d="M 433.8914 428.85029 
L 463.368165 437.870813 
L 471.862331 428.361944 
L 442.578024 411.657596 
z
" clip-path="url(#p299a00f410)" style="fill: #df75ad"/>
    <path d="M 197.217036 432.830577 
L 225.56291 441.964379 
L 235.142573 433.566476 
L 206.877713 424.497251 
z
" clip-path="url(#p299a00f410)" style="fill: #cfcf29"/>
    <path d="M 235.142573 433.566476 
L 263.692364 442.756594 
L 273.099943 434.302484 
L 244.633219 425.187756 
z
" clip-path="url(#p299a00f410)" style="fill: #c3c327"/>
    <path d="M 273.099943 434.302484 
L 301.852854 443.524126 
L 311.088651 434.996446 
L 282.422034 425.940396 
z
" clip-path="url(#p299a00f410)" style="fill: #c16595"/>
    <path d="M 505.168024 389.07313 
L 534.726513 391.490293 
L 549.620418 181.402306 
L 518.057415 210.465709 
z
" clip-path="url(#p299a00f410)" style="fill: #dc73aa"/>
    <path d="M 311.088651 434.996446 
L 340.043815 444.0976 
L 349.110451 435.786654 
L 320.241928 426.678883 
z
" clip-path="url(#p299a00f410)" style="fill: #944d73"/>
    <path d="M 349.110451 435.786654 
L 378.269469 444.995686 
L 387.165588 435.72412 
L 358.091689 426.931275 
z
" clip-path="url(#p299a00f410)" style="fill: #e0e02d"/>
    <path d="M 387.165588 435.72412 
L 416.527377 445.620686 
L 425.248472 437.278569 
L 395.976363 428.139096 
z
" clip-path="url(#p299a00f410)" style="fill: #5f324a"/>
    <path d="M 425.248472 437.278569 
L 454.814948 446.524734 
L 463.368165 437.870813 
L 433.8914 428.85029 
z
" clip-path="url(#p299a00f410)" style="fill: #cf6ca0"/>
    <path d="M 463.368165 437.870813 
L 493.147397 446.812738 
L 501.524005 438.395794 
L 471.862331 428.361944 
z
" clip-path="url(#p299a00f410)" style="fill: #d26ea2"/>
    <path d="M 225.56291 441.964379 
L 254.191849 451.046759 
L 263.692364 442.756594 
L 235.142573 433.566476 
z
" clip-path="url(#p299a00f410)" style="fill: #a0a020"/>
    <path d="M 263.692364 442.756594 
L 292.5296 451.993463 
L 301.852854 443.524126 
L 273.099943 434.302484 
z
" clip-path="url(#p299a00f410)" style="fill: #9e537a"/>
    <path d="M 301.852854 443.524126 
L 330.895376 452.783373 
L 340.043815 444.0976 
L 311.088651 434.996446 
z
" clip-path="url(#p299a00f410)" style="fill: #de74ac"/>
    <path d="M 340.043815 444.0976 
L 369.292802 453.299146 
L 378.269469 444.995686 
L 349.110451 435.786654 
z
" clip-path="url(#p299a00f410)" style="fill: #7f4262"/>
    <path d="M 378.269469 444.995686 
L 407.723763 454.22661 
L 416.527377 445.620686 
L 387.165588 435.72412 
z
" clip-path="url(#p299a00f410)" style="fill: #f07eba"/>
    <path d="M 416.527377 445.620686 
L 446.191243 454.702774 
L 454.814948 446.524734 
L 425.248472 437.278569 
z
" clip-path="url(#p299a00f410)" style="fill: #8d4a6d"/>
    <path d="M 454.814948 446.524734 
L 484.679781 455.888207 
L 493.147397 446.812738 
L 463.368165 437.870813 
z
" clip-path="url(#p299a00f410)" style="fill: #d36ea4"/>
    <path d="M 254.191849 451.046759 
L 283.120257 460.584247 
L 292.5296 451.993463 
L 263.692364 442.756594 
z
" clip-path="url(#p299a00f410)" style="fill: #6b3853"/>
    <path d="M 292.5296 451.993463 
L 321.660478 461.369292 
L 330.895376 452.783373 
L 301.852854 443.524126 
z
" clip-path="url(#p299a00f410)" style="fill: #6e6e16"/>
    <path d="M 330.895376 452.783373 
L 360.233091 462.139485 
L 369.292802 453.299146 
L 340.043815 444.0976 
z
" clip-path="url(#p299a00f410)" style="fill: #dd73ab"/>
    <path d="M 369.292802 453.299146 
L 398.838539 462.888444 
L 407.723763 454.22661 
L 378.269469 444.995686 
z
" clip-path="url(#p299a00f410)" style="fill: #793f5e"/>
    <path d="M 407.723763 454.22661 
L 437.476676 463.671099 
L 446.191243 454.702774 
L 416.527377 445.620686 
z
" clip-path="url(#p299a00f410)" style="fill: #d06ca0"/>
    <path d="M 446.191243 454.702774 
L 476.148432 464.407111 
L 484.679781 455.888207 
L 454.814948 446.524734 
z
" clip-path="url(#p299a00f410)" style="fill: #592e45"/>
    <path d="M 283.120257 460.584247 
L 312.339231 470.038394 
L 321.660478 461.369292 
L 292.5296 451.993463 
z
" clip-path="url(#p299a00f410)" style="fill: #8a8a1c"/>
    <path d="M 321.660478 461.369292 
L 351.088366 470.821836 
L 360.233091 462.139485 
L 330.895376 452.783373 
z
" clip-path="url(#p299a00f410)" style="fill: #eaea2f"/>
    <path d="M 360.233091 462.139485 
L 389.870499 471.585938 
L 398.838539 462.888444 
L 369.292802 453.299146 
z
" clip-path="url(#p299a00f410)" style="fill: #954ca0"/>
    <path d="M 398.838539 462.888444 
L 428.686633 472.287424 
L 437.476676 463.671099 
L 407.723763 454.22661 
z
" clip-path="url(#p299a00f410)" style="fill: #a1547c"/>
    <path d="M 437.476676 463.671099 
L 467.534289 473.137458 
L 476.148432 464.407111 
L 446.191243 454.702774 
z
" clip-path="url(#p299a00f410)" style="fill: #f1f130"/>
    <path d="M 312.339231 470.038394 
L 341.855959 479.329114 
L 351.088366 470.821836 
L 321.660478 461.369292 
z
" clip-path="url(#p299a00f410)" style="fill: #a7a721"/>
    <path d="M 351.088366 470.821836 
L 380.818191 480.34494 
L 389.870499 471.585938 
L 360.233091 462.139485 
z
" clip-path="url(#p299a00f410)" style="fill: #d56fa5"/>
    <path d="M 389.870499 471.585938 
L 419.812073 481.149781 
L 428.686633 472.287424 
L 398.838539 462.888444 
z
" clip-path="url(#p299a00f410)" style="fill: #d770a6"/>
    <path d="M 428.686633 472.287424 
L 458.839691 481.920113 
L 467.534289 473.137458 
L 437.476676 463.671099 
z
" clip-path="url(#p299a00f410)" style="fill: #6d3954"/>
    <path d="M 341.855959 479.329114 
L 371.680338 489.220413 
L 380.818191 480.34494 
L 351.088366 470.821836 
z
" clip-path="url(#p299a00f410)" style="fill: #6e3a55"/>
    <path d="M 380.818191 480.34494 
L 410.854543 490.016247 
L 419.812073 481.149781 
L 389.870499 471.585938 
z
" clip-path="url(#p299a00f410)" style="fill: #914c70"/>
    <path d="M 419.812073 481.149781 
L 450.062137 490.832848 
L 458.839691 481.920113 
L 428.686633 472.287424 
z
" clip-path="url(#p299a00f410)" style="fill: #bc6291"/>
    <path d="M 371.680338 489.220413 
L 401.811997 498.962021 
L 410.854543 490.016247 
L 380.818191 480.34494 
z
" clip-path="url(#p299a00f410)" style="fill: #d871a7"/>
    <path d="M 410.854543 490.016247 
L 441.202256 499.764793 
L 450.062137 490.832848 
L 419.812073 481.149781 
z
" clip-path="url(#p299a00f410)" style="fill: #6f6f16"/>
    <path d="M 401.811997 498.962021 
L 432.257299 508.817552 
L 441.202256 499.764793 
L 410.854543 490.016247 
z
" clip-path="url(#p299a00f410)" style="fill: #bdbd26"/>
   </g>
   <g id="text_4">
    <!-- class -->
    <g transform="translate(352.453137 20.88) scale(0.12 -0.12)">
     <use xlink:href="#DejaVuSans-63"/>
     <use xlink:href="#DejaVuSans-6c" x="54.980469"/>
     <use xlink:href="#DejaVuSans-61" x="82.763672"/>
     <use xlink:href="#DejaVuSans-73" x="144.042969"/>
     <use xlink:href="#DejaVuSans-73" x="196.142578"/>
    </g>
   </g>
  </g>
  <g id="axes_2">
   <g id="patch_6">
    <path d="M 675.6139 565.2 
L 702.5299 565.2 
L 702.5299 26.88 
L 675.6139 26.88 
z
" style="fill: #ffffff"/>
   </g>
   <g id="QuadMesh_1">
    <path d="M 675.6139 565.2 
L 702.5299 565.2 
L 702.5299 497.91 
L 675.6139 497.91 
L 675.6139 565.2 
" clip-path="url(#pa21859f04c)" style="fill: #e41a1c"/>
    <path d="M 675.6139 497.91 
L 702.5299 497.91 
L 702.5299 430.62 
L 675.6139 430.62 
L 675.6139 497.91 
" clip-path="url(#pa21859f04c)" style="fill: #377eb8"/>
    <path d="M 675.6139 430.62 
L 702.5299 430.62 
L 702.5299 363.33 
L 675.6139 363.33 
L 675.6139 430.62 
" clip-path="url(#pa21859f04c)" style="fill: #4daf4a"/>
    <path d="M 675.6139 363.33 
L 702.5299 363.33 
L 702.5299 296.04 
L 675.6139 296.04 
L 675.6139 363.33 
" clip-path="url(#pa21859f04c)" style="fill: #984ea3"/>
    <path d="M 675.6139 296.04 
L 702.5299 296.04 
L 702.5299 228.75 
L 675.6139 228.75 
L 675.6139 296.04 
" clip-path="url(#pa21859f04c)" style="fill: #ff7f00"/>
    <path d="M 675.6139 228.75 
L 702.5299 228.75 
L 702.5299 161.46 
L 675.6139 161.46 
L 675.6139 228.75 
" clip-path="url(#pa21859f04c)" style="fill: #ffff33"/>
    <path d="M 675.6139 161.46 
L 702.5299 161.46 
L 702.5299 94.17 
L 675.6139 94.17 
L 675.6139 161.46 
" clip-path="url(#pa21859f04c)" style="fill: #a65628"/>
    <path d="M 675.6139 94.17 
L 702.5299 94.17 
L 702.5299 26.88 
L 675.6139 26.88 
L 675.6139 94.17 
" clip-path="url(#pa21859f04c)" style="fill: #f781bf"/>
   </g>
   <g id="matplotlib.axis_1"/>
   <g id="matplotlib.axis_2">
    <g id="ytick_1">
     <g id="line2d_4">
      <defs>
       <path id="mf5d42e91bb" d="M 0 0 
L 3.5 0 
" style="stroke: #000000; stroke-width: 0.8"/>
      </defs>
      <g>
       <use xlink:href="#mf5d42e91bb" x="702.5299" y="531.555" style="stroke: #000000; stroke-width: 0.8"/>
      </g>
     </g>
     <g id="text_5">
      <!-- Not seen in this sample -->
      <g transform="translate(709.5299 535.354219) scale(0.1 -0.1)">
       <use xlink:href="#DejaVuSans-4e"/>
       <use xlink:href="#DejaVuSans-6f" x="74.804688"/>
       <use xlink:href="#DejaVuSans-74" x="135.986328"/>
       <use xlink:href="#DejaVuSans-20" x="175.195312"/>
       <use xlink:href="#DejaVuSans-73" x="206.982422"/>
       <use xlink:href="#DejaVuSans-65" x="259.082031"/>
       <use xlink:href="#DejaVuSans-65" x="320.605469"/>
       <use xlink:href="#DejaVuSans-6e" x="382.128906"/>
       <use xlink:href="#DejaVuSans-20" x="445.507812"/>
       <use xlink:href="#DejaVuSans-69" x="477.294922"/>
       <use xlink:href="#DejaVuSans-6e" x="505.078125"/>
       <use xlink:href="#DejaVuSans-20" x="568.457031"/>
       <use xlink:href="#DejaVuSans-74" x="600.244141"/>
       <use xlink:href="#DejaVuSans-68" x="639.453125"/>
       <use xlink:href="#DejaVuSans-69" x="702.832031"/>
       <use xlink:href="#DejaVuSans-73" x="730.615234"/>
       <use xlink:href="#DejaVuSans-20" x="782.714844"/>
       <use xlink:href="#DejaVuSans-73" x="814.501953"/>
       <use xlink:href="#DejaVuSans-61" x="866.601562"/>
       <use xlink:href="#DejaVuSans-6d" x="927.880859"/>
       <use xlink:href="#DejaVuSans-70" x="1025.292969"/>
       <use xlink:href="#DejaVuSans-6c" x="1088.769531"/>
       <use xlink:href="#DejaVuSans-65" x="1116.552734"/>
      </g>
     </g>
    </g>
    <g id="ytick_2">
     <g id="line2d_5">
      <g>
       <use xlink:href="#mf5d42e91bb" x="702.5299" y="464.265" style="stroke: #000000; stroke-width: 0.8"/>
      </g>
     </g>
     <g id="text_6">
      <!-- MGI Only -->
      <g transform="translate(709.5299 468.064219) scale(0.1 -0.1)">
       <defs>
        <path id="DejaVuSans-4f" d="M 2522 4238 
Q 1834 4238 1429 3725 
Q 1025 3213 1025 2328 
Q 1025 1447 1429 934 
Q 1834 422 2522 422 
Q 3209 422 3611 934 
Q 4013 1447 4013 2328 
Q 4013 3213 3611 3725 
Q 3209 4238 2522 4238 
z
M 2522 4750 
Q 3503 4750 4090 4092 
Q 4678 3434 4678 2328 
Q 4678 1225 4090 567 
Q 3503 -91 2522 -91 
Q 1538 -91 948 565 
Q 359 1222 359 2328 
Q 359 3434 948 4092 
Q 1538 4750 2522 4750 
z
" transform="scale(0.015625)"/>
        <path id="DejaVuSans-79" d="M 2059 -325 
Q 1816 -950 1584 -1140 
Q 1353 -1331 966 -1331 
L 506 -1331 
L 506 -850 
L 844 -850 
Q 1081 -850 1212 -737 
Q 1344 -625 1503 -206 
L 1606 56 
L 191 3500 
L 800 3500 
L 1894 763 
L 2988 3500 
L 3597 3500 
L 2059 -325 
z
" transform="scale(0.015625)"/>
       </defs>
       <use xlink:href="#DejaVuSans-4d"/>
       <use xlink:href="#DejaVuSans-47" x="86.279297"/>
       <use xlink:href="#DejaVuSans-49" x="163.769531"/>
       <use xlink:href="#DejaVuSans-20" x="193.261719"/>
       <use xlink:href="#DejaVuSans-4f" x="225.048828"/>
       <use xlink:href="#DejaVuSans-6e" x="303.759766"/>
       <use xlink:href="#DejaVuSans-6c" x="367.138672"/>
       <use xlink:href="#DejaVuSans-79" x="394.921875"/>
      </g>
     </g>
    </g>
    <g id="ytick_3">
     <g id="line2d_6">
      <g>
       <use xlink:href="#mf5d42e91bb" x="702.5299" y="396.975" style="stroke: #000000; stroke-width: 0.8"/>
      </g>
     </g>
     <g id="text_7">
      <!-- MinION Only -->
      <g transform="translate(709.5299 400.774219) scale(0.1 -0.1)">
       <use xlink:href="#DejaVuSans-4d"/>
       <use xlink:href="#DejaVuSans-69" x="86.279297"/>
       <use xlink:href="#DejaVuSans-6e" x="114.0625"/>
       <use xlink:href="#DejaVuSans-49" x="177.441406"/>
       <use xlink:href="#DejaVuSans-4f" x="206.933594"/>
       <use xlink:href="#DejaVuSans-4e" x="285.644531"/>
       <use xlink:href="#DejaVuSans-20" x="360.449219"/>
       <use xlink:href="#DejaVuSans-4f" x="392.236328"/>
       <use xlink:href="#DejaVuSans-6e" x="470.947266"/>
       <use xlink:href="#DejaVuSans-6c" x="534.326172"/>
       <use xlink:href="#DejaVuSans-79" x="562.109375"/>
      </g>
     </g>
    </g>
    <g id="ytick_4">
     <g id="line2d_7">
      <g>
       <use xlink:href="#mf5d42e91bb" x="702.5299" y="329.685" style="stroke: #000000; stroke-width: 0.8"/>
      </g>
     </g>
     <g id="text_8">
      <!-- MGI + MinION -->
      <g transform="translate(709.5299 333.484219) scale(0.1 -0.1)">
       <defs>
        <path id="DejaVuSans-2b" d="M 2944 4013 
L 2944 2272 
L 4684 2272 
L 4684 1741 
L 2944 1741 
L 2944 0 
L 2419 0 
L 2419 1741 
L 678 1741 
L 678 2272 
L 2419 2272 
L 2419 4013 
L 2944 4013 
z
" transform="scale(0.015625)"/>
       </defs>
       <use xlink:href="#DejaVuSans-4d"/>
       <use xlink:href="#DejaVuSans-47" x="86.279297"/>
       <use xlink:href="#DejaVuSans-49" x="163.769531"/>
       <use xlink:href="#DejaVuSans-20" x="193.261719"/>
       <use xlink:href="#DejaVuSans-2b" x="225.048828"/>
       <use xlink:href="#DejaVuSans-20" x="308.837891"/>
       <use xlink:href="#DejaVuSans-4d" x="340.625"/>
       <use xlink:href="#DejaVuSans-69" x="426.904297"/>
       <use xlink:href="#DejaVuSans-6e" x="454.6875"/>
       <use xlink:href="#DejaVuSans-49" x="518.066406"/>
       <use xlink:href="#DejaVuSans-4f" x="547.558594"/>
       <use xlink:href="#DejaVuSans-4e" x="626.269531"/>
      </g>
     </g>
    </g>
    <g id="ytick_5">
     <g id="line2d_8">
      <g>
       <use xlink:href="#mf5d42e91bb" x="702.5299" y="262.395" style="stroke: #000000; stroke-width: 0.8"/>
      </g>
     </g>
     <g id="text_9">
      <!-- Promethion Only -->
      <g transform="translate(709.5299 266.194219) scale(0.1 -0.1)">
       <defs>
        <path id="DejaVuSans-50" d="M 1259 4147 
L 1259 2394 
L 2053 2394 
Q 2494 2394 2734 2622 
Q 2975 2850 2975 3272 
Q 2975 3691 2734 3919 
Q 2494 4147 2053 4147 
L 1259 4147 
z
M 628 4666 
L 2053 4666 
Q 2838 4666 3239 4311 
Q 3641 3956 3641 3272 
Q 3641 2581 3239 2228 
Q 2838 1875 2053 1875 
L 1259 1875 
L 1259 0 
L 628 0 
L 628 4666 
z
" transform="scale(0.015625)"/>
       </defs>
       <use xlink:href="#DejaVuSans-50"/>
       <use xlink:href="#DejaVuSans-72" x="58.552734"/>
       <use xlink:href="#DejaVuSans-6f" x="97.416016"/>
       <use xlink:href="#DejaVuSans-6d" x="158.597656"/>
       <use xlink:href="#DejaVuSans-65" x="256.009766"/>
       <use xlink:href="#DejaVuSans-74" x="317.533203"/>
       <use xlink:href="#DejaVuSans-68" x="356.742188"/>
       <use xlink:href="#DejaVuSans-69" x="420.121094"/>
       <use xlink:href="#DejaVuSans-6f" x="447.904297"/>
       <use xlink:href="#DejaVuSans-6e" x="509.085938"/>
       <use xlink:href="#DejaVuSans-20" x="572.464844"/>
       <use xlink:href="#DejaVuSans-4f" x="604.251953"/>
       <use xlink:href="#DejaVuSans-6e" x="682.962891"/>
       <use xlink:href="#DejaVuSans-6c" x="746.341797"/>
       <use xlink:href="#DejaVuSans-79" x="774.125"/>
      </g>
     </g>
    </g>
    <g id="ytick_6">
     <g id="line2d_9">
      <g>
       <use xlink:href="#mf5d42e91bb" x="702.5299" y="195.105" style="stroke: #000000; stroke-width: 0.8"/>
      </g>
     </g>
     <g id="text_10">
      <!-- MGI + Promethion -->
      <g transform="translate(709.5299 198.904219) scale(0.1 -0.1)">
       <use xlink:href="#DejaVuSans-4d"/>
       <use xlink:href="#DejaVuSans-47" x="86.279297"/>
       <use xlink:href="#DejaVuSans-49" x="163.769531"/>
       <use xlink:href="#DejaVuSans-20" x="193.261719"/>
       <use xlink:href="#DejaVuSans-2b" x="225.048828"/>
       <use xlink:href="#DejaVuSans-20" x="308.837891"/>
       <use xlink:href="#DejaVuSans-50" x="340.625"/>
       <use xlink:href="#DejaVuSans-72" x="399.177734"/>
       <use xlink:href="#DejaVuSans-6f" x="438.041016"/>
       <use xlink:href="#DejaVuSans-6d" x="499.222656"/>
       <use xlink:href="#DejaVuSans-65" x="596.634766"/>
       <use xlink:href="#DejaVuSans-74" x="658.158203"/>
       <use xlink:href="#DejaVuSans-68" x="697.367188"/>
       <use xlink:href="#DejaVuSans-69" x="760.746094"/>
       <use xlink:href="#DejaVuSans-6f" x="788.529297"/>
       <use xlink:href="#DejaVuSans-6e" x="849.710938"/>
      </g>
     </g>
    </g>
    <g id="ytick_7">
     <g id="line2d_10">
      <g>
       <use xlink:href="#mf5d42e91bb" x="702.5299" y="127.815" style="stroke: #000000; stroke-width: 0.8"/>
      </g>
     </g>
     <g id="text_11">
      <!-- MinION + Promethion -->
      <g transform="translate(709.5299 131.614219) scale(0.1 -0.1)">
       <use xlink:href="#DejaVuSans-4d"/>
       <use xlink:href="#DejaVuSans-69" x="86.279297"/>
       <use xlink:href="#DejaVuSans-6e" x="114.0625"/>
       <use xlink:href="#DejaVuSans-49" x="177.441406"/>
       <use xlink:href="#DejaVuSans-4f" x="206.933594"/>
       <use xlink:href="#DejaVuSans-4e" x="285.644531"/>
       <use xlink:href="#DejaVuSans-20" x="360.449219"/>
       <use xlink:href="#DejaVuSans-2b" x="392.236328"/>
       <use xlink:href="#DejaVuSans-20" x="476.025391"/>
       <use xlink:href="#DejaVuSans-50" x="507.8125"/>
       <use xlink:href="#DejaVuSans-72" x="566.365234"/>
       <use xlink:href="#DejaVuSans-6f" x="605.228516"/>
       <use xlink:href="#DejaVuSans-6d" x="666.410156"/>
       <use xlink:href="#DejaVuSans-65" x="763.822266"/>
       <use xlink:href="#DejaVuSans-74" x="825.345703"/>
       <use xlink:href="#DejaVuSans-68" x="864.554688"/>
       <use xlink:href="#DejaVuSans-69" x="927.933594"/>
       <use xlink:href="#DejaVuSans-6f" x="955.716797"/>
       <use xlink:href="#DejaVuSans-6e" x="1016.898438"/>
      </g>
     </g>
    </g>
    <g id="ytick_8">
     <g id="line2d_11">
      <g>
       <use xlink:href="#mf5d42e91bb" x="702.5299" y="60.525" style="stroke: #000000; stroke-width: 0.8"/>
      </g>
     </g>
     <g id="text_12">
      <!-- All -->
      <g transform="translate(709.5299 64.324219) scale(0.1 -0.1)">
       <defs>
        <path id="DejaVuSans-41" d="M 2188 4044 
L 1331 1722 
L 3047 1722 
L 2188 4044 
z
M 1831 4666 
L 2547 4666 
L 4325 0 
L 3669 0 
L 3244 1197 
L 1141 1197 
L 716 0 
L 50 0 
L 1831 4666 
z
" transform="scale(0.015625)"/>
       </defs>
       <use xlink:href="#DejaVuSans-41"/>
       <use xlink:href="#DejaVuSans-6c" x="68.408203"/>
       <use xlink:href="#DejaVuSans-6c" x="96.191406"/>
      </g>
     </g>
    </g>
    <g id="text_13">
     <!-- How the taxa were detected -->
     <g transform="translate(838.933025 366.990781) rotate(-90) scale(0.1 -0.1)">
      <defs>
       <path id="DejaVuSans-48" d="M 628 4666 
L 1259 4666 
L 1259 2753 
L 3553 2753 
L 3553 4666 
L 4184 4666 
L 4184 0 
L 3553 0 
L 3553 2222 
L 1259 2222 
L 1259 0 
L 628 0 
L 628 4666 
z
" transform="scale(0.015625)"/>
      </defs>
      <use xlink:href="#DejaVuSans-48"/>
      <use xlink:href="#DejaVuSans-6f" x="75.195312"/>
      <use xlink:href="#DejaVuSans-77" x="136.376953"/>
      <use xlink:href="#DejaVuSans-20" x="218.164062"/>
      <use xlink:href="#DejaVuSans-74" x="249.951172"/>
      <use xlink:href="#DejaVuSans-68" x="289.160156"/>
      <use xlink:href="#DejaVuSans-65" x="352.539062"/>
      <use xlink:href="#DejaVuSans-20" x="414.0625"/>
      <use xlink:href="#DejaVuSans-74" x="445.849609"/>
      <use xlink:href="#DejaVuSans-61" x="485.058594"/>
      <use xlink:href="#DejaVuSans-78" x="546.337891"/>
      <use xlink:href="#DejaVuSans-61" x="605.517578"/>
      <use xlink:href="#DejaVuSans-20" x="666.796875"/>
      <use xlink:href="#DejaVuSans-77" x="698.583984"/>
      <use xlink:href="#DejaVuSans-65" x="780.371094"/>
      <use xlink:href="#DejaVuSans-72" x="841.894531"/>
      <use xlink:href="#DejaVuSans-65" x="880.757812"/>
      <use xlink:href="#DejaVuSans-20" x="942.28125"/>
      <use xlink:href="#DejaVuSans-64" x="974.068359"/>
      <use xlink:href="#DejaVuSans-65" x="1037.544922"/>
      <use xlink:href="#DejaVuSans-74" x="1099.068359"/>
      <use xlink:href="#DejaVuSans-65" x="1138.277344"/>
      <use xlink:href="#DejaVuSans-63" x="1199.800781"/>
      <use xlink:href="#DejaVuSans-74" x="1254.78125"/>
      <use xlink:href="#DejaVuSans-65" x="1293.990234"/>
      <use xlink:href="#DejaVuSans-64" x="1355.513672"/>
     </g>
    </g>
   </g>
   <g id="LineCollection_1"/>
   <g id="patch_7">
    <path d="M 675.6139 565.2 
L 689.0719 565.2 
L 702.5299 565.2 
L 702.5299 26.88 
L 689.0719 26.88 
L 675.6139 26.88 
L 675.6139 565.2 
z
" style="fill: none; stroke: #000000; stroke-width: 0.8; stroke-linejoin: miter; stroke-linecap: square"/>
   </g>
  </g>
 </g>
 <defs>
  <clipPath id="p299a00f410">
   <rect x="98.1872" y="26.88" width="538.32" height="538.32"/>
  </clipPath>
  <clipPath id="pa21859f04c">
   <rect x="675.6139" y="26.88" width="26.916" height="538.32"/>
  </clipPath>
 </defs>
</svg>
