<?xml version="1.0" encoding="utf-8" standalone="no"?>
<!DOCTYPE svg PUBLIC "-//W3C//DTD SVG 1.1//EN"
  "http://www.w3.org/Graphics/SVG/1.1/DTD/svg11.dtd">
<svg xmlns:xlink="http://www.w3.org/1999/xlink" width="864pt" height="576pt" viewBox="0 0 864 576" xmlns="http://www.w3.org/2000/svg" version="1.1">
 <metadata>
  <rdf:RDF xmlns:dc="http://purl.org/dc/elements/1.1/" xmlns:cc="http://creativecommons.org/ns#" xmlns:rdf="http://www.w3.org/1999/02/22-rdf-syntax-ns#">
   <cc:Work>
    <dc:type rdf:resource="http://purl.org/dc/dcmitype/StillImage"/>
    <dc:date>2025-05-05T17:01:03.827099</dc:date>
    <dc:format>image/svg+xml</dc:format>
    <dc:creator>
     <cc:Agent>
      <dc:title>Matplotlib v3.8.0, https://matplotlib.org/</dc:title>
     </cc:Agent>
    </dc:creator>
   </cc:Work>
  </rdf:RDF>
 </metadata>
 <defs>
  <style type="text/css">*{stroke-linejoin: round; stroke-linecap: butt}</style>
 </defs>
 <g id="figure_1">
  <g id="patch_1">
   <path d="M 0 576 
L 864 576 
L 864 0 
L 0 0 
z
" style="fill: #ffffff"/>
  </g>
  <g id="patch_2">
   <path d="M 98.1872 565.2 
L 636.5072 565.2 
L 636.5072 26.88 
L 98.1872 26.88 
z
" style="fill: #ffffff"/>
  </g>
  <g id="pane3d_1">
   <g id="patch_3">
    <path d="M 138.834072 432.46754 
L 316.604917 283.456493 
L 314.133732 68.555925 
L 127.855636 204.493195 
" style="fill: #f2f2f2; opacity: 0.5; stroke: #f2f2f2; stroke-linejoin: miter"/>
   </g>
  </g>
  <g id="pane3d_2">
   <g id="patch_4">
    <path d="M 316.604917 283.456493 
L 601.863694 366.369957 
L 612.043574 144.067386 
L 314.133732 68.555925 
" style="fill: #e6e6e6; opacity: 0.5; stroke: #e6e6e6; stroke-linejoin: miter"/>
   </g>
  </g>
  <g id="pane3d_3">
   <g id="patch_5">
    <path d="M 138.834072 432.46754 
L 441.222308 531.227537 
L 601.863694 366.369957 
L 316.604917 283.456493 
" style="fill: #ececec; opacity: 0.5; stroke: #ececec; stroke-linejoin: miter"/>
   </g>
  </g>
  <g id="grid3d_1"/>
  <g id="grid3d_2"/>
  <g id="grid3d_3"/>
  <g id="axis3d_1">
   <g id="line2d_1">
    <path d="M 138.834072 432.46754 
L 441.222308 531.227537 
" style="fill: none; stroke: #000000; stroke-width: 0.8; stroke-linecap: square"/>
   </g>
   <g id="text_1">
    <!-- 10 pwCF samples -->
    <g transform="translate(227.179541 504.647053) rotate(-341.912962) scale(0.1 -0.1)">
     <defs>
      <path id="DejaVuSans-31" d="M 794 531 
L 1825 531 
L 1825 4091 
L 703 3866 
L 703 4441 
L 1819 4666 
L 2450 4666 
L 2450 531 
L 3481 531 
L 3481 0 
L 794 0 
L 794 531 
z
" transform="scale(0.015625)"/>
      <path id="DejaVuSans-30" d="M 2034 4250 
Q 1547 4250 1301 3770 
Q 1056 3291 1056 2328 
Q 1056 1369 1301 889 
Q 1547 409 2034 409 
Q 2525 409 2770 889 
Q 3016 1369 3016 2328 
Q 3016 3291 2770 3770 
Q 2525 4250 2034 4250 
z
M 2034 4750 
Q 2819 4750 3233 4129 
Q 3647 3509 3647 2328 
Q 3647 1150 3233 529 
Q 2819 -91 2034 -91 
Q 1250 -91 836 529 
Q 422 1150 422 2328 
Q 422 3509 836 4129 
Q 1250 4750 2034 4750 
z
" transform="scale(0.015625)"/>
      <path id="DejaVuSans-20" transform="scale(0.015625)"/>
      <path id="DejaVuSans-70" d="M 1159 525 
L 1159 -1331 
L 581 -1331 
L 581 3500 
L 1159 3500 
L 1159 2969 
Q 1341 3281 1617 3432 
Q 1894 3584 2278 3584 
Q 2916 3584 3314 3078 
Q 3713 2572 3713 1747 
Q 3713 922 3314 415 
Q 2916 -91 2278 -91 
Q 1894 -91 1617 61 
Q 1341 213 1159 525 
z
M 3116 1747 
Q 3116 2381 2855 2742 
Q 2594 3103 2138 3103 
Q 1681 3103 1420 2742 
Q 1159 2381 1159 1747 
Q 1159 1113 1420 752 
Q 1681 391 2138 391 
Q 2594 391 2855 752 
Q 3116 1113 3116 1747 
z
" transform="scale(0.015625)"/>
      <path id="DejaVuSans-77" d="M 269 3500 
L 844 3500 
L 1563 769 
L 2278 3500 
L 2956 3500 
L 3675 769 
L 4391 3500 
L 4966 3500 
L 4050 0 
L 3372 0 
L 2619 2869 
L 1863 0 
L 1184 0 
L 269 3500 
z
" transform="scale(0.015625)"/>
      <path id="DejaVuSans-43" d="M 4122 4306 
L 4122 3641 
Q 3803 3938 3442 4084 
Q 3081 4231 2675 4231 
Q 1875 4231 1450 3742 
Q 1025 3253 1025 2328 
Q 1025 1406 1450 917 
Q 1875 428 2675 428 
Q 3081 428 3442 575 
Q 3803 722 4122 1019 
L 4122 359 
Q 3791 134 3420 21 
Q 3050 -91 2638 -91 
Q 1578 -91 968 557 
Q 359 1206 359 2328 
Q 359 3453 968 4101 
Q 1578 4750 2638 4750 
Q 3056 4750 3426 4639 
Q 3797 4528 4122 4306 
z
" transform="scale(0.015625)"/>
      <path id="DejaVuSans-46" d="M 628 4666 
L 3309 4666 
L 3309 4134 
L 1259 4134 
L 1259 2759 
L 3109 2759 
L 3109 2228 
L 1259 2228 
L 1259 0 
L 628 0 
L 628 4666 
z
" transform="scale(0.015625)"/>
      <path id="DejaVuSans-73" d="M 2834 3397 
L 2834 2853 
Q 2591 2978 2328 3040 
Q 2066 3103 1784 3103 
Q 1356 3103 1142 2972 
Q 928 2841 928 2578 
Q 928 2378 1081 2264 
Q 1234 2150 1697 2047 
L 1894 2003 
Q 2506 1872 2764 1633 
Q 3022 1394 3022 966 
Q 3022 478 2636 193 
Q 2250 -91 1575 -91 
Q 1294 -91 989 -36 
Q 684 19 347 128 
L 347 722 
Q 666 556 975 473 
Q 1284 391 1588 391 
Q 1994 391 2212 530 
Q 2431 669 2431 922 
Q 2431 1156 2273 1281 
Q 2116 1406 1581 1522 
L 1381 1569 
Q 847 1681 609 1914 
Q 372 2147 372 2553 
Q 372 3047 722 3315 
Q 1072 3584 1716 3584 
Q 2034 3584 2315 3537 
Q 2597 3491 2834 3397 
z
" transform="scale(0.015625)"/>
      <path id="DejaVuSans-61" d="M 2194 1759 
Q 1497 1759 1228 1600 
Q 959 1441 959 1056 
Q 959 750 1161 570 
Q 1363 391 1709 391 
Q 2188 391 2477 730 
Q 2766 1069 2766 1631 
L 2766 1759 
L 2194 1759 
z
M 3341 1997 
L 3341 0 
L 2766 0 
L 2766 531 
Q 2569 213 2275 61 
Q 1981 -91 1556 -91 
Q 1019 -91 701 211 
Q 384 513 384 1019 
Q 384 1609 779 1909 
Q 1175 2209 1959 2209 
L 2766 2209 
L 2766 2266 
Q 2766 2663 2505 2880 
Q 2244 3097 1772 3097 
Q 1472 3097 1187 3025 
Q 903 2953 641 2809 
L 641 3341 
Q 956 3463 1253 3523 
Q 1550 3584 1831 3584 
Q 2591 3584 2966 3190 
Q 3341 2797 3341 1997 
z
" transform="scale(0.015625)"/>
      <path id="DejaVuSans-6d" d="M 3328 2828 
Q 3544 3216 3844 3400 
Q 4144 3584 4550 3584 
Q 5097 3584 5394 3201 
Q 5691 2819 5691 2113 
L 5691 0 
L 5113 0 
L 5113 2094 
Q 5113 2597 4934 2840 
Q 4756 3084 4391 3084 
Q 3944 3084 3684 2787 
Q 3425 2491 3425 1978 
L 3425 0 
L 2847 0 
L 2847 2094 
Q 2847 2600 2669 2842 
Q 2491 3084 2119 3084 
Q 1678 3084 1418 2786 
Q 1159 2488 1159 1978 
L 1159 0 
L 581 0 
L 581 3500 
L 1159 3500 
L 1159 2956 
Q 1356 3278 1631 3431 
Q 1906 3584 2284 3584 
Q 2666 3584 2933 3390 
Q 3200 3197 3328 2828 
z
" transform="scale(0.015625)"/>
      <path id="DejaVuSans-6c" d="M 603 4863 
L 1178 4863 
L 1178 0 
L 603 0 
L 603 4863 
z
" transform="scale(0.015625)"/>
      <path id="DejaVuSans-65" d="M 3597 1894 
L 3597 1613 
L 953 1613 
Q 991 1019 1311 708 
Q 1631 397 2203 397 
Q 2534 397 2845 478 
Q 3156 559 3463 722 
L 3463 178 
Q 3153 47 2828 -22 
Q 2503 -91 2169 -91 
Q 1331 -91 842 396 
Q 353 884 353 1716 
Q 353 2575 817 3079 
Q 1281 3584 2069 3584 
Q 2775 3584 3186 3129 
Q 3597 2675 3597 1894 
z
M 3022 2063 
Q 3016 2534 2758 2815 
Q 2500 3097 2075 3097 
Q 1594 3097 1305 2825 
Q 1016 2553 972 2059 
L 3022 2063 
z
" transform="scale(0.015625)"/>
     </defs>
     <use xlink:href="#DejaVuSans-31"/>
     <use xlink:href="#DejaVuSans-30" x="63.623047"/>
     <use xlink:href="#DejaVuSans-20" x="127.246094"/>
     <use xlink:href="#DejaVuSans-70" x="159.033203"/>
     <use xlink:href="#DejaVuSans-77" x="222.509766"/>
     <use xlink:href="#DejaVuSans-43" x="304.296875"/>
     <use xlink:href="#DejaVuSans-46" x="374.121094"/>
     <use xlink:href="#DejaVuSans-20" x="431.640625"/>
     <use xlink:href="#DejaVuSans-73" x="463.427734"/>
     <use xlink:href="#DejaVuSans-61" x="515.527344"/>
     <use xlink:href="#DejaVuSans-6d" x="576.806641"/>
     <use xlink:href="#DejaVuSans-70" x="674.21875"/>
     <use xlink:href="#DejaVuSans-6c" x="737.695312"/>
     <use xlink:href="#DejaVuSans-65" x="765.478516"/>
     <use xlink:href="#DejaVuSans-73" x="827.001953"/>
    </g>
   </g>
  </g>
  <g id="axis3d_2">
   <g id="line2d_2">
    <path d="M 601.863694 366.369957 
L 441.222308 531.227537 
" style="fill: none; stroke: #000000; stroke-width: 0.8; stroke-linecap: square"/>
   </g>
   <g id="text_2">
    <!-- 68 genus taxonomies -->
    <g transform="translate(516.53083 513.550476) rotate(-45.742112) scale(0.1 -0.1)">
     <defs>
      <path id="DejaVuSans-36" d="M 2113 2584 
Q 1688 2584 1439 2293 
Q 1191 2003 1191 1497 
Q 1191 994 1439 701 
Q 1688 409 2113 409 
Q 2538 409 2786 701 
Q 3034 994 3034 1497 
Q 3034 2003 2786 2293 
Q 2538 2584 2113 2584 
z
M 3366 4563 
L 3366 3988 
Q 3128 4100 2886 4159 
Q 2644 4219 2406 4219 
Q 1781 4219 1451 3797 
Q 1122 3375 1075 2522 
Q 1259 2794 1537 2939 
Q 1816 3084 2150 3084 
Q 2853 3084 3261 2657 
Q 3669 2231 3669 1497 
Q 3669 778 3244 343 
Q 2819 -91 2113 -91 
Q 1303 -91 875 529 
Q 447 1150 447 2328 
Q 447 3434 972 4092 
Q 1497 4750 2381 4750 
Q 2619 4750 2861 4703 
Q 3103 4656 3366 4563 
z
" transform="scale(0.015625)"/>
      <path id="DejaVuSans-38" d="M 2034 2216 
Q 1584 2216 1326 1975 
Q 1069 1734 1069 1313 
Q 1069 891 1326 650 
Q 1584 409 2034 409 
Q 2484 409 2743 651 
Q 3003 894 3003 1313 
Q 3003 1734 2745 1975 
Q 2488 2216 2034 2216 
z
M 1403 2484 
Q 997 2584 770 2862 
Q 544 3141 544 3541 
Q 544 4100 942 4425 
Q 1341 4750 2034 4750 
Q 2731 4750 3128 4425 
Q 3525 4100 3525 3541 
Q 3525 3141 3298 2862 
Q 3072 2584 2669 2484 
Q 3125 2378 3379 2068 
Q 3634 1759 3634 1313 
Q 3634 634 3220 271 
Q 2806 -91 2034 -91 
Q 1263 -91 848 271 
Q 434 634 434 1313 
Q 434 1759 690 2068 
Q 947 2378 1403 2484 
z
M 1172 3481 
Q 1172 3119 1398 2916 
Q 1625 2713 2034 2713 
Q 2441 2713 2670 2916 
Q 2900 3119 2900 3481 
Q 2900 3844 2670 4047 
Q 2441 4250 2034 4250 
Q 1625 4250 1398 4047 
Q 1172 3844 1172 3481 
z
" transform="scale(0.015625)"/>
      <path id="DejaVuSans-67" d="M 2906 1791 
Q 2906 2416 2648 2759 
Q 2391 3103 1925 3103 
Q 1463 3103 1205 2759 
Q 947 2416 947 1791 
Q 947 1169 1205 825 
Q 1463 481 1925 481 
Q 2391 481 2648 825 
Q 2906 1169 2906 1791 
z
M 3481 434 
Q 3481 -459 3084 -895 
Q 2688 -1331 1869 -1331 
Q 1566 -1331 1297 -1286 
Q 1028 -1241 775 -1147 
L 775 -588 
Q 1028 -725 1275 -790 
Q 1522 -856 1778 -856 
Q 2344 -856 2625 -561 
Q 2906 -266 2906 331 
L 2906 616 
Q 2728 306 2450 153 
Q 2172 0 1784 0 
Q 1141 0 747 490 
Q 353 981 353 1791 
Q 353 2603 747 3093 
Q 1141 3584 1784 3584 
Q 2172 3584 2450 3431 
Q 2728 3278 2906 2969 
L 2906 3500 
L 3481 3500 
L 3481 434 
z
" transform="scale(0.015625)"/>
      <path id="DejaVuSans-6e" d="M 3513 2113 
L 3513 0 
L 2938 0 
L 2938 2094 
Q 2938 2591 2744 2837 
Q 2550 3084 2163 3084 
Q 1697 3084 1428 2787 
Q 1159 2491 1159 1978 
L 1159 0 
L 581 0 
L 581 3500 
L 1159 3500 
L 1159 2956 
Q 1366 3272 1645 3428 
Q 1925 3584 2291 3584 
Q 2894 3584 3203 3211 
Q 3513 2838 3513 2113 
z
" transform="scale(0.015625)"/>
      <path id="DejaVuSans-75" d="M 544 1381 
L 544 3500 
L 1119 3500 
L 1119 1403 
Q 1119 906 1312 657 
Q 1506 409 1894 409 
Q 2359 409 2629 706 
Q 2900 1003 2900 1516 
L 2900 3500 
L 3475 3500 
L 3475 0 
L 2900 0 
L 2900 538 
Q 2691 219 2414 64 
Q 2138 -91 1772 -91 
Q 1169 -91 856 284 
Q 544 659 544 1381 
z
M 1991 3584 
L 1991 3584 
z
" transform="scale(0.015625)"/>
      <path id="DejaVuSans-74" d="M 1172 4494 
L 1172 3500 
L 2356 3500 
L 2356 3053 
L 1172 3053 
L 1172 1153 
Q 1172 725 1289 603 
Q 1406 481 1766 481 
L 2356 481 
L 2356 0 
L 1766 0 
Q 1100 0 847 248 
Q 594 497 594 1153 
L 594 3053 
L 172 3053 
L 172 3500 
L 594 3500 
L 594 4494 
L 1172 4494 
z
" transform="scale(0.015625)"/>
      <path id="DejaVuSans-78" d="M 3513 3500 
L 2247 1797 
L 3578 0 
L 2900 0 
L 1881 1375 
L 863 0 
L 184 0 
L 1544 1831 
L 300 3500 
L 978 3500 
L 1906 2253 
L 2834 3500 
L 3513 3500 
z
" transform="scale(0.015625)"/>
      <path id="DejaVuSans-6f" d="M 1959 3097 
Q 1497 3097 1228 2736 
Q 959 2375 959 1747 
Q 959 1119 1226 758 
Q 1494 397 1959 397 
Q 2419 397 2687 759 
Q 2956 1122 2956 1747 
Q 2956 2369 2687 2733 
Q 2419 3097 1959 3097 
z
M 1959 3584 
Q 2709 3584 3137 3096 
Q 3566 2609 3566 1747 
Q 3566 888 3137 398 
Q 2709 -91 1959 -91 
Q 1206 -91 779 398 
Q 353 888 353 1747 
Q 353 2609 779 3096 
Q 1206 3584 1959 3584 
z
" transform="scale(0.015625)"/>
      <path id="DejaVuSans-69" d="M 603 3500 
L 1178 3500 
L 1178 0 
L 603 0 
L 603 3500 
z
M 603 4863 
L 1178 4863 
L 1178 4134 
L 603 4134 
L 603 4863 
z
" transform="scale(0.015625)"/>
     </defs>
     <use xlink:href="#DejaVuSans-36"/>
     <use xlink:href="#DejaVuSans-38" x="63.623047"/>
     <use xlink:href="#DejaVuSans-20" x="127.246094"/>
     <use xlink:href="#DejaVuSans-67" x="159.033203"/>
     <use xlink:href="#DejaVuSans-65" x="222.509766"/>
     <use xlink:href="#DejaVuSans-6e" x="284.033203"/>
     <use xlink:href="#DejaVuSans-75" x="347.412109"/>
     <use xlink:href="#DejaVuSans-73" x="410.791016"/>
     <use xlink:href="#DejaVuSans-20" x="462.890625"/>
     <use xlink:href="#DejaVuSans-74" x="494.677734"/>
     <use xlink:href="#DejaVuSans-61" x="533.886719"/>
     <use xlink:href="#DejaVuSans-78" x="595.166016"/>
     <use xlink:href="#DejaVuSans-6f" x="651.220703"/>
     <use xlink:href="#DejaVuSans-6e" x="712.402344"/>
     <use xlink:href="#DejaVuSans-6f" x="775.78125"/>
     <use xlink:href="#DejaVuSans-6d" x="836.962891"/>
     <use xlink:href="#DejaVuSans-69" x="934.375"/>
     <use xlink:href="#DejaVuSans-65" x="962.158203"/>
     <use xlink:href="#DejaVuSans-73" x="1023.681641"/>
    </g>
   </g>
  </g>
  <g id="axis3d_3">
   <g id="line2d_3">
    <path d="M 601.863694 366.369957 
L 612.043574 144.067386 
" style="fill: none; stroke: #000000; stroke-width: 0.8; stroke-linecap: square"/>
   </g>
   <g id="text_3">
    <!-- Normalized MGI read depth -->
    <g transform="translate(646.972362 320.878308) rotate(-87.378092) scale(0.1 -0.1)">
     <defs>
      <path id="DejaVuSans-4e" d="M 628 4666 
L 1478 4666 
L 3547 763 
L 3547 4666 
L 4159 4666 
L 4159 0 
L 3309 0 
L 1241 3903 
L 1241 0 
L 628 0 
L 628 4666 
z
" transform="scale(0.015625)"/>
      <path id="DejaVuSans-72" d="M 2631 2963 
Q 2534 3019 2420 3045 
Q 2306 3072 2169 3072 
Q 1681 3072 1420 2755 
Q 1159 2438 1159 1844 
L 1159 0 
L 581 0 
L 581 3500 
L 1159 3500 
L 1159 2956 
Q 1341 3275 1631 3429 
Q 1922 3584 2338 3584 
Q 2397 3584 2469 3576 
Q 2541 3569 2628 3553 
L 2631 2963 
z
" transform="scale(0.015625)"/>
      <path id="DejaVuSans-7a" d="M 353 3500 
L 3084 3500 
L 3084 2975 
L 922 459 
L 3084 459 
L 3084 0 
L 275 0 
L 275 525 
L 2438 3041 
L 353 3041 
L 353 3500 
z
" transform="scale(0.015625)"/>
      <path id="DejaVuSans-64" d="M 2906 2969 
L 2906 4863 
L 3481 4863 
L 3481 0 
L 2906 0 
L 2906 525 
Q 2725 213 2448 61 
Q 2172 -91 1784 -91 
Q 1150 -91 751 415 
Q 353 922 353 1747 
Q 353 2572 751 3078 
Q 1150 3584 1784 3584 
Q 2172 3584 2448 3432 
Q 2725 3281 2906 2969 
z
M 947 1747 
Q 947 1113 1208 752 
Q 1469 391 1925 391 
Q 2381 391 2643 752 
Q 2906 1113 2906 1747 
Q 2906 2381 2643 2742 
Q 2381 3103 1925 3103 
Q 1469 3103 1208 2742 
Q 947 2381 947 1747 
z
" transform="scale(0.015625)"/>
      <path id="DejaVuSans-4d" d="M 628 4666 
L 1569 4666 
L 2759 1491 
L 3956 4666 
L 4897 4666 
L 4897 0 
L 4281 0 
L 4281 4097 
L 3078 897 
L 2444 897 
L 1241 4097 
L 1241 0 
L 628 0 
L 628 4666 
z
" transform="scale(0.015625)"/>
      <path id="DejaVuSans-47" d="M 3809 666 
L 3809 1919 
L 2778 1919 
L 2778 2438 
L 4434 2438 
L 4434 434 
Q 4069 175 3628 42 
Q 3188 -91 2688 -91 
Q 1594 -91 976 548 
Q 359 1188 359 2328 
Q 359 3472 976 4111 
Q 1594 4750 2688 4750 
Q 3144 4750 3555 4637 
Q 3966 4525 4313 4306 
L 4313 3634 
Q 3963 3931 3569 4081 
Q 3175 4231 2741 4231 
Q 1884 4231 1454 3753 
Q 1025 3275 1025 2328 
Q 1025 1384 1454 906 
Q 1884 428 2741 428 
Q 3075 428 3337 486 
Q 3600 544 3809 666 
z
" transform="scale(0.015625)"/>
      <path id="DejaVuSans-49" d="M 628 4666 
L 1259 4666 
L 1259 0 
L 628 0 
L 628 4666 
z
" transform="scale(0.015625)"/>
      <path id="DejaVuSans-68" d="M 3513 2113 
L 3513 0 
L 2938 0 
L 2938 2094 
Q 2938 2591 2744 2837 
Q 2550 3084 2163 3084 
Q 1697 3084 1428 2787 
Q 1159 2491 1159 1978 
L 1159 0 
L 581 0 
L 581 4863 
L 1159 4863 
L 1159 2956 
Q 1366 3272 1645 3428 
Q 1925 3584 2291 3584 
Q 2894 3584 3203 3211 
Q 3513 2838 3513 2113 
z
" transform="scale(0.015625)"/>
     </defs>
     <use xlink:href="#DejaVuSans-4e"/>
     <use xlink:href="#DejaVuSans-6f" x="74.804688"/>
     <use xlink:href="#DejaVuSans-72" x="135.986328"/>
     <use xlink:href="#DejaVuSans-6d" x="175.349609"/>
     <use xlink:href="#DejaVuSans-61" x="272.761719"/>
     <use xlink:href="#DejaVuSans-6c" x="334.041016"/>
     <use xlink:href="#DejaVuSans-69" x="361.824219"/>
     <use xlink:href="#DejaVuSans-7a" x="389.607422"/>
     <use xlink:href="#DejaVuSans-65" x="442.097656"/>
     <use xlink:href="#DejaVuSans-64" x="503.621094"/>
     <use xlink:href="#DejaVuSans-20" x="567.097656"/>
     <use xlink:href="#DejaVuSans-4d" x="598.884766"/>
     <use xlink:href="#DejaVuSans-47" x="685.164062"/>
     <use xlink:href="#DejaVuSans-49" x="762.654297"/>
     <use xlink:href="#DejaVuSans-20" x="792.146484"/>
     <use xlink:href="#DejaVuSans-72" x="823.933594"/>
     <use xlink:href="#DejaVuSans-65" x="862.796875"/>
     <use xlink:href="#DejaVuSans-61" x="924.320312"/>
     <use xlink:href="#DejaVuSans-64" x="985.599609"/>
     <use xlink:href="#DejaVuSans-20" x="1049.076172"/>
     <use xlink:href="#DejaVuSans-64" x="1080.863281"/>
     <use xlink:href="#DejaVuSans-65" x="1144.339844"/>
     <use xlink:href="#DejaVuSans-70" x="1205.863281"/>
     <use xlink:href="#DejaVuSans-74" x="1269.339844"/>
     <use xlink:href="#DejaVuSans-68" x="1308.548828"/>
    </g>
   </g>
  </g>
  <g id="axes_1">
   <g id="Poly3DCollection_1">
    <path d="M 321.163164 273.757536 
L 347.978404 268.632183 
L 350.263754 297.623561 
L 323.50975 291.349688 
z
" clip-path="url(#pee1646edcc)" style="fill: #824464"/>
    <path d="M 312.775108 301.952289 
L 339.625016 310.059437 
L 341.75753 307.050666 
L 343.854101 298.764493 
L 317.080687 297.577197 
L 314.935698 300.237202 
z
" clip-path="url(#pee1646edcc)" style="fill: #f8f832"/>
    <path d="M 308.445888 305.870429 
L 335.330797 313.761028 
L 337.1985 273.852848 
L 339.625016 310.059437 
L 312.775108 301.952289 
L 310.545885 298.657624 
z
" clip-path="url(#pee1646edcc)" style="fill: #e1e12d"/>
    <path d="M 317.080687 297.577197 
L 343.854101 298.764493 
L 345.324905 180.361208 
L 347.978404 268.632183 
L 321.163164 273.757536 
L 319.161916 289.483471 
z
" clip-path="url(#pee1646edcc)" style="fill: #e6e62e"/>
    <path d="M 304.094123 309.505959 
L 331.013445 316.970765 
L 333.122583 309.074723 
L 335.330797 313.761028 
L 308.445888 305.870429 
L 306.183354 301.146805 
z
" clip-path="url(#pee1646edcc)" style="fill: #e1e12d"/>
    <path d="M 339.625016 310.059437 
L 366.722946 317.447331 
L 368.844307 315.990264 
L 370.958117 310.980153 
L 343.854101 298.764493 
L 341.75753 307.050666 
z
" clip-path="url(#pee1646edcc)" style="fill: #a2557e"/>
    <path d="M 299.721405 313.026493 
L 326.685762 321.177466 
L 328.85059 318.932762 
L 331.013445 316.970765 
L 304.094123 309.505959 
L 301.911563 311.359993 
z
" clip-path="url(#pee1646edcc)" style="fill: #cfcf29"/>
    <path d="M 347.978404 268.632183 
L 375.18912 218.048324 
L 377.281335 308.38426 
L 350.263754 297.623561 
z
" clip-path="url(#pee1646edcc)" style="fill: #8e4a6e"/>
    <path d="M 335.330797 313.761028 
L 362.468297 321.611518 
L 364.587516 314.362366 
L 366.722946 317.447331 
L 339.625016 310.059437 
L 337.1985 273.852848 
z
" clip-path="url(#pee1646edcc)" style="fill: #da72a9"/>
    <path d="M 295.326982 316.414444 
L 322.324626 323.93426 
L 324.512802 323.054487 
L 326.685762 321.177466 
L 299.721405 313.026493 
L 297.531573 315.038393 
z
" clip-path="url(#pee1646edcc)" style="fill: #565611"/>
    <path d="M 331.013445 316.970765 
L 358.193529 325.115984 
L 360.317405 317.792702 
L 362.468297 321.611518 
L 335.330797 313.761028 
L 333.122583 309.074723 
z
" clip-path="url(#pee1646edcc)" style="fill: #d871a7"/>
    <path d="M 366.722946 317.447331 
L 394.088497 323.32326 
L 396.178597 324.172297 
L 398.300161 316.911859 
L 370.958117 310.980153 
L 368.844307 315.990264 
z
" clip-path="url(#pee1646edcc)" style="fill: #934d72"/>
    <path d="M 343.854101 298.764493 
L 370.958117 310.980153 
L 373.071207 309.930517 
L 375.18912 218.048324 
L 347.978404 268.632183 
L 345.324905 180.361208 
z
" clip-path="url(#pee1646edcc)" style="fill: #944d72"/>
    <path d="M 326.685762 321.177466 
L 353.901853 329.184981 
L 356.048937 326.868007 
L 358.193529 325.115984 
L 331.013445 316.970765 
L 328.85059 318.932762 
z
" clip-path="url(#pee1646edcc)" style="fill: #f27ebb"/>
    <path d="M 362.468297 321.611518 
L 389.863126 329.66098 
L 391.985513 324.204577 
L 394.088497 323.32326 
L 366.722946 317.447331 
L 364.587516 314.362366 
z
" clip-path="url(#pee1646edcc)" style="fill: #de74ab"/>
    <path d="M 286.477945 323.192328 
L 313.569836 331.963131 
L 315.772357 330.524664 
L 317.965122 328.690188 
L 290.926659 320.647047 
L 288.714603 322.47781 
z
" clip-path="url(#pee1646edcc)" style="fill: #525210"/>
    <path d="M 322.324626 323.93426 
L 349.590411 332.989552 
L 351.744582 330.230142 
L 353.901853 329.184981 
L 326.685762 321.177466 
L 324.512802 323.054487 
z
" clip-path="url(#pee1646edcc)" style="fill: #995077"/>
    <path d="M 394.088497 323.32326 
L 421.693309 333.890909 
L 423.786325 330.71195 
L 425.892447 325.915752 
L 398.300161 316.911859 
L 396.178597 324.172297 
z
" clip-path="url(#pee1646edcc)" style="fill: #89476a"/>
    <path d="M 358.193529 325.115984 
L 385.628838 333.610416 
L 387.801918 311.211444 
L 389.863126 329.66098 
L 362.468297 321.611518 
L 360.317405 317.792702 
z
" clip-path="url(#pee1646edcc)" style="fill: #da72a8"/>
    <path d="M 282.049085 327.992454 
L 309.166466 336.180335 
L 311.372742 334.248048 
L 313.569836 331.963131 
L 286.477945 323.192328 
L 284.274955 326.101892 
z
" clip-path="url(#pee1646edcc)" style="fill: #235177"/>
    <path d="M 290.926659 320.647047 
L 317.965122 328.690188 
L 320.139809 325.645304 
L 322.324626 323.93426 
L 295.326982 316.414444 
L 290.848346 178.305759 
z
" clip-path="url(#pee1646edcc)" style="fill: #efef30"/>
    <path d="M 317.965122 328.690188 
L 345.258389 336.536653 
L 347.404157 330.595785 
L 349.590411 332.989552 
L 322.324626 323.93426 
L 320.139809 325.645304 
z
" clip-path="url(#pee1646edcc)" style="fill: #e176ae"/>
    <path d="M 353.901853 329.184981 
L 381.376429 337.37706 
L 383.504817 335.58425 
L 385.628838 333.610416 
L 358.193529 325.115984 
L 356.048937 326.868007 
z
" clip-path="url(#pee1646edcc)" style="fill: #874668"/>
    <path d="M 370.958117 310.980153 
L 398.300161 316.911859 
L 400.36781 320.125335 
L 403.355141 156.20132 
L 375.18912 218.048324 
L 373.071207 309.930517 
z
" clip-path="url(#pee1646edcc)" style="fill: #9e527a"/>
    <path d="M 277.586771 331.996155 
L 304.741221 340.18892 
L 306.956378 338.192647 
L 309.166466 336.180335 
L 282.049085 327.992454 
L 279.821195 330.037966 
z
" clip-path="url(#pee1646edcc)" style="fill: #c9c928"/>
    <path d="M 349.590411 332.989552 
L 377.1051 341.293594 
L 379.243487 338.915868 
L 381.376429 337.37706 
L 353.901853 329.184981 
L 351.744582 330.230142 
z
" clip-path="url(#pee1646edcc)" style="fill: #e3e32d"/>
    <path d="M 375.18912 218.048324 
L 403.355141 156.20132 
L 404.537556 316.383501 
L 377.281335 308.38426 
z
" clip-path="url(#pee1646edcc)" style="fill: #824464"/>
    <path d="M 389.863126 329.66098 
L 417.516111 338.002599 
L 420.07664 283.81422 
L 421.693309 333.890909 
L 394.088497 323.32326 
L 391.985513 324.204577 
z
" clip-path="url(#pee1646edcc)" style="fill: #dc73aa"/>
    <path d="M 421.693309 333.890909 
L 449.569051 342.155685 
L 451.631072 340.075628 
L 453.707957 336.783252 
L 425.892447 325.915752 
L 423.786325 330.71195 
z
" clip-path="url(#pee1646edcc)" style="fill: #a3557e"/>
    <path d="M 430.524365 277.829005 
L 458.299128 303.328358 
L 459.88489 328.884258 
L 432.067157 322.936463 
z
" clip-path="url(#pee1646edcc)" style="fill: #512a3f"/>
    <path d="M 313.569836 331.963131 
L 340.59383 293.7928 
L 343.054185 333.433049 
L 345.258389 336.536653 
L 317.965122 328.690188 
L 315.772357 330.524664 
z
" clip-path="url(#pee1646edcc)" style="fill: #d770a6"/>
    <path d="M 273.097815 335.653677 
L 300.291908 343.89108 
L 302.517208 341.910436 
L 304.741221 340.18892 
L 277.586771 331.996155 
L 275.343957 333.780823 
z
" clip-path="url(#pee1646edcc)" style="fill: #285b84"/>
    <path d="M 385.628838 333.610416 
L 413.328757 341.127672 
L 415.577558 320.896002 
L 417.516111 338.002599 
L 389.863126 329.66098 
L 387.801918 311.211444 
z
" clip-path="url(#pee1646edcc)" style="fill: #da72a9"/>
    <path d="M 345.258389 336.536653 
L 372.814996 345.155571 
L 374.962609 340.382888 
L 377.1051 341.293594 
L 349.590411 332.989552 
L 347.404157 330.595785 
z
" clip-path="url(#pee1646edcc)" style="fill: #d770a6"/>
    <path d="M 381.376429 337.37706 
L 409.118264 344.760263 
L 411.224167 343.175784 
L 413.328757 341.127672 
L 385.628838 333.610416 
L 383.504817 335.58425 
z
" clip-path="url(#pee1646edcc)" style="fill: #d871a7"/>
    <path d="M 403.355141 156.20132 
L 430.524365 277.829005 
L 432.067157 322.936463 
L 404.537556 316.383501 
z
" clip-path="url(#pee1646edcc)" style="fill: #552c42"/>
    <path d="M 398.300161 316.911859 
L 425.892447 325.915752 
L 428.557872 268.445813 
L 430.524365 277.829005 
L 403.355141 156.20132 
L 400.36781 320.125335 
z
" clip-path="url(#pee1646edcc)" style="fill: #c8689a"/>
    <path d="M 309.166466 336.180335 
L 336.540036 344.275997 
L 338.727994 342.497276 
L 340.59383 293.7928 
L 313.569836 331.963131 
L 311.372742 334.248048 
z
" clip-path="url(#pee1646edcc)" style="fill: #9d527a"/>
    <path d="M 268.593801 339.563194 
L 295.822326 347.590816 
L 298.048207 344.995717 
L 300.291908 343.89108 
L 273.097815 335.653677 
L 270.809028 335.718954 
z
" clip-path="url(#pee1646edcc)" style="fill: #e5e52e"/>
    <path d="M 304.741221 340.18892 
L 332.154052 348.416447 
L 334.343683 345.635385 
L 336.540036 344.275997 
L 309.166466 336.180335 
L 306.956378 338.192647 
z
" clip-path="url(#pee1646edcc)" style="fill: #e8e82e"/>
    <path d="M 377.1051 341.293594 
L 404.884002 349.186422 
L 406.999875 347.507142 
L 409.118264 344.760263 
L 381.376429 337.37706 
L 379.243487 338.915868 
z
" clip-path="url(#pee1646edcc)" style="fill: #f17eba"/>
    <path d="M 417.516111 338.002599 
L 445.433074 346.233549 
L 447.75861 326.731234 
L 449.569051 342.155685 
L 421.693309 333.890909 
L 420.07664 283.81422 
z
" clip-path="url(#pee1646edcc)" style="fill: #db72a9"/>
    <path d="M 458.299128 303.328358 
L 486.678198 305.00449 
L 487.877409 339.906359 
L 459.88489 328.884258 
z
" clip-path="url(#pee1646edcc)" style="fill: #723b58"/>
    <path d="M 449.569051 342.155685 
L 477.708149 350.598361 
L 479.759809 348.018225 
L 481.835662 344.131613 
L 453.707957 336.783252 
L 451.631072 340.075628 
z
" clip-path="url(#pee1646edcc)" style="fill: #c26596"/>
    <path d="M 413.328757 341.127672 
L 441.284975 349.892043 
L 443.448342 341.758696 
L 445.433074 346.233549 
L 417.516111 338.002599 
L 415.577558 320.896002 
z
" clip-path="url(#pee1646edcc)" style="fill: #d770a6"/>
    <path d="M 264.045356 342.376921 
L 291.328791 351.079205 
L 293.585026 349.756227 
L 295.822326 347.590816 
L 268.593801 339.563194 
L 266.334083 341.509996 
z
" clip-path="url(#pee1646edcc)" style="fill: #12283b"/>
    <path d="M 340.59383 293.7928 
L 368.502323 346.126498 
L 370.662817 347.07856 
L 372.814996 345.155571 
L 345.258389 336.536653 
L 343.054185 333.433049 
z
" clip-path="url(#pee1646edcc)" style="fill: #4f293d"/>
    <path d="M 300.291908 343.89108 
L 327.745354 352.179498 
L 329.952137 350.291653 
L 332.154052 348.416447 
L 304.741221 340.18892 
L 302.517208 341.910436 
z
" clip-path="url(#pee1646edcc)" style="fill: #7a405e"/>
    <path d="M 372.814996 345.155571 
L 400.633271 353.363692 
L 402.777851 348.280189 
L 404.884002 349.186422 
L 377.1051 341.293594 
L 374.962609 340.382888 
z
" clip-path="url(#pee1646edcc)" style="fill: #da72a9"/>
    <path d="M 409.118264 344.760263 
L 437.114323 353.865762 
L 439.201651 351.899484 
L 441.284975 349.892043 
L 413.328757 341.127672 
L 411.224167 343.175784 
z
" clip-path="url(#pee1646edcc)" style="fill: #5f3249"/>
    <path d="M 425.892447 325.915752 
L 453.707957 336.783252 
L 458.107351 190.338222 
L 458.299128 303.328358 
L 430.524365 277.829005 
L 428.557872 268.445813 
z
" clip-path="url(#pee1646edcc)" style="fill: #e477b0"/>
    <path d="M 259.522352 347.258943 
L 286.830565 355.490939 
L 289.087693 353.610322 
L 291.328791 351.079205 
L 264.045356 342.376921 
L 261.798512 345.362698 
z
" clip-path="url(#pee1646edcc)" style="fill: #245379"/>
    <path d="M 336.540036 344.275997 
L 364.176549 352.397112 
L 366.343952 350.842939 
L 368.502323 346.126498 
L 340.59383 293.7928 
L 338.727994 342.497276 
z
" clip-path="url(#pee1646edcc)" style="fill: #a0547c"/>
    <path d="M 295.822326 347.590816 
L 323.286107 352.982569 
L 325.523041 352.999843 
L 327.745354 352.179498 
L 300.291908 343.89108 
L 298.048207 344.995717 
z
" clip-path="url(#pee1646edcc)" style="fill: #d670a5"/>
    <path d="M 445.433074 346.233549 
L 473.61874 354.46711 
L 476.040109 334.092658 
L 477.708149 350.598361 
L 449.569051 342.155685 
L 447.75861 326.731234 
z
" clip-path="url(#pee1646edcc)" style="fill: #db72a9"/>
    <path d="M 332.154052 348.416447 
L 359.829309 356.547478 
L 362.005551 354.572224 
L 364.176549 352.397112 
L 336.540036 344.275997 
L 334.343683 345.635385 
z
" clip-path="url(#pee1646edcc)" style="fill: #f07db9"/>
    <path d="M 368.502323 346.126498 
L 396.385183 352.739823 
L 398.503631 354.911179 
L 400.633271 353.363692 
L 372.814996 345.155571 
L 370.662817 347.07856 
z
" clip-path="url(#pee1646edcc)" style="fill: #512a3e"/>
    <path d="M 404.884002 349.186422 
L 432.9387 356.708642 
L 435.025034 355.616762 
L 437.114323 353.865762 
L 409.118264 344.760263 
L 406.999875 347.507142 
z
" clip-path="url(#pee1646edcc)" style="fill: #9c5179"/>
    <path d="M 441.284975 349.892043 
L 469.514778 358.158702 
L 471.636858 352.834866 
L 473.61874 354.46711 
L 445.433074 346.233549 
L 443.448342 341.758696 
z
" clip-path="url(#pee1646edcc)" style="fill: #d971a7"/>
    <path d="M 254.953207 350.99872 
L 282.303067 359.375102 
L 284.570744 357.508119 
L 286.830565 355.490939 
L 259.522352 347.258943 
L 257.239437 349.088279 
z
" clip-path="url(#pee1646edcc)" style="fill: #12293c"/>
    <path d="M 453.707957 336.783252 
L 481.835662 344.131613 
L 483.853505 342.762971 
L 486.678198 305.00449 
L 458.299128 303.328358 
L 458.107351 190.338222 
z
" clip-path="url(#pee1646edcc)" style="fill: #a1547d"/>
    <path d="M 477.708149 350.598361 
L 506.16075 357.404054 
L 508.192533 354.89101 
L 510.367339 346.984843 
L 481.835662 344.131613 
L 479.759809 348.018225 
z
" clip-path="url(#pee1646edcc)" style="fill: #f07db9"/>
    <path d="M 486.678198 305.00449 
L 515.570871 300.74556 
L 516.157388 349.171312 
L 487.877409 339.906359 
z
" clip-path="url(#pee1646edcc)" style="fill: #763e5b"/>
    <path d="M 291.328791 351.079205 
L 318.869624 359.87319 
L 321.097279 358.060788 
L 323.286107 352.982569 
L 295.822326 347.590816 
L 293.585026 349.756227 
z
" clip-path="url(#pee1646edcc)" style="fill: #532c40"/>
    <path d="M 327.745354 352.179498 
L 355.461829 360.384981 
L 357.648496 358.603353 
L 359.829309 356.547478 
L 332.154052 348.416447 
L 329.952137 350.291653 
z
" clip-path="url(#pee1646edcc)" style="fill: #9a5077"/>
    <path d="M 481.835662 344.131613 
L 510.367339 346.984843 
L 512.160794 352.886836 
L 515.570871 300.74556 
L 486.678198 305.00449 
L 483.853505 342.762971 
z
" clip-path="url(#pee1646edcc)" style="fill: #9b5178"/>
    <path d="M 364.176549 352.397112 
L 392.078922 361.050275 
L 394.224638 359.139696 
L 396.385183 352.739823 
L 368.502323 346.126498 
L 366.343952 350.842939 
z
" clip-path="url(#pee1646edcc)" style="fill: #974f75"/>
    <path d="M 400.633271 353.363692 
L 428.718844 361.749367 
L 430.847135 357.790106 
L 432.9387 356.708642 
L 404.884002 349.186422 
L 402.777851 348.280189 
z
" clip-path="url(#pee1646edcc)" style="fill: #df74ac"/>
    <path d="M 437.114323 353.865762 
L 465.389831 361.992351 
L 467.452401 360.192363 
L 469.514778 358.158702 
L 441.284975 349.892043 
L 439.201651 351.899484 
z
" clip-path="url(#pee1646edcc)" style="fill: #f27ebb"/>
    <path d="M 250.367143 354.901788 
L 277.75298 363.158932 
L 280.032175 361.347776 
L 282.303067 359.375102 
L 254.953207 350.99872 
L 252.666354 353.096347 
z
" clip-path="url(#pee1646edcc)" style="fill: #1f4666"/>
    <path d="M 286.830565 355.490939 
L 314.386369 362.471185 
L 316.639717 361.934337 
L 318.869624 359.87319 
L 291.328791 351.079205 
L 289.087693 353.610322 
z
" clip-path="url(#pee1646edcc)" style="fill: #a0547c"/>
    <path d="M 323.286107 352.982569 
L 351.076428 364.61027 
L 353.268452 361.783202 
L 355.461829 360.384981 
L 327.745354 352.179498 
L 325.523041 352.999843 
z
" clip-path="url(#pee1646edcc)" style="fill: #532b40"/>
    <path d="M 359.829309 356.547478 
L 387.772746 364.962939 
L 389.930303 362.337051 
L 392.078922 361.050275 
L 364.176549 352.397112 
L 362.005551 354.572224 
z
" clip-path="url(#pee1646edcc)" style="fill: #e678b2"/>
    <path d="M 396.385183 352.739823 
L 424.512296 363.796319 
L 426.609354 363.628045 
L 428.718844 361.749367 
L 400.633271 353.363692 
L 398.503631 354.911179 
z
" clip-path="url(#pee1646edcc)" style="fill: #4f293d"/>
    <path d="M 432.9387 356.708642 
L 461.243198 366.01875 
L 463.367407 361.283417 
L 465.389831 361.992351 
L 437.114323 353.865762 
L 435.025034 355.616762 
z
" clip-path="url(#pee1646edcc)" style="fill: #cd6b9e"/>
    <path d="M 245.763801 358.943807 
L 273.190731 367.375388 
L 275.476216 365.35848 
L 277.75298 363.158932 
L 250.367143 354.901788 
L 248.069403 356.975528 
z
" clip-path="url(#pee1646edcc)" style="fill: #2c6694"/>
    <path d="M 282.303067 359.375102 
L 309.916515 367.836357 
L 312.161593 365.784266 
L 314.386369 362.471185 
L 286.830565 355.490939 
L 284.570744 357.508119 
z
" clip-path="url(#pee1646edcc)" style="fill: #d36ea3"/>
    <path d="M 473.61874 354.46711 
L 502.078131 362.710216 
L 505.882093 292.500872 
L 506.16075 357.404054 
L 477.708149 350.598361 
L 476.040109 334.092658 
z
" clip-path="url(#pee1646edcc)" style="fill: #da72a9"/>
    <path d="M 506.16075 357.404054 
L 534.852581 365.923407 
L 536.798595 365.428858 
L 538.871761 360.923326 
L 510.367339 346.984843 
L 508.192533 354.89101 
z
" clip-path="url(#pee1646edcc)" style="fill: #914c70"/>
    <path d="M 318.869624 359.87319 
L 346.669213 368.38063 
L 348.874947 366.419833 
L 351.076428 364.61027 
L 323.286107 352.982569 
L 321.097279 358.060788 
z
" clip-path="url(#pee1646edcc)" style="fill: #9f537b"/>
    <path d="M 355.461829 360.384981 
L 383.447008 369.009128 
L 385.612284 366.981717 
L 387.772746 364.962939 
L 359.829309 356.547478 
L 357.648496 358.603353 
z
" clip-path="url(#pee1646edcc)" style="fill: #562d42"/>
    <path d="M 469.514778 358.158702 
L 498.038528 365.663568 
L 500.89793 331.053184 
L 502.078131 362.710216 
L 473.61874 354.46711 
L 471.636858 352.834866 
z
" clip-path="url(#pee1646edcc)" style="fill: #da72a9"/>
    <path d="M 392.078922 361.050275 
L 420.250467 369.45987 
L 422.376115 367.382564 
L 424.512296 363.796319 
L 396.385183 352.739823 
L 394.224638 359.139696 
z
" clip-path="url(#pee1646edcc)" style="fill: #a3557e"/>
    <path d="M 465.389831 361.992351 
L 494.048002 365.770619 
L 495.988695 368.070598 
L 498.038528 365.663568 
L 469.514778 358.158702 
L 467.452401 360.192363 
z
" clip-path="url(#pee1646edcc)" style="fill: #d56fa5"/>
    <path d="M 241.13572 362.839427 
L 268.60064 371.24308 
L 270.846597 366.83581 
L 273.190731 367.375388 
L 245.763801 358.943807 
L 243.417263 359.560578 
z
" clip-path="url(#pee1646edcc)" style="fill: #316fa2"/>
    <path d="M 277.75298 363.158932 
L 305.410498 371.886939 
L 307.666411 369.888749 
L 309.916515 367.836357 
L 282.303067 359.375102 
L 280.032175 361.347776 
z
" clip-path="url(#pee1646edcc)" style="fill: #562d42"/>
    <path d="M 314.386369 362.471185 
L 342.244021 372.497659 
L 344.459595 370.523594 
L 346.669213 368.38063 
L 318.869624 359.87319 
L 316.639717 361.934337 
z
" clip-path="url(#pee1646edcc)" style="fill: #502a3e"/>
    <path d="M 351.076428 364.61027 
L 379.102044 373.007012 
L 381.27774 370.423598 
L 383.447008 369.009128 
L 355.461829 360.384981 
L 353.268452 361.783202 
z
" clip-path="url(#pee1646edcc)" style="fill: #e879b3"/>
    <path d="M 387.772746 364.962939 
L 415.985476 373.581139 
L 418.123476 371.160278 
L 420.250467 369.45987 
L 392.078922 361.050275 
L 389.930303 362.337051 
z
" clip-path="url(#pee1646edcc)" style="fill: #e0e02d"/>
    <path d="M 424.512296 363.796319 
L 452.912974 372.949658 
L 454.988208 372.114896 
L 457.075391 370.225692 
L 428.718844 361.749367 
L 426.609354 363.628045 
z
" clip-path="url(#pee1646edcc)" style="fill: #4f293d"/>
    <path d="M 236.48615 366.727388 
L 263.992015 375.231553 
L 266.300501 373.307607 
L 268.60064 371.24308 
L 241.13572 362.839427 
L 238.814368 364.811195 
z
" clip-path="url(#pee1646edcc)" style="fill: #12293c"/>
    <path d="M 461.243198 366.01875 
L 489.825792 374.800032 
L 491.87719 372.860938 
L 494.048002 365.770619 
L 465.389831 361.992351 
L 463.367407 361.283417 
z
" clip-path="url(#pee1646edcc)" style="fill: #6f3a56"/>
    <path d="M 273.190731 367.375388 
L 300.882594 375.837948 
L 303.149288 373.873281 
L 305.410498 371.886939 
L 277.75298 363.158932 
L 275.476216 365.35848 
z
" clip-path="url(#pee1646edcc)" style="fill: #b0b023"/>
    <path d="M 502.078131 362.710216 
L 530.805219 371.319748 
L 532.876919 367.175465 
L 534.852581 365.923407 
L 506.16075 357.404054 
L 505.882093 292.500872 
z
" clip-path="url(#pee1646edcc)" style="fill: #ee7cb8"/>
    <path d="M 428.718844 361.749367 
L 457.075391 370.225692 
L 460.722008 276.556862 
L 461.243198 366.01875 
L 432.9387 356.708642 
L 430.847135 357.790106 
z
" clip-path="url(#pee1646edcc)" style="fill: #db72a9"/>
    <path d="M 534.852581 365.923407 
L 563.770322 375.862595 
L 565.744891 373.773541 
L 567.718901 371.5915 
L 538.871761 360.923326 
L 536.798595 365.428858 
z
" clip-path="url(#pee1646edcc)" style="fill: #793f5e"/>
    <path d="M 309.916515 367.836357 
L 337.795454 376.134041 
L 340.021326 374.171707 
L 342.244021 372.497659 
L 314.386369 362.471185 
L 312.161593 365.784266 
z
" clip-path="url(#pee1646edcc)" style="fill: #ad5b86"/>
    <path d="M 346.669213 368.38063 
L 374.737558 376.694802 
L 376.922263 374.977415 
L 379.102044 373.007012 
L 351.076428 364.61027 
L 348.874947 366.419833 
z
" clip-path="url(#pee1646edcc)" style="fill: #793f5e"/>
    <path d="M 383.447008 369.009128 
L 411.703029 377.518718 
L 413.847613 375.42923 
L 415.985476 373.581139 
L 387.772746 364.962939 
L 385.612284 366.981717 
z
" clip-path="url(#pee1646edcc)" style="fill: #f17ebb"/>
    <path d="M 510.367339 346.984843 
L 538.871761 360.923326 
L 540.806464 360.487483 
L 548.765298 181.843605 
L 515.570871 300.74556 
L 512.160794 352.886836 
z
" clip-path="url(#pee1646edcc)" style="fill: #954e73"/>
    <path d="M 420.250467 369.45987 
L 448.693793 378.08518 
L 450.797559 376.032155 
L 452.912974 372.949658 
L 424.512296 363.796319 
L 422.376115 367.382564 
z
" clip-path="url(#pee1646edcc)" style="fill: #9f537b"/>
    <path d="M 498.038528 365.663568 
L 526.785668 375.315295 
L 529.447615 352.426066 
L 530.805219 371.319748 
L 502.078131 362.710216 
L 500.89793 331.053184 
z
" clip-path="url(#pee1646edcc)" style="fill: #d971a8"/>
    <path d="M 231.817444 370.696845 
L 259.362829 379.247324 
L 261.676488 377.082102 
L 263.992015 375.231553 
L 236.48615 366.727388 
L 234.152547 368.644048 
z
" clip-path="url(#pee1646edcc)" style="fill: #3171a5"/>
    <path d="M 494.048002 365.770619 
L 522.745259 379.420547 
L 524.766082 377.419591 
L 526.785668 375.315295 
L 498.038528 365.663568 
L 495.988695 368.070598 
z
" clip-path="url(#pee1646edcc)" style="fill: #512b3f"/>
    <path d="M 268.60064 371.24308 
L 296.334071 379.798983 
L 298.586097 376.200383 
L 300.882594 375.837948 
L 273.190731 367.375388 
L 270.846597 366.83581 
z
" clip-path="url(#pee1646edcc)" style="fill: #d971a8"/>
    <path d="M 305.410498 371.886939 
L 333.328899 380.114372 
L 335.567459 378.471718 
L 337.795454 376.134041 
L 309.916515 367.836357 
L 307.666411 369.888749 
z
" clip-path="url(#pee1646edcc)" style="fill: #96961e"/>
    <path d="M 530.805219 371.319748 
L 559.809363 380.019328 
L 562.020684 371.890931 
L 563.770322 375.862595 
L 534.852581 365.923407 
L 532.876919 367.175465 
z
" clip-path="url(#pee1646edcc)" style="fill: #e276ae"/>
    <path d="M 515.570871 300.74556 
L 548.765298 181.843605 
L 544.74105 357.232769 
L 516.157388 349.171312 
z
" clip-path="url(#pee1646edcc)" style="fill: #934d72"/>
    <path d="M 342.244021 372.497659 
L 370.353142 380.765708 
L 372.5479 378.948228 
L 374.737558 376.694802 
L 346.669213 368.38063 
L 344.459595 370.523594 
z
" clip-path="url(#pee1646edcc)" style="fill: #f4f431"/>
    <path d="M 379.102044 373.007012 
L 407.409894 380.153257 
L 409.560404 378.661145 
L 411.703029 377.518718 
L 383.447008 369.009128 
L 381.27774 370.423598 
z
" clip-path="url(#pee1646edcc)" style="fill: #db73aa"/>
    <path d="M 415.985476 373.581139 
L 444.471653 382.239278 
L 446.588778 379.905273 
L 448.693793 378.08518 
L 420.250467 369.45987 
L 418.123476 371.160278 
z
" clip-path="url(#pee1646edcc)" style="fill: #ed7cb7"/>
    <path d="M 452.912974 372.949658 
L 481.652033 378.963611 
L 483.642113 380.708696 
L 485.707238 378.769243 
L 457.075391 370.225692 
L 454.988208 372.114896 
z
" clip-path="url(#pee1646edcc)" style="fill: #4f293d"/>
    <path d="M 227.127977 374.691913 
L 254.71296 383.290195 
L 257.037617 381.144618 
L 259.362829 379.247324 
L 231.817444 370.696845 
L 229.47483 372.674683 
z
" clip-path="url(#pee1646edcc)" style="fill: #3273a7"/>
    <path d="M 489.825792 374.800032 
L 518.690914 383.401343 
L 520.757999 380.134885 
L 522.745259 379.420547 
L 494.048002 365.770619 
L 491.87719 372.860938 
z
" clip-path="url(#pee1646edcc)" style="fill: #ba6190"/>
    <path d="M 263.992015 375.231553 
L 291.763938 383.720628 
L 294.046147 381.422248 
L 296.334071 379.798983 
L 268.60064 371.24308 
L 266.300501 373.307607 
z
" clip-path="url(#pee1646edcc)" style="fill: #dc73aa"/>
    <path d="M 457.075391 370.225692 
L 485.707238 378.769243 
L 487.777443 376.405901 
L 489.825792 374.800032 
L 461.243198 366.01875 
L 460.722008 276.556862 
z
" clip-path="url(#pee1646edcc)" style="fill: #ef7db9"/>
    <path d="M 300.882594 375.837948 
L 328.844939 384.42054 
L 331.090256 382.36374 
L 333.328899 380.114372 
L 305.410498 371.886939 
L 303.149288 373.873281 
z
" clip-path="url(#pee1646edcc)" style="fill: #d16da2"/>
    <path d="M 337.795454 376.134041 
L 365.948922 384.813287 
L 368.153663 382.899583 
L 370.353142 380.765708 
L 342.244021 372.497659 
L 340.021326 374.171707 
z
" clip-path="url(#pee1646edcc)" style="fill: #673650"/>
    <path d="M 526.785668 375.315295 
L 555.840466 383.929066 
L 557.9952 377.435166 
L 559.809363 380.019328 
L 530.805219 371.319748 
L 529.447615 352.426066 
z
" clip-path="url(#pee1646edcc)" style="fill: #da72a9"/>
    <path d="M 374.737558 376.694802 
L 403.082559 384.94769 
L 405.241793 383.632009 
L 407.409894 380.153257 
L 379.102044 373.007012 
L 376.922263 374.977415 
z
" clip-path="url(#pee1646edcc)" style="fill: #502a3e"/>
    <path d="M 411.703029 377.518718 
L 440.234258 386.13889 
L 442.358903 383.929654 
L 444.471653 382.239278 
L 415.985476 373.581139 
L 413.847613 375.42923 
z
" clip-path="url(#pee1646edcc)" style="fill: #d46fa4"/>
    <path d="M 548.765298 181.843605 
L 572.125561 355.369716 
L 573.81879 359.998399 
L 544.74105 357.232769 
z
" clip-path="url(#pee1646edcc)" style="fill: #65354e"/>
    <path d="M 448.693793 378.08518 
L 477.417749 386.581944 
L 479.494398 384.755587 
L 481.652033 378.963611 
L 452.912974 372.949658 
L 450.797559 376.032155 
z
" clip-path="url(#pee1646edcc)" style="fill: #9c5279"/>
    <path d="M 222.408548 378.417305 
L 250.04036 387.283613 
L 252.372207 384.99723 
L 254.71296 383.290195 
L 227.127977 374.691913 
L 224.773335 376.63015 
z
" clip-path="url(#pee1646edcc)" style="fill: #26567e"/>
    <path d="M 485.707238 378.769243 
L 514.617089 387.437028 
L 516.72226 383.121466 
L 518.690914 383.401343 
L 489.825792 374.800032 
L 487.777443 376.405901 
z
" clip-path="url(#pee1646edcc)" style="fill: #da72a9"/>
    <path d="M 259.362829 379.247324 
L 287.17499 387.778077 
L 289.468559 385.543969 
L 291.763938 383.720628 
L 263.992015 375.231553 
L 261.676488 377.082102 
z
" clip-path="url(#pee1646edcc)" style="fill: #e4e42e"/>
    <path d="M 522.745259 379.420547 
L 551.852331 387.886384 
L 553.846274 385.971619 
L 555.840466 383.929066 
L 526.785668 375.315295 
L 524.766082 377.419591 
z
" clip-path="url(#pee1646edcc)" style="fill: #e9e92f"/>
    <path d="M 333.328899 380.114372 
L 361.5236 388.441209 
L 363.739563 386.943967 
L 365.948922 384.813287 
L 337.795454 376.134041 
L 335.567459 378.471718 
z
" clip-path="url(#pee1646edcc)" style="fill: #65354e"/>
    <path d="M 296.334071 379.798983 
L 324.338791 388.512758 
L 326.491861 375.912027 
L 328.844939 384.42054 
L 300.882594 375.837948 
L 298.586097 376.200383 
z
" clip-path="url(#pee1646edcc)" style="fill: #e1e12d"/>
    <path d="M 370.353142 380.765708 
L 398.739617 389.213176 
L 400.910335 387.673036 
L 403.082559 384.94769 
L 374.737558 376.694802 
L 372.5479 378.948228 
z
" clip-path="url(#pee1646edcc)" style="fill: #6e3a55"/>
    <path d="M 407.409894 380.153257 
L 435.996794 388.495436 
L 438.123706 386.894208 
L 440.234258 386.13889 
L 411.703029 377.518718 
L 409.560404 378.661145 
z
" clip-path="url(#pee1646edcc)" style="fill: #995077"/>
    <path d="M 444.471653 382.239278 
L 473.237252 390.876709 
L 475.326652 388.88234 
L 477.417749 386.581944 
L 448.693793 378.08518 
L 446.588778 379.905273 
z
" clip-path="url(#pee1646edcc)" style="fill: #9f537b"/>
    <path d="M 217.683758 382.679696 
L 245.347987 391.353713 
L 247.697268 389.333394 
L 250.04036 387.283613 
L 222.408548 378.417305 
L 220.053104 380.68522 
z
" clip-path="url(#pee1646edcc)" style="fill: #235075"/>
    <path d="M 481.652033 378.963611 
L 510.537096 391.042799 
L 512.598296 388.564789 
L 514.617089 387.437028 
L 485.707238 378.769243 
L 483.642113 380.708696 
z
" clip-path="url(#pee1646edcc)" style="fill: #522b40"/>
    <path d="M 254.71296 383.290195 
L 282.558716 391.50473 
L 284.874063 389.887619 
L 287.17499 387.778077 
L 259.362829 379.247324 
L 257.037617 381.144618 
z
" clip-path="url(#pee1646edcc)" style="fill: #f07db9"/>
    <path d="M 518.690914 383.401343 
L 547.898578 390.361632 
L 549.844739 390.06029 
L 551.852331 387.886384 
L 522.745259 379.420547 
L 520.757999 380.134885 
z
" clip-path="url(#pee1646edcc)" style="fill: #723c58"/>
    <path d="M 291.763938 383.720628 
L 319.806142 392.072856 
L 322.077541 390.515074 
L 324.338791 388.512758 
L 296.334071 379.798983 
L 294.046147 381.422248 
z
" clip-path="url(#pee1646edcc)" style="fill: #552c41"/>
    <path d="M 328.844939 384.42054 
L 357.081178 393.14732 
L 359.305744 391.10687 
L 361.5236 388.441209 
L 333.328899 380.114372 
L 331.090256 382.36374 
z
" clip-path="url(#pee1646edcc)" style="fill: #995076"/>
    <path d="M 365.948922 384.813287 
L 394.376933 393.591379 
L 396.559941 391.567056 
L 398.739617 389.213176 
L 370.353142 380.765708 
L 368.153663 382.899583 
z
" clip-path="url(#pee1646edcc)" style="fill: #703b57"/>
    <path d="M 403.082559 384.94769 
L 431.704912 393.649209 
L 433.837985 392.325973 
L 435.996794 388.495436 
L 407.409894 380.153257 
L 405.241793 383.632009 
z
" clip-path="url(#pee1646edcc)" style="fill: #7d4161"/>
    <path d="M 440.234258 386.13889 
L 469.046432 394.757409 
L 471.143952 392.830765 
L 473.237252 390.876709 
L 444.471653 382.239278 
L 442.358903 383.929654 
z
" clip-path="url(#pee1646edcc)" style="fill: #93931d"/>
    <path d="M 212.929493 386.699781 
L 240.63327 395.405018 
L 242.993718 393.392228 
L 245.347987 391.353713 
L 217.683758 382.679696 
L 215.309161 384.682592 
z
" clip-path="url(#pee1646edcc)" style="fill: #16334b"/>
    <path d="M 477.417749 386.581944 
L 506.423486 395.200722 
L 508.472529 393.491175 
L 510.537096 391.042799 
L 481.652033 378.963611 
L 479.494398 384.755587 
z
" clip-path="url(#pee1646edcc)" style="fill: #9c5178"/>
    <path d="M 538.871761 360.923326 
L 567.718901 371.5915 
L 578.081258 156.04188 
L 572.125561 355.369716 
L 548.765298 181.843605 
L 540.806464 360.487483 
z
" clip-path="url(#pee1646edcc)" style="fill: #f17eba"/>
    <path d="M 514.617089 387.437028 
L 543.810803 396.15769 
L 545.88747 392.368803 
L 547.898578 390.361632 
L 518.690914 383.401343 
L 516.72226 383.121466 
z
" clip-path="url(#pee1646edcc)" style="fill: #e1e12d"/>
    <path d="M 250.04036 387.283613 
L 277.761279 387.110514 
L 280.253289 393.940255 
L 282.558716 391.50473 
L 254.71296 383.290195 
L 252.372207 384.99723 
z
" clip-path="url(#pee1646edcc)" style="fill: #bf6493"/>
    <path d="M 287.17499 387.778077 
L 315.263281 396.593904 
L 317.533538 394.014892 
L 319.806142 392.072856 
L 291.763938 383.720628 
L 289.468559 385.543969 
z
" clip-path="url(#pee1646edcc)" style="fill: #e3e32d"/>
    <path d="M 361.5236 388.441209 
L 389.996374 397.522284 
L 392.18844 395.762787 
L 394.376933 393.591379 
L 365.948922 384.813287 
L 363.739563 386.943967 
z
" clip-path="url(#pee1646edcc)" style="fill: #542c41"/>
    <path d="M 324.338791 388.512758 
L 352.616319 397.120851 
L 354.841083 392.578782 
L 357.081178 393.14732 
L 328.844939 384.42054 
L 326.491861 375.912027 
z
" clip-path="url(#pee1646edcc)" style="fill: #e2e22d"/>
    <path d="M 398.739617 389.213176 
L 427.405507 397.876009 
L 429.551563 396.304761 
L 431.704912 393.649209 
L 403.082559 384.94769 
L 400.910335 387.673036 
z
" clip-path="url(#pee1646edcc)" style="fill: #753d5a"/>
    <path d="M 435.996794 388.495436 
L 464.828662 399.066446 
L 466.945185 396.627287 
L 469.046432 394.757409 
L 440.234258 386.13889 
L 438.123706 386.894208 
z
" clip-path="url(#pee1646edcc)" style="fill: #502a3e"/>
    <path d="M 208.152499 390.704956 
L 235.897854 399.505158 
L 238.268615 397.465692 
L 240.63327 395.405018 
L 212.929493 386.699781 
L 210.544817 388.73325 
z
" clip-path="url(#pee1646edcc)" style="fill: #132b3f"/>
    <path d="M 473.237252 390.876709 
L 502.340231 397.486145 
L 504.353578 397.51955 
L 506.423486 395.200722 
L 477.417749 386.581944 
L 475.326652 388.88234 
z
" clip-path="url(#pee1646edcc)" style="fill: #b9618f"/>
    <path d="M 510.537096 391.042799 
L 539.785418 399.642802 
L 541.821312 397.285174 
L 543.810803 396.15769 
L 514.617089 387.437028 
L 512.598296 388.564789 
z
" clip-path="url(#pee1646edcc)" style="fill: #cccc29"/>
    <path d="M 245.347987 391.353713 
L 273.282423 400.048493 
L 275.612216 398.05093 
L 277.761279 387.110514 
L 250.04036 387.283613 
L 247.697268 389.333394 
z
" clip-path="url(#pee1646edcc)" style="fill: #cb6a9d"/>
    <path d="M 282.558716 391.50473 
L 310.694527 400.674328 
L 312.980838 398.57784 
L 315.263281 396.593904 
L 287.17499 387.778077 
L 284.874063 389.887619 
z
" clip-path="url(#pee1646edcc)" style="fill: #502a3e"/>
    <path d="M 319.806142 392.072856 
L 348.131637 401.255129 
L 350.376847 399.250519 
L 352.616319 397.120851 
L 324.338791 388.512758 
L 322.077541 390.515074 
z
" clip-path="url(#pee1646edcc)" style="fill: #4f293d"/>
    <path d="M 357.081178 393.14732 
L 385.594483 401.940019 
L 387.797537 399.853083 
L 389.996374 397.522284 
L 361.5236 388.441209 
L 359.305744 391.10687 
z
" clip-path="url(#pee1646edcc)" style="fill: #a8a822"/>
    <path d="M 394.376933 393.591379 
L 423.085123 402.282001 
L 425.250647 399.791033 
L 427.405507 397.876009 
L 398.739617 389.213176 
L 396.559941 391.567056 
z
" clip-path="url(#pee1646edcc)" style="fill: #ed7cb7"/>
    <path d="M 431.704912 393.649209 
L 460.597491 403.079405 
L 462.716824 400.997255 
L 464.828662 399.066446 
L 435.996794 388.495436 
L 433.837985 392.325973 
z
" clip-path="url(#pee1646edcc)" style="fill: #89891b"/>
    <path d="M 203.356932 394.822269 
L 231.140262 403.605601 
L 233.520932 401.523557 
L 235.897854 399.505158 
L 208.152499 390.704956 
L 205.757763 392.771051 
z
" clip-path="url(#pee1646edcc)" style="fill: #cf1819"/>
    <path d="M 469.046432 394.757409 
L 498.143187 403.45601 
L 500.216765 401.525335 
L 502.340231 397.486145 
L 473.237252 390.876709 
L 471.143952 392.830765 
z
" clip-path="url(#pee1646edcc)" style="fill: #8e4a6e"/>
    <path d="M 240.63327 395.405018 
L 268.609431 404.18426 
L 270.948396 402.10478 
L 273.282423 400.048493 
L 245.347987 391.353713 
L 242.993718 393.392228 
z
" clip-path="url(#pee1646edcc)" style="fill: #dada2c"/>
    <path d="M 506.423486 395.200722 
L 535.70895 404.112751 
L 537.751889 401.8013 
L 539.785418 399.642802 
L 510.537096 391.042799 
L 508.472529 393.491175 
z
" clip-path="url(#pee1646edcc)" style="fill: #ef7db9"/>
    <path d="M 277.761279 387.110514 
L 306.104982 404.784106 
L 308.400152 402.561222 
L 310.694527 400.674328 
L 282.558716 391.50473 
L 280.253289 393.940255 
z
" clip-path="url(#pee1646edcc)" style="fill: #525210"/>
    <path d="M 315.263281 396.593904 
L 343.625669 405.27823 
L 345.881422 403.293704 
L 348.131637 401.255129 
L 319.806142 392.072856 
L 317.533538 394.014892 
z
" clip-path="url(#pee1646edcc)" style="fill: #aa5983"/>
    <path d="M 352.616319 397.120851 
L 381.173489 406.010825 
L 383.393437 400.089187 
L 385.594483 401.940019 
L 357.081178 393.14732 
L 354.841083 392.578782 
z
" clip-path="url(#pee1646edcc)" style="fill: #d972a8"/>
    <path d="M 389.996374 397.522284 
L 418.74971 406.235451 
L 420.917308 404.535716 
L 423.085123 402.282001 
L 394.376933 393.591379 
L 392.18844 395.762787 
z
" clip-path="url(#pee1646edcc)" style="fill: #562d43"/>
    <path d="M 427.405507 397.876009 
L 456.346397 407.133135 
L 458.475457 405.041408 
L 460.597491 403.079405 
L 431.704912 393.649209 
L 429.551563 396.304761 
z
" clip-path="url(#pee1646edcc)" style="fill: #713b57"/>
    <path d="M 198.536369 398.868227 
L 226.359067 407.665857 
L 228.750388 405.564896 
L 231.140262 403.605601 
L 203.356932 394.822269 
L 200.949613 396.848805 
z
" clip-path="url(#pee1646edcc)" style="fill: #2e699a"/>
    <path d="M 464.828662 399.066446 
L 493.968769 407.853861 
L 496.085109 404.566059 
L 498.143187 403.45601 
L 469.046432 394.757409 
L 466.945185 396.627287 
z
" clip-path="url(#pee1646edcc)" style="fill: #e7e72e"/>
    <path d="M 235.897854 399.505158 
L 263.913531 408.271159 
L 266.2651 406.267163 
L 268.609431 404.18426 
L 240.63327 395.405018 
L 238.268615 397.465692 
z
" clip-path="url(#pee1646edcc)" style="fill: #cece29"/>
    <path d="M 502.340231 397.486145 
L 531.620031 408.425505 
L 533.661356 406.435002 
L 535.70895 404.112751 
L 506.423486 395.200722 
L 504.353578 397.51955 
z
" clip-path="url(#pee1646edcc)" style="fill: #502a3e"/>
    <path d="M 273.282423 400.048493 
L 301.493998 408.887317 
L 303.800281 406.70429 
L 306.104982 404.784106 
L 277.761279 387.110514 
L 275.612216 398.05093 
z
" clip-path="url(#pee1646edcc)" style="fill: #a7a721"/>
    <path d="M 310.694527 400.674328 
L 339.100429 409.538407 
L 341.36411 407.183401 
L 343.625669 405.27823 
L 315.263281 396.593904 
L 312.980838 398.57784 
z
" clip-path="url(#pee1646edcc)" style="fill: #da72a8"/>
    <path d="M 348.131637 401.255129 
L 376.732096 410.137116 
L 378.955334 408.078941 
L 381.173489 406.010825 
L 352.616319 397.120851 
L 350.376847 399.250519 
z
" clip-path="url(#pee1646edcc)" style="fill: #7e4261"/>
    <path d="M 385.594483 401.940019 
L 414.389305 410.798813 
L 416.570637 408.664391 
L 418.74971 406.235451 
L 389.996374 397.522284 
L 387.797537 399.853083 
z
" clip-path="url(#pee1646edcc)" style="fill: #b35e8b"/>
    <path d="M 423.085123 402.282001 
L 452.07663 411.143455 
L 454.237098 407.707743 
L 456.346397 407.133135 
L 427.405507 397.876009 
L 425.250647 399.791033 
z
" clip-path="url(#pee1646edcc)" style="fill: #8b4795"/>
    <path d="M 193.695988 402.995492 
L 221.559383 411.860875 
L 223.938159 408.983671 
L 226.359067 407.665857 
L 198.536369 398.868227 
L 196.116807 400.870732 
z
" clip-path="url(#pee1646edcc)" style="fill: #ca1719"/>
    <path d="M 460.597491 403.079405 
L 489.785721 411.840586 
L 491.879556 409.850054 
L 493.968769 407.853861 
L 464.828662 399.066446 
L 462.716824 400.997255 
z
" clip-path="url(#pee1646edcc)" style="fill: #b35e8b"/>
    <path d="M 231.140262 403.605601 
L 259.19685 412.41467 
L 261.554715 410.202032 
L 263.913531 408.271159 
L 235.897854 399.505158 
L 233.520932 401.523557 
z
" clip-path="url(#pee1646edcc)" style="fill: #e2e22d"/>
    <path d="M 498.143187 403.45601 
L 527.519888 412.524048 
L 529.572976 410.451704 
L 531.620031 408.425505 
L 502.340231 397.486145 
L 500.216765 401.525335 
z
" clip-path="url(#pee1646edcc)" style="fill: #995076"/>
    <path d="M 268.609431 404.18426 
L 296.862568 413.060788 
L 299.18174 411.024003 
L 301.493998 408.887317 
L 273.282423 400.048493 
L 270.948396 402.10478 
z
" clip-path="url(#pee1646edcc)" style="fill: #80801a"/>
    <path d="M 306.104982 404.784106 
L 334.551861 413.481392 
L 336.828225 411.431916 
L 339.100429 409.538407 
L 310.694527 400.674328 
L 308.400152 402.561222 
z
" clip-path="url(#pee1646edcc)" style="fill: #db73aa"/>
    <path d="M 343.625669 405.27823 
L 372.270227 414.243193 
L 374.503731 411.968547 
L 376.732096 410.137116 
L 348.131637 401.255129 
L 345.881422 403.293704 
z
" clip-path="url(#pee1646edcc)" style="fill: #ca6a9c"/>
    <path d="M 381.173489 406.010825 
L 410.01318 414.883088 
L 412.24017 408.077799 
L 414.389305 410.798813 
L 385.594483 401.940019 
L 383.393437 400.089187 
z
" clip-path="url(#pee1646edcc)" style="fill: #da72a9"/>
    <path d="M 418.74971 406.235451 
L 447.78151 415.539083 
L 449.932713 413.258846 
L 452.07663 411.143455 
L 423.085123 402.282001 
L 420.917308 404.535716 
z
" clip-path="url(#pee1646edcc)" style="fill: #512a3e"/>
    <path d="M 188.832135 407.106292 
L 216.735515 416.007429 
L 219.149899 413.921381 
L 221.559383 411.860875 
L 193.695988 402.995492 
L 191.266921 405.050499 
z
" clip-path="url(#pee1646edcc)" style="fill: #2f6b9c"/>
    <path d="M 456.346397 407.133135 
L 485.577302 416.104021 
L 487.681965 414.054459 
L 489.785721 411.840586 
L 460.597491 403.079405 
L 458.475457 405.041408 
z
" clip-path="url(#pee1646edcc)" style="fill: #542c41"/>
    <path d="M 226.359067 407.665857 
L 254.459273 416.611772 
L 256.831721 414.550086 
L 259.19685 412.41467 
L 231.140262 403.605601 
L 228.750388 405.564896 
z
" clip-path="url(#pee1646edcc)" style="fill: #525210"/>
    <path d="M 493.968769 407.853861 
L 523.397799 416.739569 
L 525.493378 413.581258 
L 527.519888 412.524048 
L 498.143187 403.45601 
L 496.085109 404.566059 
z
" clip-path="url(#pee1646edcc)" style="fill: #e9e92f"/>
    <path d="M 263.913531 408.271159 
L 292.198899 416.601667 
L 294.538183 415.112311 
L 296.862568 413.060788 
L 268.609431 404.18426 
L 266.2651 406.267163 
z
" clip-path="url(#pee1646edcc)" style="fill: #924c71"/>
    <path d="M 301.493998 408.887317 
L 329.985797 417.868462 
L 332.272188 415.762969 
L 334.551861 413.481392 
L 306.104982 404.784106 
L 303.800281 406.70429 
z
" clip-path="url(#pee1646edcc)" style="fill: #562d43"/>
    <path d="M 339.100429 409.538407 
L 367.787832 418.472623 
L 370.03152 416.271466 
L 372.270227 414.243193 
L 343.625669 405.27823 
L 341.36411 407.183401 
z
" clip-path="url(#pee1646edcc)" style="fill: #f17eba"/>
    <path d="M 376.732096 410.137116 
L 405.616324 419.050598 
L 407.817385 416.950046 
L 410.01318 414.883088 
L 381.173489 406.010825 
L 378.955334 408.078941 
z
" clip-path="url(#pee1646edcc)" style="fill: #e0e02d"/>
    <path d="M 414.389305 410.798813 
L 443.470542 419.700432 
L 445.629055 417.57997 
L 447.78151 415.539083 
L 418.74971 406.235451 
L 416.570637 408.664391 
z
" clip-path="url(#pee1646edcc)" style="fill: #b15c89"/>
    <path d="M 183.945532 411.226165 
L 211.889073 420.164977 
L 214.314461 418.064412 
L 216.735515 416.007429 
L 188.832135 407.106292 
L 186.391754 409.166808 
z
" clip-path="url(#pee1646edcc)" style="fill: #2d6797"/>
    <path d="M 452.07663 411.143455 
L 481.357491 420.025128 
L 483.466657 418.207924 
L 485.577302 416.104021 
L 456.346397 407.133135 
L 454.237098 407.707743 
z
" clip-path="url(#pee1646edcc)" style="fill: #552c42"/>
    <path d="M 221.559383 411.860875 
L 249.698895 420.789676 
L 252.082274 418.71607 
L 254.459273 416.611772 
L 226.359067 407.665857 
L 223.938159 408.983671 
z
" clip-path="url(#pee1646edcc)" style="fill: #b3b324"/>
    <path d="M 489.785721 411.840586 
L 519.287726 419.923507 
L 521.329809 418.849399 
L 523.397799 416.739569 
L 493.968769 407.853861 
L 491.879556 409.850054 
z
" clip-path="url(#pee1646edcc)" style="fill: #4f293d"/>
    <path d="M 259.19685 412.41467 
L 287.535077 421.433048 
L 289.875253 419.34653 
L 292.198899 416.601667 
L 263.913531 408.271159 
L 261.554715 410.202032 
z
" clip-path="url(#pee1646edcc)" style="fill: #6c6c16"/>
    <path d="M 296.862568 413.060788 
L 325.396621 422.034931 
L 327.693984 419.961936 
L 329.985797 417.868462 
L 301.493998 408.887317 
L 299.18174 411.024003 
z
" clip-path="url(#pee1646edcc)" style="fill: #7e4261"/>
    <path d="M 334.551861 413.481392 
L 363.28226 421.616252 
L 365.538731 420.498205 
L 367.787832 418.472623 
L 339.100429 409.538407 
L 336.828225 411.431916 
z
" clip-path="url(#pee1646edcc)" style="fill: #595912"/>
    <path d="M 372.270227 414.243193 
L 401.200246 423.02878 
L 403.416416 420.094262 
L 405.616324 419.050598 
L 376.732096 410.137116 
L 374.503731 411.968547 
z
" clip-path="url(#pee1646edcc)" style="fill: #e0e02d"/>
    <path d="M 179.03764 415.396551 
L 207.021658 424.385857 
L 209.458597 422.285579 
L 211.889073 420.164977 
L 183.945532 411.226165 
L 181.494598 413.313882 
z
" clip-path="url(#pee1646edcc)" style="fill: #991113"/>
    <path d="M 410.01318 414.883088 
L 439.140953 423.777817 
L 441.349768 418.683554 
L 443.470542 419.700432 
L 414.389305 410.798813 
L 412.24017 408.077799 
z
" clip-path="url(#pee1646edcc)" style="fill: #da72a8"/>
    <path d="M 447.78151 415.539083 
L 477.109604 424.352059 
L 479.230151 422.459247 
L 481.357491 420.025128 
L 452.07663 411.143455 
L 449.932713 413.258846 
z
" clip-path="url(#pee1646edcc)" style="fill: #984f76"/>
    <path d="M 216.735515 416.007429 
L 244.913994 424.893463 
L 247.310865 422.901998 
L 249.698895 420.789676 
L 221.559383 411.860875 
L 219.149899 413.921381 
z
" clip-path="url(#pee1646edcc)" style="fill: #245379"/>
    <path d="M 485.577302 416.104021 
L 515.101753 425.049671 
L 517.180709 423.043202 
L 519.287726 419.923507 
L 489.785721 411.840586 
L 487.681965 414.054459 
z
" clip-path="url(#pee1646edcc)" style="fill: #8a486b"/>
    <path d="M 254.459273 416.611772 
L 282.8374 425.564972 
L 285.189665 423.53455 
L 287.535077 421.433048 
L 259.19685 412.41467 
L 256.831721 414.550086 
z
" clip-path="url(#pee1646edcc)" style="fill: #88881b"/>
    <path d="M 292.198899 416.601667 
L 320.78665 426.267223 
L 323.094363 424.154967 
L 325.396621 422.034931 
L 296.862568 413.060788 
L 294.538183 415.112311 
z
" clip-path="url(#pee1646edcc)" style="fill: #4f293d"/>
    <path d="M 329.985797 417.868462 
L 358.760689 426.884132 
L 361.025287 424.766576 
L 363.28226 421.616252 
L 334.551861 413.481392 
L 332.272188 415.762969 
z
" clip-path="url(#pee1646edcc)" style="fill: #a5567f"/>
    <path d="M 367.787832 418.472623 
L 396.761145 427.502891 
L 398.983039 425.296989 
L 401.200246 423.02878 
L 372.270227 414.243193 
L 370.03152 416.271466 
z
" clip-path="url(#pee1646edcc)" style="fill: #ef7db9"/>
    <path d="M 405.616324 419.050598 
L 434.789522 428.000489 
L 436.966135 426.014179 
L 439.140953 423.777817 
L 410.01318 414.883088 
L 407.817385 416.950046 
z
" clip-path="url(#pee1646edcc)" style="fill: #66354f"/>
    <path d="M 174.106391 419.56842 
L 202.130686 428.597297 
L 204.579027 426.489728 
L 207.021658 424.385857 
L 179.03764 415.396551 
L 176.5747 417.476139 
z
" clip-path="url(#pee1646edcc)" style="fill: #cf1819"/>
    <path d="M 443.470542 419.700432 
L 472.842519 428.684324 
L 474.97836 426.522959 
L 477.109604 424.352059 
L 447.78151 415.539083 
L 445.629055 417.57997 
z
" clip-path="url(#pee1646edcc)" style="fill: #d770a6"/>
    <path d="M 211.889073 420.164977 
L 240.111988 429.209342 
L 242.51746 427.112335 
L 244.913994 424.893463 
L 216.735515 416.007429 
L 214.314461 418.064412 
z
" clip-path="url(#pee1646edcc)" style="fill: #512a3f"/>
    <path d="M 481.357491 420.025128 
L 510.922997 429.296864 
L 513.012602 427.248345 
L 515.101753 425.049671 
L 485.577302 416.104021 
L 483.466657 418.207924 
z
" clip-path="url(#pee1646edcc)" style="fill: #502a3e"/>
    <path d="M 249.698895 420.789676 
L 278.119853 429.821787 
L 280.4815 427.698582 
L 282.8374 425.564972 
L 254.459273 416.611772 
L 252.082274 418.71607 
z
" clip-path="url(#pee1646edcc)" style="fill: #e2e22d"/>
    <path d="M 287.535077 421.433048 
L 316.15471 430.468348 
L 318.473493 428.375915 
L 320.78665 426.267223 
L 292.198899 416.601667 
L 289.875253 419.34653 
z
" clip-path="url(#pee1646edcc)" style="fill: #a5a521"/>
    <path d="M 325.396621 422.034931 
L 354.215492 431.074804 
L 356.490741 428.978261 
L 358.760689 426.884132 
L 329.985797 417.868462 
L 327.693984 419.961936 
z
" clip-path="url(#pee1646edcc)" style="fill: #98981e"/>
    <path d="M 363.28226 421.616252 
L 392.303672 431.503218 
L 394.535143 429.477332 
L 396.761145 427.502891 
L 367.787832 418.472623 
L 365.538731 420.498205 
z
" clip-path="url(#pee1646edcc)" style="fill: #502a3e"/>
    <path d="M 401.200246 423.02878 
L 430.422061 431.875094 
L 432.604886 430.232917 
L 434.789522 428.000489 
L 405.616324 419.050598 
L 403.416416 420.094262 
z
" clip-path="url(#pee1646edcc)" style="fill: #502a3e"/>
    <path d="M 169.151985 423.751701 
L 197.217107 432.832533 
L 199.676703 430.711133 
L 202.130686 428.597297 
L 174.106391 419.56842 
L 171.632135 421.659614 
z
" clip-path="url(#pee1646edcc)" style="fill: #5b5b12"/>
    <path d="M 439.140953 423.777817 
L 468.556624 432.992929 
L 470.758008 427.983271 
L 472.842519 428.684324 
L 443.470542 419.700432 
L 441.349768 418.683554 
z
" clip-path="url(#pee1646edcc)" style="fill: #d971a8"/>
    <path d="M 207.021658 424.385857 
L 235.284717 433.43571 
L 237.697474 431.188222 
L 240.111988 429.209342 
L 211.889073 420.164977 
L 209.458597 422.285579 
z
" clip-path="url(#pee1646edcc)" style="fill: #e77300"/>
    <path d="M 477.109604 424.352059 
L 506.724311 433.583488 
L 508.824003 431.513604 
L 510.922997 429.296864 
L 481.357491 420.025128 
L 479.230151 422.459247 
z
" clip-path="url(#pee1646edcc)" style="fill: #763e5c"/>
    <path d="M 244.913994 424.893463 
L 273.380368 434.096055 
L 275.75276 431.951642 
L 278.119853 429.821787 
L 249.698895 420.789676 
L 247.310865 422.901998 
z
" clip-path="url(#pee1646edcc)" style="fill: #525210"/>
    <path d="M 282.8374 425.564972 
L 311.500502 434.63822 
L 313.830881 432.595309 
L 316.15471 430.468348 
L 287.535077 421.433048 
L 285.189665 423.53455 
z
" clip-path="url(#pee1646edcc)" style="fill: #502a3e"/>
    <path d="M 320.78665 426.267223 
L 349.649422 435.356664 
L 351.935219 433.237925 
L 354.215492 431.074804 
L 325.396621 422.034931 
L 323.094363 424.154967 
z
" clip-path="url(#pee1646edcc)" style="fill: #ae5700"/>
    <path d="M 358.760689 426.884132 
L 387.823758 435.986225 
L 390.065875 433.866527 
L 392.303672 431.503218 
L 363.28226 421.616252 
L 361.025287 424.766576 
z
" clip-path="url(#pee1646edcc)" style="fill: #63336a"/>
    <path d="M 396.761145 427.502891 
L 426.025135 436.573782 
L 428.223634 434.443054 
L 430.422061 431.875094 
L 401.200246 423.02878 
L 398.983039 425.296989 
z
" clip-path="url(#pee1646edcc)" style="fill: #b6b624"/>
    <path d="M 434.789522 428.000489 
L 464.25716 436.978343 
L 466.406979 435.115225 
L 468.556624 432.992929 
L 439.140953 423.777817 
L 436.966135 426.014179 
z
" clip-path="url(#pee1646edcc)" style="fill: #6a3752"/>
    <path d="M 202.130686 428.597297 
L 230.435755 437.710543 
L 232.86335 435.580823 
L 235.284717 433.43571 
L 207.021658 424.385857 
L 204.579027 426.489728 
z
" clip-path="url(#pee1646edcc)" style="fill: #dbdb2c"/>
    <path d="M 472.842519 428.684324 
L 502.505971 437.89583 
L 504.61697 435.760371 
L 506.724311 433.583488 
L 477.109604 424.352059 
L 474.97836 426.522959 
z
" clip-path="url(#pee1646edcc)" style="fill: #814464"/>
    <path d="M 240.111988 429.209342 
L 268.615626 438.242148 
L 271.001692 436.208747 
L 273.380368 434.096055 
L 244.913994 424.893463 
L 242.51746 427.112335 
z
" clip-path="url(#pee1646edcc)" style="fill: #235176"/>
    <path d="M 278.119853 429.821787 
L 306.826725 438.993201 
L 309.160754 436.397544 
L 311.500502 434.63822 
L 282.8374 425.564972 
L 280.4815 427.698582 
z
" clip-path="url(#pee1646edcc)" style="fill: #dd73ab"/>
    <path d="M 316.15471 430.468348 
L 345.061755 439.60158 
L 347.357751 437.38398 
L 349.649422 435.356664 
L 320.78665 426.267223 
L 318.473493 428.375915 
z
" clip-path="url(#pee1646edcc)" style="fill: #d46fa4"/>
    <path d="M 354.215492 431.074804 
L 383.323856 440.205517 
L 385.576563 438.039494 
L 387.823758 435.986225 
L 358.760689 426.884132 
L 356.490741 428.978261 
z
" clip-path="url(#pee1646edcc)" style="fill: #d0d02a"/>
    <path d="M 392.303672 431.503218 
L 421.612433 440.881668 
L 423.823203 438.541097 
L 426.025135 436.573782 
L 396.761145 427.502891 
L 394.535143 429.477332 
z
" clip-path="url(#pee1646edcc)" style="fill: #984f75"/>
    <path d="M 430.422061 431.875094 
L 459.928944 441.451485 
L 462.092928 439.358035 
L 464.25716 436.978343 
L 434.789522 428.000489 
L 432.604886 430.232917 
z
" clip-path="url(#pee1646edcc)" style="fill: #512a3f"/>
    <path d="M 197.217107 432.832533 
L 225.563812 441.993953 
L 228.002791 439.855265 
L 230.435755 437.710543 
L 202.130686 428.597297 
L 199.676703 430.711133 
z
" clip-path="url(#pee1646edcc)" style="fill: #cd1719"/>
    <path d="M 468.556624 432.992929 
L 498.270122 442.144495 
L 500.404551 439.472509 
L 502.505971 437.89583 
L 472.842519 428.684324 
L 470.758008 427.983271 
z
" clip-path="url(#pee1646edcc)" style="fill: #e5e52e"/>
    <path d="M 235.284717 433.43571 
L 263.833537 442.63538 
L 266.228586 440.492114 
L 268.615626 438.242148 
L 240.111988 429.209342 
L 237.697474 431.188222 
z
" clip-path="url(#pee1646edcc)" style="fill: #606013"/>
    <path d="M 273.380368 434.096055 
L 302.129809 443.27064 
L 304.48086 441.118803 
L 306.826725 438.993201 
L 278.119853 429.821787 
L 275.75276 431.951642 
z
" clip-path="url(#pee1646edcc)" style="fill: #c8c828"/>
    <path d="M 311.500502 434.63822 
L 340.452457 443.849064 
L 342.760018 441.755001 
L 345.061755 439.60158 
L 316.15471 430.468348 
L 313.830881 432.595309 
z
" clip-path="url(#pee1646edcc)" style="fill: #525210"/>
    <path d="M 349.649422 435.356664 
L 378.803012 444.19053 
L 381.066001 442.306585 
L 383.323856 440.205517 
L 354.215492 431.074804 
L 351.935219 433.237925 
z
" clip-path="url(#pee1646edcc)" style="fill: #eeee30"/>
    <path d="M 387.823758 435.986225 
L 417.179456 445.172337 
L 419.399352 442.935505 
L 421.612433 440.881668 
L 392.303672 431.503218 
L 390.065875 433.866527 
z
" clip-path="url(#pee1646edcc)" style="fill: #d06da1"/>
    <path d="M 426.025135 436.573782 
L 455.582913 445.817994 
L 457.759288 443.583222 
L 459.928944 441.451485 
L 430.422061 431.875094 
L 428.223634 434.443054 
z
" clip-path="url(#pee1646edcc)" style="fill: #a95883"/>
    <path d="M 464.25716 436.978343 
L 494.0138 446.436419 
L 496.143642 444.320535 
L 498.270122 442.144495 
L 468.556624 432.992929 
L 466.406979 435.115225 
z
" clip-path="url(#pee1646edcc)" style="fill: #4f293d"/>
    <path d="M 230.435755 437.710543 
L 259.026268 446.922866 
L 261.432642 444.773281 
L 263.833537 442.63538 
L 235.284717 433.43571 
L 232.86335 435.580823 
z
" clip-path="url(#pee1646edcc)" style="fill: #235074"/>
    <path d="M 268.615626 438.242148 
L 297.410252 447.529838 
L 299.770066 445.219089 
L 302.129809 443.27064 
L 273.380368 434.096055 
L 271.001692 436.208747 
z
" clip-path="url(#pee1646edcc)" style="fill: #c26596"/>
    <path d="M 306.826725 438.993201 
L 335.822263 448.216982 
L 338.140145 446.04225 
L 340.452457 443.849064 
L 311.500502 434.63822 
L 309.160754 436.397544 
z
" clip-path="url(#pee1646edcc)" style="fill: #bf5f00"/>
    <path d="M 345.061755 439.60158 
L 374.260435 448.83585 
L 376.534281 446.577292 
L 378.803012 444.19053 
L 349.649422 435.356664 
L 347.357751 437.38398 
z
" clip-path="url(#pee1646edcc)" style="fill: #dcdc2c"/>
    <path d="M 383.323856 440.205517 
L 412.726392 449.390245 
L 414.956428 447.173231 
L 417.179456 445.172337 
L 387.823758 435.986225 
L 385.576563 438.039494 
z
" clip-path="url(#pee1646edcc)" style="fill: #cf6ca0"/>
    <path d="M 421.612433 440.881668 
L 451.220734 449.941688 
L 453.405013 447.840854 
L 455.582913 445.817994 
L 426.025135 436.573782 
L 423.823203 438.541097 
z
" clip-path="url(#pee1646edcc)" style="fill: #e377b0"/>
    <path d="M 459.928944 441.451485 
L 489.736731 450.780011 
L 491.877278 448.626072 
L 494.0138 446.436419 
L 464.25716 436.978343 
L 462.092928 439.358035 
z
" clip-path="url(#pee1646edcc)" style="fill: #8a486a"/>
    <path d="M 225.563812 441.993953 
L 254.196943 451.253115 
L 256.614467 449.086739 
L 259.026268 446.922866 
L 230.435755 437.710543 
L 228.002791 439.855265 
z
" clip-path="url(#pee1646edcc)" style="fill: #2a5f8b"/>
    <path d="M 263.833537 442.63538 
L 292.669929 451.89865 
L 295.043174 449.730858 
L 297.410252 447.529838 
L 268.615626 438.242148 
L 266.228586 440.492114 
z
" clip-path="url(#pee1646edcc)" style="fill: #24547a"/>
    <path d="M 302.129809 443.27064 
L 331.169652 452.519643 
L 333.498694 450.365781 
L 335.822263 448.216982 
L 306.826725 438.993201 
L 304.48086 441.118803 
z
" clip-path="url(#pee1646edcc)" style="fill: #d06ca1"/>
    <path d="M 340.452457 443.849064 
L 369.696792 453.176561 
L 371.981295 451.010754 
L 374.260435 448.83585 
L 345.061755 439.60158 
L 342.760018 441.755001 
z
" clip-path="url(#pee1646edcc)" style="fill: #532b40"/>
    <path d="M 378.803012 444.19053 
L 408.250763 453.836888 
L 410.490783 451.665053 
L 412.726392 449.390245 
L 383.323856 440.205517 
L 381.066001 442.306585 
z
" clip-path="url(#pee1646edcc)" style="fill: #502a3e"/>
    <path d="M 417.179456 445.172337 
L 446.832936 454.405195 
L 449.02779 452.275365 
L 451.220734 449.941688 
L 421.612433 440.881668 
L 419.399352 442.935505 
z
" clip-path="url(#pee1646edcc)" style="fill: #db72a9"/>
    <path d="M 455.582913 445.817994 
L 485.440125 455.119477 
L 487.590953 452.947193 
L 489.736731 450.780011 
L 459.928944 441.451485 
L 457.759288 443.583222 
z
" clip-path="url(#pee1646edcc)" style="fill: #9c5178"/>
    <path d="M 259.026268 446.922866 
L 287.906527 456.241005 
L 290.29103 454.067273 
L 292.669929 451.89865 
L 263.833537 442.63538 
L 261.432642 444.773281 
z
" clip-path="url(#pee1646edcc)" style="fill: #502a3e"/>
    <path d="M 297.410252 447.529838 
L 326.49535 456.871227 
L 328.834976 454.663671 
L 331.169652 452.519643 
L 302.129809 443.27064 
L 299.770066 445.219089 
z
" clip-path="url(#pee1646edcc)" style="fill: #adad23"/>
    <path d="M 335.822263 448.216982 
L 365.111652 457.53622 
L 367.406911 455.348966 
L 369.696792 453.176561 
L 340.452457 443.849064 
L 338.140145 446.04225 
z
" clip-path="url(#pee1646edcc)" style="fill: #285b84"/>
    <path d="M 374.260435 448.83585 
L 403.755021 458.173077 
L 406.005517 456.006542 
L 408.250763 453.836888 
L 378.803012 444.19053 
L 376.534281 446.577292 
z
" clip-path="url(#pee1646edcc)" style="fill: #a1a120"/>
    <path d="M 412.726392 449.390245 
L 442.425951 458.797351 
L 444.63143 456.640561 
L 446.832936 454.405195 
L 417.179456 445.172337 
L 414.956428 447.173231 
z
" clip-path="url(#pee1646edcc)" style="fill: #4f293d"/>
    <path d="M 451.220734 449.941688 
L 481.125187 459.390505 
L 483.284775 457.27233 
L 485.440125 455.119477 
L 455.582913 445.817994 
L 453.405013 447.840854 
z
" clip-path="url(#pee1646edcc)" style="fill: #525210"/>
    <path d="M 254.196943 451.253115 
L 283.120626 460.60387 
L 285.516399 458.419865 
L 287.906527 456.241005 
L 259.026268 446.922866 
L 256.614467 449.086739 
z
" clip-path="url(#pee1646edcc)" style="fill: #a6a621"/>
    <path d="M 292.669929 451.89865 
L 321.799056 461.250834 
L 324.149886 459.050361 
L 326.49535 456.871227 
L 297.410252 447.529838 
L 295.043174 449.730858 
z
" clip-path="url(#pee1646edcc)" style="fill: #d86c00"/>
    <path d="M 331.169652 452.519643 
L 360.504724 461.869245 
L 362.810962 459.719641 
L 365.111652 457.53622 
L 335.822263 448.216982 
L 333.498694 450.365781 
z
" clip-path="url(#pee1646edcc)" style="fill: #525210"/>
    <path d="M 369.696792 453.176561 
L 399.238292 462.471038 
L 401.499068 460.368755 
L 403.755021 458.173077 
L 374.260435 448.83585 
L 371.981295 451.010754 
z
" clip-path="url(#pee1646edcc)" style="fill: #84841a"/>
    <path d="M 408.250763 453.836888 
L 437.998601 463.178743 
L 440.214423 461.020052 
L 442.425951 458.797351 
L 412.726392 449.390245 
L 410.490783 451.665053 
z
" clip-path="url(#pee1646edcc)" style="fill: #a9a922"/>
    <path d="M 446.832936 454.405195 
L 476.78584 463.864678 
L 478.957177 461.665949 
L 481.125187 459.390505 
L 451.220734 449.941688 
L 449.02779 452.275365 
z
" clip-path="url(#pee1646edcc)" style="fill: #522a58"/>
    <path d="M 287.906527 456.241005 
L 317.08037 465.63619 
L 319.442567 463.446527 
L 321.799056 461.250834 
L 292.669929 451.89865 
L 290.29103 454.067273 
z
" clip-path="url(#pee1646edcc)" style="fill: #af1415"/>
    <path d="M 326.49535 456.871227 
L 355.87596 466.237875 
L 358.192216 463.793679 
L 360.504724 461.869245 
L 331.169652 452.519643 
L 328.834976 454.663671 
z
" clip-path="url(#pee1646edcc)" style="fill: #3170a3"/>
    <path d="M 365.111652 457.53622 
L 394.69949 466.917227 
L 396.97131 464.74685 
L 399.238292 462.471038 
L 369.696792 453.176561 
L 367.406911 455.348966 
z
" clip-path="url(#pee1646edcc)" style="fill: #306d9f"/>
    <path d="M 403.755021 458.173077 
L 433.550018 467.601907 
L 435.776659 465.409757 
L 437.998601 463.178743 
L 408.250763 453.836888 
L 406.005517 456.006542 
z
" clip-path="url(#pee1646edcc)" style="fill: #502a3e"/>
    <path d="M 442.425951 458.797351 
L 472.428754 468.227305 
L 474.609536 466.060401 
L 476.78584 463.864678 
L 446.832936 454.405195 
L 444.63143 456.640561 
z
" clip-path="url(#pee1646edcc)" style="fill: #80801a"/>
    <path d="M 283.120626 460.60387 
L 312.339346 470.047363 
L 314.712705 467.842283 
L 317.08037 465.63619 
L 287.906527 456.241005 
L 285.516399 458.419865 
z
" clip-path="url(#pee1646edcc)" style="fill: #cf1819"/>
    <path d="M 321.799056 461.250834 
L 351.22555 470.705468 
L 353.553472 468.463026 
L 355.87596 466.237875 
L 326.49535 456.871227 
L 324.149886 459.050361 
z
" clip-path="url(#pee1646edcc)" style="fill: #efef30"/>
    <path d="M 360.504724 461.869245 
L 390.1393 471.361557 
L 392.422018 469.15727 
L 394.69949 466.917227 
L 365.111652 457.53622 
L 362.810962 459.719641 
z
" clip-path="url(#pee1646edcc)" style="fill: #12293b"/>
    <path d="M 399.238292 462.471038 
L 429.080957 471.991333 
L 431.31801 469.805574 
L 433.550018 467.601907 
L 403.755021 458.173077 
L 401.499068 460.368755 
z
" clip-path="url(#pee1646edcc)" style="fill: #525210"/>
    <path d="M 437.998601 463.178743 
L 468.049533 472.681242 
L 470.241284 470.474535 
L 472.428754 468.227305 
L 442.425951 458.797351 
L 440.214423 461.020052 
z
" clip-path="url(#pee1646edcc)" style="fill: #6c3854"/>
    <path d="M 317.08037 465.63619 
L 346.552788 475.137762 
L 348.891924 472.914844 
L 351.22555 470.705468 
L 321.799056 461.250834 
L 319.442567 463.446527 
z
" clip-path="url(#pee1646edcc)" style="fill: #2a618e"/>
    <path d="M 355.87596 466.237875 
L 385.557599 475.762306 
L 387.851134 473.576927 
L 390.1393 471.361557 
L 360.504724 461.869245 
L 358.192216 463.793679 
z
" clip-path="url(#pee1646edcc)" style="fill: #5e5e13"/>
    <path d="M 394.69949 466.917227 
L 424.590189 476.437542 
L 426.839556 474.089664 
L 429.080957 471.991333 
L 399.238292 462.471038 
L 396.97131 464.74685 
z
" clip-path="url(#pee1646edcc)" style="fill: #e879b4"/>
    <path d="M 433.550018 467.601907 
L 463.650023 477.128098 
L 465.852604 474.890854 
L 468.049533 472.681242 
L 437.998601 463.178743 
L 435.776659 465.409757 
z
" clip-path="url(#pee1646edcc)" style="fill: #bcbc26"/>
    <path d="M 312.339346 470.047363 
L 341.85772 479.589695 
L 344.208039 477.359193 
L 346.552788 475.137762 
L 317.08037 465.63619 
L 314.712705 467.842283 
z
" clip-path="url(#pee1646edcc)" style="fill: #3274a9"/>
    <path d="M 351.22555 470.705468 
L 380.953871 480.255368 
L 383.258433 478.026958 
L 385.557599 475.762306 
L 355.87596 466.237875 
L 353.553472 468.463026 
z
" clip-path="url(#pee1646edcc)" style="fill: #235075"/>
    <path d="M 390.1393 471.361557 
L 420.077815 480.923957 
L 422.336655 478.681244 
L 424.590189 476.437542 
L 394.69949 466.917227 
L 392.422018 469.15727 
z
" clip-path="url(#pee1646edcc)" style="fill: #af5b87"/>
    <path d="M 429.080957 471.991333 
L 459.23058 481.534899 
L 461.442623 479.347112 
L 463.650023 477.128098 
L 433.550018 467.601907 
L 431.31801 469.805574 
z
" clip-path="url(#pee1646edcc)" style="fill: #525210"/>
    <path d="M 346.552788 475.137762 
L 376.328201 484.730195 
L 378.643801 482.489383 
L 380.953871 480.255368 
L 351.22555 470.705468 
L 348.891924 472.914844 
z
" clip-path="url(#pee1646edcc)" style="fill: #e879b3"/>
    <path d="M 385.557599 475.762306 
L 415.544734 485.332466 
L 417.814019 483.123449 
L 420.077815 480.923957 
L 390.1393 471.361557 
L 387.851134 473.576927 
z
" clip-path="url(#pee1646edcc)" style="fill: #a1a120"/>
    <path d="M 424.590189 476.437542 
L 454.788135 486.067948 
L 457.012002 483.798725 
L 459.23058 481.534899 
L 429.080957 471.991333 
L 426.839556 474.089664 
z
" clip-path="url(#pee1646edcc)" style="fill: #cd6b9f"/>
    <path d="M 341.85772 479.589695 
L 371.680346 489.233919 
L 374.007055 486.974309 
L 376.328201 484.730195 
L 346.552788 475.137762 
L 344.208039 477.359193 
z
" clip-path="url(#pee1646edcc)" style="fill: #306ea1"/>
    <path d="M 380.953871 480.255368 
L 410.988719 489.901949 
L 413.269136 487.652555 
L 415.544734 485.332466 
L 385.557599 475.762306 
L 383.258433 478.026958 
z
" clip-path="url(#pee1646edcc)" style="fill: #9b5178"/>
    <path d="M 420.077815 480.923957 
L 450.325218 490.574198 
L 452.560083 488.272899 
L 454.788135 486.067948 
L 424.590189 476.437542 
L 422.336655 478.681244 
z
" clip-path="url(#pee1646edcc)" style="fill: #f37900"/>
    <path d="M 376.328201 484.730195 
L 406.411353 494.427574 
L 408.702792 492.160985 
L 410.988719 489.901949 
L 380.953871 480.255368 
L 378.643801 482.489383 
z
" clip-path="url(#pee1646edcc)" style="fill: #86861b"/>
    <path d="M 415.544734 485.332466 
L 445.840885 495.098575 
L 448.08571 492.836034 
L 450.325218 490.574198 
L 420.077815 480.923957 
L 417.814019 483.123449 
z
" clip-path="url(#pee1646edcc)" style="fill: #525210"/>
    <path d="M 371.680346 489.233919 
L 401.811924 498.975012 
L 404.1144 496.699617 
L 406.411353 494.427574 
L 376.328201 484.730195 
L 374.007055 486.974309 
z
" clip-path="url(#pee1646edcc)" style="fill: #971113"/>
    <path d="M 410.988719 489.901949 
L 441.334789 499.654259 
L 443.590565 497.372491 
L 445.840885 495.098575 
L 415.544734 485.332466 
L 413.269136 487.652555 
z
" clip-path="url(#pee1646edcc)" style="fill: #a7a721"/>
    <path d="M 406.411353 494.427574 
L 436.807061 504.221269 
L 439.073651 501.9356 
L 441.334789 499.654259 
L 410.988719 489.901949 
L 408.702792 492.160985 
z
" clip-path="url(#pee1646edcc)" style="fill: #204869"/>
    <path d="M 401.811924 498.975012 
L 432.257342 508.813985 
L 434.53491 506.518413 
L 436.807061 504.221269 
L 406.411353 494.427574 
L 404.1144 496.699617 
z
" clip-path="url(#pee1646edcc)" style="fill: #9a1213"/>
   </g>
   <g id="text_4">
    <!-- genus -->
    <g transform="translate(349.115637 20.88) scale(0.12 -0.12)">
     <use xlink:href="#DejaVuSans-67"/>
     <use xlink:href="#DejaVuSans-65" x="63.476562"/>
     <use xlink:href="#DejaVuSans-6e" x="125"/>
     <use xlink:href="#DejaVuSans-75" x="188.378906"/>
     <use xlink:href="#DejaVuSans-73" x="251.757812"/>
    </g>
   </g>
  </g>
  <g id="axes_2">
   <g id="patch_6">
    <path d="M 675.6139 565.2 
L 702.5299 565.2 
L 702.5299 26.88 
L 675.6139 26.88 
z
" style="fill: #ffffff"/>
   </g>
   <g id="QuadMesh_1">
    <path d="M 675.6139 565.2 
L 702.5299 565.2 
L 702.5299 497.91 
L 675.6139 497.91 
L 675.6139 565.2 
" clip-path="url(#pf32e31d08d)" style="fill: #e41a1c"/>
    <path d="M 675.6139 497.91 
L 702.5299 497.91 
L 702.5299 430.62 
L 675.6139 430.62 
L 675.6139 497.91 
" clip-path="url(#pf32e31d08d)" style="fill: #377eb8"/>
    <path d="M 675.6139 430.62 
L 702.5299 430.62 
L 702.5299 363.33 
L 675.6139 363.33 
L 675.6139 430.62 
" clip-path="url(#pf32e31d08d)" style="fill: #4daf4a"/>
    <path d="M 675.6139 363.33 
L 702.5299 363.33 
L 702.5299 296.04 
L 675.6139 296.04 
L 675.6139 363.33 
" clip-path="url(#pf32e31d08d)" style="fill: #984ea3"/>
    <path d="M 675.6139 296.04 
L 702.5299 296.04 
L 702.5299 228.75 
L 675.6139 228.75 
L 675.6139 296.04 
" clip-path="url(#pf32e31d08d)" style="fill: #ff7f00"/>
    <path d="M 675.6139 228.75 
L 702.5299 228.75 
L 702.5299 161.46 
L 675.6139 161.46 
L 675.6139 228.75 
" clip-path="url(#pf32e31d08d)" style="fill: #ffff33"/>
    <path d="M 675.6139 161.46 
L 702.5299 161.46 
L 702.5299 94.17 
L 675.6139 94.17 
L 675.6139 161.46 
" clip-path="url(#pf32e31d08d)" style="fill: #a65628"/>
    <path d="M 675.6139 94.17 
L 702.5299 94.17 
L 702.5299 26.88 
L 675.6139 26.88 
L 675.6139 94.17 
" clip-path="url(#pf32e31d08d)" style="fill: #f781bf"/>
   </g>
   <g id="matplotlib.axis_1"/>
   <g id="matplotlib.axis_2">
    <g id="ytick_1">
     <g id="line2d_4">
      <defs>
       <path id="m74d2c7a6aa" d="M 0 0 
L 3.5 0 
" style="stroke: #000000; stroke-width: 0.8"/>
      </defs>
      <g>
       <use xlink:href="#m74d2c7a6aa" x="702.5299" y="531.555" style="stroke: #000000; stroke-width: 0.8"/>
      </g>
     </g>
     <g id="text_5">
      <!-- Not seen in this sample -->
      <g transform="translate(709.5299 535.354219) scale(0.1 -0.1)">
       <use xlink:href="#DejaVuSans-4e"/>
       <use xlink:href="#DejaVuSans-6f" x="74.804688"/>
       <use xlink:href="#DejaVuSans-74" x="135.986328"/>
       <use xlink:href="#DejaVuSans-20" x="175.195312"/>
       <use xlink:href="#DejaVuSans-73" x="206.982422"/>
       <use xlink:href="#DejaVuSans-65" x="259.082031"/>
       <use xlink:href="#DejaVuSans-65" x="320.605469"/>
       <use xlink:href="#DejaVuSans-6e" x="382.128906"/>
       <use xlink:href="#DejaVuSans-20" x="445.507812"/>
       <use xlink:href="#DejaVuSans-69" x="477.294922"/>
       <use xlink:href="#DejaVuSans-6e" x="505.078125"/>
       <use xlink:href="#DejaVuSans-20" x="568.457031"/>
       <use xlink:href="#DejaVuSans-74" x="600.244141"/>
       <use xlink:href="#DejaVuSans-68" x="639.453125"/>
       <use xlink:href="#DejaVuSans-69" x="702.832031"/>
       <use xlink:href="#DejaVuSans-73" x="730.615234"/>
       <use xlink:href="#DejaVuSans-20" x="782.714844"/>
       <use xlink:href="#DejaVuSans-73" x="814.501953"/>
       <use xlink:href="#DejaVuSans-61" x="866.601562"/>
       <use xlink:href="#DejaVuSans-6d" x="927.880859"/>
       <use xlink:href="#DejaVuSans-70" x="1025.292969"/>
       <use xlink:href="#DejaVuSans-6c" x="1088.769531"/>
       <use xlink:href="#DejaVuSans-65" x="1116.552734"/>
      </g>
     </g>
    </g>
    <g id="ytick_2">
     <g id="line2d_5">
      <g>
       <use xlink:href="#m74d2c7a6aa" x="702.5299" y="464.265" style="stroke: #000000; stroke-width: 0.8"/>
      </g>
     </g>
     <g id="text_6">
      <!-- MGI Only -->
      <g transform="translate(709.5299 468.064219) scale(0.1 -0.1)">
       <defs>
        <path id="DejaVuSans-4f" d="M 2522 4238 
Q 1834 4238 1429 3725 
Q 1025 3213 1025 2328 
Q 1025 1447 1429 934 
Q 1834 422 2522 422 
Q 3209 422 3611 934 
Q 4013 1447 4013 2328 
Q 4013 3213 3611 3725 
Q 3209 4238 2522 4238 
z
M 2522 4750 
Q 3503 4750 4090 4092 
Q 4678 3434 4678 2328 
Q 4678 1225 4090 567 
Q 3503 -91 2522 -91 
Q 1538 -91 948 565 
Q 359 1222 359 2328 
Q 359 3434 948 4092 
Q 1538 4750 2522 4750 
z
" transform="scale(0.015625)"/>
        <path id="DejaVuSans-79" d="M 2059 -325 
Q 1816 -950 1584 -1140 
Q 1353 -1331 966 -1331 
L 506 -1331 
L 506 -850 
L 844 -850 
Q 1081 -850 1212 -737 
Q 1344 -625 1503 -206 
L 1606 56 
L 191 3500 
L 800 3500 
L 1894 763 
L 2988 3500 
L 3597 3500 
L 2059 -325 
z
" transform="scale(0.015625)"/>
       </defs>
       <use xlink:href="#DejaVuSans-4d"/>
       <use xlink:href="#DejaVuSans-47" x="86.279297"/>
       <use xlink:href="#DejaVuSans-49" x="163.769531"/>
       <use xlink:href="#DejaVuSans-20" x="193.261719"/>
       <use xlink:href="#DejaVuSans-4f" x="225.048828"/>
       <use xlink:href="#DejaVuSans-6e" x="303.759766"/>
       <use xlink:href="#DejaVuSans-6c" x="367.138672"/>
       <use xlink:href="#DejaVuSans-79" x="394.921875"/>
      </g>
     </g>
    </g>
    <g id="ytick_3">
     <g id="line2d_6">
      <g>
       <use xlink:href="#m74d2c7a6aa" x="702.5299" y="396.975" style="stroke: #000000; stroke-width: 0.8"/>
      </g>
     </g>
     <g id="text_7">
      <!-- MinION Only -->
      <g transform="translate(709.5299 400.774219) scale(0.1 -0.1)">
       <use xlink:href="#DejaVuSans-4d"/>
       <use xlink:href="#DejaVuSans-69" x="86.279297"/>
       <use xlink:href="#DejaVuSans-6e" x="114.0625"/>
       <use xlink:href="#DejaVuSans-49" x="177.441406"/>
       <use xlink:href="#DejaVuSans-4f" x="206.933594"/>
       <use xlink:href="#DejaVuSans-4e" x="285.644531"/>
       <use xlink:href="#DejaVuSans-20" x="360.449219"/>
       <use xlink:href="#DejaVuSans-4f" x="392.236328"/>
       <use xlink:href="#DejaVuSans-6e" x="470.947266"/>
       <use xlink:href="#DejaVuSans-6c" x="534.326172"/>
       <use xlink:href="#DejaVuSans-79" x="562.109375"/>
      </g>
     </g>
    </g>
    <g id="ytick_4">
     <g id="line2d_7">
      <g>
       <use xlink:href="#m74d2c7a6aa" x="702.5299" y="329.685" style="stroke: #000000; stroke-width: 0.8"/>
      </g>
     </g>
     <g id="text_8">
      <!-- MGI + MinION -->
      <g transform="translate(709.5299 333.484219) scale(0.1 -0.1)">
       <defs>
        <path id="DejaVuSans-2b" d="M 2944 4013 
L 2944 2272 
L 4684 2272 
L 4684 1741 
L 2944 1741 
L 2944 0 
L 2419 0 
L 2419 1741 
L 678 1741 
L 678 2272 
L 2419 2272 
L 2419 4013 
L 2944 4013 
z
" transform="scale(0.015625)"/>
       </defs>
       <use xlink:href="#DejaVuSans-4d"/>
       <use xlink:href="#DejaVuSans-47" x="86.279297"/>
       <use xlink:href="#DejaVuSans-49" x="163.769531"/>
       <use xlink:href="#DejaVuSans-20" x="193.261719"/>
       <use xlink:href="#DejaVuSans-2b" x="225.048828"/>
       <use xlink:href="#DejaVuSans-20" x="308.837891"/>
       <use xlink:href="#DejaVuSans-4d" x="340.625"/>
       <use xlink:href="#DejaVuSans-69" x="426.904297"/>
       <use xlink:href="#DejaVuSans-6e" x="454.6875"/>
       <use xlink:href="#DejaVuSans-49" x="518.066406"/>
       <use xlink:href="#DejaVuSans-4f" x="547.558594"/>
       <use xlink:href="#DejaVuSans-4e" x="626.269531"/>
      </g>
     </g>
    </g>
    <g id="ytick_5">
     <g id="line2d_8">
      <g>
       <use xlink:href="#m74d2c7a6aa" x="702.5299" y="262.395" style="stroke: #000000; stroke-width: 0.8"/>
      </g>
     </g>
     <g id="text_9">
      <!-- Promethion Only -->
      <g transform="translate(709.5299 266.194219) scale(0.1 -0.1)">
       <defs>
        <path id="DejaVuSans-50" d="M 1259 4147 
L 1259 2394 
L 2053 2394 
Q 2494 2394 2734 2622 
Q 2975 2850 2975 3272 
Q 2975 3691 2734 3919 
Q 2494 4147 2053 4147 
L 1259 4147 
z
M 628 4666 
L 2053 4666 
Q 2838 4666 3239 4311 
Q 3641 3956 3641 3272 
Q 3641 2581 3239 2228 
Q 2838 1875 2053 1875 
L 1259 1875 
L 1259 0 
L 628 0 
L 628 4666 
z
" transform="scale(0.015625)"/>
       </defs>
       <use xlink:href="#DejaVuSans-50"/>
       <use xlink:href="#DejaVuSans-72" x="58.552734"/>
       <use xlink:href="#DejaVuSans-6f" x="97.416016"/>
       <use xlink:href="#DejaVuSans-6d" x="158.597656"/>
       <use xlink:href="#DejaVuSans-65" x="256.009766"/>
       <use xlink:href="#DejaVuSans-74" x="317.533203"/>
       <use xlink:href="#DejaVuSans-68" x="356.742188"/>
       <use xlink:href="#DejaVuSans-69" x="420.121094"/>
       <use xlink:href="#DejaVuSans-6f" x="447.904297"/>
       <use xlink:href="#DejaVuSans-6e" x="509.085938"/>
       <use xlink:href="#DejaVuSans-20" x="572.464844"/>
       <use xlink:href="#DejaVuSans-4f" x="604.251953"/>
       <use xlink:href="#DejaVuSans-6e" x="682.962891"/>
       <use xlink:href="#DejaVuSans-6c" x="746.341797"/>
       <use xlink:href="#DejaVuSans-79" x="774.125"/>
      </g>
     </g>
    </g>
    <g id="ytick_6">
     <g id="line2d_9">
      <g>
       <use xlink:href="#m74d2c7a6aa" x="702.5299" y="195.105" style="stroke: #000000; stroke-width: 0.8"/>
      </g>
     </g>
     <g id="text_10">
      <!-- MGI + Promethion -->
      <g transform="translate(709.5299 198.904219) scale(0.1 -0.1)">
       <use xlink:href="#DejaVuSans-4d"/>
       <use xlink:href="#DejaVuSans-47" x="86.279297"/>
       <use xlink:href="#DejaVuSans-49" x="163.769531"/>
       <use xlink:href="#DejaVuSans-20" x="193.261719"/>
       <use xlink:href="#DejaVuSans-2b" x="225.048828"/>
       <use xlink:href="#DejaVuSans-20" x="308.837891"/>
       <use xlink:href="#DejaVuSans-50" x="340.625"/>
       <use xlink:href="#DejaVuSans-72" x="399.177734"/>
       <use xlink:href="#DejaVuSans-6f" x="438.041016"/>
       <use xlink:href="#DejaVuSans-6d" x="499.222656"/>
       <use xlink:href="#DejaVuSans-65" x="596.634766"/>
       <use xlink:href="#DejaVuSans-74" x="658.158203"/>
       <use xlink:href="#DejaVuSans-68" x="697.367188"/>
       <use xlink:href="#DejaVuSans-69" x="760.746094"/>
       <use xlink:href="#DejaVuSans-6f" x="788.529297"/>
       <use xlink:href="#DejaVuSans-6e" x="849.710938"/>
      </g>
     </g>
    </g>
    <g id="ytick_7">
     <g id="line2d_10">
      <g>
       <use xlink:href="#m74d2c7a6aa" x="702.5299" y="127.815" style="stroke: #000000; stroke-width: 0.8"/>
      </g>
     </g>
     <g id="text_11">
      <!-- MinION + Promethion -->
      <g transform="translate(709.5299 131.614219) scale(0.1 -0.1)">
       <use xlink:href="#DejaVuSans-4d"/>
       <use xlink:href="#DejaVuSans-69" x="86.279297"/>
       <use xlink:href="#DejaVuSans-6e" x="114.0625"/>
       <use xlink:href="#DejaVuSans-49" x="177.441406"/>
       <use xlink:href="#DejaVuSans-4f" x="206.933594"/>
       <use xlink:href="#DejaVuSans-4e" x="285.644531"/>
       <use xlink:href="#DejaVuSans-20" x="360.449219"/>
       <use xlink:href="#DejaVuSans-2b" x="392.236328"/>
       <use xlink:href="#DejaVuSans-20" x="476.025391"/>
       <use xlink:href="#DejaVuSans-50" x="507.8125"/>
       <use xlink:href="#DejaVuSans-72" x="566.365234"/>
       <use xlink:href="#DejaVuSans-6f" x="605.228516"/>
       <use xlink:href="#DejaVuSans-6d" x="666.410156"/>
       <use xlink:href="#DejaVuSans-65" x="763.822266"/>
       <use xlink:href="#DejaVuSans-74" x="825.345703"/>
       <use xlink:href="#DejaVuSans-68" x="864.554688"/>
       <use xlink:href="#DejaVuSans-69" x="927.933594"/>
       <use xlink:href="#DejaVuSans-6f" x="955.716797"/>
       <use xlink:href="#DejaVuSans-6e" x="1016.898438"/>
      </g>
     </g>
    </g>
    <g id="ytick_8">
     <g id="line2d_11">
      <g>
       <use xlink:href="#m74d2c7a6aa" x="702.5299" y="60.525" style="stroke: #000000; stroke-width: 0.8"/>
      </g>
     </g>
     <g id="text_12">
      <!-- All -->
      <g transform="translate(709.5299 64.324219) scale(0.1 -0.1)">
       <defs>
        <path id="DejaVuSans-41" d="M 2188 4044 
L 1331 1722 
L 3047 1722 
L 2188 4044 
z
M 1831 4666 
L 2547 4666 
L 4325 0 
L 3669 0 
L 3244 1197 
L 1141 1197 
L 716 0 
L 50 0 
L 1831 4666 
z
" transform="scale(0.015625)"/>
       </defs>
       <use xlink:href="#DejaVuSans-41"/>
       <use xlink:href="#DejaVuSans-6c" x="68.408203"/>
       <use xlink:href="#DejaVuSans-6c" x="96.191406"/>
      </g>
     </g>
    </g>
    <g id="text_13">
     <!-- How the taxa were detected -->
     <g transform="translate(838.933025 366.990781) rotate(-90) scale(0.1 -0.1)">
      <defs>
       <path id="DejaVuSans-48" d="M 628 4666 
L 1259 4666 
L 1259 2753 
L 3553 2753 
L 3553 4666 
L 4184 4666 
L 4184 0 
L 3553 0 
L 3553 2222 
L 1259 2222 
L 1259 0 
L 628 0 
L 628 4666 
z
" transform="scale(0.015625)"/>
       <path id="DejaVuSans-63" d="M 3122 3366 
L 3122 2828 
Q 2878 2963 2633 3030 
Q 2388 3097 2138 3097 
Q 1578 3097 1268 2742 
Q 959 2388 959 1747 
Q 959 1106 1268 751 
Q 1578 397 2138 397 
Q 2388 397 2633 464 
Q 2878 531 3122 666 
L 3122 134 
Q 2881 22 2623 -34 
Q 2366 -91 2075 -91 
Q 1284 -91 818 406 
Q 353 903 353 1747 
Q 353 2603 823 3093 
Q 1294 3584 2113 3584 
Q 2378 3584 2631 3529 
Q 2884 3475 3122 3366 
z
" transform="scale(0.015625)"/>
      </defs>
      <use xlink:href="#DejaVuSans-48"/>
      <use xlink:href="#DejaVuSans-6f" x="75.195312"/>
      <use xlink:href="#DejaVuSans-77" x="136.376953"/>
      <use xlink:href="#DejaVuSans-20" x="218.164062"/>
      <use xlink:href="#DejaVuSans-74" x="249.951172"/>
      <use xlink:href="#DejaVuSans-68" x="289.160156"/>
      <use xlink:href="#DejaVuSans-65" x="352.539062"/>
      <use xlink:href="#DejaVuSans-20" x="414.0625"/>
      <use xlink:href="#DejaVuSans-74" x="445.849609"/>
      <use xlink:href="#DejaVuSans-61" x="485.058594"/>
      <use xlink:href="#DejaVuSans-78" x="546.337891"/>
      <use xlink:href="#DejaVuSans-61" x="605.517578"/>
      <use xlink:href="#DejaVuSans-20" x="666.796875"/>
      <use xlink:href="#DejaVuSans-77" x="698.583984"/>
      <use xlink:href="#DejaVuSans-65" x="780.371094"/>
      <use xlink:href="#DejaVuSans-72" x="841.894531"/>
      <use xlink:href="#DejaVuSans-65" x="880.757812"/>
      <use xlink:href="#DejaVuSans-20" x="942.28125"/>
      <use xlink:href="#DejaVuSans-64" x="974.068359"/>
      <use xlink:href="#DejaVuSans-65" x="1037.544922"/>
      <use xlink:href="#DejaVuSans-74" x="1099.068359"/>
      <use xlink:href="#DejaVuSans-65" x="1138.277344"/>
      <use xlink:href="#DejaVuSans-63" x="1199.800781"/>
      <use xlink:href="#DejaVuSans-74" x="1254.78125"/>
      <use xlink:href="#DejaVuSans-65" x="1293.990234"/>
      <use xlink:href="#DejaVuSans-64" x="1355.513672"/>
     </g>
    </g>
   </g>
   <g id="LineCollection_1"/>
   <g id="patch_7">
    <path d="M 675.6139 565.2 
L 689.0719 565.2 
L 702.5299 565.2 
L 702.5299 26.88 
L 689.0719 26.88 
L 675.6139 26.88 
L 675.6139 565.2 
z
" style="fill: none; stroke: #000000; stroke-width: 0.8; stroke-linejoin: miter; stroke-linecap: square"/>
   </g>
  </g>
 </g>
 <defs>
  <clipPath id="pee1646edcc">
   <rect x="98.1872" y="26.88" width="538.32" height="538.32"/>
  </clipPath>
  <clipPath id="pf32e31d08d">
   <rect x="675.6139" y="26.88" width="26.916" height="538.32"/>
  </clipPath>
 </defs>
</svg>
