<?xml version="1.0" encoding="utf-8" standalone="no"?>
<!DOCTYPE svg PUBLIC "-//W3C//DTD SVG 1.1//EN"
  "http://www.w3.org/Graphics/SVG/1.1/DTD/svg11.dtd">
<svg xmlns:xlink="http://www.w3.org/1999/xlink" width="864pt" height="576pt" viewBox="0 0 864 576" xmlns="http://www.w3.org/2000/svg" version="1.1">
 <metadata>
  <rdf:RDF xmlns:dc="http://purl.org/dc/elements/1.1/" xmlns:cc="http://creativecommons.org/ns#" xmlns:rdf="http://www.w3.org/1999/02/22-rdf-syntax-ns#">
   <cc:Work>
    <dc:type rdf:resource="http://purl.org/dc/dcmitype/StillImage"/>
    <dc:date>2025-05-05T17:01:02.764634</dc:date>
    <dc:format>image/svg+xml</dc:format>
    <dc:creator>
     <cc:Agent>
      <dc:title>Matplotlib v3.8.0, https://matplotlib.org/</dc:title>
     </cc:Agent>
    </dc:creator>
   </cc:Work>
  </rdf:RDF>
 </metadata>
 <defs>
  <style type="text/css">*{stroke-linejoin: round; stroke-linecap: butt}</style>
 </defs>
 <g id="figure_1">
  <g id="patch_1">
   <path d="M 0 576 
L 864 576 
L 864 0 
L 0 0 
z
" style="fill: #ffffff"/>
  </g>
  <g id="patch_2">
   <path d="M 98.1872 565.2 
L 636.5072 565.2 
L 636.5072 26.88 
L 98.1872 26.88 
z
" style="fill: #ffffff"/>
  </g>
  <g id="pane3d_1">
   <g id="patch_3">
    <path d="M 138.834072 432.46754 
L 316.604917 283.456493 
L 314.133732 68.555925 
L 127.855636 204.493195 
" style="fill: #f2f2f2; opacity: 0.5; stroke: #f2f2f2; stroke-linejoin: miter"/>
   </g>
  </g>
  <g id="pane3d_2">
   <g id="patch_4">
    <path d="M 316.604917 283.456493 
L 601.863694 366.369957 
L 612.043574 144.067386 
L 314.133732 68.555925 
" style="fill: #e6e6e6; opacity: 0.5; stroke: #e6e6e6; stroke-linejoin: miter"/>
   </g>
  </g>
  <g id="pane3d_3">
   <g id="patch_5">
    <path d="M 138.834072 432.46754 
L 441.222308 531.227537 
L 601.863694 366.369957 
L 316.604917 283.456493 
" style="fill: #ececec; opacity: 0.5; stroke: #ececec; stroke-linejoin: miter"/>
   </g>
  </g>
  <g id="grid3d_1"/>
  <g id="grid3d_2"/>
  <g id="grid3d_3"/>
  <g id="axis3d_1">
   <g id="line2d_1">
    <path d="M 138.834072 432.46754 
L 441.222308 531.227537 
" style="fill: none; stroke: #000000; stroke-width: 0.8; stroke-linecap: square"/>
   </g>
   <g id="text_1">
    <!-- 10 pwCF samples -->
    <g transform="translate(227.179541 504.647053) rotate(-341.912962) scale(0.1 -0.1)">
     <defs>
      <path id="DejaVuSans-31" d="M 794 531 
L 1825 531 
L 1825 4091 
L 703 3866 
L 703 4441 
L 1819 4666 
L 2450 4666 
L 2450 531 
L 3481 531 
L 3481 0 
L 794 0 
L 794 531 
z
" transform="scale(0.015625)"/>
      <path id="DejaVuSans-30" d="M 2034 4250 
Q 1547 4250 1301 3770 
Q 1056 3291 1056 2328 
Q 1056 1369 1301 889 
Q 1547 409 2034 409 
Q 2525 409 2770 889 
Q 3016 1369 3016 2328 
Q 3016 3291 2770 3770 
Q 2525 4250 2034 4250 
z
M 2034 4750 
Q 2819 4750 3233 4129 
Q 3647 3509 3647 2328 
Q 3647 1150 3233 529 
Q 2819 -91 2034 -91 
Q 1250 -91 836 529 
Q 422 1150 422 2328 
Q 422 3509 836 4129 
Q 1250 4750 2034 4750 
z
" transform="scale(0.015625)"/>
      <path id="DejaVuSans-20" transform="scale(0.015625)"/>
      <path id="DejaVuSans-70" d="M 1159 525 
L 1159 -1331 
L 581 -1331 
L 581 3500 
L 1159 3500 
L 1159 2969 
Q 1341 3281 1617 3432 
Q 1894 3584 2278 3584 
Q 2916 3584 3314 3078 
Q 3713 2572 3713 1747 
Q 3713 922 3314 415 
Q 2916 -91 2278 -91 
Q 1894 -91 1617 61 
Q 1341 213 1159 525 
z
M 3116 1747 
Q 3116 2381 2855 2742 
Q 2594 3103 2138 3103 
Q 1681 3103 1420 2742 
Q 1159 2381 1159 1747 
Q 1159 1113 1420 752 
Q 1681 391 2138 391 
Q 2594 391 2855 752 
Q 3116 1113 3116 1747 
z
" transform="scale(0.015625)"/>
      <path id="DejaVuSans-77" d="M 269 3500 
L 844 3500 
L 1563 769 
L 2278 3500 
L 2956 3500 
L 3675 769 
L 4391 3500 
L 4966 3500 
L 4050 0 
L 3372 0 
L 2619 2869 
L 1863 0 
L 1184 0 
L 269 3500 
z
" transform="scale(0.015625)"/>
      <path id="DejaVuSans-43" d="M 4122 4306 
L 4122 3641 
Q 3803 3938 3442 4084 
Q 3081 4231 2675 4231 
Q 1875 4231 1450 3742 
Q 1025 3253 1025 2328 
Q 1025 1406 1450 917 
Q 1875 428 2675 428 
Q 3081 428 3442 575 
Q 3803 722 4122 1019 
L 4122 359 
Q 3791 134 3420 21 
Q 3050 -91 2638 -91 
Q 1578 -91 968 557 
Q 359 1206 359 2328 
Q 359 3453 968 4101 
Q 1578 4750 2638 4750 
Q 3056 4750 3426 4639 
Q 3797 4528 4122 4306 
z
" transform="scale(0.015625)"/>
      <path id="DejaVuSans-46" d="M 628 4666 
L 3309 4666 
L 3309 4134 
L 1259 4134 
L 1259 2759 
L 3109 2759 
L 3109 2228 
L 1259 2228 
L 1259 0 
L 628 0 
L 628 4666 
z
" transform="scale(0.015625)"/>
      <path id="DejaVuSans-73" d="M 2834 3397 
L 2834 2853 
Q 2591 2978 2328 3040 
Q 2066 3103 1784 3103 
Q 1356 3103 1142 2972 
Q 928 2841 928 2578 
Q 928 2378 1081 2264 
Q 1234 2150 1697 2047 
L 1894 2003 
Q 2506 1872 2764 1633 
Q 3022 1394 3022 966 
Q 3022 478 2636 193 
Q 2250 -91 1575 -91 
Q 1294 -91 989 -36 
Q 684 19 347 128 
L 347 722 
Q 666 556 975 473 
Q 1284 391 1588 391 
Q 1994 391 2212 530 
Q 2431 669 2431 922 
Q 2431 1156 2273 1281 
Q 2116 1406 1581 1522 
L 1381 1569 
Q 847 1681 609 1914 
Q 372 2147 372 2553 
Q 372 3047 722 3315 
Q 1072 3584 1716 3584 
Q 2034 3584 2315 3537 
Q 2597 3491 2834 3397 
z
" transform="scale(0.015625)"/>
      <path id="DejaVuSans-61" d="M 2194 1759 
Q 1497 1759 1228 1600 
Q 959 1441 959 1056 
Q 959 750 1161 570 
Q 1363 391 1709 391 
Q 2188 391 2477 730 
Q 2766 1069 2766 1631 
L 2766 1759 
L 2194 1759 
z
M 3341 1997 
L 3341 0 
L 2766 0 
L 2766 531 
Q 2569 213 2275 61 
Q 1981 -91 1556 -91 
Q 1019 -91 701 211 
Q 384 513 384 1019 
Q 384 1609 779 1909 
Q 1175 2209 1959 2209 
L 2766 2209 
L 2766 2266 
Q 2766 2663 2505 2880 
Q 2244 3097 1772 3097 
Q 1472 3097 1187 3025 
Q 903 2953 641 2809 
L 641 3341 
Q 956 3463 1253 3523 
Q 1550 3584 1831 3584 
Q 2591 3584 2966 3190 
Q 3341 2797 3341 1997 
z
" transform="scale(0.015625)"/>
      <path id="DejaVuSans-6d" d="M 3328 2828 
Q 3544 3216 3844 3400 
Q 4144 3584 4550 3584 
Q 5097 3584 5394 3201 
Q 5691 2819 5691 2113 
L 5691 0 
L 5113 0 
L 5113 2094 
Q 5113 2597 4934 2840 
Q 4756 3084 4391 3084 
Q 3944 3084 3684 2787 
Q 3425 2491 3425 1978 
L 3425 0 
L 2847 0 
L 2847 2094 
Q 2847 2600 2669 2842 
Q 2491 3084 2119 3084 
Q 1678 3084 1418 2786 
Q 1159 2488 1159 1978 
L 1159 0 
L 581 0 
L 581 3500 
L 1159 3500 
L 1159 2956 
Q 1356 3278 1631 3431 
Q 1906 3584 2284 3584 
Q 2666 3584 2933 3390 
Q 3200 3197 3328 2828 
z
" transform="scale(0.015625)"/>
      <path id="DejaVuSans-6c" d="M 603 4863 
L 1178 4863 
L 1178 0 
L 603 0 
L 603 4863 
z
" transform="scale(0.015625)"/>
      <path id="DejaVuSans-65" d="M 3597 1894 
L 3597 1613 
L 953 1613 
Q 991 1019 1311 708 
Q 1631 397 2203 397 
Q 2534 397 2845 478 
Q 3156 559 3463 722 
L 3463 178 
Q 3153 47 2828 -22 
Q 2503 -91 2169 -91 
Q 1331 -91 842 396 
Q 353 884 353 1716 
Q 353 2575 817 3079 
Q 1281 3584 2069 3584 
Q 2775 3584 3186 3129 
Q 3597 2675 3597 1894 
z
M 3022 2063 
Q 3016 2534 2758 2815 
Q 2500 3097 2075 3097 
Q 1594 3097 1305 2825 
Q 1016 2553 972 2059 
L 3022 2063 
z
" transform="scale(0.015625)"/>
     </defs>
     <use xlink:href="#DejaVuSans-31"/>
     <use xlink:href="#DejaVuSans-30" x="63.623047"/>
     <use xlink:href="#DejaVuSans-20" x="127.246094"/>
     <use xlink:href="#DejaVuSans-70" x="159.033203"/>
     <use xlink:href="#DejaVuSans-77" x="222.509766"/>
     <use xlink:href="#DejaVuSans-43" x="304.296875"/>
     <use xlink:href="#DejaVuSans-46" x="374.121094"/>
     <use xlink:href="#DejaVuSans-20" x="431.640625"/>
     <use xlink:href="#DejaVuSans-73" x="463.427734"/>
     <use xlink:href="#DejaVuSans-61" x="515.527344"/>
     <use xlink:href="#DejaVuSans-6d" x="576.806641"/>
     <use xlink:href="#DejaVuSans-70" x="674.21875"/>
     <use xlink:href="#DejaVuSans-6c" x="737.695312"/>
     <use xlink:href="#DejaVuSans-65" x="765.478516"/>
     <use xlink:href="#DejaVuSans-73" x="827.001953"/>
    </g>
   </g>
  </g>
  <g id="axis3d_2">
   <g id="line2d_2">
    <path d="M 601.863694 366.369957 
L 441.222308 531.227537 
" style="fill: none; stroke: #000000; stroke-width: 0.8; stroke-linecap: square"/>
   </g>
   <g id="text_2">
    <!-- 32 order taxonomies -->
    <g transform="translate(517.828468 512.21878) rotate(-45.742112) scale(0.1 -0.1)">
     <defs>
      <path id="DejaVuSans-33" d="M 2597 2516 
Q 3050 2419 3304 2112 
Q 3559 1806 3559 1356 
Q 3559 666 3084 287 
Q 2609 -91 1734 -91 
Q 1441 -91 1130 -33 
Q 819 25 488 141 
L 488 750 
Q 750 597 1062 519 
Q 1375 441 1716 441 
Q 2309 441 2620 675 
Q 2931 909 2931 1356 
Q 2931 1769 2642 2001 
Q 2353 2234 1838 2234 
L 1294 2234 
L 1294 2753 
L 1863 2753 
Q 2328 2753 2575 2939 
Q 2822 3125 2822 3475 
Q 2822 3834 2567 4026 
Q 2313 4219 1838 4219 
Q 1578 4219 1281 4162 
Q 984 4106 628 3988 
L 628 4550 
Q 988 4650 1302 4700 
Q 1616 4750 1894 4750 
Q 2613 4750 3031 4423 
Q 3450 4097 3450 3541 
Q 3450 3153 3228 2886 
Q 3006 2619 2597 2516 
z
" transform="scale(0.015625)"/>
      <path id="DejaVuSans-32" d="M 1228 531 
L 3431 531 
L 3431 0 
L 469 0 
L 469 531 
Q 828 903 1448 1529 
Q 2069 2156 2228 2338 
Q 2531 2678 2651 2914 
Q 2772 3150 2772 3378 
Q 2772 3750 2511 3984 
Q 2250 4219 1831 4219 
Q 1534 4219 1204 4116 
Q 875 4013 500 3803 
L 500 4441 
Q 881 4594 1212 4672 
Q 1544 4750 1819 4750 
Q 2544 4750 2975 4387 
Q 3406 4025 3406 3419 
Q 3406 3131 3298 2873 
Q 3191 2616 2906 2266 
Q 2828 2175 2409 1742 
Q 1991 1309 1228 531 
z
" transform="scale(0.015625)"/>
      <path id="DejaVuSans-6f" d="M 1959 3097 
Q 1497 3097 1228 2736 
Q 959 2375 959 1747 
Q 959 1119 1226 758 
Q 1494 397 1959 397 
Q 2419 397 2687 759 
Q 2956 1122 2956 1747 
Q 2956 2369 2687 2733 
Q 2419 3097 1959 3097 
z
M 1959 3584 
Q 2709 3584 3137 3096 
Q 3566 2609 3566 1747 
Q 3566 888 3137 398 
Q 2709 -91 1959 -91 
Q 1206 -91 779 398 
Q 353 888 353 1747 
Q 353 2609 779 3096 
Q 1206 3584 1959 3584 
z
" transform="scale(0.015625)"/>
      <path id="DejaVuSans-72" d="M 2631 2963 
Q 2534 3019 2420 3045 
Q 2306 3072 2169 3072 
Q 1681 3072 1420 2755 
Q 1159 2438 1159 1844 
L 1159 0 
L 581 0 
L 581 3500 
L 1159 3500 
L 1159 2956 
Q 1341 3275 1631 3429 
Q 1922 3584 2338 3584 
Q 2397 3584 2469 3576 
Q 2541 3569 2628 3553 
L 2631 2963 
z
" transform="scale(0.015625)"/>
      <path id="DejaVuSans-64" d="M 2906 2969 
L 2906 4863 
L 3481 4863 
L 3481 0 
L 2906 0 
L 2906 525 
Q 2725 213 2448 61 
Q 2172 -91 1784 -91 
Q 1150 -91 751 415 
Q 353 922 353 1747 
Q 353 2572 751 3078 
Q 1150 3584 1784 3584 
Q 2172 3584 2448 3432 
Q 2725 3281 2906 2969 
z
M 947 1747 
Q 947 1113 1208 752 
Q 1469 391 1925 391 
Q 2381 391 2643 752 
Q 2906 1113 2906 1747 
Q 2906 2381 2643 2742 
Q 2381 3103 1925 3103 
Q 1469 3103 1208 2742 
Q 947 2381 947 1747 
z
" transform="scale(0.015625)"/>
      <path id="DejaVuSans-74" d="M 1172 4494 
L 1172 3500 
L 2356 3500 
L 2356 3053 
L 1172 3053 
L 1172 1153 
Q 1172 725 1289 603 
Q 1406 481 1766 481 
L 2356 481 
L 2356 0 
L 1766 0 
Q 1100 0 847 248 
Q 594 497 594 1153 
L 594 3053 
L 172 3053 
L 172 3500 
L 594 3500 
L 594 4494 
L 1172 4494 
z
" transform="scale(0.015625)"/>
      <path id="DejaVuSans-78" d="M 3513 3500 
L 2247 1797 
L 3578 0 
L 2900 0 
L 1881 1375 
L 863 0 
L 184 0 
L 1544 1831 
L 300 3500 
L 978 3500 
L 1906 2253 
L 2834 3500 
L 3513 3500 
z
" transform="scale(0.015625)"/>
      <path id="DejaVuSans-6e" d="M 3513 2113 
L 3513 0 
L 2938 0 
L 2938 2094 
Q 2938 2591 2744 2837 
Q 2550 3084 2163 3084 
Q 1697 3084 1428 2787 
Q 1159 2491 1159 1978 
L 1159 0 
L 581 0 
L 581 3500 
L 1159 3500 
L 1159 2956 
Q 1366 3272 1645 3428 
Q 1925 3584 2291 3584 
Q 2894 3584 3203 3211 
Q 3513 2838 3513 2113 
z
" transform="scale(0.015625)"/>
      <path id="DejaVuSans-69" d="M 603 3500 
L 1178 3500 
L 1178 0 
L 603 0 
L 603 3500 
z
M 603 4863 
L 1178 4863 
L 1178 4134 
L 603 4134 
L 603 4863 
z
" transform="scale(0.015625)"/>
     </defs>
     <use xlink:href="#DejaVuSans-33"/>
     <use xlink:href="#DejaVuSans-32" x="63.623047"/>
     <use xlink:href="#DejaVuSans-20" x="127.246094"/>
     <use xlink:href="#DejaVuSans-6f" x="159.033203"/>
     <use xlink:href="#DejaVuSans-72" x="220.214844"/>
     <use xlink:href="#DejaVuSans-64" x="259.578125"/>
     <use xlink:href="#DejaVuSans-65" x="323.054688"/>
     <use xlink:href="#DejaVuSans-72" x="384.578125"/>
     <use xlink:href="#DejaVuSans-20" x="425.691406"/>
     <use xlink:href="#DejaVuSans-74" x="457.478516"/>
     <use xlink:href="#DejaVuSans-61" x="496.6875"/>
     <use xlink:href="#DejaVuSans-78" x="557.966797"/>
     <use xlink:href="#DejaVuSans-6f" x="614.021484"/>
     <use xlink:href="#DejaVuSans-6e" x="675.203125"/>
     <use xlink:href="#DejaVuSans-6f" x="738.582031"/>
     <use xlink:href="#DejaVuSans-6d" x="799.763672"/>
     <use xlink:href="#DejaVuSans-69" x="897.175781"/>
     <use xlink:href="#DejaVuSans-65" x="924.958984"/>
     <use xlink:href="#DejaVuSans-73" x="986.482422"/>
    </g>
   </g>
  </g>
  <g id="axis3d_3">
   <g id="line2d_3">
    <path d="M 601.863694 366.369957 
L 612.043574 144.067386 
" style="fill: none; stroke: #000000; stroke-width: 0.8; stroke-linecap: square"/>
   </g>
   <g id="text_3">
    <!-- Normalized MGI read depth -->
    <g transform="translate(646.972362 320.878308) rotate(-87.378092) scale(0.1 -0.1)">
     <defs>
      <path id="DejaVuSans-4e" d="M 628 4666 
L 1478 4666 
L 3547 763 
L 3547 4666 
L 4159 4666 
L 4159 0 
L 3309 0 
L 1241 3903 
L 1241 0 
L 628 0 
L 628 4666 
z
" transform="scale(0.015625)"/>
      <path id="DejaVuSans-7a" d="M 353 3500 
L 3084 3500 
L 3084 2975 
L 922 459 
L 3084 459 
L 3084 0 
L 275 0 
L 275 525 
L 2438 3041 
L 353 3041 
L 353 3500 
z
" transform="scale(0.015625)"/>
      <path id="DejaVuSans-4d" d="M 628 4666 
L 1569 4666 
L 2759 1491 
L 3956 4666 
L 4897 4666 
L 4897 0 
L 4281 0 
L 4281 4097 
L 3078 897 
L 2444 897 
L 1241 4097 
L 1241 0 
L 628 0 
L 628 4666 
z
" transform="scale(0.015625)"/>
      <path id="DejaVuSans-47" d="M 3809 666 
L 3809 1919 
L 2778 1919 
L 2778 2438 
L 4434 2438 
L 4434 434 
Q 4069 175 3628 42 
Q 3188 -91 2688 -91 
Q 1594 -91 976 548 
Q 359 1188 359 2328 
Q 359 3472 976 4111 
Q 1594 4750 2688 4750 
Q 3144 4750 3555 4637 
Q 3966 4525 4313 4306 
L 4313 3634 
Q 3963 3931 3569 4081 
Q 3175 4231 2741 4231 
Q 1884 4231 1454 3753 
Q 1025 3275 1025 2328 
Q 1025 1384 1454 906 
Q 1884 428 2741 428 
Q 3075 428 3337 486 
Q 3600 544 3809 666 
z
" transform="scale(0.015625)"/>
      <path id="DejaVuSans-49" d="M 628 4666 
L 1259 4666 
L 1259 0 
L 628 0 
L 628 4666 
z
" transform="scale(0.015625)"/>
      <path id="DejaVuSans-68" d="M 3513 2113 
L 3513 0 
L 2938 0 
L 2938 2094 
Q 2938 2591 2744 2837 
Q 2550 3084 2163 3084 
Q 1697 3084 1428 2787 
Q 1159 2491 1159 1978 
L 1159 0 
L 581 0 
L 581 4863 
L 1159 4863 
L 1159 2956 
Q 1366 3272 1645 3428 
Q 1925 3584 2291 3584 
Q 2894 3584 3203 3211 
Q 3513 2838 3513 2113 
z
" transform="scale(0.015625)"/>
     </defs>
     <use xlink:href="#DejaVuSans-4e"/>
     <use xlink:href="#DejaVuSans-6f" x="74.804688"/>
     <use xlink:href="#DejaVuSans-72" x="135.986328"/>
     <use xlink:href="#DejaVuSans-6d" x="175.349609"/>
     <use xlink:href="#DejaVuSans-61" x="272.761719"/>
     <use xlink:href="#DejaVuSans-6c" x="334.041016"/>
     <use xlink:href="#DejaVuSans-69" x="361.824219"/>
     <use xlink:href="#DejaVuSans-7a" x="389.607422"/>
     <use xlink:href="#DejaVuSans-65" x="442.097656"/>
     <use xlink:href="#DejaVuSans-64" x="503.621094"/>
     <use xlink:href="#DejaVuSans-20" x="567.097656"/>
     <use xlink:href="#DejaVuSans-4d" x="598.884766"/>
     <use xlink:href="#DejaVuSans-47" x="685.164062"/>
     <use xlink:href="#DejaVuSans-49" x="762.654297"/>
     <use xlink:href="#DejaVuSans-20" x="792.146484"/>
     <use xlink:href="#DejaVuSans-72" x="823.933594"/>
     <use xlink:href="#DejaVuSans-65" x="862.796875"/>
     <use xlink:href="#DejaVuSans-61" x="924.320312"/>
     <use xlink:href="#DejaVuSans-64" x="985.599609"/>
     <use xlink:href="#DejaVuSans-20" x="1049.076172"/>
     <use xlink:href="#DejaVuSans-64" x="1080.863281"/>
     <use xlink:href="#DejaVuSans-65" x="1144.339844"/>
     <use xlink:href="#DejaVuSans-70" x="1205.863281"/>
     <use xlink:href="#DejaVuSans-74" x="1269.339844"/>
     <use xlink:href="#DejaVuSans-68" x="1308.548828"/>
    </g>
   </g>
  </g>
  <g id="axes_1">
   <g id="Poly3DCollection_1">
    <path d="M 318.788897 287.422092 
L 344.966501 179.52908 
L 350.278567 300.683191 
L 323.525374 292.889487 
z
" clip-path="url(#pc0bf0f6f16)" style="fill: #9d527a"/>
    <path d="M 309.502503 300.042515 
L 336.39781 307.160559 
L 340.719052 255.501508 
L 314.143611 292.826056 
z
" clip-path="url(#pc0bf0f6f16)" style="fill: #db72a9"/>
    <path d="M 304.558736 286.632794 
L 331.494504 282.896469 
L 336.39781 307.160559 
L 309.502503 300.042515 
z
" clip-path="url(#pc0bf0f6f16)" style="fill: #814364"/>
    <path d="M 372.713726 264.938932 
L 400.049318 316.767376 
L 404.540245 315.932879 
L 377.282499 306.187684 
z
" clip-path="url(#pc0bf0f6f16)" style="fill: #63344c"/>
    <path d="M 314.143611 292.826056 
L 340.719052 255.501508 
L 344.966501 179.52908 
L 318.788897 287.422092 
z
" clip-path="url(#pc0bf0f6f16)" style="fill: #f07dba"/>
    <path d="M 295.404174 316.749282 
L 322.388071 323.213001 
L 327.023924 312.186628 
L 300.027473 304.741539 
z
" clip-path="url(#pc0bf0f6f16)" style="fill: #eded2f"/>
    <path d="M 300.027473 304.741539 
L 327.023924 312.186628 
L 331.494504 282.896469 
L 304.558736 286.632794 
z
" clip-path="url(#pc0bf0f6f16)" style="fill: #e2e22d"/>
    <path d="M 344.966501 179.52908 
L 372.713726 264.938932 
L 377.282499 306.187684 
L 350.278567 300.683191 
z
" clip-path="url(#pc0bf0f6f16)" style="fill: #522b3f"/>
    <path d="M 290.620878 319.652973 
L 317.682685 328.946634 
L 322.388071 323.213001 
L 295.404174 316.749282 
z
" clip-path="url(#pc0bf0f6f16)" style="fill: #ad5a86"/>
    <path d="M 336.39781 307.160559 
L 363.564035 318.747941 
L 368.109242 276.666106 
L 340.719052 255.501508 
z
" clip-path="url(#pc0bf0f6f16)" style="fill: #d46fa4"/>
    <path d="M 363.564035 318.747941 
L 390.957057 327.363977 
L 395.524033 319.366167 
L 368.109242 276.666106 
z
" clip-path="url(#pc0bf0f6f16)" style="fill: #d26da2"/>
    <path d="M 368.109242 276.666106 
L 395.524033 319.366167 
L 400.049318 316.767376 
L 372.713726 264.938932 
z
" clip-path="url(#pc0bf0f6f16)" style="fill: #65354e"/>
    <path d="M 285.848144 324.564846 
L 312.934954 332.830183 
L 317.682685 328.946634 
L 290.620878 319.652973 
z
" clip-path="url(#pc0bf0f6f16)" style="fill: #525210"/>
    <path d="M 322.388071 323.213001 
L 349.660458 332.999547 
L 354.287615 321.313576 
L 327.023924 312.186628 
z
" clip-path="url(#pc0bf0f6f16)" style="fill: #cc6b9e"/>
    <path d="M 400.049318 316.767376 
L 428.273533 263.710528 
L 432.062254 323.363654 
L 404.540245 315.932879 
z
" clip-path="url(#pc0bf0f6f16)" style="fill: #9f537b"/>
    <path d="M 331.494504 282.896469 
L 358.66535 232.509687 
L 363.564035 318.747941 
L 336.39781 307.160559 
z
" clip-path="url(#pc0bf0f6f16)" style="fill: #8f4b6f"/>
    <path d="M 281.038944 328.670719 
L 308.16204 336.569271 
L 312.934954 332.830183 
L 285.848144 324.564846 
z
" clip-path="url(#pc0bf0f6f16)" style="fill: #96961e"/>
    <path d="M 317.682685 328.946634 
L 344.973616 335.988545 
L 349.660458 332.999547 
L 322.388071 323.213001 
z
" clip-path="url(#pc0bf0f6f16)" style="fill: #a0547c"/>
    <path d="M 340.719052 255.501508 
L 368.109242 276.666106 
L 372.713726 264.938932 
L 344.966501 179.52908 
z
" clip-path="url(#pc0bf0f6f16)" style="fill: #8c496c"/>
    <path d="M 327.023924 312.186628 
L 354.287615 321.313576 
L 358.66535 232.509687 
L 331.494504 282.896469 
z
" clip-path="url(#pc0bf0f6f16)" style="fill: #d972a8"/>
    <path d="M 276.211074 333.004932 
L 303.377558 341.162257 
L 308.16204 336.569271 
L 281.038944 328.670719 
z
" clip-path="url(#pc0bf0f6f16)" style="fill: #e5e52e"/>
    <path d="M 312.934954 332.830183 
L 340.274993 340.839676 
L 344.973616 335.988545 
L 317.682685 328.946634 
z
" clip-path="url(#pc0bf0f6f16)" style="fill: #e678b2"/>
    <path d="M 349.660458 332.999547 
L 377.174279 340.961071 
L 381.825832 311.200991 
L 354.287615 321.313576 
z
" clip-path="url(#pc0bf0f6f16)" style="fill: #db72a9"/>
    <path d="M 390.957057 327.363977 
L 418.623065 333.846031 
L 423.826405 258.068246 
L 395.524033 319.366167 
z
" clip-path="url(#pc0bf0f6f16)" style="fill: #dc73aa"/>
    <path d="M 344.973616 335.988545 
L 372.537538 345.341172 
L 377.174279 340.961071 
L 349.660458 332.999547 
z
" clip-path="url(#pc0bf0f6f16)" style="fill: #787818"/>
    <path d="M 271.348412 336.766337 
L 298.560996 345.116081 
L 303.377558 341.162257 
L 276.211074 333.004932 
z
" clip-path="url(#pc0bf0f6f16)" style="fill: #545411"/>
    <path d="M 308.16204 336.569271 
L 335.541075 343.904393 
L 340.274993 340.839676 
L 312.934954 332.830183 
z
" clip-path="url(#pc0bf0f6f16)" style="fill: #995076"/>
    <path d="M 395.524033 319.366167 
L 423.826405 258.068246 
L 428.273533 263.710528 
L 400.049318 316.767376 
z
" clip-path="url(#pc0bf0f6f16)" style="fill: #d26ea2"/>
    <path d="M 340.274993 340.839676 
L 367.878035 349.038508 
L 372.537538 345.341172 
L 344.973616 335.988545 
z
" clip-path="url(#pc0bf0f6f16)" style="fill: #6f3a56"/>
    <path d="M 303.377558 341.162257 
L 330.797958 348.756297 
L 335.541075 343.904393 
L 308.16204 336.569271 
z
" clip-path="url(#pc0bf0f6f16)" style="fill: #f27ebb"/>
    <path d="M 266.45616 340.283819 
L 293.597518 341.491814 
L 298.560996 345.116081 
L 271.348412 336.766337 
z
" clip-path="url(#pc0bf0f6f16)" style="fill: #a2a220"/>
    <path d="M 372.537538 345.341172 
L 400.358472 353.619601 
L 404.957047 348.358105 
L 377.174279 340.961071 
z
" clip-path="url(#pc0bf0f6f16)" style="fill: #dc73aa"/>
    <path d="M 377.174279 340.961071 
L 404.957047 348.358105 
L 409.683204 322.039758 
L 381.825832 311.200991 
z
" clip-path="url(#pc0bf0f6f16)" style="fill: #dc73aa"/>
    <path d="M 298.560996 345.116081 
L 326.024853 352.761089 
L 330.797958 348.756297 
L 303.377558 341.162257 
z
" clip-path="url(#pc0bf0f6f16)" style="fill: #c9699b"/>
    <path d="M 335.541075 343.904393 
L 363.194536 352.448744 
L 367.878035 349.038508 
L 340.274993 340.839676 
z
" clip-path="url(#pc0bf0f6f16)" style="fill: #582e44"/>
    <path d="M 483.575994 340.803692 
L 511.956054 348.895653 
L 516.1534 349.311618 
L 487.956643 336.416148 
z
" clip-path="url(#pc0bf0f6f16)" style="fill: #693752"/>
    <path d="M 418.623065 333.846031 
L 446.597561 338.56379 
L 451.35304 315.483991 
L 423.826405 258.068246 
z
" clip-path="url(#pc0bf0f6f16)" style="fill: #e477b0"/>
    <path d="M 261.523528 343.124461 
L 288.753941 347.088877 
L 293.597518 341.491814 
L 266.45616 340.283819 
z
" clip-path="url(#pc0bf0f6f16)" style="fill: #f1f130"/>
    <path d="M 428.273533 263.710528 
L 457.811908 187.896448 
L 459.839752 331.531191 
L 432.062254 323.363654 
z
" clip-path="url(#pc0bf0f6f16)" style="fill: #8a486b"/>
    <path d="M 358.66535 232.509687 
L 386.78753 160.381126 
L 390.957057 327.363977 
L 363.564035 318.747941 
z
" clip-path="url(#pc0bf0f6f16)" style="fill: #844566"/>
    <path d="M 414.471447 290.206938 
L 442.464671 316.559358 
L 446.597561 338.56379 
L 418.623065 333.846031 
z
" clip-path="url(#pc0bf0f6f16)" style="fill: #502a3e"/>
    <path d="M 367.878035 349.038508 
L 395.750855 356.285091 
L 400.358472 353.619601 
L 372.537538 345.341172 
z
" clip-path="url(#pc0bf0f6f16)" style="fill: #934d72"/>
    <path d="M 330.797958 348.756297 
L 358.493629 357.924522 
L 363.194536 352.448744 
L 335.541075 343.904393 
z
" clip-path="url(#pc0bf0f6f16)" style="fill: #b15d89"/>
    <path d="M 293.597518 341.491814 
L 321.203635 354.48106 
L 326.024853 352.761089 
L 298.560996 345.116081 
z
" clip-path="url(#pc0bf0f6f16)" style="fill: #532b40"/>
    <path d="M 457.811908 187.896448 
L 483.575994 340.803692 
L 487.956643 336.416148 
L 459.839752 331.531191 
z
" clip-path="url(#pc0bf0f6f16)" style="fill: #673650"/>
    <path d="M 446.597561 338.56379 
L 474.741021 350.224652 
L 479.677192 321.262777 
L 451.35304 315.483991 
z
" clip-path="url(#pc0bf0f6f16)" style="fill: #d26ea2"/>
    <path d="M 404.957047 348.358105 
L 432.994131 357.691427 
L 437.62333 345.207057 
L 409.683204 322.039758 
z
" clip-path="url(#pc0bf0f6f16)" style="fill: #d36ea3"/>
    <path d="M 386.78753 160.381126 
L 414.471447 290.206938 
L 418.623065 333.846031 
L 390.957057 327.363977 
z
" clip-path="url(#pc0bf0f6f16)" style="fill: #562d42"/>
    <path d="M 400.358472 353.619601 
L 428.448947 361.804593 
L 432.994131 357.691427 
L 404.957047 348.358105 
z
" clip-path="url(#pc0bf0f6f16)" style="fill: #b65f8d"/>
    <path d="M 326.024853 352.761089 
L 353.76376 361.361582 
L 358.493629 357.924522 
L 330.797958 348.756297 
z
" clip-path="url(#pc0bf0f6f16)" style="fill: #5a2f45"/>
    <path d="M 363.194536 352.448744 
L 391.110715 361.188216 
L 395.750855 356.285091 
L 367.878035 349.038508 
z
" clip-path="url(#pc0bf0f6f16)" style="fill: #b9608f"/>
    <path d="M 511.956054 348.895653 
L 540.527957 359.564209 
L 544.791736 355.751537 
L 516.1534 349.311618 
z
" clip-path="url(#pc0bf0f6f16)" style="fill: #5e3148"/>
    <path d="M 354.287615 321.313576 
L 381.825832 311.200991 
L 386.78753 160.381126 
L 358.66535 232.509687 
z
" clip-path="url(#pc0bf0f6f16)" style="fill: #e176ae"/>
    <path d="M 409.683204 322.039758 
L 437.62333 345.207057 
L 442.464671 316.559358 
L 414.471447 290.206938 
z
" clip-path="url(#pc0bf0f6f16)" style="fill: #b45e8b"/>
    <path d="M 288.753941 347.088877 
L 316.390195 359.278176 
L 321.203635 354.48106 
L 293.597518 341.491814 
z
" clip-path="url(#pc0bf0f6f16)" style="fill: #703b57"/>
    <path d="M 442.464671 316.559358 
L 470.97466 319.53031 
L 474.741021 350.224652 
L 446.597561 338.56379 
z
" clip-path="url(#pc0bf0f6f16)" style="fill: #703b57"/>
    <path d="M 395.750855 356.285091 
L 423.881598 365.931652 
L 428.448947 361.804593 
L 400.358472 353.619601 
z
" clip-path="url(#pc0bf0f6f16)" style="fill: #62334b"/>
    <path d="M 358.493629 357.924522 
L 386.449188 366.188508 
L 391.110715 361.188216 
L 363.194536 352.448744 
z
" clip-path="url(#pc0bf0f6f16)" style="fill: #e578b1"/>
    <path d="M 246.726359 357.926203 
L 274.145765 366.330811 
L 279.060577 361.251979 
L 251.695902 353.573509 
z
" clip-path="url(#pc0bf0f6f16)" style="fill: #3170a4"/>
    <path d="M 321.203635 354.48106 
L 348.98787 360.631778 
L 353.76376 361.361582 
L 326.024853 352.761089 
z
" clip-path="url(#pc0bf0f6f16)" style="fill: #844566"/>
    <path d="M 432.994131 357.691427 
L 461.313272 365.779205 
L 465.871362 357.178554 
L 437.62333 345.207057 
z
" clip-path="url(#pc0bf0f6f16)" style="fill: #de74ac"/>
    <path d="M 451.35304 315.483991 
L 479.677192 321.262777 
L 483.575994 340.803692 
L 457.811908 187.896448 
z
" clip-path="url(#pc0bf0f6f16)" style="fill: #6d3954"/>
    <path d="M 283.964983 356.835315 
L 311.531799 362.307061 
L 316.390195 359.278176 
L 288.753941 347.088877 
z
" clip-path="url(#pc0bf0f6f16)" style="fill: #c06494"/>
    <path d="M 423.826405 258.068246 
L 451.35304 315.483991 
L 457.811908 187.896448 
L 428.273533 263.710528 
z
" clip-path="url(#pc0bf0f6f16)" style="fill: #c06495"/>
    <path d="M 381.825832 311.200991 
L 409.683204 322.039758 
L 414.471447 290.206938 
L 386.78753 160.381126 
z
" clip-path="url(#pc0bf0f6f16)" style="fill: #d46fa4"/>
    <path d="M 437.62333 345.207057 
L 465.871362 357.178554 
L 470.97466 319.53031 
L 442.464671 316.559358 
z
" clip-path="url(#pc0bf0f6f16)" style="fill: #d46fa4"/>
    <path d="M 479.677192 321.262777 
L 510.135374 258.503885 
L 511.956054 348.895653 
L 483.575994 340.803692 
z
" clip-path="url(#pc0bf0f6f16)" style="fill: #954e73"/>
    <path d="M 253.526899 217.768889 
L 283.964983 356.835315 
L 288.753941 347.088877 
L 261.523528 343.124461 
z
" clip-path="url(#pc0bf0f6f16)" style="fill: #6d6d16"/>
    <path d="M 428.448947 361.804593 
L 456.820307 369.626839 
L 461.313272 365.779205 
L 432.994131 357.691427 
z
" clip-path="url(#pc0bf0f6f16)" style="fill: #b15d89"/>
    <path d="M 241.731355 362.234832 
L 269.191977 370.644227 
L 274.145765 366.330811 
L 246.726359 357.926203 
z
" clip-path="url(#pc0bf0f6f16)" style="fill: #367bb4"/>
    <path d="M 353.76376 361.361582 
L 381.769264 369.257536 
L 386.449188 366.188508 
L 358.493629 357.924522 
z
" clip-path="url(#pc0bf0f6f16)" style="fill: #854667"/>
    <path d="M 391.110715 361.188216 
L 419.294047 369.834875 
L 423.881598 365.931652 
L 395.750855 356.285091 
z
" clip-path="url(#pc0bf0f6f16)" style="fill: #532b40"/>
    <path d="M 279.060577 361.251979 
L 306.58523 360.812565 
L 311.531799 362.307061 
L 283.964983 356.835315 
z
" clip-path="url(#pc0bf0f6f16)" style="fill: #b25d89"/>
    <path d="M 316.390195 359.278176 
L 344.153624 355.734319 
L 348.98787 360.631778 
L 321.203635 354.48106 
z
" clip-path="url(#pc0bf0f6f16)" style="fill: #ab5a85"/>
    <path d="M 474.741021 350.224652 
L 503.140825 361.045657 
L 510.135374 258.503885 
L 479.677192 321.262777 
z
" clip-path="url(#pc0bf0f6f16)" style="fill: #d971a8"/>
    <path d="M 251.695902 353.573509 
L 279.060577 361.251979 
L 283.964983 356.835315 
L 253.526899 217.768889 
z
" clip-path="url(#pc0bf0f6f16)" style="fill: #efef30"/>
    <path d="M 423.881598 365.931652 
L 452.295961 374.051622 
L 456.820307 369.626839 
L 428.448947 361.804593 
z
" clip-path="url(#pc0bf0f6f16)" style="fill: #ea7ab5"/>
    <path d="M 386.449188 366.188508 
L 414.676546 374.615908 
L 419.294047 369.834875 
L 391.110715 361.188216 
z
" clip-path="url(#pc0bf0f6f16)" style="fill: #e376af"/>
    <path d="M 236.703012 366.229453 
L 264.208734 374.735017 
L 269.191977 370.644227 
L 241.731355 362.234832 
z
" clip-path="url(#pc0bf0f6f16)" style="fill: #17354d"/>
    <path d="M 470.97466 319.53031 
L 500.218321 306.693445 
L 503.140825 361.045657 
L 474.741021 350.224652 
z
" clip-path="url(#pc0bf0f6f16)" style="fill: #7e4261"/>
    <path d="M 274.145765 366.330811 
L 301.820519 374.111875 
L 306.58523 360.812565 
L 279.060577 361.251979 
z
" clip-path="url(#pc0bf0f6f16)" style="fill: #df74ac"/>
    <path d="M 348.98787 360.631778 
L 377.065647 369.564086 
L 381.769264 369.257536 
L 353.76376 361.361582 
z
" clip-path="url(#pc0bf0f6f16)" style="fill: #61334b"/>
    <path d="M 510.135374 258.503885 
L 536.435935 357.462726 
L 540.527957 359.564209 
L 511.956054 348.895653 
z
" clip-path="url(#pc0bf0f6f16)" style="fill: #63344d"/>
    <path d="M 311.531799 362.307061 
L 339.431015 372.37137 
L 344.153624 355.734319 
L 316.390195 359.278176 
z
" clip-path="url(#pc0bf0f6f16)" style="fill: #d26ea3"/>
    <path d="M 461.313272 365.779205 
L 489.897141 374.51814 
L 495.288548 330.41378 
L 465.871362 357.178554 
z
" clip-path="url(#pc0bf0f6f16)" style="fill: #da72a8"/>
    <path d="M 456.820307 369.626839 
L 485.440085 379.061712 
L 489.897141 374.51814 
L 461.313272 365.779205 
z
" clip-path="url(#pc0bf0f6f16)" style="fill: #783e5c"/>
    <path d="M 381.769264 369.257536 
L 410.044578 378.421334 
L 414.676546 374.615908 
L 386.449188 366.188508 
z
" clip-path="url(#pc0bf0f6f16)" style="fill: #4f2a3d"/>
    <path d="M 269.191977 370.644227 
L 296.922169 379.289013 
L 301.820519 374.111875 
L 274.145765 366.330811 
z
" clip-path="url(#pc0bf0f6f16)" style="fill: #d46ea4"/>
    <path d="M 231.664977 370.772671 
L 259.209861 379.23599 
L 264.208734 374.735017 
L 236.703012 366.229453 
z
" clip-path="url(#pc0bf0f6f16)" style="fill: #924b9c"/>
    <path d="M 419.294047 369.834875 
L 447.776191 376.710518 
L 452.295961 374.051622 
L 423.881598 365.931652 
z
" clip-path="url(#pc0bf0f6f16)" style="fill: #a1547d"/>
    <path d="M 503.140825 361.045657 
L 531.901233 368.347616 
L 536.435935 357.462726 
L 510.135374 258.503885 
z
" clip-path="url(#pc0bf0f6f16)" style="fill: #e377b0"/>
    <path d="M 306.58523 360.812565 
L 334.63008 379.248892 
L 339.431015 372.37137 
L 311.531799 362.307061 
z
" clip-path="url(#pc0bf0f6f16)" style="fill: #773e5c"/>
    <path d="M 531.901233 368.347616 
L 561.193962 369.356075 
L 565.70367 358.965019 
L 536.435935 357.462726 
z
" clip-path="url(#pc0bf0f6f16)" style="fill: #f27ebb"/>
    <path d="M 344.153624 355.734319 
L 372.332355 371.821167 
L 377.065647 369.564086 
L 348.98787 360.631778 
z
" clip-path="url(#pc0bf0f6f16)" style="fill: #5a2f46"/>
    <path d="M 465.871362 357.178554 
L 495.288548 330.41378 
L 500.218321 306.693445 
L 470.97466 319.53031 
z
" clip-path="url(#pc0bf0f6f16)" style="fill: #ef7db9"/>
    <path d="M 264.208734 374.735017 
L 291.983091 383.383085 
L 296.922169 379.289013 
L 269.191977 370.644227 
z
" clip-path="url(#pc0bf0f6f16)" style="fill: #5b3046"/>
    <path d="M 414.676546 374.615908 
L 443.177611 383.255417 
L 447.776191 376.710518 
L 419.294047 369.834875 
z
" clip-path="url(#pc0bf0f6f16)" style="fill: #d971a8"/>
    <path d="M 226.565881 374.096125 
L 254.171159 383.111471 
L 259.209861 379.23599 
L 231.664977 370.772671 
z
" clip-path="url(#pc0bf0f6f16)" style="fill: #311934"/>
    <path d="M 452.295961 374.051622 
L 481.152632 374.746016 
L 485.440085 379.061712 
L 456.820307 369.626839 
z
" clip-path="url(#pc0bf0f6f16)" style="fill: #9d5279"/>
    <path d="M 377.065647 369.564086 
L 405.394554 381.353551 
L 410.044578 378.421334 
L 381.769264 369.257536 
z
" clip-path="url(#pc0bf0f6f16)" style="fill: #552c42"/>
    <path d="M 301.820519 374.111875 
L 329.782458 383.041341 
L 334.63008 379.248892 
L 306.58523 360.812565 
z
" clip-path="url(#pc0bf0f6f16)" style="fill: #512a3f"/>
    <path d="M 339.431015 372.37137 
L 367.581186 380.583654 
L 372.332355 371.821167 
L 344.153624 355.734319 
z
" clip-path="url(#pc0bf0f6f16)" style="fill: #df74ac"/>
    <path d="M 485.440085 379.061712 
L 514.360219 387.464933 
L 518.76892 382.909208 
L 489.897141 374.51814 
z
" clip-path="url(#pc0bf0f6f16)" style="fill: #f27ebb"/>
    <path d="M 259.209861 379.23599 
L 287.026685 387.913307 
L 291.983091 383.383085 
L 264.208734 374.735017 
z
" clip-path="url(#pc0bf0f6f16)" style="fill: #cb6a9d"/>
    <path d="M 296.922169 379.289013 
L 324.92034 387.8811 
L 329.782458 383.041341 
L 301.820519 374.111875 
z
" clip-path="url(#pc0bf0f6f16)" style="fill: #df74ac"/>
    <path d="M 410.044578 378.421334 
L 438.627328 384.673932 
L 443.177611 383.255417 
L 414.676546 374.615908 
z
" clip-path="url(#pc0bf0f6f16)" style="fill: #984f76"/>
    <path d="M 221.48459 378.88174 
L 249.132546 388.019931 
L 254.171159 383.111471 
L 226.565881 374.096125 
z
" clip-path="url(#pc0bf0f6f16)" style="fill: #25547b"/>
    <path d="M 334.63008 379.248892 
L 362.810609 387.42568 
L 367.581186 380.583654 
L 339.431015 372.37137 
z
" clip-path="url(#pc0bf0f6f16)" style="fill: #e477b0"/>
    <path d="M 447.776191 376.710518 
L 476.53656 384.582385 
L 481.152632 374.746016 
L 452.295961 374.051622 
z
" clip-path="url(#pc0bf0f6f16)" style="fill: #e176ae"/>
    <path d="M 489.897141 374.51814 
L 518.76892 382.909208 
L 523.898625 353.640782 
L 495.288548 330.41378 
z
" clip-path="url(#pc0bf0f6f16)" style="fill: #db72a9"/>
    <path d="M 540.527957 359.564209 
L 577.753079 156.334309 
L 573.576778 366.03514 
L 544.791736 355.751537 
z
" clip-path="url(#pc0bf0f6f16)" style="fill: #a0547c"/>
    <path d="M 372.332355 371.821167 
L 400.744282 379.526664 
L 405.394554 381.353551 
L 377.065647 369.564086 
z
" clip-path="url(#pc0bf0f6f16)" style="fill: #703a57"/>
    <path d="M 329.782458 383.041341 
L 358.014262 392.168042 
L 362.810609 387.42568 
L 334.63008 379.248892 
z
" clip-path="url(#pc0bf0f6f16)" style="fill: #985076"/>
    <path d="M 291.983091 383.383085 
L 320.022382 391.576748 
L 324.92034 387.8811 
L 296.922169 379.289013 
z
" clip-path="url(#pc0bf0f6f16)" style="fill: #934d72"/>
    <path d="M 216.382692 383.792065 
L 244.055443 392.389551 
L 249.132546 388.019931 
L 221.48459 378.88174 
z
" clip-path="url(#pc0bf0f6f16)" style="fill: #84448e"/>
    <path d="M 254.171159 383.111471 
L 282.037845 392.016056 
L 287.026685 387.913307 
L 259.209861 379.23599 
z
" clip-path="url(#pc0bf0f6f16)" style="fill: #4f293d"/>
    <path d="M 443.177611 383.255417 
L 471.958937 391.865735 
L 476.53656 384.582385 
L 447.776191 376.710518 
z
" clip-path="url(#pc0bf0f6f16)" style="fill: #db73aa"/>
    <path d="M 481.152632 374.746016 
L 509.934852 391.873545 
L 514.360219 387.464933 
L 485.440085 379.061712 
z
" clip-path="url(#pc0bf0f6f16)" style="fill: #673650"/>
    <path d="M 405.394554 381.353551 
L 434.012918 389.121557 
L 438.627328 384.673932 
L 410.044578 378.421334 
z
" clip-path="url(#pc0bf0f6f16)" style="fill: #df75ac"/>
    <path d="M 367.581186 380.583654 
L 396.00495 390.266714 
L 400.744282 379.526664 
L 372.332355 371.821167 
z
" clip-path="url(#pc0bf0f6f16)" style="fill: #d06da1"/>
    <path d="M 518.76892 382.909208 
L 547.904035 391.987571 
L 552.44873 381.670112 
L 523.898625 353.640782 
z
" clip-path="url(#pc0bf0f6f16)" style="fill: #d670a6"/>
    <path d="M 536.435935 357.462726 
L 565.70367 358.965019 
L 577.753079 156.334309 
L 540.527957 359.564209 
z
" clip-path="url(#pc0bf0f6f16)" style="fill: #dc73aa"/>
    <path d="M 514.360219 387.464933 
L 543.55456 396.298042 
L 547.904035 391.987571 
L 518.76892 382.909208 
z
" clip-path="url(#pc0bf0f6f16)" style="fill: #502a3e"/>
    <path d="M 324.92034 387.8811 
L 353.193358 396.55519 
L 358.014262 392.168042 
L 329.782458 383.041341 
z
" clip-path="url(#pc0bf0f6f16)" style="fill: #d06da1"/>
    <path d="M 287.026685 387.913307 
L 315.113283 396.481187 
L 320.022382 391.576748 
L 291.983091 383.383085 
z
" clip-path="url(#pc0bf0f6f16)" style="fill: #e879b3"/>
    <path d="M 500.218321 306.693445 
L 533.190458 190.205446 
L 531.901233 368.347616 
L 503.140825 361.045657 
z
" clip-path="url(#pc0bf0f6f16)" style="fill: #914c70"/>
    <path d="M 211.229114 387.882839 
L 238.941112 396.33733 
L 244.055443 392.389551 
L 216.382692 383.792065 
z
" clip-path="url(#pc0bf0f6f16)" style="fill: #1f4868"/>
    <path d="M 438.627328 384.673932 
L 467.536135 390.036565 
L 471.958937 391.865735 
L 443.177611 383.255417 
z
" clip-path="url(#pc0bf0f6f16)" style="fill: #89486a"/>
    <path d="M 362.810609 387.42568 
L 391.285439 391.874333 
L 396.00495 390.266714 
L 367.581186 380.583654 
z
" clip-path="url(#pc0bf0f6f16)" style="fill: #b15d89"/>
    <path d="M 476.53656 384.582385 
L 505.50432 395.67909 
L 509.934852 391.873545 
L 481.152632 374.746016 
z
" clip-path="url(#pc0bf0f6f16)" style="fill: #5b2f46"/>
    <path d="M 249.132546 388.019931 
L 276.740791 381.832815 
L 282.037845 392.016056 
L 254.171159 383.111471 
z
" clip-path="url(#pc0bf0f6f16)" style="fill: #a1547d"/>
    <path d="M 400.744282 379.526664 
L 429.455828 386.387306 
L 434.012918 389.121557 
L 405.394554 381.353551 
z
" clip-path="url(#pc0bf0f6f16)" style="fill: #773e5c"/>
    <path d="M 509.934852 391.873545 
L 539.192121 400.370412 
L 543.55456 396.298042 
L 514.360219 387.464933 
z
" clip-path="url(#pc0bf0f6f16)" style="fill: #964e74"/>
    <path d="M 282.037845 392.016056 
L 310.176848 401.094983 
L 315.113283 396.481187 
L 287.026685 387.913307 
z
" clip-path="url(#pc0bf0f6f16)" style="fill: #93931d"/>
    <path d="M 320.022382 391.576748 
L 348.346741 400.610737 
L 353.193358 396.55519 
L 324.92034 387.8811 
z
" clip-path="url(#pc0bf0f6f16)" style="fill: #502a3e"/>
    <path d="M 471.958937 391.865735 
L 501.018103 400.780643 
L 505.50432 395.67909 
L 476.53656 384.582385 
z
" clip-path="url(#pc0bf0f6f16)" style="fill: #cc6b9e"/>
    <path d="M 206.066297 392.481702 
L 233.826365 401.207795 
L 238.941112 396.33733 
L 211.229114 387.882839 
z
" clip-path="url(#pc0bf0f6f16)" style="fill: #3272a6"/>
    <path d="M 358.014262 392.168042 
L 386.519676 400.764942 
L 391.285439 391.874333 
L 362.810609 387.42568 
z
" clip-path="url(#pc0bf0f6f16)" style="fill: #dc73aa"/>
    <path d="M 533.190458 190.205446 
L 557.061111 369.229645 
L 561.193962 369.356075 
L 531.901233 368.347616 
z
" clip-path="url(#pc0bf0f6f16)" style="fill: #65354e"/>
    <path d="M 244.055443 392.389551 
L 272.003984 401.216446 
L 276.740791 381.832815 
L 249.132546 388.019931 
z
" clip-path="url(#pc0bf0f6f16)" style="fill: #da72a9"/>
    <path d="M 434.012918 389.121557 
L 463.007854 392.235988 
L 467.536135 390.036565 
L 438.627328 384.673932 
z
" clip-path="url(#pc0bf0f6f16)" style="fill: #c16595"/>
    <path d="M 505.50432 395.67909 
L 534.789623 405.012117 
L 539.192121 400.370412 
L 509.934852 391.873545 
z
" clip-path="url(#pc0bf0f6f16)" style="fill: #804363"/>
    <path d="M 353.193358 396.55519 
L 381.745346 405.302261 
L 386.519676 400.764942 
L 358.014262 392.168042 
z
" clip-path="url(#pc0bf0f6f16)" style="fill: #ef7db9"/>
    <path d="M 315.113283 396.481187 
L 343.479609 405.35138 
L 348.346741 400.610737 
L 320.022382 391.576748 
z
" clip-path="url(#pc0bf0f6f16)" style="fill: #cd6b9e"/>
    <path d="M 238.941112 396.33733 
L 266.944303 405.572346 
L 272.003984 401.216446 
L 244.055443 392.389551 
z
" clip-path="url(#pc0bf0f6f16)" style="fill: #5d3148"/>
    <path d="M 200.868781 396.826699 
L 228.675845 405.717328 
L 233.826365 401.207795 
L 206.066297 392.481702 
z
" clip-path="url(#pc0bf0f6f16)" style="fill: #224e72"/>
    <path d="M 467.536135 390.036565 
L 496.538098 404.808662 
L 501.018103 400.780643 
L 471.958937 391.865735 
z
" clip-path="url(#pc0bf0f6f16)" style="fill: #63344d"/>
    <path d="M 495.288548 330.41378 
L 523.898625 353.640782 
L 533.190458 190.205446 
L 500.218321 306.693445 
z
" clip-path="url(#pc0bf0f6f16)" style="fill: #d46fa4"/>
    <path d="M 276.740791 381.832815 
L 305.21333 405.516123 
L 310.176848 401.094983 
L 282.037845 392.016056 
z
" clip-path="url(#pc0bf0f6f16)" style="fill: #673650"/>
    <path d="M 429.455828 386.387306 
L 458.422554 396.242611 
L 463.007854 392.235988 
L 434.012918 389.121557 
z
" clip-path="url(#pc0bf0f6f16)" style="fill: #562d43"/>
    <path d="M 523.898625 353.640782 
L 552.44873 381.670112 
L 557.061111 369.229645 
L 533.190458 190.205446 
z
" clip-path="url(#pc0bf0f6f16)" style="fill: #824464"/>
    <path d="M 501.018103 400.780643 
L 530.366831 409.638861 
L 534.789623 405.012117 
L 505.50432 395.67909 
z
" clip-path="url(#pc0bf0f6f16)" style="fill: #d670a5"/>
    <path d="M 348.346741 400.610737 
L 376.947653 409.55543 
L 381.745346 405.302261 
L 353.193358 396.55519 
z
" clip-path="url(#pc0bf0f6f16)" style="fill: #542c41"/>
    <path d="M 310.176848 401.094983 
L 338.585472 409.644888 
L 343.479609 405.35138 
L 315.113283 396.481187 
z
" clip-path="url(#pc0bf0f6f16)" style="fill: #bdbd26"/>
    <path d="M 195.649644 401.307924 
L 223.497703 410.177573 
L 228.675845 405.717328 
L 200.868781 396.826699 
z
" clip-path="url(#pc0bf0f6f16)" style="fill: #17344c"/>
    <path d="M 233.826365 401.207795 
L 261.858586 409.917553 
L 266.944303 405.572346 
L 238.941112 396.33733 
z
" clip-path="url(#pc0bf0f6f16)" style="fill: #a85882"/>
    <path d="M 396.00495 390.266714 
L 425.566924 314.340098 
L 429.455828 386.387306 
L 400.744282 379.526664 
z
" clip-path="url(#pc0bf0f6f16)" style="fill: #a5567f"/>
    <path d="M 386.519676 400.764942 
L 415.313826 408.794863 
L 420.052426 400.532664 
L 391.285439 391.874333 
z
" clip-path="url(#pc0bf0f6f16)" style="fill: #e578b1"/>
    <path d="M 272.003984 401.216446 
L 300.226973 410.080783 
L 305.21333 405.516123 
L 276.740791 381.832815 
z
" clip-path="url(#pc0bf0f6f16)" style="fill: #d8d82b"/>
    <path d="M 463.007854 392.235988 
L 492.082017 406.891615 
L 496.538098 404.808662 
L 467.536135 390.036565 
z
" clip-path="url(#pc0bf0f6f16)" style="fill: #552d42"/>
    <path d="M 496.538098 404.808662 
L 525.929933 414.041456 
L 530.366831 409.638861 
L 501.018103 400.780643 
z
" clip-path="url(#pc0bf0f6f16)" style="fill: #5c3047"/>
    <path d="M 391.285439 391.874333 
L 420.052426 400.532664 
L 425.566924 314.340098 
L 396.00495 390.266714 
z
" clip-path="url(#pc0bf0f6f16)" style="fill: #da72a9"/>
    <path d="M 343.479609 405.35138 
L 372.125871 414.215189 
L 376.947653 409.55543 
L 348.346741 400.610737 
z
" clip-path="url(#pc0bf0f6f16)" style="fill: #e276af"/>
    <path d="M 381.745346 405.302261 
L 410.580789 414.107844 
L 415.313826 408.794863 
L 386.519676 400.764942 
z
" clip-path="url(#pc0bf0f6f16)" style="fill: #e075ad"/>
    <path d="M 305.21333 405.516123 
L 333.667849 414.104947 
L 338.585472 409.644888 
L 310.176848 401.094983 
z
" clip-path="url(#pc0bf0f6f16)" style="fill: #d670a5"/>
    <path d="M 266.944303 405.572346 
L 295.201407 413.764222 
L 300.226973 410.080783 
L 272.003984 401.216446 
z
" clip-path="url(#pc0bf0f6f16)" style="fill: #a0a020"/>
    <path d="M 228.675845 405.717328 
L 256.751413 414.455457 
L 261.858586 409.917553 
L 233.826365 401.207795 
z
" clip-path="url(#pc0bf0f6f16)" style="fill: #f2f230"/>
    <path d="M 190.402834 405.758871 
L 218.293269 414.643783 
L 223.497703 410.177573 
L 195.649644 401.307924 
z
" clip-path="url(#pc0bf0f6f16)" style="fill: #1e4565"/>
    <path d="M 458.422554 396.242611 
L 487.674451 405.719666 
L 492.082017 406.891615 
L 463.007854 392.235988 
z
" clip-path="url(#pc0bf0f6f16)" style="fill: #61334b"/>
    <path d="M 376.947653 409.55543 
L 405.832515 418.380848 
L 410.580789 414.107844 
L 381.745346 405.302261 
z
" clip-path="url(#pc0bf0f6f16)" style="fill: #854567"/>
    <path d="M 300.226973 410.080783 
L 328.729646 419.01535 
L 333.667849 414.104947 
L 305.21333 405.516123 
z
" clip-path="url(#pc0bf0f6f16)" style="fill: #da72a9"/>
    <path d="M 338.585472 409.644888 
L 367.279376 418.224795 
L 372.125871 414.215189 
L 343.479609 405.35138 
z
" clip-path="url(#pc0bf0f6f16)" style="fill: #934d72"/>
    <path d="M 223.497703 410.177573 
L 251.62104 419.102461 
L 256.751413 414.455457 
L 228.675845 405.717328 
z
" clip-path="url(#pc0bf0f6f16)" style="fill: #df75ad"/>
    <path d="M 492.082017 406.891615 
L 521.477678 418.23477 
L 525.929933 414.041456 
L 496.538098 404.808662 
z
" clip-path="url(#pc0bf0f6f16)" style="fill: #60324a"/>
    <path d="M 261.858586 409.917553 
L 290.175449 418.998054 
L 295.201407 413.764222 
L 266.944303 405.572346 
z
" clip-path="url(#pc0bf0f6f16)" style="fill: #d5d52b"/>
    <path d="M 185.129607 410.221746 
L 213.061001 419.076718 
L 218.293269 414.643783 
L 190.402834 405.758871 
z
" clip-path="url(#pc0bf0f6f16)" style="fill: #25557c"/>
    <path d="M 415.313826 408.794863 
L 444.377295 418.742567 
L 449.030083 414.286718 
L 420.052426 400.532664 
z
" clip-path="url(#pc0bf0f6f16)" style="fill: #64344e"/>
    <path d="M 425.566924 314.340098 
L 453.665784 409.473457 
L 458.422554 396.242611 
L 429.455828 386.387306 
z
" clip-path="url(#pc0bf0f6f16)" style="fill: #6d3954"/>
    <path d="M 453.665784 409.473457 
L 482.966544 416.695249 
L 487.674451 405.719666 
L 458.422554 396.242611 
z
" clip-path="url(#pc0bf0f6f16)" style="fill: #e779b3"/>
    <path d="M 420.052426 400.532664 
L 449.030083 414.286718 
L 453.665784 409.473457 
L 425.566924 314.340098 
z
" clip-path="url(#pc0bf0f6f16)" style="fill: #6b3853"/>
    <path d="M 410.580789 414.107844 
L 439.700449 423.273087 
L 444.377295 418.742567 
L 415.313826 408.794863 
z
" clip-path="url(#pc0bf0f6f16)" style="fill: #683651"/>
    <path d="M 372.125871 414.215189 
L 401.057217 423.199684 
L 405.832515 418.380848 
L 376.947653 409.55543 
z
" clip-path="url(#pc0bf0f6f16)" style="fill: #d971a8"/>
    <path d="M 449.030083 414.286718 
L 478.341946 423.231752 
L 482.966544 416.695249 
L 453.665784 409.473457 
z
" clip-path="url(#pc0bf0f6f16)" style="fill: #db72a9"/>
    <path d="M 256.751413 414.455457 
L 285.113079 423.556538 
L 290.175449 418.998054 
L 261.858586 409.917553 
z
" clip-path="url(#pc0bf0f6f16)" style="fill: #7b7b19"/>
    <path d="M 218.293269 414.643783 
L 246.46084 423.601629 
L 251.62104 419.102461 
L 223.497703 410.177573 
z
" clip-path="url(#pc0bf0f6f16)" style="fill: #9f9f20"/>
    <path d="M 179.830606 414.718692 
L 207.808371 423.707455 
L 213.061001 419.076718 
L 185.129607 410.221746 
z
" clip-path="url(#pc0bf0f6f16)" style="fill: #306ea0"/>
    <path d="M 295.201407 413.764222 
L 323.751176 422.368921 
L 328.729646 419.01535 
L 300.226973 410.080783 
z
" clip-path="url(#pc0bf0f6f16)" style="fill: #7b405f"/>
    <path d="M 333.667849 414.104947 
L 362.406256 421.693067 
L 367.279376 418.224795 
L 338.585472 409.644888 
z
" clip-path="url(#pc0bf0f6f16)" style="fill: #ac5a85"/>
    <path d="M 487.674451 405.719666 
L 517.008016 422.262556 
L 521.477678 418.23477 
L 492.082017 406.891615 
z
" clip-path="url(#pc0bf0f6f16)" style="fill: #63344d"/>
    <path d="M 444.377295 418.742567 
L 473.73898 427.768057 
L 478.341946 423.231752 
L 449.030083 414.286718 
z
" clip-path="url(#pc0bf0f6f16)" style="fill: #60324a"/>
    <path d="M 405.832515 418.380848 
L 435.007312 427.245991 
L 439.700449 423.273087 
L 410.580789 414.107844 
z
" clip-path="url(#pc0bf0f6f16)" style="fill: #783f5d"/>
    <path d="M 251.62104 419.102461 
L 280.025616 428.149622 
L 285.113079 423.556538 
L 256.751413 414.455457 
z
" clip-path="url(#pc0bf0f6f16)" style="fill: #c2c227"/>
    <path d="M 367.279376 418.224795 
L 396.262258 427.201576 
L 401.057217 423.199684 
L 372.125871 414.215189 
z
" clip-path="url(#pc0bf0f6f16)" style="fill: #6c3853"/>
    <path d="M 213.061001 419.076718 
L 241.275186 428.141181 
L 246.46084 423.601629 
L 218.293269 414.643783 
z
" clip-path="url(#pc0bf0f6f16)" style="fill: #592f45"/>
    <path d="M 328.729646 419.01535 
L 357.516547 428.035888 
L 362.406256 421.693067 
L 333.667849 414.104947 
z
" clip-path="url(#pc0bf0f6f16)" style="fill: #da72a9"/>
    <path d="M 174.504156 419.212599 
L 202.525984 428.257613 
L 207.808371 423.707455 
L 179.830606 414.718692 
z
" clip-path="url(#pc0bf0f6f16)" style="fill: #17344c"/>
    <path d="M 290.175449 418.998054 
L 318.770856 427.979833 
L 323.751176 422.368921 
L 295.201407 413.764222 
z
" clip-path="url(#pc0bf0f6f16)" style="fill: #dd73ab"/>
    <path d="M 482.966544 416.695249 
L 512.522572 426.043245 
L 517.008016 422.262556 
L 487.674451 405.719666 
z
" clip-path="url(#pc0bf0f6f16)" style="fill: #552c42"/>
    <path d="M 439.700449 423.273087 
L 469.113646 432.286091 
L 473.73898 427.768057 
L 444.377295 418.742567 
z
" clip-path="url(#pc0bf0f6f16)" style="fill: #a2557e"/>
    <path d="M 401.057217 423.199684 
L 430.277783 432.268108 
L 435.007312 427.245991 
L 405.832515 418.380848 
z
" clip-path="url(#pc0bf0f6f16)" style="fill: #864590"/>
    <path d="M 285.113079 423.556538 
L 313.755123 432.60719 
L 318.770856 427.979833 
L 290.175449 418.998054 
z
" clip-path="url(#pc0bf0f6f16)" style="fill: #eb7bb6"/>
    <path d="M 246.46084 423.601629 
L 274.910857 432.676877 
L 280.025616 428.149622 
L 251.62104 419.102461 
z
" clip-path="url(#pc0bf0f6f16)" style="fill: #666614"/>
    <path d="M 323.751176 422.368921 
L 352.595408 432.083011 
L 357.516547 428.035888 
L 328.729646 419.01535 
z
" clip-path="url(#pc0bf0f6f16)" style="fill: #4f2a3d"/>
    <path d="M 207.808371 423.707455 
L 236.065356 432.771312 
L 241.275186 428.141181 
L 213.061001 419.076718 
z
" clip-path="url(#pc0bf0f6f16)" style="fill: #eaea2f"/>
    <path d="M 478.341946 423.231752 
L 507.951547 432.10705 
L 512.522572 426.043245 
L 482.966544 416.695249 
z
" clip-path="url(#pc0bf0f6f16)" style="fill: #e176ae"/>
    <path d="M 169.152173 423.756201 
L 197.217093 432.83214 
L 202.525984 428.257613 
L 174.504156 419.212599 
z
" clip-path="url(#pc0bf0f6f16)" style="fill: #1c3f5c"/>
    <path d="M 362.406256 421.693067 
L 391.438922 432.154679 
L 396.262258 427.201576 
L 367.279376 418.224795 
z
" clip-path="url(#pc0bf0f6f16)" style="fill: #783f5d"/>
    <path d="M 473.73898 427.768057 
L 503.391979 436.99396 
L 507.951547 432.10705 
L 478.341946 423.231752 
z
" clip-path="url(#pc0bf0f6f16)" style="fill: #c26596"/>
    <path d="M 435.007312 427.245991 
L 464.475651 436.24168 
L 469.113646 432.286091 
L 439.700449 423.273087 
z
" clip-path="url(#pc0bf0f6f16)" style="fill: #723c58"/>
    <path d="M 396.262258 427.201576 
L 425.530138 436.849289 
L 430.277783 432.268108 
L 401.057217 423.199684 
z
" clip-path="url(#pc0bf0f6f16)" style="fill: #65354e"/>
    <path d="M 280.025616 428.149622 
L 308.713929 437.235861 
L 313.755123 432.60719 
L 285.113079 423.556538 
z
" clip-path="url(#pc0bf0f6f16)" style="fill: #f27ebb"/>
    <path d="M 241.275186 428.141181 
L 269.770874 437.257324 
L 274.910857 432.676877 
L 246.46084 423.601629 
z
" clip-path="url(#pc0bf0f6f16)" style="fill: #6c3854"/>
    <path d="M 357.516547 428.035888 
L 386.591977 437.154994 
L 391.438922 432.154679 
L 362.406256 421.693067 
z
" clip-path="url(#pc0bf0f6f16)" style="fill: #da72a8"/>
    <path d="M 202.525984 428.257613 
L 230.822781 437.199861 
L 236.065356 432.771312 
L 207.808371 423.707455 
z
" clip-path="url(#pc0bf0f6f16)" style="fill: #a8a822"/>
    <path d="M 318.770856 427.979833 
L 347.653083 436.999998 
L 352.595408 432.083011 
L 323.751176 422.368921 
z
" clip-path="url(#pc0bf0f6f16)" style="fill: #e879b4"/>
    <path d="M 469.113646 432.286091 
L 498.81992 441.511681 
L 503.391979 436.99396 
L 473.73898 427.768057 
z
" clip-path="url(#pc0bf0f6f16)" style="fill: #512a3e"/>
    <path d="M 430.277783 432.268108 
L 459.791663 441.442917 
L 464.475651 436.24168 
L 435.007312 427.245991 
z
" clip-path="url(#pc0bf0f6f16)" style="fill: #d971a8"/>
    <path d="M 391.438922 432.154679 
L 420.756166 441.698793 
L 425.530138 436.849289 
L 396.262258 427.201576 
z
" clip-path="url(#pc0bf0f6f16)" style="fill: #8d4a6d"/>
    <path d="M 313.755123 432.60719 
L 342.685453 441.789978 
L 347.653083 436.999998 
L 318.770856 427.979833 
z
" clip-path="url(#pc0bf0f6f16)" style="fill: #d36ea3"/>
    <path d="M 274.910857 432.676877 
L 303.646589 441.836673 
L 308.713929 437.235861 
L 280.025616 428.149622 
z
" clip-path="url(#pc0bf0f6f16)" style="fill: #723b58"/>
    <path d="M 352.595408 432.083011 
L 381.723135 440.952131 
L 386.591977 437.154994 
L 357.516547 428.035888 
z
" clip-path="url(#pc0bf0f6f16)" style="fill: #7d4261"/>
    <path d="M 236.065356 432.771312 
L 264.605508 441.888488 
L 269.770874 437.257324 
L 241.275186 428.141181 
z
" clip-path="url(#pc0bf0f6f16)" style="fill: #eeee30"/>
    <path d="M 197.217093 432.83214 
L 225.56334 441.97849 
L 230.822781 437.199861 
L 202.525984 428.257613 
z
" clip-path="url(#pc0bf0f6f16)" style="fill: #e8e82e"/>
    <path d="M 464.475651 436.24168 
L 494.225352 446.018385 
L 498.81992 441.511681 
L 469.113646 432.286091 
z
" clip-path="url(#pc0bf0f6f16)" style="fill: #5b3047"/>
    <path d="M 425.530138 436.849289 
L 455.094663 446.087611 
L 459.791663 441.442917 
L 430.277783 432.268108 
z
" clip-path="url(#pc0bf0f6f16)" style="fill: #6e3955"/>
    <path d="M 386.591977 437.154994 
L 415.960227 446.364847 
L 420.756166 441.698793 
L 391.438922 432.154679 
z
" clip-path="url(#pc0bf0f6f16)" style="fill: #d56fa5"/>
    <path d="M 308.713929 437.235861 
L 337.691956 446.464175 
L 342.685453 441.789978 
L 313.755123 432.60719 
z
" clip-path="url(#pc0bf0f6f16)" style="fill: #baba25"/>
    <path d="M 269.770874 437.257324 
L 298.552574 446.398573 
L 303.646589 441.836673 
L 274.910857 432.676877 
z
" clip-path="url(#pc0bf0f6f16)" style="fill: #9a5077"/>
    <path d="M 347.653083 436.999998 
L 376.827374 446.120401 
L 381.723135 440.952131 
L 352.595408 432.083011 
z
" clip-path="url(#pc0bf0f6f16)" style="fill: #e376af"/>
    <path d="M 230.822781 437.199861 
L 259.414994 446.585122 
L 264.605508 441.888488 
L 236.065356 432.771312 
z
" clip-path="url(#pc0bf0f6f16)" style="fill: #7e7e19"/>
    <path d="M 459.791663 441.442917 
L 489.599107 450.891596 
L 494.225352 446.018385 
L 464.475651 436.24168 
z
" clip-path="url(#pc0bf0f6f16)" style="fill: #a3557e"/>
    <path d="M 420.756166 441.698793 
L 450.375328 450.658777 
L 455.094663 446.087611 
L 425.530138 436.849289 
z
" clip-path="url(#pc0bf0f6f16)" style="fill: #c66799"/>
    <path d="M 381.723135 440.952131 
L 411.141332 450.874476 
L 415.960227 446.364847 
L 386.591977 437.154994 
z
" clip-path="url(#pc0bf0f6f16)" style="fill: #5b3047"/>
    <path d="M 342.685453 441.789978 
L 371.907627 450.975106 
L 376.827374 446.120401 
L 347.653083 436.999998 
z
" clip-path="url(#pc0bf0f6f16)" style="fill: #eb7bb5"/>
    <path d="M 303.646589 441.836673 
L 332.672616 451.097955 
L 337.691956 446.464175 
L 308.713929 437.235861 
z
" clip-path="url(#pc0bf0f6f16)" style="fill: #616113"/>
    <path d="M 264.605508 441.888488 
L 293.436002 451.192846 
L 298.552574 446.398573 
L 269.770874 437.257324 
z
" clip-path="url(#pc0bf0f6f16)" style="fill: #c26596"/>
    <path d="M 225.56334 441.97849 
L 254.196569 451.237943 
L 259.414994 446.585122 
L 230.822781 437.199861 
z
" clip-path="url(#pc0bf0f6f16)" style="fill: #606013"/>
    <path d="M 415.960227 446.364847 
L 445.626144 455.640619 
L 450.375328 450.658777 
L 420.756166 441.698793 
z
" clip-path="url(#pc0bf0f6f16)" style="fill: #df74ac"/>
    <path d="M 455.094663 446.087611 
L 484.974826 454.67993 
L 489.599107 450.891596 
L 459.791663 441.442917 
z
" clip-path="url(#pc0bf0f6f16)" style="fill: #974f75"/>
    <path d="M 337.691956 446.464175 
L 366.963077 455.764673 
L 371.907627 450.975106 
L 342.685453 441.789978 
z
" clip-path="url(#pc0bf0f6f16)" style="fill: #e2e22d"/>
    <path d="M 376.827374 446.120401 
L 406.295932 455.663371 
L 411.141332 450.874476 
L 381.723135 440.952131 
z
" clip-path="url(#pc0bf0f6f16)" style="fill: #814464"/>
    <path d="M 298.552574 446.398573 
L 327.627358 455.72436 
L 332.672616 451.097955 
L 303.646589 441.836673 
z
" clip-path="url(#pc0bf0f6f16)" style="fill: #595912"/>
    <path d="M 259.414994 446.585122 
L 288.291309 455.879037 
L 293.436002 451.192846 
L 264.605508 441.888488 
z
" clip-path="url(#pc0bf0f6f16)" style="fill: #c26596"/>
    <path d="M 411.141332 450.874476 
L 440.862011 460.006936 
L 445.626144 455.640619 
L 415.960227 446.364847 
z
" clip-path="url(#pc0bf0f6f16)" style="fill: #8e4a6e"/>
    <path d="M 371.907627 450.975106 
L 401.426733 460.344162 
L 406.295932 455.663371 
L 376.827374 446.120401 
z
" clip-path="url(#pc0bf0f6f16)" style="fill: #512a3f"/>
    <path d="M 450.375328 450.658777 
L 480.289734 460.124237 
L 484.974826 454.67993 
L 455.094663 446.087611 
z
" clip-path="url(#pc0bf0f6f16)" style="fill: #d7d72b"/>
    <path d="M 332.672616 451.097955 
L 361.993106 460.427623 
L 366.963077 455.764673 
L 337.691956 446.464175 
z
" clip-path="url(#pc0bf0f6f16)" style="fill: #84841a"/>
    <path d="M 293.436002 451.192846 
L 322.558075 460.548095 
L 327.627358 455.72436 
L 298.552574 446.398573 
z
" clip-path="url(#pc0bf0f6f16)" style="fill: #dede2c"/>
    <path d="M 254.196569 451.237943 
L 283.120626 460.60387 
L 288.291309 455.879037 
L 259.414994 446.585122 
z
" clip-path="url(#pc0bf0f6f16)" style="fill: #5b2f62"/>
    <path d="M 445.626144 455.640619 
L 475.593144 465.062213 
L 480.289734 460.124237 
L 450.375328 450.658777 
z
" clip-path="url(#pc0bf0f6f16)" style="fill: #d26ea3"/>
    <path d="M 406.295932 455.663371 
L 436.065445 464.979856 
L 440.862011 460.006936 
L 411.141332 450.874476 
z
" clip-path="url(#pc0bf0f6f16)" style="fill: #ea7ab5"/>
    <path d="M 366.963077 455.764673 
L 396.532188 465.130246 
L 401.426733 460.344162 
L 371.907627 450.975106 
z
" clip-path="url(#pc0bf0f6f16)" style="fill: #f07dba"/>
    <path d="M 327.627358 455.72436 
L 356.997096 464.975038 
L 361.993106 460.427623 
L 332.672616 451.097955 
z
" clip-path="url(#pc0bf0f6f16)" style="fill: #9b9b1f"/>
    <path d="M 288.291309 455.879037 
L 317.461545 465.265359 
L 322.558075 460.548095 
L 293.436002 451.192846 
z
" clip-path="url(#pc0bf0f6f16)" style="fill: #8f8f1d"/>
    <path d="M 440.862011 460.006936 
L 470.878619 469.734145 
L 475.593144 465.062213 
L 445.626144 455.640619 
z
" clip-path="url(#pc0bf0f6f16)" style="fill: #582e44"/>
    <path d="M 401.426733 460.344162 
L 431.246495 469.827615 
L 436.065445 464.979856 
L 406.295932 455.663371 
z
" clip-path="url(#pc0bf0f6f16)" style="fill: #bd6392"/>
    <path d="M 361.993106 460.427623 
L 391.613073 469.81547 
L 396.532188 465.130246 
L 366.963077 455.764673 
z
" clip-path="url(#pc0bf0f6f16)" style="fill: #954e73"/>
    <path d="M 322.558075 460.548095 
L 351.976746 469.907072 
L 356.997096 464.975038 
L 327.627358 455.72436 
z
" clip-path="url(#pc0bf0f6f16)" style="fill: #f6f631"/>
    <path d="M 283.120626 460.60387 
L 312.339378 470.049861 
L 317.461545 465.265359 
L 288.291309 455.879037 
z
" clip-path="url(#pc0bf0f6f16)" style="fill: #934c23"/>
    <path d="M 436.065445 464.979856 
L 466.1375 474.545637 
L 470.878619 469.734145 
L 440.862011 460.006936 
z
" clip-path="url(#pc0bf0f6f16)" style="fill: #7e4261"/>
    <path d="M 396.532188 465.130246 
L 426.403495 474.647573 
L 431.246495 469.827615 
L 401.426733 460.344162 
z
" clip-path="url(#pc0bf0f6f16)" style="fill: #ae5b87"/>
    <path d="M 356.997096 464.975038 
L 386.668513 474.521683 
L 391.613073 469.81547 
L 361.993106 460.427623 
z
" clip-path="url(#pc0bf0f6f16)" style="fill: #512a3e"/>
    <path d="M 317.461545 465.265359 
L 346.930102 474.71902 
L 351.976746 469.907072 
L 322.558075 460.548095 
z
" clip-path="url(#pc0bf0f6f16)" style="fill: #367bb3"/>
    <path d="M 431.246495 469.827615 
L 461.371354 479.417358 
L 466.1375 474.545637 
L 436.065445 464.979856 
z
" clip-path="url(#pc0bf0f6f16)" style="fill: #b0b023"/>
    <path d="M 391.613073 469.81547 
L 421.536243 479.425151 
L 426.403495 474.647573 
L 396.532188 465.130246 
z
" clip-path="url(#pc0bf0f6f16)" style="fill: #542c41"/>
    <path d="M 351.976746 469.907072 
L 381.697882 479.534187 
L 386.668513 474.521683 
L 356.997096 464.975038 
z
" clip-path="url(#pc0bf0f6f16)" style="fill: #bf6494"/>
    <path d="M 312.339378 470.049861 
L 341.857697 479.586223 
L 346.930102 474.71902 
L 317.461545 465.265359 
z
" clip-path="url(#pc0bf0f6f16)" style="fill: #e87300"/>
    <path d="M 426.403495 474.647573 
L 456.581998 484.236989 
L 461.371354 479.417358 
L 431.246495 469.827615 
z
" clip-path="url(#pc0bf0f6f16)" style="fill: #6f6f16"/>
    <path d="M 386.668513 474.521683 
L 416.643528 484.254764 
L 421.536243 479.425151 
L 391.613073 469.81547 
z
" clip-path="url(#pc0bf0f6f16)" style="fill: #65354e"/>
    <path d="M 346.930102 474.71902 
L 376.702058 484.372599 
L 381.697882 479.534187 
L 351.976746 469.907072 
z
" clip-path="url(#pc0bf0f6f16)" style="fill: #6d6d16"/>
    <path d="M 421.536243 479.425151 
L 451.767725 489.085696 
L 456.581998 484.236989 
L 426.403495 474.647573 
z
" clip-path="url(#pc0bf0f6f16)" style="fill: #555511"/>
    <path d="M 381.697882 479.534187 
L 411.724942 489.174973 
L 416.643528 484.254764 
L 386.668513 474.521683 
z
" clip-path="url(#pc0bf0f6f16)" style="fill: #e1e12d"/>
    <path d="M 341.857697 479.586223 
L 371.680343 489.228726 
L 376.702058 484.372599 
L 346.930102 474.71902 
z
" clip-path="url(#pc0bf0f6f16)" style="fill: #142e44"/>
    <path d="M 416.643528 484.254764 
L 446.928126 493.978968 
L 451.767725 489.085696 
L 421.536243 479.425151 
z
" clip-path="url(#pc0bf0f6f16)" style="fill: #7a7a18"/>
    <path d="M 376.702058 484.372599 
L 406.78132 494.06044 
L 411.724942 489.174973 
L 381.697882 479.534187 
z
" clip-path="url(#pc0bf0f6f16)" style="fill: #e4e42e"/>
    <path d="M 411.724942 489.174973 
L 442.063031 498.919134 
L 446.928126 493.978968 
L 416.643528 484.254764 
z
" clip-path="url(#pc0bf0f6f16)" style="fill: #dada2c"/>
    <path d="M 371.680343 489.228726 
L 401.811955 498.969532 
L 406.78132 494.06044 
L 376.702058 484.372599 
z
" clip-path="url(#pc0bf0f6f16)" style="fill: #48254d"/>
    <path d="M 406.78132 494.06044 
L 437.173022 503.851331 
L 442.063031 498.919134 
L 411.724942 489.174973 
z
" clip-path="url(#pc0bf0f6f16)" style="fill: #737317"/>
    <path d="M 401.811955 498.969532 
L 432.257311 508.816528 
L 437.173022 503.851331 
L 406.78132 494.06044 
z
" clip-path="url(#pc0bf0f6f16)" style="fill: #934d72"/>
   </g>
   <g id="text_4">
    <!-- order -->
    <g transform="translate(351.346887 20.88) scale(0.12 -0.12)">
     <use xlink:href="#DejaVuSans-6f"/>
     <use xlink:href="#DejaVuSans-72" x="61.181641"/>
     <use xlink:href="#DejaVuSans-64" x="100.544922"/>
     <use xlink:href="#DejaVuSans-65" x="164.021484"/>
     <use xlink:href="#DejaVuSans-72" x="225.544922"/>
    </g>
   </g>
  </g>
  <g id="axes_2">
   <g id="patch_6">
    <path d="M 675.6139 565.2 
L 702.5299 565.2 
L 702.5299 26.88 
L 675.6139 26.88 
z
" style="fill: #ffffff"/>
   </g>
   <g id="QuadMesh_1">
    <path d="M 675.6139 565.2 
L 702.5299 565.2 
L 702.5299 497.91 
L 675.6139 497.91 
L 675.6139 565.2 
" clip-path="url(#p4b146eeb6c)" style="fill: #e41a1c"/>
    <path d="M 675.6139 497.91 
L 702.5299 497.91 
L 702.5299 430.62 
L 675.6139 430.62 
L 675.6139 497.91 
" clip-path="url(#p4b146eeb6c)" style="fill: #377eb8"/>
    <path d="M 675.6139 430.62 
L 702.5299 430.62 
L 702.5299 363.33 
L 675.6139 363.33 
L 675.6139 430.62 
" clip-path="url(#p4b146eeb6c)" style="fill: #4daf4a"/>
    <path d="M 675.6139 363.33 
L 702.5299 363.33 
L 702.5299 296.04 
L 675.6139 296.04 
L 675.6139 363.33 
" clip-path="url(#p4b146eeb6c)" style="fill: #984ea3"/>
    <path d="M 675.6139 296.04 
L 702.5299 296.04 
L 702.5299 228.75 
L 675.6139 228.75 
L 675.6139 296.04 
" clip-path="url(#p4b146eeb6c)" style="fill: #ff7f00"/>
    <path d="M 675.6139 228.75 
L 702.5299 228.75 
L 702.5299 161.46 
L 675.6139 161.46 
L 675.6139 228.75 
" clip-path="url(#p4b146eeb6c)" style="fill: #ffff33"/>
    <path d="M 675.6139 161.46 
L 702.5299 161.46 
L 702.5299 94.17 
L 675.6139 94.17 
L 675.6139 161.46 
" clip-path="url(#p4b146eeb6c)" style="fill: #a65628"/>
    <path d="M 675.6139 94.17 
L 702.5299 94.17 
L 702.5299 26.88 
L 675.6139 26.88 
L 675.6139 94.17 
" clip-path="url(#p4b146eeb6c)" style="fill: #f781bf"/>
   </g>
   <g id="matplotlib.axis_1"/>
   <g id="matplotlib.axis_2">
    <g id="ytick_1">
     <g id="line2d_4">
      <defs>
       <path id="m4941edb80a" d="M 0 0 
L 3.5 0 
" style="stroke: #000000; stroke-width: 0.8"/>
      </defs>
      <g>
       <use xlink:href="#m4941edb80a" x="702.5299" y="531.555" style="stroke: #000000; stroke-width: 0.8"/>
      </g>
     </g>
     <g id="text_5">
      <!-- Not seen in this sample -->
      <g transform="translate(709.5299 535.354219) scale(0.1 -0.1)">
       <use xlink:href="#DejaVuSans-4e"/>
       <use xlink:href="#DejaVuSans-6f" x="74.804688"/>
       <use xlink:href="#DejaVuSans-74" x="135.986328"/>
       <use xlink:href="#DejaVuSans-20" x="175.195312"/>
       <use xlink:href="#DejaVuSans-73" x="206.982422"/>
       <use xlink:href="#DejaVuSans-65" x="259.082031"/>
       <use xlink:href="#DejaVuSans-65" x="320.605469"/>
       <use xlink:href="#DejaVuSans-6e" x="382.128906"/>
       <use xlink:href="#DejaVuSans-20" x="445.507812"/>
       <use xlink:href="#DejaVuSans-69" x="477.294922"/>
       <use xlink:href="#DejaVuSans-6e" x="505.078125"/>
       <use xlink:href="#DejaVuSans-20" x="568.457031"/>
       <use xlink:href="#DejaVuSans-74" x="600.244141"/>
       <use xlink:href="#DejaVuSans-68" x="639.453125"/>
       <use xlink:href="#DejaVuSans-69" x="702.832031"/>
       <use xlink:href="#DejaVuSans-73" x="730.615234"/>
       <use xlink:href="#DejaVuSans-20" x="782.714844"/>
       <use xlink:href="#DejaVuSans-73" x="814.501953"/>
       <use xlink:href="#DejaVuSans-61" x="866.601562"/>
       <use xlink:href="#DejaVuSans-6d" x="927.880859"/>
       <use xlink:href="#DejaVuSans-70" x="1025.292969"/>
       <use xlink:href="#DejaVuSans-6c" x="1088.769531"/>
       <use xlink:href="#DejaVuSans-65" x="1116.552734"/>
      </g>
     </g>
    </g>
    <g id="ytick_2">
     <g id="line2d_5">
      <g>
       <use xlink:href="#m4941edb80a" x="702.5299" y="464.265" style="stroke: #000000; stroke-width: 0.8"/>
      </g>
     </g>
     <g id="text_6">
      <!-- MGI Only -->
      <g transform="translate(709.5299 468.064219) scale(0.1 -0.1)">
       <defs>
        <path id="DejaVuSans-4f" d="M 2522 4238 
Q 1834 4238 1429 3725 
Q 1025 3213 1025 2328 
Q 1025 1447 1429 934 
Q 1834 422 2522 422 
Q 3209 422 3611 934 
Q 4013 1447 4013 2328 
Q 4013 3213 3611 3725 
Q 3209 4238 2522 4238 
z
M 2522 4750 
Q 3503 4750 4090 4092 
Q 4678 3434 4678 2328 
Q 4678 1225 4090 567 
Q 3503 -91 2522 -91 
Q 1538 -91 948 565 
Q 359 1222 359 2328 
Q 359 3434 948 4092 
Q 1538 4750 2522 4750 
z
" transform="scale(0.015625)"/>
        <path id="DejaVuSans-79" d="M 2059 -325 
Q 1816 -950 1584 -1140 
Q 1353 -1331 966 -1331 
L 506 -1331 
L 506 -850 
L 844 -850 
Q 1081 -850 1212 -737 
Q 1344 -625 1503 -206 
L 1606 56 
L 191 3500 
L 800 3500 
L 1894 763 
L 2988 3500 
L 3597 3500 
L 2059 -325 
z
" transform="scale(0.015625)"/>
       </defs>
       <use xlink:href="#DejaVuSans-4d"/>
       <use xlink:href="#DejaVuSans-47" x="86.279297"/>
       <use xlink:href="#DejaVuSans-49" x="163.769531"/>
       <use xlink:href="#DejaVuSans-20" x="193.261719"/>
       <use xlink:href="#DejaVuSans-4f" x="225.048828"/>
       <use xlink:href="#DejaVuSans-6e" x="303.759766"/>
       <use xlink:href="#DejaVuSans-6c" x="367.138672"/>
       <use xlink:href="#DejaVuSans-79" x="394.921875"/>
      </g>
     </g>
    </g>
    <g id="ytick_3">
     <g id="line2d_6">
      <g>
       <use xlink:href="#m4941edb80a" x="702.5299" y="396.975" style="stroke: #000000; stroke-width: 0.8"/>
      </g>
     </g>
     <g id="text_7">
      <!-- MinION Only -->
      <g transform="translate(709.5299 400.774219) scale(0.1 -0.1)">
       <use xlink:href="#DejaVuSans-4d"/>
       <use xlink:href="#DejaVuSans-69" x="86.279297"/>
       <use xlink:href="#DejaVuSans-6e" x="114.0625"/>
       <use xlink:href="#DejaVuSans-49" x="177.441406"/>
       <use xlink:href="#DejaVuSans-4f" x="206.933594"/>
       <use xlink:href="#DejaVuSans-4e" x="285.644531"/>
       <use xlink:href="#DejaVuSans-20" x="360.449219"/>
       <use xlink:href="#DejaVuSans-4f" x="392.236328"/>
       <use xlink:href="#DejaVuSans-6e" x="470.947266"/>
       <use xlink:href="#DejaVuSans-6c" x="534.326172"/>
       <use xlink:href="#DejaVuSans-79" x="562.109375"/>
      </g>
     </g>
    </g>
    <g id="ytick_4">
     <g id="line2d_7">
      <g>
       <use xlink:href="#m4941edb80a" x="702.5299" y="329.685" style="stroke: #000000; stroke-width: 0.8"/>
      </g>
     </g>
     <g id="text_8">
      <!-- MGI + MinION -->
      <g transform="translate(709.5299 333.484219) scale(0.1 -0.1)">
       <defs>
        <path id="DejaVuSans-2b" d="M 2944 4013 
L 2944 2272 
L 4684 2272 
L 4684 1741 
L 2944 1741 
L 2944 0 
L 2419 0 
L 2419 1741 
L 678 1741 
L 678 2272 
L 2419 2272 
L 2419 4013 
L 2944 4013 
z
" transform="scale(0.015625)"/>
       </defs>
       <use xlink:href="#DejaVuSans-4d"/>
       <use xlink:href="#DejaVuSans-47" x="86.279297"/>
       <use xlink:href="#DejaVuSans-49" x="163.769531"/>
       <use xlink:href="#DejaVuSans-20" x="193.261719"/>
       <use xlink:href="#DejaVuSans-2b" x="225.048828"/>
       <use xlink:href="#DejaVuSans-20" x="308.837891"/>
       <use xlink:href="#DejaVuSans-4d" x="340.625"/>
       <use xlink:href="#DejaVuSans-69" x="426.904297"/>
       <use xlink:href="#DejaVuSans-6e" x="454.6875"/>
       <use xlink:href="#DejaVuSans-49" x="518.066406"/>
       <use xlink:href="#DejaVuSans-4f" x="547.558594"/>
       <use xlink:href="#DejaVuSans-4e" x="626.269531"/>
      </g>
     </g>
    </g>
    <g id="ytick_5">
     <g id="line2d_8">
      <g>
       <use xlink:href="#m4941edb80a" x="702.5299" y="262.395" style="stroke: #000000; stroke-width: 0.8"/>
      </g>
     </g>
     <g id="text_9">
      <!-- Promethion Only -->
      <g transform="translate(709.5299 266.194219) scale(0.1 -0.1)">
       <defs>
        <path id="DejaVuSans-50" d="M 1259 4147 
L 1259 2394 
L 2053 2394 
Q 2494 2394 2734 2622 
Q 2975 2850 2975 3272 
Q 2975 3691 2734 3919 
Q 2494 4147 2053 4147 
L 1259 4147 
z
M 628 4666 
L 2053 4666 
Q 2838 4666 3239 4311 
Q 3641 3956 3641 3272 
Q 3641 2581 3239 2228 
Q 2838 1875 2053 1875 
L 1259 1875 
L 1259 0 
L 628 0 
L 628 4666 
z
" transform="scale(0.015625)"/>
       </defs>
       <use xlink:href="#DejaVuSans-50"/>
       <use xlink:href="#DejaVuSans-72" x="58.552734"/>
       <use xlink:href="#DejaVuSans-6f" x="97.416016"/>
       <use xlink:href="#DejaVuSans-6d" x="158.597656"/>
       <use xlink:href="#DejaVuSans-65" x="256.009766"/>
       <use xlink:href="#DejaVuSans-74" x="317.533203"/>
       <use xlink:href="#DejaVuSans-68" x="356.742188"/>
       <use xlink:href="#DejaVuSans-69" x="420.121094"/>
       <use xlink:href="#DejaVuSans-6f" x="447.904297"/>
       <use xlink:href="#DejaVuSans-6e" x="509.085938"/>
       <use xlink:href="#DejaVuSans-20" x="572.464844"/>
       <use xlink:href="#DejaVuSans-4f" x="604.251953"/>
       <use xlink:href="#DejaVuSans-6e" x="682.962891"/>
       <use xlink:href="#DejaVuSans-6c" x="746.341797"/>
       <use xlink:href="#DejaVuSans-79" x="774.125"/>
      </g>
     </g>
    </g>
    <g id="ytick_6">
     <g id="line2d_9">
      <g>
       <use xlink:href="#m4941edb80a" x="702.5299" y="195.105" style="stroke: #000000; stroke-width: 0.8"/>
      </g>
     </g>
     <g id="text_10">
      <!-- MGI + Promethion -->
      <g transform="translate(709.5299 198.904219) scale(0.1 -0.1)">
       <use xlink:href="#DejaVuSans-4d"/>
       <use xlink:href="#DejaVuSans-47" x="86.279297"/>
       <use xlink:href="#DejaVuSans-49" x="163.769531"/>
       <use xlink:href="#DejaVuSans-20" x="193.261719"/>
       <use xlink:href="#DejaVuSans-2b" x="225.048828"/>
       <use xlink:href="#DejaVuSans-20" x="308.837891"/>
       <use xlink:href="#DejaVuSans-50" x="340.625"/>
       <use xlink:href="#DejaVuSans-72" x="399.177734"/>
       <use xlink:href="#DejaVuSans-6f" x="438.041016"/>
       <use xlink:href="#DejaVuSans-6d" x="499.222656"/>
       <use xlink:href="#DejaVuSans-65" x="596.634766"/>
       <use xlink:href="#DejaVuSans-74" x="658.158203"/>
       <use xlink:href="#DejaVuSans-68" x="697.367188"/>
       <use xlink:href="#DejaVuSans-69" x="760.746094"/>
       <use xlink:href="#DejaVuSans-6f" x="788.529297"/>
       <use xlink:href="#DejaVuSans-6e" x="849.710938"/>
      </g>
     </g>
    </g>
    <g id="ytick_7">
     <g id="line2d_10">
      <g>
       <use xlink:href="#m4941edb80a" x="702.5299" y="127.815" style="stroke: #000000; stroke-width: 0.8"/>
      </g>
     </g>
     <g id="text_11">
      <!-- MinION + Promethion -->
      <g transform="translate(709.5299 131.614219) scale(0.1 -0.1)">
       <use xlink:href="#DejaVuSans-4d"/>
       <use xlink:href="#DejaVuSans-69" x="86.279297"/>
       <use xlink:href="#DejaVuSans-6e" x="114.0625"/>
       <use xlink:href="#DejaVuSans-49" x="177.441406"/>
       <use xlink:href="#DejaVuSans-4f" x="206.933594"/>
       <use xlink:href="#DejaVuSans-4e" x="285.644531"/>
       <use xlink:href="#DejaVuSans-20" x="360.449219"/>
       <use xlink:href="#DejaVuSans-2b" x="392.236328"/>
       <use xlink:href="#DejaVuSans-20" x="476.025391"/>
       <use xlink:href="#DejaVuSans-50" x="507.8125"/>
       <use xlink:href="#DejaVuSans-72" x="566.365234"/>
       <use xlink:href="#DejaVuSans-6f" x="605.228516"/>
       <use xlink:href="#DejaVuSans-6d" x="666.410156"/>
       <use xlink:href="#DejaVuSans-65" x="763.822266"/>
       <use xlink:href="#DejaVuSans-74" x="825.345703"/>
       <use xlink:href="#DejaVuSans-68" x="864.554688"/>
       <use xlink:href="#DejaVuSans-69" x="927.933594"/>
       <use xlink:href="#DejaVuSans-6f" x="955.716797"/>
       <use xlink:href="#DejaVuSans-6e" x="1016.898438"/>
      </g>
     </g>
    </g>
    <g id="ytick_8">
     <g id="line2d_11">
      <g>
       <use xlink:href="#m4941edb80a" x="702.5299" y="60.525" style="stroke: #000000; stroke-width: 0.8"/>
      </g>
     </g>
     <g id="text_12">
      <!-- All -->
      <g transform="translate(709.5299 64.324219) scale(0.1 -0.1)">
       <defs>
        <path id="DejaVuSans-41" d="M 2188 4044 
L 1331 1722 
L 3047 1722 
L 2188 4044 
z
M 1831 4666 
L 2547 4666 
L 4325 0 
L 3669 0 
L 3244 1197 
L 1141 1197 
L 716 0 
L 50 0 
L 1831 4666 
z
" transform="scale(0.015625)"/>
       </defs>
       <use xlink:href="#DejaVuSans-41"/>
       <use xlink:href="#DejaVuSans-6c" x="68.408203"/>
       <use xlink:href="#DejaVuSans-6c" x="96.191406"/>
      </g>
     </g>
    </g>
    <g id="text_13">
     <!-- How the taxa were detected -->
     <g transform="translate(838.933025 366.990781) rotate(-90) scale(0.1 -0.1)">
      <defs>
       <path id="DejaVuSans-48" d="M 628 4666 
L 1259 4666 
L 1259 2753 
L 3553 2753 
L 3553 4666 
L 4184 4666 
L 4184 0 
L 3553 0 
L 3553 2222 
L 1259 2222 
L 1259 0 
L 628 0 
L 628 4666 
z
" transform="scale(0.015625)"/>
       <path id="DejaVuSans-63" d="M 3122 3366 
L 3122 2828 
Q 2878 2963 2633 3030 
Q 2388 3097 2138 3097 
Q 1578 3097 1268 2742 
Q 959 2388 959 1747 
Q 959 1106 1268 751 
Q 1578 397 2138 397 
Q 2388 397 2633 464 
Q 2878 531 3122 666 
L 3122 134 
Q 2881 22 2623 -34 
Q 2366 -91 2075 -91 
Q 1284 -91 818 406 
Q 353 903 353 1747 
Q 353 2603 823 3093 
Q 1294 3584 2113 3584 
Q 2378 3584 2631 3529 
Q 2884 3475 3122 3366 
z
" transform="scale(0.015625)"/>
      </defs>
      <use xlink:href="#DejaVuSans-48"/>
      <use xlink:href="#DejaVuSans-6f" x="75.195312"/>
      <use xlink:href="#DejaVuSans-77" x="136.376953"/>
      <use xlink:href="#DejaVuSans-20" x="218.164062"/>
      <use xlink:href="#DejaVuSans-74" x="249.951172"/>
      <use xlink:href="#DejaVuSans-68" x="289.160156"/>
      <use xlink:href="#DejaVuSans-65" x="352.539062"/>
      <use xlink:href="#DejaVuSans-20" x="414.0625"/>
      <use xlink:href="#DejaVuSans-74" x="445.849609"/>
      <use xlink:href="#DejaVuSans-61" x="485.058594"/>
      <use xlink:href="#DejaVuSans-78" x="546.337891"/>
      <use xlink:href="#DejaVuSans-61" x="605.517578"/>
      <use xlink:href="#DejaVuSans-20" x="666.796875"/>
      <use xlink:href="#DejaVuSans-77" x="698.583984"/>
      <use xlink:href="#DejaVuSans-65" x="780.371094"/>
      <use xlink:href="#DejaVuSans-72" x="841.894531"/>
      <use xlink:href="#DejaVuSans-65" x="880.757812"/>
      <use xlink:href="#DejaVuSans-20" x="942.28125"/>
      <use xlink:href="#DejaVuSans-64" x="974.068359"/>
      <use xlink:href="#DejaVuSans-65" x="1037.544922"/>
      <use xlink:href="#DejaVuSans-74" x="1099.068359"/>
      <use xlink:href="#DejaVuSans-65" x="1138.277344"/>
      <use xlink:href="#DejaVuSans-63" x="1199.800781"/>
      <use xlink:href="#DejaVuSans-74" x="1254.78125"/>
      <use xlink:href="#DejaVuSans-65" x="1293.990234"/>
      <use xlink:href="#DejaVuSans-64" x="1355.513672"/>
     </g>
    </g>
   </g>
   <g id="LineCollection_1"/>
   <g id="patch_7">
    <path d="M 675.6139 565.2 
L 689.0719 565.2 
L 702.5299 565.2 
L 702.5299 26.88 
L 689.0719 26.88 
L 675.6139 26.88 
L 675.6139 565.2 
z
" style="fill: none; stroke: #000000; stroke-width: 0.8; stroke-linejoin: miter; stroke-linecap: square"/>
   </g>
  </g>
 </g>
 <defs>
  <clipPath id="pc0bf0f6f16">
   <rect x="98.1872" y="26.88" width="538.32" height="538.32"/>
  </clipPath>
  <clipPath id="p4b146eeb6c">
   <rect x="675.6139" y="26.88" width="26.916" height="538.32"/>
  </clipPath>
 </defs>
</svg>
