<?xml version="1.0" encoding="utf-8" standalone="no"?>
<!DOCTYPE svg PUBLIC "-//W3C//DTD SVG 1.1//EN"
  "http://www.w3.org/Graphics/SVG/1.1/DTD/svg11.dtd">
<svg xmlns:xlink="http://www.w3.org/1999/xlink" width="864pt" height="576pt" viewBox="0 0 864 576" xmlns="http://www.w3.org/2000/svg" version="1.1">
 <metadata>
  <rdf:RDF xmlns:dc="http://purl.org/dc/elements/1.1/" xmlns:cc="http://creativecommons.org/ns#" xmlns:rdf="http://www.w3.org/1999/02/22-rdf-syntax-ns#">
   <cc:Work>
    <dc:type rdf:resource="http://purl.org/dc/dcmitype/StillImage"/>
    <dc:date>2025-09-08T19:24:42.822740</dc:date>
    <dc:format>image/svg+xml</dc:format>
    <dc:creator>
     <cc:Agent>
      <dc:title>Matplotlib v3.8.0, https://matplotlib.org/</dc:title>
     </cc:Agent>
    </dc:creator>
   </cc:Work>
  </rdf:RDF>
 </metadata>
 <defs>
  <style type="text/css">*{stroke-linejoin: round; stroke-linecap: butt}</style>
 </defs>
 <g id="figure_1">
  <g id="patch_1">
   <path d="M 0 576 
L 864 576 
L 864 0 
L 0 0 
z
" style="fill: #ffffff"/>
  </g>
  <g id="patch_2">
   <path d="M 98.1872 565.2 
L 636.5072 565.2 
L 636.5072 26.88 
L 98.1872 26.88 
z
" style="fill: #ffffff"/>
  </g>
  <g id="pane3d_1">
   <g id="patch_3">
    <path d="M 138.834072 432.46754 
L 316.604917 283.456493 
L 314.133732 68.555925 
L 127.855636 204.493195 
" style="fill: #f2f2f2; opacity: 0.5; stroke: #f2f2f2; stroke-linejoin: miter"/>
   </g>
  </g>
  <g id="pane3d_2">
   <g id="patch_4">
    <path d="M 316.604917 283.456493 
L 601.863694 366.369957 
L 612.043574 144.067386 
L 314.133732 68.555925 
" style="fill: #e6e6e6; opacity: 0.5; stroke: #e6e6e6; stroke-linejoin: miter"/>
   </g>
  </g>
  <g id="pane3d_3">
   <g id="patch_5">
    <path d="M 138.834072 432.46754 
L 441.222308 531.227537 
L 601.863694 366.369957 
L 316.604917 283.456493 
" style="fill: #ececec; opacity: 0.5; stroke: #ececec; stroke-linejoin: miter"/>
   </g>
  </g>
  <g id="grid3d_1"/>
  <g id="grid3d_2"/>
  <g id="grid3d_3"/>
  <g id="axis3d_1">
   <g id="line2d_1">
    <path d="M 138.834072 432.46754 
L 441.222308 531.227537 
" style="fill: none; stroke: #000000; stroke-width: 0.8; stroke-linecap: square"/>
   </g>
   <g id="text_1">
    <!-- 10 pwCF samples -->
    <g transform="translate(227.179541 504.647053) rotate(-341.912962) scale(0.1 -0.1)">
     <defs>
      <path id="DejaVuSans-31" d="M 794 531 
L 1825 531 
L 1825 4091 
L 703 3866 
L 703 4441 
L 1819 4666 
L 2450 4666 
L 2450 531 
L 3481 531 
L 3481 0 
L 794 0 
L 794 531 
z
" transform="scale(0.015625)"/>
      <path id="DejaVuSans-30" d="M 2034 4250 
Q 1547 4250 1301 3770 
Q 1056 3291 1056 2328 
Q 1056 1369 1301 889 
Q 1547 409 2034 409 
Q 2525 409 2770 889 
Q 3016 1369 3016 2328 
Q 3016 3291 2770 3770 
Q 2525 4250 2034 4250 
z
M 2034 4750 
Q 2819 4750 3233 4129 
Q 3647 3509 3647 2328 
Q 3647 1150 3233 529 
Q 2819 -91 2034 -91 
Q 1250 -91 836 529 
Q 422 1150 422 2328 
Q 422 3509 836 4129 
Q 1250 4750 2034 4750 
z
" transform="scale(0.015625)"/>
      <path id="DejaVuSans-20" transform="scale(0.015625)"/>
      <path id="DejaVuSans-70" d="M 1159 525 
L 1159 -1331 
L 581 -1331 
L 581 3500 
L 1159 3500 
L 1159 2969 
Q 1341 3281 1617 3432 
Q 1894 3584 2278 3584 
Q 2916 3584 3314 3078 
Q 3713 2572 3713 1747 
Q 3713 922 3314 415 
Q 2916 -91 2278 -91 
Q 1894 -91 1617 61 
Q 1341 213 1159 525 
z
M 3116 1747 
Q 3116 2381 2855 2742 
Q 2594 3103 2138 3103 
Q 1681 3103 1420 2742 
Q 1159 2381 1159 1747 
Q 1159 1113 1420 752 
Q 1681 391 2138 391 
Q 2594 391 2855 752 
Q 3116 1113 3116 1747 
z
" transform="scale(0.015625)"/>
      <path id="DejaVuSans-77" d="M 269 3500 
L 844 3500 
L 1563 769 
L 2278 3500 
L 2956 3500 
L 3675 769 
L 4391 3500 
L 4966 3500 
L 4050 0 
L 3372 0 
L 2619 2869 
L 1863 0 
L 1184 0 
L 269 3500 
z
" transform="scale(0.015625)"/>
      <path id="DejaVuSans-43" d="M 4122 4306 
L 4122 3641 
Q 3803 3938 3442 4084 
Q 3081 4231 2675 4231 
Q 1875 4231 1450 3742 
Q 1025 3253 1025 2328 
Q 1025 1406 1450 917 
Q 1875 428 2675 428 
Q 3081 428 3442 575 
Q 3803 722 4122 1019 
L 4122 359 
Q 3791 134 3420 21 
Q 3050 -91 2638 -91 
Q 1578 -91 968 557 
Q 359 1206 359 2328 
Q 359 3453 968 4101 
Q 1578 4750 2638 4750 
Q 3056 4750 3426 4639 
Q 3797 4528 4122 4306 
z
" transform="scale(0.015625)"/>
      <path id="DejaVuSans-46" d="M 628 4666 
L 3309 4666 
L 3309 4134 
L 1259 4134 
L 1259 2759 
L 3109 2759 
L 3109 2228 
L 1259 2228 
L 1259 0 
L 628 0 
L 628 4666 
z
" transform="scale(0.015625)"/>
      <path id="DejaVuSans-73" d="M 2834 3397 
L 2834 2853 
Q 2591 2978 2328 3040 
Q 2066 3103 1784 3103 
Q 1356 3103 1142 2972 
Q 928 2841 928 2578 
Q 928 2378 1081 2264 
Q 1234 2150 1697 2047 
L 1894 2003 
Q 2506 1872 2764 1633 
Q 3022 1394 3022 966 
Q 3022 478 2636 193 
Q 2250 -91 1575 -91 
Q 1294 -91 989 -36 
Q 684 19 347 128 
L 347 722 
Q 666 556 975 473 
Q 1284 391 1588 391 
Q 1994 391 2212 530 
Q 2431 669 2431 922 
Q 2431 1156 2273 1281 
Q 2116 1406 1581 1522 
L 1381 1569 
Q 847 1681 609 1914 
Q 372 2147 372 2553 
Q 372 3047 722 3315 
Q 1072 3584 1716 3584 
Q 2034 3584 2315 3537 
Q 2597 3491 2834 3397 
z
" transform="scale(0.015625)"/>
      <path id="DejaVuSans-61" d="M 2194 1759 
Q 1497 1759 1228 1600 
Q 959 1441 959 1056 
Q 959 750 1161 570 
Q 1363 391 1709 391 
Q 2188 391 2477 730 
Q 2766 1069 2766 1631 
L 2766 1759 
L 2194 1759 
z
M 3341 1997 
L 3341 0 
L 2766 0 
L 2766 531 
Q 2569 213 2275 61 
Q 1981 -91 1556 -91 
Q 1019 -91 701 211 
Q 384 513 384 1019 
Q 384 1609 779 1909 
Q 1175 2209 1959 2209 
L 2766 2209 
L 2766 2266 
Q 2766 2663 2505 2880 
Q 2244 3097 1772 3097 
Q 1472 3097 1187 3025 
Q 903 2953 641 2809 
L 641 3341 
Q 956 3463 1253 3523 
Q 1550 3584 1831 3584 
Q 2591 3584 2966 3190 
Q 3341 2797 3341 1997 
z
" transform="scale(0.015625)"/>
      <path id="DejaVuSans-6d" d="M 3328 2828 
Q 3544 3216 3844 3400 
Q 4144 3584 4550 3584 
Q 5097 3584 5394 3201 
Q 5691 2819 5691 2113 
L 5691 0 
L 5113 0 
L 5113 2094 
Q 5113 2597 4934 2840 
Q 4756 3084 4391 3084 
Q 3944 3084 3684 2787 
Q 3425 2491 3425 1978 
L 3425 0 
L 2847 0 
L 2847 2094 
Q 2847 2600 2669 2842 
Q 2491 3084 2119 3084 
Q 1678 3084 1418 2786 
Q 1159 2488 1159 1978 
L 1159 0 
L 581 0 
L 581 3500 
L 1159 3500 
L 1159 2956 
Q 1356 3278 1631 3431 
Q 1906 3584 2284 3584 
Q 2666 3584 2933 3390 
Q 3200 3197 3328 2828 
z
" transform="scale(0.015625)"/>
      <path id="DejaVuSans-6c" d="M 603 4863 
L 1178 4863 
L 1178 0 
L 603 0 
L 603 4863 
z
" transform="scale(0.015625)"/>
      <path id="DejaVuSans-65" d="M 3597 1894 
L 3597 1613 
L 953 1613 
Q 991 1019 1311 708 
Q 1631 397 2203 397 
Q 2534 397 2845 478 
Q 3156 559 3463 722 
L 3463 178 
Q 3153 47 2828 -22 
Q 2503 -91 2169 -91 
Q 1331 -91 842 396 
Q 353 884 353 1716 
Q 353 2575 817 3079 
Q 1281 3584 2069 3584 
Q 2775 3584 3186 3129 
Q 3597 2675 3597 1894 
z
M 3022 2063 
Q 3016 2534 2758 2815 
Q 2500 3097 2075 3097 
Q 1594 3097 1305 2825 
Q 1016 2553 972 2059 
L 3022 2063 
z
" transform="scale(0.015625)"/>
     </defs>
     <use xlink:href="#DejaVuSans-31"/>
     <use xlink:href="#DejaVuSans-30" x="63.623047"/>
     <use xlink:href="#DejaVuSans-20" x="127.246094"/>
     <use xlink:href="#DejaVuSans-70" x="159.033203"/>
     <use xlink:href="#DejaVuSans-77" x="222.509766"/>
     <use xlink:href="#DejaVuSans-43" x="304.296875"/>
     <use xlink:href="#DejaVuSans-46" x="374.121094"/>
     <use xlink:href="#DejaVuSans-20" x="431.640625"/>
     <use xlink:href="#DejaVuSans-73" x="463.427734"/>
     <use xlink:href="#DejaVuSans-61" x="515.527344"/>
     <use xlink:href="#DejaVuSans-6d" x="576.806641"/>
     <use xlink:href="#DejaVuSans-70" x="674.21875"/>
     <use xlink:href="#DejaVuSans-6c" x="737.695312"/>
     <use xlink:href="#DejaVuSans-65" x="765.478516"/>
     <use xlink:href="#DejaVuSans-73" x="827.001953"/>
    </g>
   </g>
  </g>
  <g id="axis3d_2">
   <g id="line2d_2">
    <path d="M 601.863694 366.369957 
L 441.222308 531.227537 
" style="fill: none; stroke: #000000; stroke-width: 0.8; stroke-linecap: square"/>
   </g>
   <g id="text_2">
    <!-- 39 phylum taxonomies -->
    <g transform="translate(514.062048 516.084054) rotate(-45.742112) scale(0.1 -0.1)">
     <defs>
      <path id="DejaVuSans-33" d="M 2597 2516 
Q 3050 2419 3304 2112 
Q 3559 1806 3559 1356 
Q 3559 666 3084 287 
Q 2609 -91 1734 -91 
Q 1441 -91 1130 -33 
Q 819 25 488 141 
L 488 750 
Q 750 597 1062 519 
Q 1375 441 1716 441 
Q 2309 441 2620 675 
Q 2931 909 2931 1356 
Q 2931 1769 2642 2001 
Q 2353 2234 1838 2234 
L 1294 2234 
L 1294 2753 
L 1863 2753 
Q 2328 2753 2575 2939 
Q 2822 3125 2822 3475 
Q 2822 3834 2567 4026 
Q 2313 4219 1838 4219 
Q 1578 4219 1281 4162 
Q 984 4106 628 3988 
L 628 4550 
Q 988 4650 1302 4700 
Q 1616 4750 1894 4750 
Q 2613 4750 3031 4423 
Q 3450 4097 3450 3541 
Q 3450 3153 3228 2886 
Q 3006 2619 2597 2516 
z
" transform="scale(0.015625)"/>
      <path id="DejaVuSans-39" d="M 703 97 
L 703 672 
Q 941 559 1184 500 
Q 1428 441 1663 441 
Q 2288 441 2617 861 
Q 2947 1281 2994 2138 
Q 2813 1869 2534 1725 
Q 2256 1581 1919 1581 
Q 1219 1581 811 2004 
Q 403 2428 403 3163 
Q 403 3881 828 4315 
Q 1253 4750 1959 4750 
Q 2769 4750 3195 4129 
Q 3622 3509 3622 2328 
Q 3622 1225 3098 567 
Q 2575 -91 1691 -91 
Q 1453 -91 1209 -44 
Q 966 3 703 97 
z
M 1959 2075 
Q 2384 2075 2632 2365 
Q 2881 2656 2881 3163 
Q 2881 3666 2632 3958 
Q 2384 4250 1959 4250 
Q 1534 4250 1286 3958 
Q 1038 3666 1038 3163 
Q 1038 2656 1286 2365 
Q 1534 2075 1959 2075 
z
" transform="scale(0.015625)"/>
      <path id="DejaVuSans-68" d="M 3513 2113 
L 3513 0 
L 2938 0 
L 2938 2094 
Q 2938 2591 2744 2837 
Q 2550 3084 2163 3084 
Q 1697 3084 1428 2787 
Q 1159 2491 1159 1978 
L 1159 0 
L 581 0 
L 581 4863 
L 1159 4863 
L 1159 2956 
Q 1366 3272 1645 3428 
Q 1925 3584 2291 3584 
Q 2894 3584 3203 3211 
Q 3513 2838 3513 2113 
z
" transform="scale(0.015625)"/>
      <path id="DejaVuSans-79" d="M 2059 -325 
Q 1816 -950 1584 -1140 
Q 1353 -1331 966 -1331 
L 506 -1331 
L 506 -850 
L 844 -850 
Q 1081 -850 1212 -737 
Q 1344 -625 1503 -206 
L 1606 56 
L 191 3500 
L 800 3500 
L 1894 763 
L 2988 3500 
L 3597 3500 
L 2059 -325 
z
" transform="scale(0.015625)"/>
      <path id="DejaVuSans-75" d="M 544 1381 
L 544 3500 
L 1119 3500 
L 1119 1403 
Q 1119 906 1312 657 
Q 1506 409 1894 409 
Q 2359 409 2629 706 
Q 2900 1003 2900 1516 
L 2900 3500 
L 3475 3500 
L 3475 0 
L 2900 0 
L 2900 538 
Q 2691 219 2414 64 
Q 2138 -91 1772 -91 
Q 1169 -91 856 284 
Q 544 659 544 1381 
z
M 1991 3584 
L 1991 3584 
z
" transform="scale(0.015625)"/>
      <path id="DejaVuSans-74" d="M 1172 4494 
L 1172 3500 
L 2356 3500 
L 2356 3053 
L 1172 3053 
L 1172 1153 
Q 1172 725 1289 603 
Q 1406 481 1766 481 
L 2356 481 
L 2356 0 
L 1766 0 
Q 1100 0 847 248 
Q 594 497 594 1153 
L 594 3053 
L 172 3053 
L 172 3500 
L 594 3500 
L 594 4494 
L 1172 4494 
z
" transform="scale(0.015625)"/>
      <path id="DejaVuSans-78" d="M 3513 3500 
L 2247 1797 
L 3578 0 
L 2900 0 
L 1881 1375 
L 863 0 
L 184 0 
L 1544 1831 
L 300 3500 
L 978 3500 
L 1906 2253 
L 2834 3500 
L 3513 3500 
z
" transform="scale(0.015625)"/>
      <path id="DejaVuSans-6f" d="M 1959 3097 
Q 1497 3097 1228 2736 
Q 959 2375 959 1747 
Q 959 1119 1226 758 
Q 1494 397 1959 397 
Q 2419 397 2687 759 
Q 2956 1122 2956 1747 
Q 2956 2369 2687 2733 
Q 2419 3097 1959 3097 
z
M 1959 3584 
Q 2709 3584 3137 3096 
Q 3566 2609 3566 1747 
Q 3566 888 3137 398 
Q 2709 -91 1959 -91 
Q 1206 -91 779 398 
Q 353 888 353 1747 
Q 353 2609 779 3096 
Q 1206 3584 1959 3584 
z
" transform="scale(0.015625)"/>
      <path id="DejaVuSans-6e" d="M 3513 2113 
L 3513 0 
L 2938 0 
L 2938 2094 
Q 2938 2591 2744 2837 
Q 2550 3084 2163 3084 
Q 1697 3084 1428 2787 
Q 1159 2491 1159 1978 
L 1159 0 
L 581 0 
L 581 3500 
L 1159 3500 
L 1159 2956 
Q 1366 3272 1645 3428 
Q 1925 3584 2291 3584 
Q 2894 3584 3203 3211 
Q 3513 2838 3513 2113 
z
" transform="scale(0.015625)"/>
      <path id="DejaVuSans-69" d="M 603 3500 
L 1178 3500 
L 1178 0 
L 603 0 
L 603 3500 
z
M 603 4863 
L 1178 4863 
L 1178 4134 
L 603 4134 
L 603 4863 
z
" transform="scale(0.015625)"/>
     </defs>
     <use xlink:href="#DejaVuSans-33"/>
     <use xlink:href="#DejaVuSans-39" x="63.623047"/>
     <use xlink:href="#DejaVuSans-20" x="127.246094"/>
     <use xlink:href="#DejaVuSans-70" x="159.033203"/>
     <use xlink:href="#DejaVuSans-68" x="222.509766"/>
     <use xlink:href="#DejaVuSans-79" x="285.888672"/>
     <use xlink:href="#DejaVuSans-6c" x="345.068359"/>
     <use xlink:href="#DejaVuSans-75" x="372.851562"/>
     <use xlink:href="#DejaVuSans-6d" x="436.230469"/>
     <use xlink:href="#DejaVuSans-20" x="533.642578"/>
     <use xlink:href="#DejaVuSans-74" x="565.429688"/>
     <use xlink:href="#DejaVuSans-61" x="604.638672"/>
     <use xlink:href="#DejaVuSans-78" x="665.917969"/>
     <use xlink:href="#DejaVuSans-6f" x="721.972656"/>
     <use xlink:href="#DejaVuSans-6e" x="783.154297"/>
     <use xlink:href="#DejaVuSans-6f" x="846.533203"/>
     <use xlink:href="#DejaVuSans-6d" x="907.714844"/>
     <use xlink:href="#DejaVuSans-69" x="1005.126953"/>
     <use xlink:href="#DejaVuSans-65" x="1032.910156"/>
     <use xlink:href="#DejaVuSans-73" x="1094.433594"/>
    </g>
   </g>
  </g>
  <g id="axis3d_3">
   <g id="line2d_3">
    <path d="M 601.863694 366.369957 
L 612.043574 144.067386 
" style="fill: none; stroke: #000000; stroke-width: 0.8; stroke-linecap: square"/>
   </g>
   <g id="text_3">
    <!-- Normalized MGI read depth -->
    <g transform="translate(646.972362 320.878308) rotate(-87.378092) scale(0.1 -0.1)">
     <defs>
      <path id="DejaVuSans-4e" d="M 628 4666 
L 1478 4666 
L 3547 763 
L 3547 4666 
L 4159 4666 
L 4159 0 
L 3309 0 
L 1241 3903 
L 1241 0 
L 628 0 
L 628 4666 
z
" transform="scale(0.015625)"/>
      <path id="DejaVuSans-72" d="M 2631 2963 
Q 2534 3019 2420 3045 
Q 2306 3072 2169 3072 
Q 1681 3072 1420 2755 
Q 1159 2438 1159 1844 
L 1159 0 
L 581 0 
L 581 3500 
L 1159 3500 
L 1159 2956 
Q 1341 3275 1631 3429 
Q 1922 3584 2338 3584 
Q 2397 3584 2469 3576 
Q 2541 3569 2628 3553 
L 2631 2963 
z
" transform="scale(0.015625)"/>
      <path id="DejaVuSans-7a" d="M 353 3500 
L 3084 3500 
L 3084 2975 
L 922 459 
L 3084 459 
L 3084 0 
L 275 0 
L 275 525 
L 2438 3041 
L 353 3041 
L 353 3500 
z
" transform="scale(0.015625)"/>
      <path id="DejaVuSans-64" d="M 2906 2969 
L 2906 4863 
L 3481 4863 
L 3481 0 
L 2906 0 
L 2906 525 
Q 2725 213 2448 61 
Q 2172 -91 1784 -91 
Q 1150 -91 751 415 
Q 353 922 353 1747 
Q 353 2572 751 3078 
Q 1150 3584 1784 3584 
Q 2172 3584 2448 3432 
Q 2725 3281 2906 2969 
z
M 947 1747 
Q 947 1113 1208 752 
Q 1469 391 1925 391 
Q 2381 391 2643 752 
Q 2906 1113 2906 1747 
Q 2906 2381 2643 2742 
Q 2381 3103 1925 3103 
Q 1469 3103 1208 2742 
Q 947 2381 947 1747 
z
" transform="scale(0.015625)"/>
      <path id="DejaVuSans-4d" d="M 628 4666 
L 1569 4666 
L 2759 1491 
L 3956 4666 
L 4897 4666 
L 4897 0 
L 4281 0 
L 4281 4097 
L 3078 897 
L 2444 897 
L 1241 4097 
L 1241 0 
L 628 0 
L 628 4666 
z
" transform="scale(0.015625)"/>
      <path id="DejaVuSans-47" d="M 3809 666 
L 3809 1919 
L 2778 1919 
L 2778 2438 
L 4434 2438 
L 4434 434 
Q 4069 175 3628 42 
Q 3188 -91 2688 -91 
Q 1594 -91 976 548 
Q 359 1188 359 2328 
Q 359 3472 976 4111 
Q 1594 4750 2688 4750 
Q 3144 4750 3555 4637 
Q 3966 4525 4313 4306 
L 4313 3634 
Q 3963 3931 3569 4081 
Q 3175 4231 2741 4231 
Q 1884 4231 1454 3753 
Q 1025 3275 1025 2328 
Q 1025 1384 1454 906 
Q 1884 428 2741 428 
Q 3075 428 3337 486 
Q 3600 544 3809 666 
z
" transform="scale(0.015625)"/>
      <path id="DejaVuSans-49" d="M 628 4666 
L 1259 4666 
L 1259 0 
L 628 0 
L 628 4666 
z
" transform="scale(0.015625)"/>
     </defs>
     <use xlink:href="#DejaVuSans-4e"/>
     <use xlink:href="#DejaVuSans-6f" x="74.804688"/>
     <use xlink:href="#DejaVuSans-72" x="135.986328"/>
     <use xlink:href="#DejaVuSans-6d" x="175.349609"/>
     <use xlink:href="#DejaVuSans-61" x="272.761719"/>
     <use xlink:href="#DejaVuSans-6c" x="334.041016"/>
     <use xlink:href="#DejaVuSans-69" x="361.824219"/>
     <use xlink:href="#DejaVuSans-7a" x="389.607422"/>
     <use xlink:href="#DejaVuSans-65" x="442.097656"/>
     <use xlink:href="#DejaVuSans-64" x="503.621094"/>
     <use xlink:href="#DejaVuSans-20" x="567.097656"/>
     <use xlink:href="#DejaVuSans-4d" x="598.884766"/>
     <use xlink:href="#DejaVuSans-47" x="685.164062"/>
     <use xlink:href="#DejaVuSans-49" x="762.654297"/>
     <use xlink:href="#DejaVuSans-20" x="792.146484"/>
     <use xlink:href="#DejaVuSans-72" x="823.933594"/>
     <use xlink:href="#DejaVuSans-65" x="862.796875"/>
     <use xlink:href="#DejaVuSans-61" x="924.320312"/>
     <use xlink:href="#DejaVuSans-64" x="985.599609"/>
     <use xlink:href="#DejaVuSans-20" x="1049.076172"/>
     <use xlink:href="#DejaVuSans-64" x="1080.863281"/>
     <use xlink:href="#DejaVuSans-65" x="1144.339844"/>
     <use xlink:href="#DejaVuSans-70" x="1205.863281"/>
     <use xlink:href="#DejaVuSans-74" x="1269.339844"/>
     <use xlink:href="#DejaVuSans-68" x="1308.548828"/>
    </g>
   </g>
  </g>
  <g id="axes_1">
   <g id="Poly3DCollection_1">
    <path d="M 308.3291 305.775696 
L 335.216173 313.684837 
L 338.833685 286.508305 
L 311.985814 289.337617 
z
" clip-path="url(#p36eaed9065)" style="fill: #da72a9"/>
    <path d="M 304.496362 309.215314 
L 331.415994 317.14724 
L 335.216173 313.684837 
L 308.3291 305.775696 
z
" clip-path="url(#p36eaed9065)" style="fill: #eaea2f"/>
    <path d="M 300.646318 312.469569 
L 327.599962 320.461503 
L 331.415994 317.14724 
L 304.496362 309.215314 
z
" clip-path="url(#p36eaed9065)" style="fill: #3170a3"/>
    <path d="M 296.781774 315.754492 
L 323.768847 323.748449 
L 327.599962 320.461503 
L 300.646318 312.469569 
z
" clip-path="url(#p36eaed9065)" style="fill: #2a608d"/>
    <path d="M 335.216173 313.684837 
L 362.350627 319.490759 
L 366.086468 305.232051 
L 338.833685 286.508305 
z
" clip-path="url(#p36eaed9065)" style="fill: #e477b1"/>
    <path d="M 319.664812 288.471399 
L 346.25887 254.607031 
L 349.50262 140.412234 
L 323.187586 259.598429 
z
" clip-path="url(#p36eaed9065)" style="fill: #eb7bb6"/>
    <path d="M 331.415994 317.14724 
L 358.588939 325.067535 
L 362.350627 319.490759 
L 335.216173 313.684837 
z
" clip-path="url(#p36eaed9065)" style="fill: #dd73ab"/>
    <path d="M 338.833685 286.508305 
L 366.086468 305.232051 
L 369.805279 271.037559 
L 342.712625 297.147643 
z
" clip-path="url(#p36eaed9065)" style="fill: #c46697"/>
    <path d="M 292.899607 318.88124 
L 319.92351 327.102912 
L 323.768847 323.748449 
L 296.781774 315.754492 
z
" clip-path="url(#p36eaed9065)" style="fill: #1a3c58"/>
    <path d="M 342.712625 297.147643 
L 369.805279 271.037559 
L 373.563477 274.209725 
L 346.25887 254.607031 
z
" clip-path="url(#p36eaed9065)" style="fill: #cf6ca0"/>
    <path d="M 327.599962 320.461503 
L 354.807743 328.543328 
L 358.588939 325.067535 
L 331.415994 317.14724 
z
" clip-path="url(#p36eaed9065)" style="fill: #d56fa5"/>
    <path d="M 313.729995 108.462843 
L 342.712625 297.147643 
L 346.25887 254.607031 
L 319.664812 288.471399 
z
" clip-path="url(#p36eaed9065)" style="fill: #753d5a"/>
    <path d="M 289.007729 322.341225 
L 316.061791 330.337179 
L 319.92351 327.102912 
L 292.899607 318.88124 
z
" clip-path="url(#p36eaed9065)" style="fill: #245177"/>
    <path d="M 311.985814 289.337617 
L 338.833685 286.508305 
L 342.712625 297.147643 
L 313.729995 108.462843 
z
" clip-path="url(#p36eaed9065)" style="fill: #214d70"/>
    <path d="M 369.805279 271.037559 
L 397.1969 317.771658 
L 400.887791 314.862004 
L 373.563477 274.209725 
z
" clip-path="url(#p36eaed9065)" style="fill: #66354f"/>
    <path d="M 323.768847 323.748449 
L 351.011213 331.837226 
L 354.807743 328.543328 
L 327.599962 320.461503 
z
" clip-path="url(#p36eaed9065)" style="fill: #783f5d"/>
    <path d="M 358.588939 325.067535 
L 386.019485 333.298577 
L 389.753473 329.2555 
L 362.350627 319.490759 
z
" clip-path="url(#p36eaed9065)" style="fill: #d7d72b"/>
    <path d="M 285.097896 325.636109 
L 312.18732 333.773647 
L 316.061791 330.337179 
L 289.007729 322.341225 
z
" clip-path="url(#p36eaed9065)" style="fill: #2e6899"/>
    <path d="M 319.92351 327.102912 
L 347.198823 334.949973 
L 351.011213 331.837226 
L 323.768847 323.748449 
z
" clip-path="url(#p36eaed9065)" style="fill: #aeae23"/>
    <path d="M 362.350627 319.490759 
L 389.753473 329.2555 
L 393.660032 275.875786 
L 366.086468 305.232051 
z
" clip-path="url(#p36eaed9065)" style="fill: #d871a7"/>
    <path d="M 366.086468 305.232051 
L 393.660032 275.875786 
L 397.1969 317.771658 
L 369.805279 271.037559 
z
" clip-path="url(#p36eaed9065)" style="fill: #995076"/>
    <path d="M 354.807743 328.543328 
L 382.273072 336.688892 
L 386.019485 333.298577 
L 358.588939 325.067535 
z
" clip-path="url(#p36eaed9065)" style="fill: #dfdf2d"/>
    <path d="M 281.173761 328.98872 
L 308.296276 337.097732 
L 312.18732 333.773647 
L 285.097896 325.636109 
z
" clip-path="url(#p36eaed9065)" style="fill: #a11214"/>
    <path d="M 316.061791 330.337179 
L 343.373851 338.490673 
L 347.198823 334.949973 
L 319.92351 327.102912 
z
" clip-path="url(#p36eaed9065)" style="fill: #dd73ab"/>
    <path d="M 397.1969 317.771658 
L 424.850065 321.877258 
L 429.154946 258.574064 
L 400.887791 314.862004 
z
" clip-path="url(#p36eaed9065)" style="fill: #de74ac"/>
    <path d="M 351.011213 331.837226 
L 378.512185 340.029678 
L 382.273072 336.688892 
L 354.807743 328.543328 
z
" clip-path="url(#p36eaed9065)" style="fill: #535311"/>
    <path d="M 277.233592 332.309257 
L 304.390583 340.473554 
L 308.296276 337.097732 
L 281.173761 328.98872 
z
" clip-path="url(#p36eaed9065)" style="fill: #367bb4"/>
    <path d="M 386.019485 333.298577 
L 413.710524 341.443204 
L 417.417191 336.798913 
L 389.753473 329.2555 
z
" clip-path="url(#p36eaed9065)" style="fill: #dc73aa"/>
    <path d="M 312.18732 333.773647 
L 339.533549 341.944589 
L 343.373851 338.490673 
L 316.061791 330.337179 
z
" clip-path="url(#p36eaed9065)" style="fill: #e779b3"/>
    <path d="M 347.198823 334.949973 
L 374.73664 341.457867 
L 378.512185 340.029678 
L 351.011213 331.837226 
z
" clip-path="url(#p36eaed9065)" style="fill: #9b5178"/>
    <path d="M 273.277675 335.621573 
L 300.469263 343.835185 
L 304.390583 340.473554 
L 277.233592 332.309257 
z
" clip-path="url(#p36eaed9065)" style="fill: #153148"/>
    <path d="M 393.660032 275.875786 
L 421.468057 293.83304 
L 424.850065 321.877258 
L 397.1969 317.771658 
z
" clip-path="url(#p36eaed9065)" style="fill: #582e44"/>
    <path d="M 382.273072 336.688892 
L 409.999784 344.90679 
L 413.710524 341.443204 
L 386.019485 333.298577 
z
" clip-path="url(#p36eaed9065)" style="fill: #e4e42e"/>
    <path d="M 308.296276 337.097732 
L 335.677946 345.356175 
L 339.533549 341.944589 
L 312.18732 333.773647 
z
" clip-path="url(#p36eaed9065)" style="fill: #9f9f20"/>
    <path d="M 346.25887 254.607031 
L 373.563477 274.209725 
L 377.358319 163.06295 
L 349.50262 140.412234 
z
" clip-path="url(#p36eaed9065)" style="fill: #d36ea3"/>
    <path d="M 389.753473 329.2555 
L 417.417191 336.798913 
L 421.468057 293.83304 
L 393.660032 275.875786 
z
" clip-path="url(#p36eaed9065)" style="fill: #db72a9"/>
    <path d="M 343.373851 338.490673 
L 370.946238 346.781161 
L 374.73664 341.457867 
L 347.198823 334.949973 
z
" clip-path="url(#p36eaed9065)" style="fill: #e0e02d"/>
    <path d="M 269.307773 339.015938 
L 296.533217 347.250008 
L 300.469263 343.835185 
L 273.277675 335.621573 
z
" clip-path="url(#p36eaed9065)" style="fill: #3578b0"/>
    <path d="M 378.512185 340.029678 
L 406.275518 348.247645 
L 409.999784 344.90679 
L 382.273072 336.688892 
z
" clip-path="url(#p36eaed9065)" style="fill: #904b6f"/>
    <path d="M 304.390583 340.473554 
L 331.806543 348.692885 
L 335.677946 345.356175 
L 308.296276 337.097732 
z
" clip-path="url(#p36eaed9065)" style="fill: #94941e"/>
    <path d="M 413.710524 341.443204 
L 441.666672 349.639667 
L 445.341294 345.121687 
L 417.417191 336.798913 
z
" clip-path="url(#p36eaed9065)" style="fill: #e5e52e"/>
    <path d="M 339.533549 341.944589 
L 367.141067 350.201797 
L 370.946238 346.781161 
L 343.373851 338.490673 
z
" clip-path="url(#p36eaed9065)" style="fill: #f27ebb"/>
    <path d="M 424.850065 321.877258 
L 452.91962 319.043417 
L 456.609369 312.075186 
L 429.154946 258.574064 
z
" clip-path="url(#p36eaed9065)" style="fill: #e97ab4"/>
    <path d="M 265.321183 342.36558 
L 292.581511 350.66107 
L 296.533217 347.250008 
L 269.307773 339.015938 
z
" clip-path="url(#p36eaed9065)" style="fill: #1c405d"/>
    <path d="M 421.468057 293.83304 
L 449.348259 317.480829 
L 452.91962 319.043417 
L 424.850065 321.877258 
z
" clip-path="url(#p36eaed9065)" style="fill: #582e44"/>
    <path d="M 373.563477 274.209725 
L 400.887791 314.862004 
L 405.608146 137.006593 
L 377.358319 163.06295 
z
" clip-path="url(#p36eaed9065)" style="fill: #ce6c9f"/>
    <path d="M 374.73664 341.457867 
L 402.536064 351.692562 
L 406.275518 348.247645 
L 378.512185 340.029678 
z
" clip-path="url(#p36eaed9065)" style="fill: #683650"/>
    <path d="M 300.469263 343.835185 
L 327.920688 352.129863 
L 331.806543 348.692885 
L 304.390583 340.473554 
z
" clip-path="url(#p36eaed9065)" style="fill: #cf6ca0"/>
    <path d="M 417.417191 336.798913 
L 445.341294 345.121687 
L 449.348259 317.480829 
L 421.468057 293.83304 
z
" clip-path="url(#p36eaed9065)" style="fill: #da72a9"/>
    <path d="M 409.999784 344.90679 
L 437.991885 353.184628 
L 441.666672 349.639667 
L 413.710524 341.443204 
z
" clip-path="url(#p36eaed9065)" style="fill: #eaea2f"/>
    <path d="M 335.677946 345.356175 
L 363.321031 353.652315 
L 367.141067 350.201797 
L 339.533549 341.944589 
z
" clip-path="url(#p36eaed9065)" style="fill: #eeee30"/>
    <path d="M 261.320048 345.775003 
L 288.614301 354.085182 
L 292.581511 350.66107 
L 265.321183 342.36558 
z
" clip-path="url(#p36eaed9065)" style="fill: #2d6695"/>
    <path d="M 370.946238 346.781161 
L 398.782041 355.13882 
L 402.536064 351.692562 
L 374.73664 341.457867 
z
" clip-path="url(#p36eaed9065)" style="fill: #8e4a6e"/>
    <path d="M 296.533217 347.250008 
L 324.018929 355.513158 
L 327.920688 352.129863 
L 300.469263 343.835185 
z
" clip-path="url(#p36eaed9065)" style="fill: #b6b624"/>
    <path d="M 406.275518 348.247645 
L 434.304707 356.588626 
L 437.991885 353.184628 
L 409.999784 344.90679 
z
" clip-path="url(#p36eaed9065)" style="fill: #5a5a12"/>
    <path d="M 331.806543 348.692885 
L 359.485818 357.046166 
L 363.321031 353.652315 
L 335.677946 345.356175 
z
" clip-path="url(#p36eaed9065)" style="fill: #575711"/>
    <path d="M 257.302493 349.163751 
L 284.631308 357.511951 
L 288.614301 354.085182 
L 261.320048 345.775003 
z
" clip-path="url(#p36eaed9065)" style="fill: #122a3d"/>
    <path d="M 367.141067 350.201797 
L 395.013334 358.586455 
L 398.782041 355.13882 
L 370.946238 346.781161 
z
" clip-path="url(#p36eaed9065)" style="fill: #7e4262"/>
    <path d="M 441.666672 349.639667 
L 469.891874 357.905662 
L 473.591645 350.506524 
L 445.341294 345.121687 
z
" clip-path="url(#p36eaed9065)" style="fill: #db73aa"/>
    <path d="M 292.581511 350.66107 
L 320.102752 359.00098 
L 324.018929 355.513158 
L 296.533217 347.250008 
z
" clip-path="url(#p36eaed9065)" style="fill: #f0f030"/>
    <path d="M 445.341294 345.121687 
L 473.591645 350.506524 
L 477.655904 325.004708 
L 449.348259 317.480829 
z
" clip-path="url(#p36eaed9065)" style="fill: #e176ae"/>
    <path d="M 402.536064 351.692562 
L 430.602445 360.052977 
L 434.304707 356.588626 
L 406.275518 348.247645 
z
" clip-path="url(#p36eaed9065)" style="fill: #3375ab"/>
    <path d="M 327.920688 352.129863 
L 355.635674 360.513739 
L 359.485818 357.046166 
L 331.806543 348.692885 
z
" clip-path="url(#p36eaed9065)" style="fill: #bbbb25"/>
    <path d="M 400.887791 314.862004 
L 429.154946 258.574064 
L 433.443875 202.968583 
L 405.608146 137.006593 
z
" clip-path="url(#p36eaed9065)" style="fill: #f27ebb"/>
    <path d="M 253.269827 352.592737 
L 280.632874 360.965923 
L 284.631308 357.511951 
L 257.302493 349.163751 
z
" clip-path="url(#p36eaed9065)" style="fill: #3271a6"/>
    <path d="M 437.991885 353.184628 
L 466.25257 361.574922 
L 469.891874 357.905662 
L 441.666672 349.639667 
z
" clip-path="url(#p36eaed9065)" style="fill: #dede2c"/>
    <path d="M 363.321031 353.652315 
L 391.22987 362.023332 
L 395.013334 358.586455 
L 367.141067 350.201797 
z
" clip-path="url(#p36eaed9065)" style="fill: #a4557f"/>
    <path d="M 288.614301 354.085182 
L 316.170871 362.473497 
L 320.102752 359.00098 
L 292.581511 350.66107 
z
" clip-path="url(#p36eaed9065)" style="fill: #e1e12d"/>
    <path d="M 398.782041 355.13882 
L 426.885628 363.529192 
L 430.602445 360.052977 
L 402.536064 351.692562 
z
" clip-path="url(#p36eaed9065)" style="fill: #3478af"/>
    <path d="M 324.018929 355.513158 
L 351.770252 363.968468 
L 355.635674 360.513739 
L 327.920688 352.129863 
z
" clip-path="url(#p36eaed9065)" style="fill: #686815"/>
    <path d="M 249.220988 356.020976 
L 276.618541 364.426954 
L 280.632874 360.965923 
L 253.269827 352.592737 
z
" clip-path="url(#p36eaed9065)" style="fill: #d9191b"/>
    <path d="M 434.304707 356.588626 
L 462.603628 365.009702 
L 466.25257 361.574922 
L 437.991885 353.184628 
z
" clip-path="url(#p36eaed9065)" style="fill: #5b5b12"/>
    <path d="M 359.485818 357.046166 
L 387.431412 365.485983 
L 391.22987 362.023332 
L 363.321031 353.652315 
z
" clip-path="url(#p36eaed9065)" style="fill: #673650"/>
    <path d="M 284.631308 357.511951 
L 312.222939 365.915809 
L 316.170871 362.473497 
L 288.614301 354.085182 
z
" clip-path="url(#p36eaed9065)" style="fill: #9c9c1f"/>
    <path d="M 452.91962 319.043417 
L 483.575456 213.210811 
L 484.876991 317.609943 
L 456.609369 312.075186 
z
" clip-path="url(#p36eaed9065)" style="fill: #a3557e"/>
    <path d="M 469.891874 357.905662 
L 498.382681 366.543278 
L 501.96534 363.050506 
L 473.591645 350.506524 
z
" clip-path="url(#p36eaed9065)" style="fill: #6e3a55"/>
    <path d="M 395.013334 358.586455 
L 423.154097 367.024445 
L 426.885628 363.529192 
L 398.782041 355.13882 
z
" clip-path="url(#p36eaed9065)" style="fill: #d2d22a"/>
    <path d="M 320.102752 359.00098 
L 347.889618 367.451289 
L 351.770252 363.968468 
L 324.018929 355.513158 
z
" clip-path="url(#p36eaed9065)" style="fill: #a0a020"/>
    <path d="M 245.156142 359.459863 
L 272.58825 367.897533 
L 276.618541 364.426954 
L 249.220988 356.020976 
z
" clip-path="url(#p36eaed9065)" style="fill: #a61314"/>
    <path d="M 430.602445 360.052977 
L 458.966165 366.931221 
L 462.603628 365.009702 
L 434.304707 356.588626 
z
" clip-path="url(#p36eaed9065)" style="fill: #a6a621"/>
    <path d="M 456.609369 312.075186 
L 484.876991 317.609943 
L 489.04945 288.278597 
L 462.825864 156.424168 
z
" clip-path="url(#p36eaed9065)" style="fill: #e075ad"/>
    <path d="M 355.635674 360.513739 
L 383.617925 368.95929 
L 387.431412 365.485983 
L 359.485818 357.046166 
z
" clip-path="url(#p36eaed9065)" style="fill: #b9b925"/>
    <path d="M 280.632874 360.965923 
L 308.259767 369.403481 
L 312.222939 365.915809 
L 284.631308 357.511951 
z
" clip-path="url(#p36eaed9065)" style="fill: #ef7db9"/>
    <path d="M 449.348259 317.480829 
L 477.655904 325.004708 
L 483.575456 213.210811 
L 452.91962 319.043417 
z
" clip-path="url(#p36eaed9065)" style="fill: #db72a9"/>
    <path d="M 466.25257 361.574922 
L 494.785833 370.051426 
L 498.382681 366.543278 
L 469.891874 357.905662 
z
" clip-path="url(#p36eaed9065)" style="fill: #b65f8d"/>
    <path d="M 429.154946 258.574064 
L 456.609369 312.075186 
L 462.825864 156.424168 
L 433.443875 202.968583 
z
" clip-path="url(#p36eaed9065)" style="fill: #c7689a"/>
    <path d="M 391.22987 362.023332 
L 419.408459 370.463308 
L 423.154097 367.024445 
L 395.013334 358.586455 
z
" clip-path="url(#p36eaed9065)" style="fill: #1f4768"/>
    <path d="M 316.170871 362.473497 
L 343.993604 370.94383 
L 347.889618 367.451289 
L 320.102752 359.00098 
z
" clip-path="url(#p36eaed9065)" style="fill: #d9d92b"/>
    <path d="M 473.591645 350.506524 
L 501.96534 363.050506 
L 507.119847 299.373043 
L 477.655904 325.004708 
z
" clip-path="url(#p36eaed9065)" style="fill: #d670a6"/>
    <path d="M 241.075187 362.909466 
L 268.54199 371.382132 
L 272.58825 367.897533 
L 245.156142 359.459863 
z
" clip-path="url(#p36eaed9065)" style="fill: #20496b"/>
    <path d="M 426.885628 363.529192 
L 455.260906 372.00154 
L 458.966165 366.931221 
L 430.602445 360.052977 
z
" clip-path="url(#p36eaed9065)" style="fill: #da72a9"/>
    <path d="M 351.770252 363.968468 
L 379.789292 372.464693 
L 383.617925 368.95929 
L 355.635674 360.513739 
z
" clip-path="url(#p36eaed9065)" style="fill: #a95883"/>
    <path d="M 276.618541 364.426954 
L 304.281016 372.913872 
L 308.259767 369.403481 
L 280.632874 360.965923 
z
" clip-path="url(#p36eaed9065)" style="fill: #e5e52e"/>
    <path d="M 462.603628 365.009702 
L 491.177974 373.436496 
L 494.785833 370.051426 
L 466.25257 361.574922 
z
" clip-path="url(#p36eaed9065)" style="fill: #8e4a6e"/>
    <path d="M 387.431412 365.485983 
L 415.647299 373.987059 
L 419.408459 370.463308 
L 391.22987 362.023332 
z
" clip-path="url(#p36eaed9065)" style="fill: #2f6d9f"/>
    <path d="M 509.142542 354.108933 
L 537.93287 358.670133 
L 541.515668 352.877333 
L 515.18286 260.579018 
z
" clip-path="url(#p36eaed9065)" style="fill: #f07db9"/>
    <path d="M 312.222939 365.915809 
L 340.081978 374.427734 
L 343.993604 370.94383 
L 316.170871 362.473497 
z
" clip-path="url(#p36eaed9065)" style="fill: #545411"/>
    <path d="M 236.978259 366.378406 
L 264.479691 374.882019 
L 268.54199 371.382132 
L 241.075187 362.909466 
z
" clip-path="url(#p36eaed9065)" style="fill: #ce1819"/>
    <path d="M 498.382681 366.543278 
L 527.155364 374.988141 
L 530.75071 369.803591 
L 501.96534 363.050506 
z
" clip-path="url(#p36eaed9065)" style="fill: #dc73aa"/>
    <path d="M 423.154097 367.024445 
L 451.56755 375.527901 
L 455.260906 372.00154 
L 426.885628 363.529192 
z
" clip-path="url(#p36eaed9065)" style="fill: #3578b0"/>
    <path d="M 484.876991 317.609943 
L 515.18286 260.579018 
L 518.737817 258.38528 
L 489.04945 288.278597 
z
" clip-path="url(#p36eaed9065)" style="fill: #d971a8"/>
    <path d="M 347.889618 367.451289 
L 375.945474 375.968718 
L 379.789292 372.464693 
L 351.770252 363.968468 
z
" clip-path="url(#p36eaed9065)" style="fill: #d0d02a"/>
    <path d="M 272.58825 367.897533 
L 300.286203 376.419648 
L 304.281016 372.913872 
L 276.618541 364.426954 
z
" clip-path="url(#p36eaed9065)" style="fill: #85851b"/>
    <path d="M 537.93287 358.670133 
L 567.234162 358.451845 
L 570.709372 354.825028 
L 541.515668 352.877333 
z
" clip-path="url(#p36eaed9065)" style="fill: #db72a9"/>
    <path d="M 458.966165 366.931221 
L 487.551779 377.003156 
L 491.177974 373.436496 
L 462.603628 365.009702 
z
" clip-path="url(#p36eaed9065)" style="fill: #693751"/>
    <path d="M 383.617925 368.95929 
L 411.871739 377.456188 
L 415.647299 373.987059 
L 387.431412 365.485983 
z
" clip-path="url(#p36eaed9065)" style="fill: #5f3166"/>
    <path d="M 308.259767 369.403481 
L 336.154995 377.954486 
L 340.081978 374.427734 
L 312.222939 365.915809 
z
" clip-path="url(#p36eaed9065)" style="fill: #a7a721"/>
    <path d="M 507.119847 299.373043 
L 535.589476 325.622028 
L 537.93287 358.670133 
L 509.142542 354.108933 
z
" clip-path="url(#p36eaed9065)" style="fill: #532c41"/>
    <path d="M 232.86503 369.858224 
L 260.401246 378.396557 
L 264.479691 374.882019 
L 236.978259 366.378406 
z
" clip-path="url(#p36eaed9065)" style="fill: #db191b"/>
    <path d="M 494.785833 370.051426 
L 523.5961 378.597016 
L 527.155364 374.988141 
L 498.382681 366.543278 
z
" clip-path="url(#p36eaed9065)" style="fill: #d971a7"/>
    <path d="M 483.575456 213.210811 
L 509.142542 354.108933 
L 515.18286 260.579018 
L 484.876991 317.609943 
z
" clip-path="url(#p36eaed9065)" style="fill: #924c71"/>
    <path d="M 419.408459 370.463308 
L 447.859695 379.057001 
L 451.56755 375.527901 
L 423.154097 367.024445 
z
" clip-path="url(#p36eaed9065)" style="fill: #7c7c19"/>
    <path d="M 477.655904 325.004708 
L 507.119847 299.373043 
L 509.142542 354.108933 
L 483.575456 213.210811 
z
" clip-path="url(#p36eaed9065)" style="fill: #8c496c"/>
    <path d="M 343.993604 370.94383 
L 372.086359 379.501998 
L 375.945474 375.968718 
L 347.889618 367.451289 
z
" clip-path="url(#p36eaed9065)" style="fill: #c4c427"/>
    <path d="M 268.54199 371.382132 
L 296.275416 379.935287 
L 300.286203 376.419648 
L 272.58825 367.897533 
z
" clip-path="url(#p36eaed9065)" style="fill: #93931d"/>
    <path d="M 455.260906 372.00154 
L 483.912312 380.534669 
L 487.551779 377.003156 
L 458.966165 366.931221 
z
" clip-path="url(#p36eaed9065)" style="fill: #e97ab4"/>
    <path d="M 501.96534 363.050506 
L 530.75071 369.803591 
L 535.589476 325.622028 
L 507.119847 299.373043 
z
" clip-path="url(#p36eaed9065)" style="fill: #dd73ab"/>
    <path d="M 379.789292 372.464693 
L 408.080402 381.038212 
L 411.871739 377.456188 
L 383.617925 368.95929 
z
" clip-path="url(#p36eaed9065)" style="fill: #2f6b9d"/>
    <path d="M 304.281016 372.913872 
L 332.212282 381.483377 
L 336.154995 377.954486 
L 308.259767 369.403481 
z
" clip-path="url(#p36eaed9065)" style="fill: #f3f331"/>
    <path d="M 228.735482 373.351849 
L 256.3063 381.914936 
L 260.401246 378.396557 
L 232.86503 369.858224 
z
" clip-path="url(#p36eaed9065)" style="fill: #9d1213"/>
    <path d="M 491.177974 373.436496 
L 520.026533 382.092458 
L 523.5961 378.597016 
L 494.785833 370.051426 
z
" clip-path="url(#p36eaed9065)" style="fill: #552d42"/>
    <path d="M 415.647299 373.987059 
L 444.13785 382.544848 
L 447.859695 379.057001 
L 419.408459 370.463308 
z
" clip-path="url(#p36eaed9065)" style="fill: #8e8e1c"/>
    <path d="M 340.081978 374.427734 
L 368.211822 383.009511 
L 372.086359 379.501998 
L 343.993604 370.94383 
z
" clip-path="url(#p36eaed9065)" style="fill: #747417"/>
    <path d="M 535.589476 325.622028 
L 563.510557 368.257893 
L 567.234162 358.451845 
L 537.93287 358.670133 
z
" clip-path="url(#p36eaed9065)" style="fill: #723c58"/>
    <path d="M 264.479691 374.882019 
L 292.24853 383.45965 
L 296.275416 379.935287 
L 268.54199 371.382132 
z
" clip-path="url(#p36eaed9065)" style="fill: #b1b123"/>
    <path d="M 527.155364 374.988141 
L 556.204108 383.640992 
L 559.707803 380.051065 
L 530.75071 369.803591 
z
" clip-path="url(#p36eaed9065)" style="fill: #9d5279"/>
    <path d="M 451.56755 375.527901 
L 480.25728 384.129403 
L 483.912312 380.534669 
L 455.260906 372.00154 
z
" clip-path="url(#p36eaed9065)" style="fill: #d56fa5"/>
    <path d="M 375.945474 375.968718 
L 404.274395 384.571043 
L 408.080402 381.038212 
L 379.789292 372.464693 
z
" clip-path="url(#p36eaed9065)" style="fill: #142d42"/>
    <path d="M 530.75071 369.803591 
L 559.707803 380.051065 
L 563.510557 368.257893 
L 535.589476 325.622028 
z
" clip-path="url(#p36eaed9065)" style="fill: #cd6b9f"/>
    <path d="M 300.286203 376.419648 
L 328.253806 385.024202 
L 332.212282 381.483377 
L 304.281016 372.913872 
z
" clip-path="url(#p36eaed9065)" style="fill: #f0f030"/>
    <path d="M 224.589344 376.853641 
L 252.195472 385.467285 
L 256.3063 381.914936 
L 228.735482 373.351849 
z
" clip-path="url(#p36eaed9065)" style="fill: #2a618e"/>
    <path d="M 487.551779 377.003156 
L 516.444641 385.532721 
L 520.026533 382.092458 
L 491.177974 373.436496 
z
" clip-path="url(#p36eaed9065)" style="fill: #974f75"/>
    <path d="M 411.871739 377.456188 
L 440.400522 386.087558 
L 444.13785 382.544848 
L 415.647299 373.987059 
z
" clip-path="url(#p36eaed9065)" style="fill: #163249"/>
    <path d="M 336.154995 377.954486 
L 364.32186 386.580178 
L 368.211822 383.009511 
L 340.081978 374.427734 
z
" clip-path="url(#p36eaed9065)" style="fill: #d2d22a"/>
    <path d="M 260.401246 378.396557 
L 288.205798 387.013587 
L 292.24853 383.45965 
L 264.479691 374.882019 
z
" clip-path="url(#p36eaed9065)" style="fill: #367cb5"/>
    <path d="M 523.5961 378.597016 
L 552.687843 387.207381 
L 556.204108 383.640992 
L 527.155364 374.988141 
z
" clip-path="url(#p36eaed9065)" style="fill: #fafa32"/>
    <path d="M 447.859695 379.057001 
L 476.588771 387.687285 
L 480.25728 384.129403 
L 451.56755 375.527901 
z
" clip-path="url(#p36eaed9065)" style="fill: #e4e42e"/>
    <path d="M 372.086359 379.501998 
L 400.453121 388.124275 
L 404.274395 384.571043 
L 375.945474 375.968718 
z
" clip-path="url(#p36eaed9065)" style="fill: #ce1719"/>
    <path d="M 296.275416 379.935287 
L 324.27939 388.569312 
L 328.253806 385.024202 
L 300.286203 376.419648 
z
" clip-path="url(#p36eaed9065)" style="fill: #90901d"/>
    <path d="M 220.427037 380.380848 
L 248.067932 389.023114 
L 252.195472 385.467285 
L 224.589344 376.853641 
z
" clip-path="url(#p36eaed9065)" style="fill: #cb1719"/>
    <path d="M 483.912312 380.534669 
L 512.84312 389.170647 
L 516.444641 385.532721 
L 487.551779 377.003156 
z
" clip-path="url(#p36eaed9065)" style="fill: #e8e82e"/>
    <path d="M 408.080402 381.038212 
L 436.647807 389.677836 
L 440.400522 386.087558 
L 411.871739 377.456188 
z
" clip-path="url(#p36eaed9065)" style="fill: #f1f130"/>
    <path d="M 332.212282 381.483377 
L 360.416268 390.134385 
L 364.32186 386.580178 
L 336.154995 377.954486 
z
" clip-path="url(#p36eaed9065)" style="fill: #8d8d1c"/>
    <path d="M 256.3063 381.914936 
L 284.146795 390.577155 
L 288.205798 387.013587 
L 260.401246 378.396557 
z
" clip-path="url(#p36eaed9065)" style="fill: #1d4261"/>
    <path d="M 520.026533 382.092458 
L 549.15918 390.740917 
L 552.687843 387.207381 
L 523.5961 378.597016 
z
" clip-path="url(#p36eaed9065)" style="fill: #86861b"/>
    <path d="M 444.13785 382.544848 
L 472.906759 391.199649 
L 476.588771 387.687285 
L 447.859695 379.057001 
z
" clip-path="url(#p36eaed9065)" style="fill: #1a3b56"/>
    <path d="M 368.211822 383.009511 
L 396.616544 391.688169 
L 400.453121 388.124275 
L 372.086359 379.501998 
z
" clip-path="url(#p36eaed9065)" style="fill: #142e43"/>
    <path d="M 292.24853 383.45965 
L 320.289143 392.139533 
L 324.27939 388.569312 
L 296.275416 379.935287 
z
" clip-path="url(#p36eaed9065)" style="fill: #1b3f5c"/>
    <path d="M 216.247944 383.916389 
L 243.923858 392.594 
L 248.067932 389.023114 
L 220.427037 380.380848 
z
" clip-path="url(#p36eaed9065)" style="fill: #e11a1c"/>
    <path d="M 480.25728 384.129403 
L 509.228092 392.792887 
L 512.84312 389.170647 
L 483.912312 380.534669 
z
" clip-path="url(#p36eaed9065)" style="fill: #f1f130"/>
    <path d="M 404.274395 384.571043 
L 432.880662 393.233419 
L 436.647807 389.677836 
L 408.080402 381.038212 
z
" clip-path="url(#p36eaed9065)" style="fill: #b0b023"/>
    <path d="M 328.253806 385.024202 
L 356.495037 393.715172 
L 360.416268 390.134385 
L 332.212282 381.483377 
z
" clip-path="url(#p36eaed9065)" style="fill: #c66799"/>
    <path d="M 252.195472 385.467285 
L 280.071524 394.156238 
L 284.146795 390.577155 
L 256.3063 381.914936 
z
" clip-path="url(#p36eaed9065)" style="fill: #367bb4"/>
    <path d="M 516.444641 385.532721 
L 545.61333 394.374613 
L 549.15918 390.740917 
L 520.026533 382.092458 
z
" clip-path="url(#p36eaed9065)" style="fill: #4e2854"/>
    <path d="M 515.18286 260.579018 
L 541.515668 352.877333 
L 551.123016 170.727903 
L 518.737817 258.38528 
z
" clip-path="url(#p36eaed9065)" style="fill: #bc6291"/>
    <path d="M 440.400522 386.087558 
L 469.208562 394.795083 
L 472.906759 391.199649 
L 444.13785 382.544848 
z
" clip-path="url(#p36eaed9065)" style="fill: #743b7c"/>
    <path d="M 364.32186 386.580178 
L 392.764494 395.282521 
L 396.616544 391.688169 
L 368.211822 383.009511 
z
" clip-path="url(#p36eaed9065)" style="fill: #d0181a"/>
    <path d="M 288.205798 387.013587 
L 316.282915 395.728194 
L 320.289143 392.139533 
L 292.24853 383.45965 
z
" clip-path="url(#p36eaed9065)" style="fill: #a5a521"/>
    <path d="M 212.052042 387.463197 
L 239.763092 396.177776 
L 243.923858 392.594 
L 216.247944 383.916389 
z
" clip-path="url(#p36eaed9065)" style="fill: #142e43"/>
    <path d="M 476.588771 387.687285 
L 505.599452 396.397903 
L 509.228092 392.792887 
L 480.25728 384.129403 
z
" clip-path="url(#p36eaed9065)" style="fill: #eded2f"/>
    <path d="M 400.453121 388.124275 
L 429.097899 396.843804 
L 432.880662 393.233419 
L 404.274395 384.571043 
z
" clip-path="url(#p36eaed9065)" style="fill: #e1e12d"/>
    <path d="M 324.27939 388.569312 
L 352.557951 397.288786 
L 356.495037 393.715172 
L 328.253806 385.024202 
z
" clip-path="url(#p36eaed9065)" style="fill: #7d7d19"/>
    <path d="M 248.067932 389.023114 
L 275.979787 397.745832 
L 280.071524 394.156238 
L 252.195472 385.467285 
z
" clip-path="url(#p36eaed9065)" style="fill: #2e6999"/>
    <path d="M 512.84312 389.170647 
L 542.055502 397.957893 
L 545.61333 394.374613 
L 516.444641 385.532721 
z
" clip-path="url(#p36eaed9065)" style="fill: #626214"/>
    <path d="M 436.647807 389.677836 
L 465.495656 398.396902 
L 469.208562 394.795083 
L 440.400522 386.087558 
z
" clip-path="url(#p36eaed9065)" style="fill: #357ab2"/>
    <path d="M 360.416268 390.134385 
L 388.896996 398.878752 
L 392.764494 395.282521 
L 364.32186 386.580178 
z
" clip-path="url(#p36eaed9065)" style="fill: #1a3b56"/>
    <path d="M 284.146795 390.577155 
L 312.260479 399.324378 
L 316.282915 395.728194 
L 288.205798 387.013587 
z
" clip-path="url(#p36eaed9065)" style="fill: #606013"/>
    <path d="M 207.839418 391.027099 
L 235.585495 399.773393 
L 239.763092 396.177776 
L 212.052042 387.463197 
z
" clip-path="url(#p36eaed9065)" style="fill: #1e4565"/>
    <path d="M 472.906759 391.199649 
L 501.957242 399.978102 
L 505.599452 396.397903 
L 476.588771 387.687285 
z
" clip-path="url(#p36eaed9065)" style="fill: #535311"/>
    <path d="M 396.616544 391.688169 
L 425.300354 400.427625 
L 429.097899 396.843804 
L 400.453121 388.124275 
z
" clip-path="url(#p36eaed9065)" style="fill: #9f9f20"/>
    <path d="M 320.289143 392.139533 
L 348.605122 400.904582 
L 352.557951 397.288786 
L 324.27939 388.569312 
z
" clip-path="url(#p36eaed9065)" style="fill: #c1c127"/>
    <path d="M 243.923858 392.594 
L 271.871682 401.355969 
L 275.979787 397.745832 
L 248.067932 389.023114 
z
" clip-path="url(#p36eaed9065)" style="fill: #3477ad"/>
    <path d="M 509.228092 392.792887 
L 538.483095 401.562387 
L 542.055502 397.957893 
L 512.84312 389.170647 
z
" clip-path="url(#p36eaed9065)" style="fill: #132c41"/>
    <path d="M 432.880662 393.233419 
L 461.76772 402.017305 
L 465.495656 398.396902 
L 436.647807 389.677836 
z
" clip-path="url(#p36eaed9065)" style="fill: #a1a120"/>
    <path d="M 356.495037 393.715172 
L 385.013909 402.485891 
L 388.896996 398.878752 
L 360.416268 390.134385 
z
" clip-path="url(#p36eaed9065)" style="fill: #a01214"/>
    <path d="M 280.071524 394.156238 
L 308.22186 402.938343 
L 312.260479 399.324378 
L 284.146795 390.577155 
z
" clip-path="url(#p36eaed9065)" style="fill: #98981e"/>
    <path d="M 203.609979 394.60819 
L 231.39125 403.390909 
L 235.585495 399.773393 
L 207.839418 391.027099 
z
" clip-path="url(#p36eaed9065)" style="fill: #d0181a"/>
    <path d="M 469.208562 394.795083 
L 498.300455 403.566724 
L 501.957242 399.978102 
L 472.906759 391.199649 
z
" clip-path="url(#p36eaed9065)" style="fill: #89476a"/>
    <path d="M 392.764494 395.282521 
L 421.487056 404.067607 
L 425.300354 400.427625 
L 396.616544 391.688169 
z
" clip-path="url(#p36eaed9065)" style="fill: #ecec2f"/>
    <path d="M 316.282915 395.728194 
L 344.636296 404.525695 
L 348.605122 400.904582 
L 320.289143 392.139533 
z
" clip-path="url(#p36eaed9065)" style="fill: #a4a421"/>
    <path d="M 239.763092 396.177776 
L 267.746709 404.967543 
L 271.871682 401.355969 
L 243.923858 392.594 
z
" clip-path="url(#p36eaed9065)" style="fill: #24547a"/>
    <path d="M 505.599452 396.397903 
L 534.897439 405.145078 
L 538.483095 401.562387 
L 509.228092 392.792887 
z
" clip-path="url(#p36eaed9065)" style="fill: #275982"/>
    <path d="M 429.097899 396.843804 
L 458.024891 405.643479 
L 461.76772 402.017305 
L 432.880662 393.233419 
z
" clip-path="url(#p36eaed9065)" style="fill: #367bb4"/>
    <path d="M 352.557951 397.288786 
L 381.115121 406.111211 
L 385.013909 402.485891 
L 356.495037 393.715172 
z
" clip-path="url(#p36eaed9065)" style="fill: #183750"/>
    <path d="M 275.979787 397.745832 
L 304.166875 406.563827 
L 308.22186 402.938343 
L 280.071524 394.156238 
z
" clip-path="url(#p36eaed9065)" style="fill: #626214"/>
    <path d="M 199.363426 398.200802 
L 227.17994 407.019249 
L 231.39125 403.390909 
L 203.609979 394.60819 
z
" clip-path="url(#p36eaed9065)" style="fill: #dc191b"/>
    <path d="M 465.495656 398.396902 
L 494.627106 407.241133 
L 498.300455 403.566724 
L 469.208562 394.795083 
z
" clip-path="url(#p36eaed9065)" style="fill: #b9618f"/>
    <path d="M 541.515668 352.877333 
L 570.709372 354.825028 
L 582.140396 152.424929 
L 551.123016 170.727903 
z
" clip-path="url(#p36eaed9065)" style="fill: #dc73aa"/>
    <path d="M 388.896996 398.878752 
L 417.658541 407.702771 
L 421.487056 404.067607 
L 392.764494 395.282521 
z
" clip-path="url(#p36eaed9065)" style="fill: #f1f130"/>
    <path d="M 312.260479 399.324378 
L 340.651268 408.139807 
L 344.636296 404.525695 
L 316.282915 395.728194 
z
" clip-path="url(#p36eaed9065)" style="fill: #9b9b1f"/>
    <path d="M 235.585495 399.773393 
L 263.605293 408.605437 
L 267.746709 404.967543 
L 239.763092 396.177776 
z
" clip-path="url(#p36eaed9065)" style="fill: #367bb4"/>
    <path d="M 501.957242 399.978102 
L 531.294572 408.825311 
L 534.897439 405.145078 
L 505.599452 396.397903 
z
" clip-path="url(#p36eaed9065)" style="fill: #7d4086"/>
    <path d="M 425.300354 400.427625 
L 454.267062 409.275237 
L 458.024891 405.643479 
L 429.097899 396.843804 
z
" clip-path="url(#p36eaed9065)" style="fill: #12293c"/>
    <path d="M 348.605122 400.904582 
L 377.200547 409.749407 
L 381.115121 406.111211 
L 352.557951 397.288786 
z
" clip-path="url(#p36eaed9065)" style="fill: #214b6d"/>
    <path d="M 271.871682 401.355969 
L 300.095459 410.203691 
L 304.166875 406.563827 
L 275.979787 397.745832 
z
" clip-path="url(#p36eaed9065)" style="fill: #c2c227"/>
    <path d="M 195.099752 401.807899 
L 222.951546 410.661554 
L 227.17994 407.019249 
L 199.363426 398.200802 
z
" clip-path="url(#p36eaed9065)" style="fill: #a61314"/>
    <path d="M 461.76772 402.017305 
L 490.940197 410.877247 
L 494.627106 407.241133 
L 465.495656 398.396902 
z
" clip-path="url(#p36eaed9065)" style="fill: #585812"/>
    <path d="M 385.013909 402.485891 
L 413.814537 411.349949 
L 417.658541 407.702771 
L 388.896996 398.878752 
z
" clip-path="url(#p36eaed9065)" style="fill: #8f8f1d"/>
    <path d="M 308.22186 402.938343 
L 336.650246 411.793369 
L 340.651268 408.139807 
L 312.260479 399.324378 
z
" clip-path="url(#p36eaed9065)" style="fill: #f8f832"/>
    <path d="M 231.39125 403.390909 
L 259.4471 412.258565 
L 263.605293 408.605437 
L 235.585495 399.773393 
z
" clip-path="url(#p36eaed9065)" style="fill: #367bb3"/>
    <path d="M 498.300455 403.566724 
L 527.680565 412.411027 
L 531.294572 408.825311 
L 501.957242 399.978102 
z
" clip-path="url(#p36eaed9065)" style="fill: #502956"/>
    <path d="M 421.487056 404.067607 
L 450.493675 412.941505 
L 454.267062 409.275237 
L 425.300354 400.427625 
z
" clip-path="url(#p36eaed9065)" style="fill: #3375aa"/>
    <path d="M 344.636296 404.525695 
L 373.270089 413.405075 
L 377.200547 409.749407 
L 348.605122 400.904582 
z
" clip-path="url(#p36eaed9065)" style="fill: #e21a1c"/>
    <path d="M 267.746709 404.967543 
L 296.007585 413.862533 
L 300.095459 410.203691 
L 271.871682 401.355969 
z
" clip-path="url(#p36eaed9065)" style="fill: #81811a"/>
    <path d="M 190.818692 405.425231 
L 218.705894 414.315774 
L 222.951546 410.661554 
L 195.099752 401.807899 
z
" clip-path="url(#p36eaed9065)" style="fill: #16324a"/>
    <path d="M 458.024891 405.643479 
L 487.237854 414.547889 
L 490.940197 410.877247 
L 461.76772 402.017305 
z
" clip-path="url(#p36eaed9065)" style="fill: #a1547d"/>
    <path d="M 381.115121 406.111211 
L 409.954956 415.007591 
L 413.814537 411.349949 
L 385.013909 402.485891 
z
" clip-path="url(#p36eaed9065)" style="fill: #7a7a18"/>
    <path d="M 304.166875 406.563827 
L 332.633034 415.467965 
L 336.650246 411.793369 
L 308.22186 402.938343 
z
" clip-path="url(#p36eaed9065)" style="fill: #2e6999"/>
    <path d="M 227.17994 407.019249 
L 255.271977 415.924822 
L 259.4471 412.258565 
L 231.39125 403.390909 
z
" clip-path="url(#p36eaed9065)" style="fill: #3375ab"/>
    <path d="M 494.627106 407.241133 
L 524.048264 416.12687 
L 527.680565 412.411027 
L 498.300455 403.566724 
z
" clip-path="url(#p36eaed9065)" style="fill: #3579b0"/>
    <path d="M 417.658541 407.702771 
L 446.705085 416.614985 
L 450.493675 412.941505 
L 421.487056 404.067607 
z
" clip-path="url(#p36eaed9065)" style="fill: #e7e72e"/>
    <path d="M 340.651268 408.139807 
L 369.323637 417.061147 
L 373.270089 413.405075 
L 344.636296 404.525695 
z
" clip-path="url(#p36eaed9065)" style="fill: #142d42"/>
    <path d="M 263.605293 408.605437 
L 291.902779 417.517773 
L 296.007585 413.862533 
L 267.746709 404.967543 
z
" clip-path="url(#p36eaed9065)" style="fill: #20486a"/>
    <path d="M 186.520628 409.065894 
L 214.44319 417.991754 
L 218.705894 414.315774 
L 190.818692 405.425231 
z
" clip-path="url(#p36eaed9065)" style="fill: #d1181a"/>
    <path d="M 454.267062 409.275237 
L 483.520838 418.21671 
L 487.237854 414.547889 
L 458.024891 405.643479 
z
" clip-path="url(#p36eaed9065)" style="fill: #582e44"/>
    <path d="M 377.200547 409.749407 
L 406.079633 418.685017 
L 409.954956 415.007591 
L 381.115121 406.111211 
z
" clip-path="url(#p36eaed9065)" style="fill: #a2a220"/>
    <path d="M 300.095459 410.203691 
L 328.599373 419.145082 
L 332.633034 415.467965 
L 304.166875 406.563827 
z
" clip-path="url(#p36eaed9065)" style="fill: #693751"/>
    <path d="M 222.951546 410.661554 
L 251.079765 419.602335 
L 255.271977 415.924822 
L 227.17994 407.019249 
z
" clip-path="url(#p36eaed9065)" style="fill: #245278"/>
    <path d="M 490.940197 410.877247 
L 520.401954 419.833966 
L 524.048264 416.12687 
L 494.627106 407.241133 
z
" clip-path="url(#p36eaed9065)" style="fill: #2a618d"/>
    <path d="M 413.814537 411.349949 
L 442.901193 420.294855 
L 446.705085 416.614985 
L 417.658541 407.702771 
z
" clip-path="url(#p36eaed9065)" style="fill: #2a618d"/>
    <path d="M 336.650246 411.793369 
L 365.361136 420.758369 
L 369.323637 417.061147 
L 340.651268 408.139807 
z
" clip-path="url(#p36eaed9065)" style="fill: #25557d"/>
    <path d="M 259.4471 412.258565 
L 287.781769 421.218958 
L 291.902779 417.517773 
L 263.605293 408.605437 
z
" clip-path="url(#p36eaed9065)" style="fill: #d8d82b"/>
    <path d="M 182.204967 412.716971 
L 210.162997 421.679163 
L 214.44319 417.991754 
L 186.520628 409.065894 
z
" clip-path="url(#p36eaed9065)" style="fill: #cf1819"/>
    <path d="M 450.493675 412.941505 
L 479.788498 421.908113 
L 483.520838 418.21671 
L 454.267062 409.275237 
z
" clip-path="url(#p36eaed9065)" style="fill: #bfbf26"/>
    <path d="M 373.270089 413.405075 
L 402.188532 422.373624 
L 406.079633 418.685017 
L 377.200547 409.749407 
z
" clip-path="url(#p36eaed9065)" style="fill: #93931d"/>
    <path d="M 296.007585 413.862533 
L 324.549228 422.834089 
L 328.599373 419.145082 
L 300.095459 410.203691 
z
" clip-path="url(#p36eaed9065)" style="fill: #9e9e20"/>
    <path d="M 218.705894 414.315774 
L 246.870466 423.295589 
L 251.079765 419.602335 
L 222.951546 410.661554 
z
" clip-path="url(#p36eaed9065)" style="fill: #142d42"/>
    <path d="M 487.237854 414.547889 
L 516.741422 423.534869 
L 520.401954 419.833966 
L 490.940197 410.877247 
z
" clip-path="url(#p36eaed9065)" style="fill: #a6a621"/>
    <path d="M 409.954956 415.007591 
L 439.081828 423.985441 
L 442.901193 420.294855 
L 413.814537 411.349949 
z
" clip-path="url(#p36eaed9065)" style="fill: #26567e"/>
    <path d="M 332.633034 415.467965 
L 361.382445 424.457983 
L 365.361136 420.758369 
L 336.650246 411.793369 
z
" clip-path="url(#p36eaed9065)" style="fill: #cf1819"/>
    <path d="M 255.271977 415.924822 
L 283.643646 424.918473 
L 287.781769 421.218958 
L 259.4471 412.258565 
z
" clip-path="url(#p36eaed9065)" style="fill: #a5a521"/>
    <path d="M 177.871767 416.382887 
L 205.865276 425.380292 
L 210.162997 421.679163 
L 182.204967 412.716971 
z
" clip-path="url(#p36eaed9065)" style="fill: #a11214"/>
    <path d="M 446.705085 416.614985 
L 476.040822 425.619167 
L 479.788498 421.908113 
L 450.493675 412.941505 
z
" clip-path="url(#p36eaed9065)" style="fill: #cbcb29"/>
    <path d="M 369.323637 417.061147 
L 398.281528 426.077305 
L 402.188532 422.373624 
L 373.270089 413.405075 
z
" clip-path="url(#p36eaed9065)" style="fill: #626214"/>
    <path d="M 291.902779 417.517773 
L 320.482422 426.528842 
L 324.549228 422.834089 
L 296.007585 413.862533 
z
" clip-path="url(#p36eaed9065)" style="fill: #65354e"/>
    <path d="M 214.44319 417.991754 
L 242.644044 427.007129 
L 246.870466 423.295589 
L 218.705894 414.315774 
z
" clip-path="url(#p36eaed9065)" style="fill: #e0e02d"/>
    <path d="M 483.520838 418.21671 
L 513.066222 427.240669 
L 516.741422 423.534869 
L 487.237854 414.547889 
z
" clip-path="url(#p36eaed9065)" style="fill: #122a3d"/>
    <path d="M 406.079633 418.685017 
L 435.246716 427.700681 
L 439.081828 423.985441 
L 409.954956 415.007591 
z
" clip-path="url(#p36eaed9065)" style="fill: #357ab2"/>
    <path d="M 328.599373 419.145082 
L 357.387477 428.171823 
L 361.382445 424.457983 
L 332.633034 415.467965 
z
" clip-path="url(#p36eaed9065)" style="fill: #af1415"/>
    <path d="M 251.079765 419.602335 
L 279.488625 428.635009 
L 283.643646 424.918473 
L 255.271977 415.924822 
z
" clip-path="url(#p36eaed9065)" style="fill: #96961e"/>
    <path d="M 173.520919 420.063733 
L 201.550051 429.099124 
L 205.865276 425.380292 
L 177.871767 416.382887 
z
" clip-path="url(#p36eaed9065)" style="fill: #de191b"/>
    <path d="M 442.901193 420.294855 
L 472.277998 429.336236 
L 476.040822 425.619167 
L 446.705085 416.614985 
z
" clip-path="url(#p36eaed9065)" style="fill: #595912"/>
    <path d="M 365.361136 420.758369 
L 394.358512 429.799429 
L 398.281528 426.077305 
L 369.323637 417.061147 
z
" clip-path="url(#p36eaed9065)" style="fill: #367db6"/>
    <path d="M 287.781769 421.218958 
L 316.399272 430.266792 
L 320.482422 426.528842 
L 291.902779 417.517773 
z
" clip-path="url(#p36eaed9065)" style="fill: #e0e02d"/>
    <path d="M 210.162997 421.679163 
L 238.40012 430.726998 
L 242.644044 427.007129 
L 214.44319 417.991754 
z
" clip-path="url(#p36eaed9065)" style="fill: #245277"/>
    <path d="M 479.788498 421.908113 
L 509.375769 430.968485 
L 513.066222 427.240669 
L 483.520838 418.21671 
z
" clip-path="url(#p36eaed9065)" style="fill: #1d4362"/>
    <path d="M 402.188532 422.373624 
L 431.395881 431.432071 
L 435.246716 427.700681 
L 406.079633 418.685017 
z
" clip-path="url(#p36eaed9065)" style="fill: #3374a9"/>
    <path d="M 324.549228 422.834089 
L 353.376125 431.89907 
L 357.387477 428.171823 
L 328.599373 419.145082 
z
" clip-path="url(#p36eaed9065)" style="fill: #132b3f"/>
    <path d="M 246.870466 423.295589 
L 275.316548 432.365783 
L 279.488625 428.635009 
L 251.079765 419.602335 
z
" clip-path="url(#p36eaed9065)" style="fill: #696915"/>
    <path d="M 169.152316 423.759601 
L 197.217105 432.832466 
L 201.550051 429.099124 
L 173.520919 420.063733 
z
" clip-path="url(#p36eaed9065)" style="fill: #d6181a"/>
    <path d="M 439.081828 423.985441 
L 468.499826 433.063967 
L 472.277998 429.336236 
L 442.901193 420.294855 
z
" clip-path="url(#p36eaed9065)" style="fill: #565611"/>
    <path d="M 361.382445 424.457983 
L 390.419411 433.534089 
L 394.358512 429.799429 
L 365.361136 420.758369 
z
" clip-path="url(#p36eaed9065)" style="fill: #ba1517"/>
    <path d="M 283.643646 424.918473 
L 312.299192 434.004457 
L 316.399272 430.266792 
L 287.781769 421.218958 
z
" clip-path="url(#p36eaed9065)" style="fill: #717117"/>
    <path d="M 205.865276 425.380292 
L 234.13893 434.467796 
L 238.40012 430.726998 
L 210.162997 421.679163 
z
" clip-path="url(#p36eaed9065)" style="fill: #367cb6"/>
    <path d="M 476.040822 425.619167 
L 505.670192 434.710747 
L 509.375769 430.968485 
L 479.788498 421.908113 
z
" clip-path="url(#p36eaed9065)" style="fill: #cd1719"/>
    <path d="M 398.281528 426.077305 
L 427.529415 435.162452 
L 431.395881 431.432071 
L 402.188532 422.373624 
z
" clip-path="url(#p36eaed9065)" style="fill: #235075"/>
    <path d="M 320.482422 426.528842 
L 349.348292 435.641631 
L 353.376125 431.89907 
L 324.549228 422.834089 
z
" clip-path="url(#p36eaed9065)" style="fill: #153147"/>
    <path d="M 242.644044 427.007129 
L 271.127343 436.112541 
L 275.316548 432.365783 
L 246.870466 423.295589 
z
" clip-path="url(#p36eaed9065)" style="fill: #3478af"/>
    <path d="M 435.246716 427.700681 
L 464.706002 436.813154 
L 468.499826 433.063967 
L 439.081828 423.985441 
z
" clip-path="url(#p36eaed9065)" style="fill: #cfcf29"/>
    <path d="M 357.387477 428.171823 
L 386.464104 437.287937 
L 390.419411 433.534089 
L 361.382445 424.457983 
z
" clip-path="url(#p36eaed9065)" style="fill: #db191b"/>
    <path d="M 279.488625 428.635009 
L 308.182251 437.757493 
L 312.299192 434.004457 
L 283.643646 424.918473 
z
" clip-path="url(#p36eaed9065)" style="fill: #1a3c58"/>
    <path d="M 201.550051 429.099124 
L 229.860272 438.225948 
L 234.13893 434.467796 
L 205.865276 425.380292 
z
" clip-path="url(#p36eaed9065)" style="fill: #306ea0"/>
    <path d="M 472.277998 429.336236 
L 501.94944 438.465836 
L 505.670192 434.710747 
L 476.040822 425.619167 
z
" clip-path="url(#p36eaed9065)" style="fill: #142d42"/>
    <path d="M 394.358512 429.799429 
L 423.646837 438.926329 
L 427.529415 435.162452 
L 398.281528 426.077305 
z
" clip-path="url(#p36eaed9065)" style="fill: #367cb5"/>
    <path d="M 316.399272 430.266792 
L 345.3039 439.403241 
L 349.348292 435.641631 
L 320.482422 426.528842 
z
" clip-path="url(#p36eaed9065)" style="fill: #e21a1c"/>
    <path d="M 238.40012 430.726998 
L 266.920877 439.874068 
L 271.127343 436.112541 
L 242.644044 427.007129 
z
" clip-path="url(#p36eaed9065)" style="fill: #6a6a15"/>
    <path d="M 431.395881 431.432071 
L 460.896525 440.579316 
L 464.706002 436.813154 
L 435.246716 427.700681 
z
" clip-path="url(#p36eaed9065)" style="fill: #f17eba"/>
    <path d="M 353.376125 431.89907 
L 382.492513 441.053409 
L 386.464104 437.287937 
L 357.387477 428.171823 
z
" clip-path="url(#p36eaed9065)" style="fill: #1d4362"/>
    <path d="M 275.316548 432.365783 
L 304.0483 441.522866 
L 308.182251 437.757493 
L 279.488625 428.635009 
z
" clip-path="url(#p36eaed9065)" style="fill: #9b9b1f"/>
    <path d="M 197.217105 432.832466 
L 225.563856 441.995398 
L 229.860272 438.225948 
L 201.550051 429.099124 
z
" clip-path="url(#p36eaed9065)" style="fill: #265880"/>
    <path d="M 468.499826 433.063967 
L 498.213369 442.235549 
L 501.94944 438.465836 
L 472.277998 429.336236 
z
" clip-path="url(#p36eaed9065)" style="fill: #142d42"/>
    <path d="M 390.419411 433.534089 
L 419.748258 442.705879 
L 423.646837 438.926329 
L 394.358512 429.799429 
z
" clip-path="url(#p36eaed9065)" style="fill: #dcdc2c"/>
    <path d="M 312.299192 434.004457 
L 341.242816 443.17854 
L 345.3039 439.403241 
L 316.399272 430.266792 
z
" clip-path="url(#p36eaed9065)" style="fill: #cd1719"/>
    <path d="M 234.13893 434.467796 
L 262.69706 443.651269 
L 266.920877 439.874068 
L 238.40012 430.726998 
z
" clip-path="url(#p36eaed9065)" style="fill: #17364e"/>
    <path d="M 427.529415 435.162452 
L 457.071406 444.356414 
L 460.896525 440.579316 
L 431.395881 431.432071 
z
" clip-path="url(#p36eaed9065)" style="fill: #575711"/>
    <path d="M 349.348292 435.641631 
L 378.504525 444.832232 
L 382.492513 441.053409 
L 353.376125 431.89907 
z
" clip-path="url(#p36eaed9065)" style="fill: #1f4869"/>
    <path d="M 271.127343 436.112541 
L 299.897369 445.310058 
L 304.0483 441.522866 
L 275.316548 432.365783 
z
" clip-path="url(#p36eaed9065)" style="fill: #306d9f"/>
    <path d="M 464.706002 436.813154 
L 494.46182 446.022553 
L 498.213369 442.235549 
L 468.499826 433.063967 
z
" clip-path="url(#p36eaed9065)" style="fill: #6c6c16"/>
    <path d="M 386.464104 437.287937 
L 415.83361 446.497508 
L 419.748258 442.705879 
L 390.419411 433.534089 
z
" clip-path="url(#p36eaed9065)" style="fill: #2e6a9b"/>
    <path d="M 308.182251 437.757493 
L 337.164955 446.970355 
L 341.242816 443.17854 
L 312.299192 434.004457 
z
" clip-path="url(#p36eaed9065)" style="fill: #e31a1c"/>
    <path d="M 229.860272 438.225948 
L 258.45577 447.443622 
L 262.69706 443.651269 
L 234.13893 434.467796 
z
" clip-path="url(#p36eaed9065)" style="fill: #c1c127"/>
    <path d="M 423.646837 438.926329 
L 453.230263 448.161436 
L 457.071406 444.356414 
L 427.529415 435.162452 
z
" clip-path="url(#p36eaed9065)" style="fill: #a5a521"/>
    <path d="M 345.3039 439.403241 
L 374.500035 448.634936 
L 378.504525 444.832232 
L 349.348292 435.641631 
z
" clip-path="url(#p36eaed9065)" style="fill: #2d6897"/>
    <path d="M 266.920877 439.874068 
L 295.729216 449.109779 
L 299.897369 445.310058 
L 271.127343 436.112541 
z
" clip-path="url(#p36eaed9065)" style="fill: #1b3e5a"/>
    <path d="M 460.896525 440.579316 
L 490.694721 449.826093 
L 494.46182 446.022553 
L 464.706002 436.813154 
z
" clip-path="url(#p36eaed9065)" style="fill: #1a3c57"/>
    <path d="M 382.492513 441.053409 
L 411.902787 450.30081 
L 415.83361 446.497508 
L 386.464104 437.287937 
z
" clip-path="url(#p36eaed9065)" style="fill: #163249"/>
    <path d="M 304.0483 441.522866 
L 333.070198 450.776959 
L 337.164955 446.970355 
L 308.182251 437.757493 
z
" clip-path="url(#p36eaed9065)" style="fill: #18364f"/>
    <path d="M 225.563856 441.995398 
L 254.196935 451.25277 
L 258.45577 447.443622 
L 229.860272 438.225948 
z
" clip-path="url(#p36eaed9065)" style="fill: #235177"/>
    <path d="M 419.748258 442.705879 
L 449.373405 451.969899 
L 453.230263 448.161436 
L 423.646837 438.926329 
z
" clip-path="url(#p36eaed9065)" style="fill: #6a6a15"/>
    <path d="M 341.242816 443.17854 
L 370.478949 452.448994 
L 374.500035 448.634936 
L 345.3039 439.403241 
z
" clip-path="url(#p36eaed9065)" style="fill: #1c405e"/>
    <path d="M 262.69706 443.651269 
L 291.543726 452.922116 
L 295.729216 449.109779 
L 266.920877 439.874068 
z
" clip-path="url(#p36eaed9065)" style="fill: #9f9f20"/>
    <path d="M 457.071406 444.356414 
L 486.91265 453.61703 
L 490.694721 449.826093 
L 460.896525 440.579316 
z
" clip-path="url(#p36eaed9065)" style="fill: #214c6e"/>
    <path d="M 378.504525 444.832232 
L 407.955696 454.113633 
L 411.902787 450.30081 
L 382.492513 441.053409 
z
" clip-path="url(#p36eaed9065)" style="fill: #1f4666"/>
    <path d="M 299.897369 445.310058 
L 328.958455 454.600277 
L 333.070198 450.776959 
L 304.0483 441.522866 
z
" clip-path="url(#p36eaed9065)" style="fill: #cf1819"/>
    <path d="M 415.83361 446.497508 
L 445.50048 455.797266 
L 449.373405 451.969899 
L 419.748258 442.705879 
z
" clip-path="url(#p36eaed9065)" style="fill: #e4e42e"/>
    <path d="M 337.164955 446.970355 
L 366.441144 456.268978 
L 370.478949 452.448994 
L 341.242816 443.17854 
z
" clip-path="url(#p36eaed9065)" style="fill: #235075"/>
    <path d="M 258.45577 447.443622 
L 287.340953 456.756587 
L 291.543726 452.922116 
L 262.69706 443.651269 
z
" clip-path="url(#p36eaed9065)" style="fill: #2c6594"/>
    <path d="M 453.230263 448.161436 
L 483.113569 457.479738 
L 486.91265 453.61703 
L 457.071406 444.356414 
z
" clip-path="url(#p36eaed9065)" style="fill: #cb1719"/>
    <path d="M 374.500035 448.634936 
L 403.992082 457.958609 
L 407.955696 454.113633 
L 378.504525 444.832232 
z
" clip-path="url(#p36eaed9065)" style="fill: #3171a5"/>
    <path d="M 295.729216 449.109779 
L 324.829605 458.438578 
L 328.958455 454.600277 
L 299.897369 445.310058 
z
" clip-path="url(#p36eaed9065)" style="fill: #af1415"/>
    <path d="M 411.902787 450.30081 
L 441.611395 459.643647 
L 445.50048 455.797266 
L 415.83361 446.497508 
z
" clip-path="url(#p36eaed9065)" style="fill: #bbbb25"/>
    <path d="M 333.070198 450.776959 
L 362.386545 460.117014 
L 366.441144 456.268978 
L 337.164955 446.970355 
z
" clip-path="url(#p36eaed9065)" style="fill: #357ab2"/>
    <path d="M 254.196935 451.25277 
L 283.120626 460.60387 
L 287.340953 456.756587 
L 258.45577 447.443622 
z
" clip-path="url(#p36eaed9065)" style="fill: #1b3f5b"/>
    <path d="M 449.373405 451.969899 
L 479.299301 461.3309 
L 483.113569 457.479738 
L 453.230263 448.161436 
z
" clip-path="url(#p36eaed9065)" style="fill: #1b3f5c"/>
    <path d="M 370.478949 452.448994 
L 400.012012 461.811233 
L 403.992082 457.958609 
L 374.500035 448.634936 
z
" clip-path="url(#p36eaed9065)" style="fill: #e21a1c"/>
    <path d="M 291.543726 452.922116 
L 320.683547 462.292876 
L 324.829605 458.438578 
L 295.729216 449.109779 
z
" clip-path="url(#p36eaed9065)" style="fill: #17364f"/>
    <path d="M 407.955696 454.113633 
L 437.706177 463.499883 
L 441.611395 459.643647 
L 411.902787 450.30081 
z
" clip-path="url(#p36eaed9065)" style="fill: #585812"/>
    <path d="M 328.958455 454.600277 
L 358.315049 463.984412 
L 362.386545 460.117014 
L 333.070198 450.776959 
z
" clip-path="url(#p36eaed9065)" style="fill: #cf1819"/>
    <path d="M 445.50048 455.797266 
L 475.469131 465.197274 
L 479.299301 461.3309 
L 449.373405 451.969899 
z
" clip-path="url(#p36eaed9065)" style="fill: #18364f"/>
    <path d="M 366.441144 456.268978 
L 396.01533 465.678921 
L 400.012012 461.811233 
L 370.478949 452.448994 
z
" clip-path="url(#p36eaed9065)" style="fill: #3d1f41"/>
    <path d="M 287.340953 456.756587 
L 316.520174 466.163269 
L 320.683547 462.292876 
L 291.543726 452.922116 
z
" clip-path="url(#p36eaed9065)" style="fill: #af1415"/>
    <path d="M 403.992082 457.958609 
L 433.784558 467.378428 
L 437.706177 463.499883 
L 407.955696 454.113633 
z
" clip-path="url(#p36eaed9065)" style="fill: #d1d12a"/>
    <path d="M 324.829605 458.438578 
L 354.22652 467.862436 
L 358.315049 463.984412 
L 328.958455 454.600277 
z
" clip-path="url(#p36eaed9065)" style="fill: #d0181a"/>
    <path d="M 441.611395 459.643647 
L 471.622941 469.079819 
L 475.469131 465.197274 
L 445.50048 455.797266 
z
" clip-path="url(#p36eaed9065)" style="fill: #af1415"/>
    <path d="M 362.386545 460.117014 
L 392.001949 469.55617 
L 396.01533 465.678921 
L 366.441144 456.268978 
z
" clip-path="url(#p36eaed9065)" style="fill: #1b3d5a"/>
    <path d="M 283.120626 460.60387 
L 312.339378 470.049861 
L 316.520174 466.163269 
L 287.340953 456.756587 
z
" clip-path="url(#p36eaed9065)" style="fill: #af1415"/>
    <path d="M 400.012012 461.811233 
L 429.846557 471.270112 
L 433.784558 467.378428 
L 403.992082 457.958609 
z
" clip-path="url(#p36eaed9065)" style="fill: #7e7e19"/>
    <path d="M 320.683547 462.292876 
L 350.120844 471.752272 
L 354.22652 467.862436 
L 324.829605 458.438578 
z
" clip-path="url(#p36eaed9065)" style="fill: #951112"/>
    <path d="M 437.706177 463.499883 
L 467.760628 472.978639 
L 471.622941 469.079819 
L 441.611395 459.643647 
z
" clip-path="url(#p36eaed9065)" style="fill: #18364f"/>
    <path d="M 358.315049 463.984412 
L 387.971689 473.463971 
L 392.001949 469.55617 
L 362.386545 460.117014 
z
" clip-path="url(#p36eaed9065)" style="fill: #3374a9"/>
    <path d="M 396.01533 465.678921 
L 425.89203 475.178127 
L 429.846557 471.270112 
L 400.012012 461.811233 
z
" clip-path="url(#p36eaed9065)" style="fill: #727217"/>
    <path d="M 316.520174 466.163269 
L 345.997974 475.666206 
L 350.120844 471.752272 
L 320.683547 462.292876 
z
" clip-path="url(#p36eaed9065)" style="fill: #cb1719"/>
    <path d="M 433.784558 467.378428 
L 463.882093 476.893835 
L 467.760628 472.978639 
L 437.706177 463.499883 
z
" clip-path="url(#p36eaed9065)" style="fill: #af1415"/>
    <path d="M 354.22652 467.862436 
L 383.92452 477.38191 
L 387.971689 473.463971 
L 358.315049 463.984412 
z
" clip-path="url(#p36eaed9065)" style="fill: #e31a1c"/>
    <path d="M 392.001949 469.55617 
L 421.920873 479.102577 
L 425.89203 475.178127 
L 396.01533 465.678921 
z
" clip-path="url(#p36eaed9065)" style="fill: #17354d"/>
    <path d="M 312.339378 470.049861 
L 341.85774 479.592711 
L 345.997974 475.666206 
L 316.520174 466.163269 
z
" clip-path="url(#p36eaed9065)" style="fill: #af1415"/>
    <path d="M 429.846557 471.270112 
L 459.987232 480.825511 
L 463.882093 476.893835 
L 433.784558 467.378428 
z
" clip-path="url(#p36eaed9065)" style="fill: #af1415"/>
    <path d="M 350.120844 471.752272 
L 379.860312 481.316138 
L 383.92452 477.38191 
L 354.22652 467.862436 
z
" clip-path="url(#p36eaed9065)" style="fill: #193a55"/>
    <path d="M 387.971689 473.463971 
L 417.93298 483.043565 
L 421.920873 479.102577 
L 392.001949 469.55617 
z
" clip-path="url(#p36eaed9065)" style="fill: #707016"/>
    <path d="M 425.89203 475.178127 
L 456.076015 484.769426 
L 459.987232 480.825511 
L 429.846557 471.270112 
z
" clip-path="url(#p36eaed9065)" style="fill: #951112"/>
    <path d="M 345.997974 475.666206 
L 375.778958 485.264663 
L 379.860312 481.316138 
L 350.120844 471.752272 
z
" clip-path="url(#p36eaed9065)" style="fill: #9e1213"/>
    <path d="M 383.92452 477.38191 
L 413.928247 487.001197 
L 417.93298 483.043565 
L 387.971689 473.463971 
z
" clip-path="url(#p36eaed9065)" style="fill: #757517"/>
    <path d="M 421.920873 479.102577 
L 452.148119 488.73872 
L 456.076015 484.769426 
L 425.89203 475.178127 
z
" clip-path="url(#p36eaed9065)" style="fill: #cb1719"/>
    <path d="M 341.85774 479.592711 
L 371.680346 489.233672 
L 375.778958 485.264663 
L 345.997974 475.666206 
z
" clip-path="url(#p36eaed9065)" style="fill: #d3181a"/>
    <path d="M 379.860312 481.316138 
L 409.906565 490.975577 
L 413.928247 487.001197 
L 383.92452 477.38191 
z
" clip-path="url(#p36eaed9065)" style="fill: #1c415f"/>
    <path d="M 417.93298 483.043565 
L 448.203684 492.718723 
L 452.148119 488.73872 
L 421.920873 479.102577 
z
" clip-path="url(#p36eaed9065)" style="fill: #971113"/>
    <path d="M 375.778958 485.264663 
L 405.867827 494.966813 
L 409.906565 490.975577 
L 379.860312 481.316138 
z
" clip-path="url(#p36eaed9065)" style="fill: #18364f"/>
    <path d="M 413.928247 487.001197 
L 444.242452 496.719113 
L 448.203684 492.718723 
L 417.93298 483.043565 
z
" clip-path="url(#p36eaed9065)" style="fill: #cd1719"/>
    <path d="M 371.680346 489.233672 
L 401.811924 498.975012 
L 405.867827 494.966813 
L 375.778958 485.264663 
z
" clip-path="url(#p36eaed9065)" style="fill: #93931d"/>
    <path d="M 409.906565 490.975577 
L 440.264396 500.73477 
L 444.242452 496.719113 
L 413.928247 487.001197 
z
" clip-path="url(#p36eaed9065)" style="fill: #af1415"/>
    <path d="M 405.867827 494.966813 
L 436.269381 504.767547 
L 440.264396 500.73477 
L 409.906565 490.975577 
z
" clip-path="url(#p36eaed9065)" style="fill: #af1415"/>
    <path d="M 401.811924 498.975012 
L 432.257299 508.817552 
L 436.269381 504.767547 
L 405.867827 494.966813 
z
" clip-path="url(#p36eaed9065)" style="fill: #af1415"/>
   </g>
   <g id="text_4">
    <!-- phylum -->
    <g transform="translate(344.870637 20.88) scale(0.12 -0.12)">
     <use xlink:href="#DejaVuSans-70"/>
     <use xlink:href="#DejaVuSans-68" x="63.476562"/>
     <use xlink:href="#DejaVuSans-79" x="126.855469"/>
     <use xlink:href="#DejaVuSans-6c" x="186.035156"/>
     <use xlink:href="#DejaVuSans-75" x="213.818359"/>
     <use xlink:href="#DejaVuSans-6d" x="277.197266"/>
    </g>
   </g>
  </g>
  <g id="axes_2">
   <g id="patch_6">
    <path d="M 675.6139 565.2 
L 702.5299 565.2 
L 702.5299 26.88 
L 675.6139 26.88 
z
" style="fill: #ffffff"/>
   </g>
   <g id="QuadMesh_1">
    <path d="M 675.6139 565.2 
L 702.5299 565.2 
L 702.5299 497.91 
L 675.6139 497.91 
L 675.6139 565.2 
" clip-path="url(#pd2ffb794d6)" style="fill: #e41a1c"/>
    <path d="M 675.6139 497.91 
L 702.5299 497.91 
L 702.5299 430.62 
L 675.6139 430.62 
L 675.6139 497.91 
" clip-path="url(#pd2ffb794d6)" style="fill: #377eb8"/>
    <path d="M 675.6139 430.62 
L 702.5299 430.62 
L 702.5299 363.33 
L 675.6139 363.33 
L 675.6139 430.62 
" clip-path="url(#pd2ffb794d6)" style="fill: #4daf4a"/>
    <path d="M 675.6139 363.33 
L 702.5299 363.33 
L 702.5299 296.04 
L 675.6139 296.04 
L 675.6139 363.33 
" clip-path="url(#pd2ffb794d6)" style="fill: #984ea3"/>
    <path d="M 675.6139 296.04 
L 702.5299 296.04 
L 702.5299 228.75 
L 675.6139 228.75 
L 675.6139 296.04 
" clip-path="url(#pd2ffb794d6)" style="fill: #ff7f00"/>
    <path d="M 675.6139 228.75 
L 702.5299 228.75 
L 702.5299 161.46 
L 675.6139 161.46 
L 675.6139 228.75 
" clip-path="url(#pd2ffb794d6)" style="fill: #ffff33"/>
    <path d="M 675.6139 161.46 
L 702.5299 161.46 
L 702.5299 94.17 
L 675.6139 94.17 
L 675.6139 161.46 
" clip-path="url(#pd2ffb794d6)" style="fill: #a65628"/>
    <path d="M 675.6139 94.17 
L 702.5299 94.17 
L 702.5299 26.88 
L 675.6139 26.88 
L 675.6139 94.17 
" clip-path="url(#pd2ffb794d6)" style="fill: #f781bf"/>
   </g>
   <g id="matplotlib.axis_1"/>
   <g id="matplotlib.axis_2">
    <g id="ytick_1">
     <g id="line2d_4">
      <defs>
       <path id="me5016d9e28" d="M 0 0 
L 3.5 0 
" style="stroke: #000000; stroke-width: 0.8"/>
      </defs>
      <g>
       <use xlink:href="#me5016d9e28" x="702.5299" y="531.555" style="stroke: #000000; stroke-width: 0.8"/>
      </g>
     </g>
     <g id="text_5">
      <!-- Not seen in this sample -->
      <g transform="translate(709.5299 535.354219) scale(0.1 -0.1)">
       <use xlink:href="#DejaVuSans-4e"/>
       <use xlink:href="#DejaVuSans-6f" x="74.804688"/>
       <use xlink:href="#DejaVuSans-74" x="135.986328"/>
       <use xlink:href="#DejaVuSans-20" x="175.195312"/>
       <use xlink:href="#DejaVuSans-73" x="206.982422"/>
       <use xlink:href="#DejaVuSans-65" x="259.082031"/>
       <use xlink:href="#DejaVuSans-65" x="320.605469"/>
       <use xlink:href="#DejaVuSans-6e" x="382.128906"/>
       <use xlink:href="#DejaVuSans-20" x="445.507812"/>
       <use xlink:href="#DejaVuSans-69" x="477.294922"/>
       <use xlink:href="#DejaVuSans-6e" x="505.078125"/>
       <use xlink:href="#DejaVuSans-20" x="568.457031"/>
       <use xlink:href="#DejaVuSans-74" x="600.244141"/>
       <use xlink:href="#DejaVuSans-68" x="639.453125"/>
       <use xlink:href="#DejaVuSans-69" x="702.832031"/>
       <use xlink:href="#DejaVuSans-73" x="730.615234"/>
       <use xlink:href="#DejaVuSans-20" x="782.714844"/>
       <use xlink:href="#DejaVuSans-73" x="814.501953"/>
       <use xlink:href="#DejaVuSans-61" x="866.601562"/>
       <use xlink:href="#DejaVuSans-6d" x="927.880859"/>
       <use xlink:href="#DejaVuSans-70" x="1025.292969"/>
       <use xlink:href="#DejaVuSans-6c" x="1088.769531"/>
       <use xlink:href="#DejaVuSans-65" x="1116.552734"/>
      </g>
     </g>
    </g>
    <g id="ytick_2">
     <g id="line2d_5">
      <g>
       <use xlink:href="#me5016d9e28" x="702.5299" y="464.265" style="stroke: #000000; stroke-width: 0.8"/>
      </g>
     </g>
     <g id="text_6">
      <!-- MGI Only -->
      <g transform="translate(709.5299 468.064219) scale(0.1 -0.1)">
       <defs>
        <path id="DejaVuSans-4f" d="M 2522 4238 
Q 1834 4238 1429 3725 
Q 1025 3213 1025 2328 
Q 1025 1447 1429 934 
Q 1834 422 2522 422 
Q 3209 422 3611 934 
Q 4013 1447 4013 2328 
Q 4013 3213 3611 3725 
Q 3209 4238 2522 4238 
z
M 2522 4750 
Q 3503 4750 4090 4092 
Q 4678 3434 4678 2328 
Q 4678 1225 4090 567 
Q 3503 -91 2522 -91 
Q 1538 -91 948 565 
Q 359 1222 359 2328 
Q 359 3434 948 4092 
Q 1538 4750 2522 4750 
z
" transform="scale(0.015625)"/>
       </defs>
       <use xlink:href="#DejaVuSans-4d"/>
       <use xlink:href="#DejaVuSans-47" x="86.279297"/>
       <use xlink:href="#DejaVuSans-49" x="163.769531"/>
       <use xlink:href="#DejaVuSans-20" x="193.261719"/>
       <use xlink:href="#DejaVuSans-4f" x="225.048828"/>
       <use xlink:href="#DejaVuSans-6e" x="303.759766"/>
       <use xlink:href="#DejaVuSans-6c" x="367.138672"/>
       <use xlink:href="#DejaVuSans-79" x="394.921875"/>
      </g>
     </g>
    </g>
    <g id="ytick_3">
     <g id="line2d_6">
      <g>
       <use xlink:href="#me5016d9e28" x="702.5299" y="396.975" style="stroke: #000000; stroke-width: 0.8"/>
      </g>
     </g>
     <g id="text_7">
      <!-- MinION Only -->
      <g transform="translate(709.5299 400.774219) scale(0.1 -0.1)">
       <use xlink:href="#DejaVuSans-4d"/>
       <use xlink:href="#DejaVuSans-69" x="86.279297"/>
       <use xlink:href="#DejaVuSans-6e" x="114.0625"/>
       <use xlink:href="#DejaVuSans-49" x="177.441406"/>
       <use xlink:href="#DejaVuSans-4f" x="206.933594"/>
       <use xlink:href="#DejaVuSans-4e" x="285.644531"/>
       <use xlink:href="#DejaVuSans-20" x="360.449219"/>
       <use xlink:href="#DejaVuSans-4f" x="392.236328"/>
       <use xlink:href="#DejaVuSans-6e" x="470.947266"/>
       <use xlink:href="#DejaVuSans-6c" x="534.326172"/>
       <use xlink:href="#DejaVuSans-79" x="562.109375"/>
      </g>
     </g>
    </g>
    <g id="ytick_4">
     <g id="line2d_7">
      <g>
       <use xlink:href="#me5016d9e28" x="702.5299" y="329.685" style="stroke: #000000; stroke-width: 0.8"/>
      </g>
     </g>
     <g id="text_8">
      <!-- MGI + MinION -->
      <g transform="translate(709.5299 333.484219) scale(0.1 -0.1)">
       <defs>
        <path id="DejaVuSans-2b" d="M 2944 4013 
L 2944 2272 
L 4684 2272 
L 4684 1741 
L 2944 1741 
L 2944 0 
L 2419 0 
L 2419 1741 
L 678 1741 
L 678 2272 
L 2419 2272 
L 2419 4013 
L 2944 4013 
z
" transform="scale(0.015625)"/>
       </defs>
       <use xlink:href="#DejaVuSans-4d"/>
       <use xlink:href="#DejaVuSans-47" x="86.279297"/>
       <use xlink:href="#DejaVuSans-49" x="163.769531"/>
       <use xlink:href="#DejaVuSans-20" x="193.261719"/>
       <use xlink:href="#DejaVuSans-2b" x="225.048828"/>
       <use xlink:href="#DejaVuSans-20" x="308.837891"/>
       <use xlink:href="#DejaVuSans-4d" x="340.625"/>
       <use xlink:href="#DejaVuSans-69" x="426.904297"/>
       <use xlink:href="#DejaVuSans-6e" x="454.6875"/>
       <use xlink:href="#DejaVuSans-49" x="518.066406"/>
       <use xlink:href="#DejaVuSans-4f" x="547.558594"/>
       <use xlink:href="#DejaVuSans-4e" x="626.269531"/>
      </g>
     </g>
    </g>
    <g id="ytick_5">
     <g id="line2d_8">
      <g>
       <use xlink:href="#me5016d9e28" x="702.5299" y="262.395" style="stroke: #000000; stroke-width: 0.8"/>
      </g>
     </g>
     <g id="text_9">
      <!-- Promethion Only -->
      <g transform="translate(709.5299 266.194219) scale(0.1 -0.1)">
       <defs>
        <path id="DejaVuSans-50" d="M 1259 4147 
L 1259 2394 
L 2053 2394 
Q 2494 2394 2734 2622 
Q 2975 2850 2975 3272 
Q 2975 3691 2734 3919 
Q 2494 4147 2053 4147 
L 1259 4147 
z
M 628 4666 
L 2053 4666 
Q 2838 4666 3239 4311 
Q 3641 3956 3641 3272 
Q 3641 2581 3239 2228 
Q 2838 1875 2053 1875 
L 1259 1875 
L 1259 0 
L 628 0 
L 628 4666 
z
" transform="scale(0.015625)"/>
       </defs>
       <use xlink:href="#DejaVuSans-50"/>
       <use xlink:href="#DejaVuSans-72" x="58.552734"/>
       <use xlink:href="#DejaVuSans-6f" x="97.416016"/>
       <use xlink:href="#DejaVuSans-6d" x="158.597656"/>
       <use xlink:href="#DejaVuSans-65" x="256.009766"/>
       <use xlink:href="#DejaVuSans-74" x="317.533203"/>
       <use xlink:href="#DejaVuSans-68" x="356.742188"/>
       <use xlink:href="#DejaVuSans-69" x="420.121094"/>
       <use xlink:href="#DejaVuSans-6f" x="447.904297"/>
       <use xlink:href="#DejaVuSans-6e" x="509.085938"/>
       <use xlink:href="#DejaVuSans-20" x="572.464844"/>
       <use xlink:href="#DejaVuSans-4f" x="604.251953"/>
       <use xlink:href="#DejaVuSans-6e" x="682.962891"/>
       <use xlink:href="#DejaVuSans-6c" x="746.341797"/>
       <use xlink:href="#DejaVuSans-79" x="774.125"/>
      </g>
     </g>
    </g>
    <g id="ytick_6">
     <g id="line2d_9">
      <g>
       <use xlink:href="#me5016d9e28" x="702.5299" y="195.105" style="stroke: #000000; stroke-width: 0.8"/>
      </g>
     </g>
     <g id="text_10">
      <!-- MGI + Promethion -->
      <g transform="translate(709.5299 198.904219) scale(0.1 -0.1)">
       <use xlink:href="#DejaVuSans-4d"/>
       <use xlink:href="#DejaVuSans-47" x="86.279297"/>
       <use xlink:href="#DejaVuSans-49" x="163.769531"/>
       <use xlink:href="#DejaVuSans-20" x="193.261719"/>
       <use xlink:href="#DejaVuSans-2b" x="225.048828"/>
       <use xlink:href="#DejaVuSans-20" x="308.837891"/>
       <use xlink:href="#DejaVuSans-50" x="340.625"/>
       <use xlink:href="#DejaVuSans-72" x="399.177734"/>
       <use xlink:href="#DejaVuSans-6f" x="438.041016"/>
       <use xlink:href="#DejaVuSans-6d" x="499.222656"/>
       <use xlink:href="#DejaVuSans-65" x="596.634766"/>
       <use xlink:href="#DejaVuSans-74" x="658.158203"/>
       <use xlink:href="#DejaVuSans-68" x="697.367188"/>
       <use xlink:href="#DejaVuSans-69" x="760.746094"/>
       <use xlink:href="#DejaVuSans-6f" x="788.529297"/>
       <use xlink:href="#DejaVuSans-6e" x="849.710938"/>
      </g>
     </g>
    </g>
    <g id="ytick_7">
     <g id="line2d_10">
      <g>
       <use xlink:href="#me5016d9e28" x="702.5299" y="127.815" style="stroke: #000000; stroke-width: 0.8"/>
      </g>
     </g>
     <g id="text_11">
      <!-- MinION + Promethion -->
      <g transform="translate(709.5299 131.614219) scale(0.1 -0.1)">
       <use xlink:href="#DejaVuSans-4d"/>
       <use xlink:href="#DejaVuSans-69" x="86.279297"/>
       <use xlink:href="#DejaVuSans-6e" x="114.0625"/>
       <use xlink:href="#DejaVuSans-49" x="177.441406"/>
       <use xlink:href="#DejaVuSans-4f" x="206.933594"/>
       <use xlink:href="#DejaVuSans-4e" x="285.644531"/>
       <use xlink:href="#DejaVuSans-20" x="360.449219"/>
       <use xlink:href="#DejaVuSans-2b" x="392.236328"/>
       <use xlink:href="#DejaVuSans-20" x="476.025391"/>
       <use xlink:href="#DejaVuSans-50" x="507.8125"/>
       <use xlink:href="#DejaVuSans-72" x="566.365234"/>
       <use xlink:href="#DejaVuSans-6f" x="605.228516"/>
       <use xlink:href="#DejaVuSans-6d" x="666.410156"/>
       <use xlink:href="#DejaVuSans-65" x="763.822266"/>
       <use xlink:href="#DejaVuSans-74" x="825.345703"/>
       <use xlink:href="#DejaVuSans-68" x="864.554688"/>
       <use xlink:href="#DejaVuSans-69" x="927.933594"/>
       <use xlink:href="#DejaVuSans-6f" x="955.716797"/>
       <use xlink:href="#DejaVuSans-6e" x="1016.898438"/>
      </g>
     </g>
    </g>
    <g id="ytick_8">
     <g id="line2d_11">
      <g>
       <use xlink:href="#me5016d9e28" x="702.5299" y="60.525" style="stroke: #000000; stroke-width: 0.8"/>
      </g>
     </g>
     <g id="text_12">
      <!-- All -->
      <g transform="translate(709.5299 64.324219) scale(0.1 -0.1)">
       <defs>
        <path id="DejaVuSans-41" d="M 2188 4044 
L 1331 1722 
L 3047 1722 
L 2188 4044 
z
M 1831 4666 
L 2547 4666 
L 4325 0 
L 3669 0 
L 3244 1197 
L 1141 1197 
L 716 0 
L 50 0 
L 1831 4666 
z
" transform="scale(0.015625)"/>
       </defs>
       <use xlink:href="#DejaVuSans-41"/>
       <use xlink:href="#DejaVuSans-6c" x="68.408203"/>
       <use xlink:href="#DejaVuSans-6c" x="96.191406"/>
      </g>
     </g>
    </g>
    <g id="text_13">
     <!-- How the taxa were detected -->
     <g transform="translate(838.933025 366.990781) rotate(-90) scale(0.1 -0.1)">
      <defs>
       <path id="DejaVuSans-48" d="M 628 4666 
L 1259 4666 
L 1259 2753 
L 3553 2753 
L 3553 4666 
L 4184 4666 
L 4184 0 
L 3553 0 
L 3553 2222 
L 1259 2222 
L 1259 0 
L 628 0 
L 628 4666 
z
" transform="scale(0.015625)"/>
       <path id="DejaVuSans-63" d="M 3122 3366 
L 3122 2828 
Q 2878 2963 2633 3030 
Q 2388 3097 2138 3097 
Q 1578 3097 1268 2742 
Q 959 2388 959 1747 
Q 959 1106 1268 751 
Q 1578 397 2138 397 
Q 2388 397 2633 464 
Q 2878 531 3122 666 
L 3122 134 
Q 2881 22 2623 -34 
Q 2366 -91 2075 -91 
Q 1284 -91 818 406 
Q 353 903 353 1747 
Q 353 2603 823 3093 
Q 1294 3584 2113 3584 
Q 2378 3584 2631 3529 
Q 2884 3475 3122 3366 
z
" transform="scale(0.015625)"/>
      </defs>
      <use xlink:href="#DejaVuSans-48"/>
      <use xlink:href="#DejaVuSans-6f" x="75.195312"/>
      <use xlink:href="#DejaVuSans-77" x="136.376953"/>
      <use xlink:href="#DejaVuSans-20" x="218.164062"/>
      <use xlink:href="#DejaVuSans-74" x="249.951172"/>
      <use xlink:href="#DejaVuSans-68" x="289.160156"/>
      <use xlink:href="#DejaVuSans-65" x="352.539062"/>
      <use xlink:href="#DejaVuSans-20" x="414.0625"/>
      <use xlink:href="#DejaVuSans-74" x="445.849609"/>
      <use xlink:href="#DejaVuSans-61" x="485.058594"/>
      <use xlink:href="#DejaVuSans-78" x="546.337891"/>
      <use xlink:href="#DejaVuSans-61" x="605.517578"/>
      <use xlink:href="#DejaVuSans-20" x="666.796875"/>
      <use xlink:href="#DejaVuSans-77" x="698.583984"/>
      <use xlink:href="#DejaVuSans-65" x="780.371094"/>
      <use xlink:href="#DejaVuSans-72" x="841.894531"/>
      <use xlink:href="#DejaVuSans-65" x="880.757812"/>
      <use xlink:href="#DejaVuSans-20" x="942.28125"/>
      <use xlink:href="#DejaVuSans-64" x="974.068359"/>
      <use xlink:href="#DejaVuSans-65" x="1037.544922"/>
      <use xlink:href="#DejaVuSans-74" x="1099.068359"/>
      <use xlink:href="#DejaVuSans-65" x="1138.277344"/>
      <use xlink:href="#DejaVuSans-63" x="1199.800781"/>
      <use xlink:href="#DejaVuSans-74" x="1254.78125"/>
      <use xlink:href="#DejaVuSans-65" x="1293.990234"/>
      <use xlink:href="#DejaVuSans-64" x="1355.513672"/>
     </g>
    </g>
   </g>
   <g id="LineCollection_1"/>
   <g id="patch_7">
    <path d="M 675.6139 565.2 
L 689.0719 565.2 
L 702.5299 565.2 
L 702.5299 26.88 
L 689.0719 26.88 
L 675.6139 26.88 
L 675.6139 565.2 
z
" style="fill: none; stroke: #000000; stroke-width: 0.8; stroke-linejoin: miter; stroke-linecap: square"/>
   </g>
  </g>
 </g>
 <defs>
  <clipPath id="p36eaed9065">
   <rect x="98.1872" y="26.88" width="538.32" height="538.32"/>
  </clipPath>
  <clipPath id="pd2ffb794d6">
   <rect x="675.6139" y="26.88" width="26.916" height="538.32"/>
  </clipPath>
 </defs>
</svg>
