<?xml version="1.0" encoding="utf-8" standalone="no"?>
<!DOCTYPE svg PUBLIC "-//W3C//DTD SVG 1.1//EN"
  "http://www.w3.org/Graphics/SVG/1.1/DTD/svg11.dtd">
<svg xmlns:xlink="http://www.w3.org/1999/xlink" width="864pt" height="576pt" viewBox="0 0 864 576" xmlns="http://www.w3.org/2000/svg" version="1.1">
 <metadata>
  <rdf:RDF xmlns:dc="http://purl.org/dc/elements/1.1/" xmlns:cc="http://creativecommons.org/ns#" xmlns:rdf="http://www.w3.org/1999/02/22-rdf-syntax-ns#">
   <cc:Work>
    <dc:type rdf:resource="http://purl.org/dc/dcmitype/StillImage"/>
    <dc:date>2025-05-05T17:01:02.112475</dc:date>
    <dc:format>image/svg+xml</dc:format>
    <dc:creator>
     <cc:Agent>
      <dc:title>Matplotlib v3.8.0, https://matplotlib.org/</dc:title>
     </cc:Agent>
    </dc:creator>
   </cc:Work>
  </rdf:RDF>
 </metadata>
 <defs>
  <style type="text/css">*{stroke-linejoin: round; stroke-linecap: butt}</style>
 </defs>
 <g id="figure_1">
  <g id="patch_1">
   <path d="M 0 576 
L 864 576 
L 864 0 
L 0 0 
z
" style="fill: #ffffff"/>
  </g>
  <g id="patch_2">
   <path d="M 98.1872 565.2 
L 636.5072 565.2 
L 636.5072 26.88 
L 98.1872 26.88 
z
" style="fill: #ffffff"/>
  </g>
  <g id="pane3d_1">
   <g id="patch_3">
    <path d="M 138.834072 432.46754 
L 316.604917 283.456493 
L 314.133732 68.555925 
L 127.855636 204.493195 
" style="fill: #f2f2f2; opacity: 0.5; stroke: #f2f2f2; stroke-linejoin: miter"/>
   </g>
  </g>
  <g id="pane3d_2">
   <g id="patch_4">
    <path d="M 316.604917 283.456493 
L 601.863694 366.369957 
L 612.043574 144.067386 
L 314.133732 68.555925 
" style="fill: #e6e6e6; opacity: 0.5; stroke: #e6e6e6; stroke-linejoin: miter"/>
   </g>
  </g>
  <g id="pane3d_3">
   <g id="patch_5">
    <path d="M 138.834072 432.46754 
L 441.222308 531.227537 
L 601.863694 366.369957 
L 316.604917 283.456493 
" style="fill: #ececec; opacity: 0.5; stroke: #ececec; stroke-linejoin: miter"/>
   </g>
  </g>
  <g id="grid3d_1"/>
  <g id="grid3d_2"/>
  <g id="grid3d_3"/>
  <g id="axis3d_1">
   <g id="line2d_1">
    <path d="M 138.834072 432.46754 
L 441.222308 531.227537 
" style="fill: none; stroke: #000000; stroke-width: 0.8; stroke-linecap: square"/>
   </g>
   <g id="text_1">
    <!-- 10 pwCF samples -->
    <g transform="translate(227.179541 504.647053) rotate(-341.912962) scale(0.1 -0.1)">
     <defs>
      <path id="DejaVuSans-31" d="M 794 531 
L 1825 531 
L 1825 4091 
L 703 3866 
L 703 4441 
L 1819 4666 
L 2450 4666 
L 2450 531 
L 3481 531 
L 3481 0 
L 794 0 
L 794 531 
z
" transform="scale(0.015625)"/>
      <path id="DejaVuSans-30" d="M 2034 4250 
Q 1547 4250 1301 3770 
Q 1056 3291 1056 2328 
Q 1056 1369 1301 889 
Q 1547 409 2034 409 
Q 2525 409 2770 889 
Q 3016 1369 3016 2328 
Q 3016 3291 2770 3770 
Q 2525 4250 2034 4250 
z
M 2034 4750 
Q 2819 4750 3233 4129 
Q 3647 3509 3647 2328 
Q 3647 1150 3233 529 
Q 2819 -91 2034 -91 
Q 1250 -91 836 529 
Q 422 1150 422 2328 
Q 422 3509 836 4129 
Q 1250 4750 2034 4750 
z
" transform="scale(0.015625)"/>
      <path id="DejaVuSans-20" transform="scale(0.015625)"/>
      <path id="DejaVuSans-70" d="M 1159 525 
L 1159 -1331 
L 581 -1331 
L 581 3500 
L 1159 3500 
L 1159 2969 
Q 1341 3281 1617 3432 
Q 1894 3584 2278 3584 
Q 2916 3584 3314 3078 
Q 3713 2572 3713 1747 
Q 3713 922 3314 415 
Q 2916 -91 2278 -91 
Q 1894 -91 1617 61 
Q 1341 213 1159 525 
z
M 3116 1747 
Q 3116 2381 2855 2742 
Q 2594 3103 2138 3103 
Q 1681 3103 1420 2742 
Q 1159 2381 1159 1747 
Q 1159 1113 1420 752 
Q 1681 391 2138 391 
Q 2594 391 2855 752 
Q 3116 1113 3116 1747 
z
" transform="scale(0.015625)"/>
      <path id="DejaVuSans-77" d="M 269 3500 
L 844 3500 
L 1563 769 
L 2278 3500 
L 2956 3500 
L 3675 769 
L 4391 3500 
L 4966 3500 
L 4050 0 
L 3372 0 
L 2619 2869 
L 1863 0 
L 1184 0 
L 269 3500 
z
" transform="scale(0.015625)"/>
      <path id="DejaVuSans-43" d="M 4122 4306 
L 4122 3641 
Q 3803 3938 3442 4084 
Q 3081 4231 2675 4231 
Q 1875 4231 1450 3742 
Q 1025 3253 1025 2328 
Q 1025 1406 1450 917 
Q 1875 428 2675 428 
Q 3081 428 3442 575 
Q 3803 722 4122 1019 
L 4122 359 
Q 3791 134 3420 21 
Q 3050 -91 2638 -91 
Q 1578 -91 968 557 
Q 359 1206 359 2328 
Q 359 3453 968 4101 
Q 1578 4750 2638 4750 
Q 3056 4750 3426 4639 
Q 3797 4528 4122 4306 
z
" transform="scale(0.015625)"/>
      <path id="DejaVuSans-46" d="M 628 4666 
L 3309 4666 
L 3309 4134 
L 1259 4134 
L 1259 2759 
L 3109 2759 
L 3109 2228 
L 1259 2228 
L 1259 0 
L 628 0 
L 628 4666 
z
" transform="scale(0.015625)"/>
      <path id="DejaVuSans-73" d="M 2834 3397 
L 2834 2853 
Q 2591 2978 2328 3040 
Q 2066 3103 1784 3103 
Q 1356 3103 1142 2972 
Q 928 2841 928 2578 
Q 928 2378 1081 2264 
Q 1234 2150 1697 2047 
L 1894 2003 
Q 2506 1872 2764 1633 
Q 3022 1394 3022 966 
Q 3022 478 2636 193 
Q 2250 -91 1575 -91 
Q 1294 -91 989 -36 
Q 684 19 347 128 
L 347 722 
Q 666 556 975 473 
Q 1284 391 1588 391 
Q 1994 391 2212 530 
Q 2431 669 2431 922 
Q 2431 1156 2273 1281 
Q 2116 1406 1581 1522 
L 1381 1569 
Q 847 1681 609 1914 
Q 372 2147 372 2553 
Q 372 3047 722 3315 
Q 1072 3584 1716 3584 
Q 2034 3584 2315 3537 
Q 2597 3491 2834 3397 
z
" transform="scale(0.015625)"/>
      <path id="DejaVuSans-61" d="M 2194 1759 
Q 1497 1759 1228 1600 
Q 959 1441 959 1056 
Q 959 750 1161 570 
Q 1363 391 1709 391 
Q 2188 391 2477 730 
Q 2766 1069 2766 1631 
L 2766 1759 
L 2194 1759 
z
M 3341 1997 
L 3341 0 
L 2766 0 
L 2766 531 
Q 2569 213 2275 61 
Q 1981 -91 1556 -91 
Q 1019 -91 701 211 
Q 384 513 384 1019 
Q 384 1609 779 1909 
Q 1175 2209 1959 2209 
L 2766 2209 
L 2766 2266 
Q 2766 2663 2505 2880 
Q 2244 3097 1772 3097 
Q 1472 3097 1187 3025 
Q 903 2953 641 2809 
L 641 3341 
Q 956 3463 1253 3523 
Q 1550 3584 1831 3584 
Q 2591 3584 2966 3190 
Q 3341 2797 3341 1997 
z
" transform="scale(0.015625)"/>
      <path id="DejaVuSans-6d" d="M 3328 2828 
Q 3544 3216 3844 3400 
Q 4144 3584 4550 3584 
Q 5097 3584 5394 3201 
Q 5691 2819 5691 2113 
L 5691 0 
L 5113 0 
L 5113 2094 
Q 5113 2597 4934 2840 
Q 4756 3084 4391 3084 
Q 3944 3084 3684 2787 
Q 3425 2491 3425 1978 
L 3425 0 
L 2847 0 
L 2847 2094 
Q 2847 2600 2669 2842 
Q 2491 3084 2119 3084 
Q 1678 3084 1418 2786 
Q 1159 2488 1159 1978 
L 1159 0 
L 581 0 
L 581 3500 
L 1159 3500 
L 1159 2956 
Q 1356 3278 1631 3431 
Q 1906 3584 2284 3584 
Q 2666 3584 2933 3390 
Q 3200 3197 3328 2828 
z
" transform="scale(0.015625)"/>
      <path id="DejaVuSans-6c" d="M 603 4863 
L 1178 4863 
L 1178 0 
L 603 0 
L 603 4863 
z
" transform="scale(0.015625)"/>
      <path id="DejaVuSans-65" d="M 3597 1894 
L 3597 1613 
L 953 1613 
Q 991 1019 1311 708 
Q 1631 397 2203 397 
Q 2534 397 2845 478 
Q 3156 559 3463 722 
L 3463 178 
Q 3153 47 2828 -22 
Q 2503 -91 2169 -91 
Q 1331 -91 842 396 
Q 353 884 353 1716 
Q 353 2575 817 3079 
Q 1281 3584 2069 3584 
Q 2775 3584 3186 3129 
Q 3597 2675 3597 1894 
z
M 3022 2063 
Q 3016 2534 2758 2815 
Q 2500 3097 2075 3097 
Q 1594 3097 1305 2825 
Q 1016 2553 972 2059 
L 3022 2063 
z
" transform="scale(0.015625)"/>
     </defs>
     <use xlink:href="#DejaVuSans-31"/>
     <use xlink:href="#DejaVuSans-30" x="63.623047"/>
     <use xlink:href="#DejaVuSans-20" x="127.246094"/>
     <use xlink:href="#DejaVuSans-70" x="159.033203"/>
     <use xlink:href="#DejaVuSans-77" x="222.509766"/>
     <use xlink:href="#DejaVuSans-43" x="304.296875"/>
     <use xlink:href="#DejaVuSans-46" x="374.121094"/>
     <use xlink:href="#DejaVuSans-20" x="431.640625"/>
     <use xlink:href="#DejaVuSans-73" x="463.427734"/>
     <use xlink:href="#DejaVuSans-61" x="515.527344"/>
     <use xlink:href="#DejaVuSans-6d" x="576.806641"/>
     <use xlink:href="#DejaVuSans-70" x="674.21875"/>
     <use xlink:href="#DejaVuSans-6c" x="737.695312"/>
     <use xlink:href="#DejaVuSans-65" x="765.478516"/>
     <use xlink:href="#DejaVuSans-73" x="827.001953"/>
    </g>
   </g>
  </g>
  <g id="axis3d_2">
   <g id="line2d_2">
    <path d="M 601.863694 366.369957 
L 441.222308 531.227537 
" style="fill: none; stroke: #000000; stroke-width: 0.8; stroke-linecap: square"/>
   </g>
   <g id="text_2">
    <!-- 9 phylum taxonomies -->
    <g transform="translate(516.282207 513.805624) rotate(-45.742112) scale(0.1 -0.1)">
     <defs>
      <path id="DejaVuSans-39" d="M 703 97 
L 703 672 
Q 941 559 1184 500 
Q 1428 441 1663 441 
Q 2288 441 2617 861 
Q 2947 1281 2994 2138 
Q 2813 1869 2534 1725 
Q 2256 1581 1919 1581 
Q 1219 1581 811 2004 
Q 403 2428 403 3163 
Q 403 3881 828 4315 
Q 1253 4750 1959 4750 
Q 2769 4750 3195 4129 
Q 3622 3509 3622 2328 
Q 3622 1225 3098 567 
Q 2575 -91 1691 -91 
Q 1453 -91 1209 -44 
Q 966 3 703 97 
z
M 1959 2075 
Q 2384 2075 2632 2365 
Q 2881 2656 2881 3163 
Q 2881 3666 2632 3958 
Q 2384 4250 1959 4250 
Q 1534 4250 1286 3958 
Q 1038 3666 1038 3163 
Q 1038 2656 1286 2365 
Q 1534 2075 1959 2075 
z
" transform="scale(0.015625)"/>
      <path id="DejaVuSans-68" d="M 3513 2113 
L 3513 0 
L 2938 0 
L 2938 2094 
Q 2938 2591 2744 2837 
Q 2550 3084 2163 3084 
Q 1697 3084 1428 2787 
Q 1159 2491 1159 1978 
L 1159 0 
L 581 0 
L 581 4863 
L 1159 4863 
L 1159 2956 
Q 1366 3272 1645 3428 
Q 1925 3584 2291 3584 
Q 2894 3584 3203 3211 
Q 3513 2838 3513 2113 
z
" transform="scale(0.015625)"/>
      <path id="DejaVuSans-79" d="M 2059 -325 
Q 1816 -950 1584 -1140 
Q 1353 -1331 966 -1331 
L 506 -1331 
L 506 -850 
L 844 -850 
Q 1081 -850 1212 -737 
Q 1344 -625 1503 -206 
L 1606 56 
L 191 3500 
L 800 3500 
L 1894 763 
L 2988 3500 
L 3597 3500 
L 2059 -325 
z
" transform="scale(0.015625)"/>
      <path id="DejaVuSans-75" d="M 544 1381 
L 544 3500 
L 1119 3500 
L 1119 1403 
Q 1119 906 1312 657 
Q 1506 409 1894 409 
Q 2359 409 2629 706 
Q 2900 1003 2900 1516 
L 2900 3500 
L 3475 3500 
L 3475 0 
L 2900 0 
L 2900 538 
Q 2691 219 2414 64 
Q 2138 -91 1772 -91 
Q 1169 -91 856 284 
Q 544 659 544 1381 
z
M 1991 3584 
L 1991 3584 
z
" transform="scale(0.015625)"/>
      <path id="DejaVuSans-74" d="M 1172 4494 
L 1172 3500 
L 2356 3500 
L 2356 3053 
L 1172 3053 
L 1172 1153 
Q 1172 725 1289 603 
Q 1406 481 1766 481 
L 2356 481 
L 2356 0 
L 1766 0 
Q 1100 0 847 248 
Q 594 497 594 1153 
L 594 3053 
L 172 3053 
L 172 3500 
L 594 3500 
L 594 4494 
L 1172 4494 
z
" transform="scale(0.015625)"/>
      <path id="DejaVuSans-78" d="M 3513 3500 
L 2247 1797 
L 3578 0 
L 2900 0 
L 1881 1375 
L 863 0 
L 184 0 
L 1544 1831 
L 300 3500 
L 978 3500 
L 1906 2253 
L 2834 3500 
L 3513 3500 
z
" transform="scale(0.015625)"/>
      <path id="DejaVuSans-6f" d="M 1959 3097 
Q 1497 3097 1228 2736 
Q 959 2375 959 1747 
Q 959 1119 1226 758 
Q 1494 397 1959 397 
Q 2419 397 2687 759 
Q 2956 1122 2956 1747 
Q 2956 2369 2687 2733 
Q 2419 3097 1959 3097 
z
M 1959 3584 
Q 2709 3584 3137 3096 
Q 3566 2609 3566 1747 
Q 3566 888 3137 398 
Q 2709 -91 1959 -91 
Q 1206 -91 779 398 
Q 353 888 353 1747 
Q 353 2609 779 3096 
Q 1206 3584 1959 3584 
z
" transform="scale(0.015625)"/>
      <path id="DejaVuSans-6e" d="M 3513 2113 
L 3513 0 
L 2938 0 
L 2938 2094 
Q 2938 2591 2744 2837 
Q 2550 3084 2163 3084 
Q 1697 3084 1428 2787 
Q 1159 2491 1159 1978 
L 1159 0 
L 581 0 
L 581 3500 
L 1159 3500 
L 1159 2956 
Q 1366 3272 1645 3428 
Q 1925 3584 2291 3584 
Q 2894 3584 3203 3211 
Q 3513 2838 3513 2113 
z
" transform="scale(0.015625)"/>
      <path id="DejaVuSans-69" d="M 603 3500 
L 1178 3500 
L 1178 0 
L 603 0 
L 603 3500 
z
M 603 4863 
L 1178 4863 
L 1178 4134 
L 603 4134 
L 603 4863 
z
" transform="scale(0.015625)"/>
     </defs>
     <use xlink:href="#DejaVuSans-39"/>
     <use xlink:href="#DejaVuSans-20" x="63.623047"/>
     <use xlink:href="#DejaVuSans-70" x="95.410156"/>
     <use xlink:href="#DejaVuSans-68" x="158.886719"/>
     <use xlink:href="#DejaVuSans-79" x="222.265625"/>
     <use xlink:href="#DejaVuSans-6c" x="281.445312"/>
     <use xlink:href="#DejaVuSans-75" x="309.228516"/>
     <use xlink:href="#DejaVuSans-6d" x="372.607422"/>
     <use xlink:href="#DejaVuSans-20" x="470.019531"/>
     <use xlink:href="#DejaVuSans-74" x="501.806641"/>
     <use xlink:href="#DejaVuSans-61" x="541.015625"/>
     <use xlink:href="#DejaVuSans-78" x="602.294922"/>
     <use xlink:href="#DejaVuSans-6f" x="658.349609"/>
     <use xlink:href="#DejaVuSans-6e" x="719.53125"/>
     <use xlink:href="#DejaVuSans-6f" x="782.910156"/>
     <use xlink:href="#DejaVuSans-6d" x="844.091797"/>
     <use xlink:href="#DejaVuSans-69" x="941.503906"/>
     <use xlink:href="#DejaVuSans-65" x="969.287109"/>
     <use xlink:href="#DejaVuSans-73" x="1030.810547"/>
    </g>
   </g>
  </g>
  <g id="axis3d_3">
   <g id="line2d_3">
    <path d="M 601.863694 366.369957 
L 612.043574 144.067386 
" style="fill: none; stroke: #000000; stroke-width: 0.8; stroke-linecap: square"/>
   </g>
   <g id="text_3">
    <!-- Normalized MGI read depth -->
    <g transform="translate(646.972362 320.878308) rotate(-87.378092) scale(0.1 -0.1)">
     <defs>
      <path id="DejaVuSans-4e" d="M 628 4666 
L 1478 4666 
L 3547 763 
L 3547 4666 
L 4159 4666 
L 4159 0 
L 3309 0 
L 1241 3903 
L 1241 0 
L 628 0 
L 628 4666 
z
" transform="scale(0.015625)"/>
      <path id="DejaVuSans-72" d="M 2631 2963 
Q 2534 3019 2420 3045 
Q 2306 3072 2169 3072 
Q 1681 3072 1420 2755 
Q 1159 2438 1159 1844 
L 1159 0 
L 581 0 
L 581 3500 
L 1159 3500 
L 1159 2956 
Q 1341 3275 1631 3429 
Q 1922 3584 2338 3584 
Q 2397 3584 2469 3576 
Q 2541 3569 2628 3553 
L 2631 2963 
z
" transform="scale(0.015625)"/>
      <path id="DejaVuSans-7a" d="M 353 3500 
L 3084 3500 
L 3084 2975 
L 922 459 
L 3084 459 
L 3084 0 
L 275 0 
L 275 525 
L 2438 3041 
L 353 3041 
L 353 3500 
z
" transform="scale(0.015625)"/>
      <path id="DejaVuSans-64" d="M 2906 2969 
L 2906 4863 
L 3481 4863 
L 3481 0 
L 2906 0 
L 2906 525 
Q 2725 213 2448 61 
Q 2172 -91 1784 -91 
Q 1150 -91 751 415 
Q 353 922 353 1747 
Q 353 2572 751 3078 
Q 1150 3584 1784 3584 
Q 2172 3584 2448 3432 
Q 2725 3281 2906 2969 
z
M 947 1747 
Q 947 1113 1208 752 
Q 1469 391 1925 391 
Q 2381 391 2643 752 
Q 2906 1113 2906 1747 
Q 2906 2381 2643 2742 
Q 2381 3103 1925 3103 
Q 1469 3103 1208 2742 
Q 947 2381 947 1747 
z
" transform="scale(0.015625)"/>
      <path id="DejaVuSans-4d" d="M 628 4666 
L 1569 4666 
L 2759 1491 
L 3956 4666 
L 4897 4666 
L 4897 0 
L 4281 0 
L 4281 4097 
L 3078 897 
L 2444 897 
L 1241 4097 
L 1241 0 
L 628 0 
L 628 4666 
z
" transform="scale(0.015625)"/>
      <path id="DejaVuSans-47" d="M 3809 666 
L 3809 1919 
L 2778 1919 
L 2778 2438 
L 4434 2438 
L 4434 434 
Q 4069 175 3628 42 
Q 3188 -91 2688 -91 
Q 1594 -91 976 548 
Q 359 1188 359 2328 
Q 359 3472 976 4111 
Q 1594 4750 2688 4750 
Q 3144 4750 3555 4637 
Q 3966 4525 4313 4306 
L 4313 3634 
Q 3963 3931 3569 4081 
Q 3175 4231 2741 4231 
Q 1884 4231 1454 3753 
Q 1025 3275 1025 2328 
Q 1025 1384 1454 906 
Q 1884 428 2741 428 
Q 3075 428 3337 486 
Q 3600 544 3809 666 
z
" transform="scale(0.015625)"/>
      <path id="DejaVuSans-49" d="M 628 4666 
L 1259 4666 
L 1259 0 
L 628 0 
L 628 4666 
z
" transform="scale(0.015625)"/>
     </defs>
     <use xlink:href="#DejaVuSans-4e"/>
     <use xlink:href="#DejaVuSans-6f" x="74.804688"/>
     <use xlink:href="#DejaVuSans-72" x="135.986328"/>
     <use xlink:href="#DejaVuSans-6d" x="175.349609"/>
     <use xlink:href="#DejaVuSans-61" x="272.761719"/>
     <use xlink:href="#DejaVuSans-6c" x="334.041016"/>
     <use xlink:href="#DejaVuSans-69" x="361.824219"/>
     <use xlink:href="#DejaVuSans-7a" x="389.607422"/>
     <use xlink:href="#DejaVuSans-65" x="442.097656"/>
     <use xlink:href="#DejaVuSans-64" x="503.621094"/>
     <use xlink:href="#DejaVuSans-20" x="567.097656"/>
     <use xlink:href="#DejaVuSans-4d" x="598.884766"/>
     <use xlink:href="#DejaVuSans-47" x="685.164062"/>
     <use xlink:href="#DejaVuSans-49" x="762.654297"/>
     <use xlink:href="#DejaVuSans-20" x="792.146484"/>
     <use xlink:href="#DejaVuSans-72" x="823.933594"/>
     <use xlink:href="#DejaVuSans-65" x="862.796875"/>
     <use xlink:href="#DejaVuSans-61" x="924.320312"/>
     <use xlink:href="#DejaVuSans-64" x="985.599609"/>
     <use xlink:href="#DejaVuSans-20" x="1049.076172"/>
     <use xlink:href="#DejaVuSans-64" x="1080.863281"/>
     <use xlink:href="#DejaVuSans-65" x="1144.339844"/>
     <use xlink:href="#DejaVuSans-70" x="1205.863281"/>
     <use xlink:href="#DejaVuSans-74" x="1269.339844"/>
     <use xlink:href="#DejaVuSans-68" x="1308.548828"/>
    </g>
   </g>
  </g>
  <g id="axes_1">
   <g id="Poly3DCollection_1">
    <path d="M 332.366325 316.155266 
L 359.525307 321.98211 
L 377.304509 264.639807 
L 350.230356 290.725284 
z
" clip-path="url(#pdb71c354ec)" style="fill: #dd73ab"/>
    <path d="M 305.454089 308.223298 
L 332.366325 316.155266 
L 350.230356 290.725284 
L 321.59429 102.569452 
z
" clip-path="url(#pdb71c354ec)" style="fill: #da72a9"/>
    <path d="M 359.525307 321.98211 
L 386.955509 331.772074 
L 404.568396 311.216141 
L 377.304509 264.639807 
z
" clip-path="url(#pdb71c354ec)" style="fill: #c46698"/>
    <path d="M 286.916033 316.06176 
L 313.520346 281.994862 
L 332.366325 316.155266 
L 305.454089 308.223298 
z
" clip-path="url(#pdb71c354ec)" style="fill: #9a5077"/>
    <path d="M 386.955509 331.772074 
L 414.645922 339.338691 
L 432.155141 315.269476 
L 404.568396 311.216141 
z
" clip-path="url(#pdb71c354ec)" style="fill: #de74ac"/>
    <path d="M 313.520346 281.994862 
L 341.201415 301.991143 
L 359.525307 321.98211 
L 332.366325 316.155266 
z
" clip-path="url(#pdb71c354ec)" style="fill: #582e44"/>
    <path d="M 414.645922 339.338691 
L 442.597752 347.685731 
L 460.165997 312.400023 
L 432.155141 315.269476 
z
" clip-path="url(#pdb71c354ec)" style="fill: #da72a9"/>
    <path d="M 341.201415 301.991143 
L 369.039667 343.271564 
L 386.955509 331.772074 
L 359.525307 321.98211 
z
" clip-path="url(#pdb71c354ec)" style="fill: #60324a"/>
    <path d="M 369.039667 343.271564 
L 397.214651 286.534458 
L 414.645922 339.338691 
L 386.955509 331.772074 
z
" clip-path="url(#pdb71c354ec)" style="fill: #9e537a"/>
    <path d="M 267.58498 305.707008 
L 292.949278 184.496926 
L 313.520346 281.994862 
L 286.916033 316.06176 
z
" clip-path="url(#pdb71c354ec)" style="fill: #a65780"/>
    <path d="M 442.597752 347.685731 
L 470.87493 353.092077 
L 490.899185 206.798837 
L 460.165997 312.400023 
z
" clip-path="url(#pdb71c354ec)" style="fill: #db73aa"/>
    <path d="M 397.214651 286.534458 
L 425.270014 340.82071 
L 442.597752 347.685731 
L 414.645922 339.338691 
z
" clip-path="url(#pdb71c354ec)" style="fill: #532b40"/>
    <path d="M 499.279759 365.665205 
L 528.093974 372.441756 
L 544.927097 351.795798 
L 516.210837 347.290839 
z
" clip-path="url(#pdb71c354ec)" style="fill: #ec7bb6"/>
    <path d="M 470.87493 353.092077 
L 499.279759 365.665205 
L 516.210837 347.290839 
L 490.899185 206.798837 
z
" clip-path="url(#pdb71c354ec)" style="fill: #864668"/>
    <path d="M 425.270014 340.82071 
L 453.847935 346.604136 
L 470.87493 353.092077 
L 442.597752 347.685731 
z
" clip-path="url(#pdb71c354ec)" style="fill: #6e3955"/>
    <path d="M 229.769284 372.47303 
L 257.329537 380.948358 
L 276.131753 339.768814 
L 248.875392 342.316471 
z
" clip-path="url(#pdb71c354ec)" style="fill: #864590"/>
    <path d="M 528.093974 372.441756 
L 557.082279 382.716579 
L 574.158187 351.532506 
L 544.927097 351.795798 
z
" clip-path="url(#pdb71c354ec)" style="fill: #d36ea3"/>
    <path d="M 248.875392 342.316471 
L 276.131753 339.768814 
L 292.949278 184.496926 
L 267.58498 305.707008 
z
" clip-path="url(#pdb71c354ec)" style="fill: #df74ac"/>
    <path d="M 292.949278 184.496926 
L 321.500885 207.885595 
L 341.201415 301.991143 
L 313.520346 281.994862 
z
" clip-path="url(#pdb71c354ec)" style="fill: #60324a"/>
    <path d="M 257.329537 380.948358 
L 285.161345 389.589724 
L 304.086782 359.229212 
L 276.131753 339.768814 
z
" clip-path="url(#pdb71c354ec)" style="fill: #da72a9"/>
    <path d="M 453.847935 346.604136 
L 484.111853 289.111623 
L 499.279759 365.665205 
L 470.87493 353.092077 
z
" clip-path="url(#pdb71c354ec)" style="fill: #934d71"/>
    <path d="M 209.942143 389.072529 
L 237.676427 397.974926 
L 257.329537 380.948358 
L 229.769284 372.47303 
z
" clip-path="url(#pdb71c354ec)" style="fill: #8e8e1c"/>
    <path d="M 321.500885 207.885595 
L 349.92218 181.59016 
L 369.039667 343.271564 
L 341.201415 301.991143 
z
" clip-path="url(#pdb71c354ec)" style="fill: #723c59"/>
    <path d="M 484.111853 289.111623 
L 511.267609 382.647484 
L 528.093974 372.441756 
L 499.279759 365.665205 
z
" clip-path="url(#pdb71c354ec)" style="fill: #63334c"/>
    <path d="M 511.267609 382.647484 
L 540.773326 384.814186 
L 557.082279 382.716579 
L 528.093974 372.441756 
z
" clip-path="url(#pdb71c354ec)" style="fill: #834465"/>
    <path d="M 276.131753 339.768814 
L 304.086782 359.229212 
L 321.500885 207.885595 
L 292.949278 184.496926 
z
" clip-path="url(#pdb71c354ec)" style="fill: #d56fa5"/>
    <path d="M 285.161345 389.589724 
L 313.267013 398.376307 
L 331.76756 329.604476 
L 304.086782 359.229212 
z
" clip-path="url(#pdb71c354ec)" style="fill: #da72a9"/>
    <path d="M 237.676427 397.974926 
L 265.671805 406.500557 
L 285.161345 389.589724 
L 257.329537 380.948358 
z
" clip-path="url(#pdb71c354ec)" style="fill: #b7b725"/>
    <path d="M 349.92218 181.59016 
L 378.935207 249.171297 
L 397.214651 286.534458 
L 369.039667 343.271564 
z
" clip-path="url(#pdb71c354ec)" style="fill: #4f293d"/>
    <path d="M 189.744901 406.309973 
L 217.64008 415.178245 
L 237.676427 397.974926 
L 209.942143 389.072529 
z
" clip-path="url(#pdb71c354ec)" style="fill: #8e8e1c"/>
    <path d="M 313.267013 398.376307 
L 341.649053 407.237074 
L 360.295928 348.297425 
L 331.76756 329.604476 
z
" clip-path="url(#pdb71c354ec)" style="fill: #da72a9"/>
    <path d="M 265.671805 406.500557 
L 293.923957 413.659275 
L 313.267013 398.376307 
L 285.161345 389.589724 
z
" clip-path="url(#pdb71c354ec)" style="fill: #9b5178"/>
    <path d="M 408.312754 201.989312 
L 436.373073 336.755212 
L 453.847935 346.604136 
L 425.270014 340.82071 
z
" clip-path="url(#pdb71c354ec)" style="fill: #5c3047"/>
    <path d="M 304.086782 359.229212 
L 331.76756 329.604476 
L 349.92218 181.59016 
L 321.500885 207.885595 
z
" clip-path="url(#pdb71c354ec)" style="fill: #e879b4"/>
    <path d="M 378.935207 249.171297 
L 408.312754 201.989312 
L 425.270014 340.82071 
L 397.214651 286.534458 
z
" clip-path="url(#pdb71c354ec)" style="fill: #7d4161"/>
    <path d="M 341.649053 407.237074 
L 370.311748 416.137025 
L 388.972493 372.806276 
L 360.295928 348.297425 
z
" clip-path="url(#pdb71c354ec)" style="fill: #da72a9"/>
    <path d="M 436.373073 336.755212 
L 466.256424 306.604333 
L 484.111853 289.111623 
L 453.847935 346.604136 
z
" clip-path="url(#pdb71c354ec)" style="fill: #dc73aa"/>
    <path d="M 217.64008 415.178245 
L 245.810837 424.045346 
L 265.671805 406.500557 
L 237.676427 397.974926 
z
" clip-path="url(#pdb71c354ec)" style="fill: #f27ebb"/>
    <path d="M 293.923957 413.659275 
L 322.517612 424.652208 
L 341.649053 407.237074 
L 313.267013 398.376307 
z
" clip-path="url(#pdb71c354ec)" style="fill: #66354f"/>
    <path d="M 331.76756 329.604476 
L 360.295928 348.297425 
L 378.935207 249.171297 
L 349.92218 181.59016 
z
" clip-path="url(#pdb71c354ec)" style="fill: #d36ea3"/>
    <path d="M 370.311748 416.137025 
L 399.259893 425.126485 
L 417.89332 380.856856 
L 388.972493 372.806276 
z
" clip-path="url(#pdb71c354ec)" style="fill: #da72a9"/>
    <path d="M 360.295928 348.297425 
L 388.972493 372.806276 
L 408.312754 201.989312 
L 378.935207 249.171297 
z
" clip-path="url(#pdb71c354ec)" style="fill: #d46fa4"/>
    <path d="M 169.151713 423.745228 
L 197.215488 432.787845 
L 217.64008 415.178245 
L 189.744901 406.309973 
z
" clip-path="url(#pdb71c354ec)" style="fill: #3579b1"/>
    <path d="M 245.810837 424.045346 
L 274.269725 433.245749 
L 293.923957 413.659275 
L 265.671805 406.500557 
z
" clip-path="url(#pdb71c354ec)" style="fill: #dddd2c"/>
    <path d="M 322.517612 424.652208 
L 351.364089 433.729223 
L 370.311748 416.137025 
L 341.649053 407.237074 
z
" clip-path="url(#pdb71c354ec)" style="fill: #7a7a18"/>
    <path d="M 388.972493 372.806276 
L 417.89332 380.856856 
L 436.373073 336.755212 
L 408.312754 201.989312 
z
" clip-path="url(#pdb71c354ec)" style="fill: #dc73aa"/>
    <path d="M 417.89332 380.856856 
L 447.608516 355.050417 
L 466.256424 306.604333 
L 436.373073 336.755212 
z
" clip-path="url(#pdb71c354ec)" style="fill: #f27ebb"/>
    <path d="M 197.215488 432.787845 
L 225.56221 441.941441 
L 245.810837 424.045346 
L 217.64008 415.178245 
z
" clip-path="url(#pdb71c354ec)" style="fill: #df74ac"/>
    <path d="M 399.259893 425.126485 
L 428.49801 434.183982 
L 447.608516 355.050417 
L 417.89332 380.856856 
z
" clip-path="url(#pdb71c354ec)" style="fill: #da72a9"/>
    <path d="M 274.269725 433.245749 
L 303.010701 442.367901 
L 322.517612 424.652208 
L 293.923957 413.659275 
z
" clip-path="url(#pdb71c354ec)" style="fill: #934d72"/>
    <path d="M 351.364089 433.729223 
L 380.502558 441.29291 
L 399.259893 425.126485 
L 370.311748 416.137025 
z
" clip-path="url(#pdb71c354ec)" style="fill: #a5a521"/>
    <path d="M 466.256424 306.604333 
L 498.320712 217.500588 
L 511.267609 382.647484 
L 484.111853 289.111623 
z
" clip-path="url(#pdb71c354ec)" style="fill: #884769"/>
    <path d="M 225.56221 441.941441 
L 254.196015 451.215493 
L 274.269725 433.245749 
L 245.810837 424.045346 
z
" clip-path="url(#pdb71c354ec)" style="fill: #a8a822"/>
    <path d="M 303.010701 442.367901 
L 332.042324 451.555378 
L 351.364089 433.729223 
L 322.517612 424.652208 
z
" clip-path="url(#pdb71c354ec)" style="fill: #8a486b"/>
    <path d="M 380.502558 441.29291 
L 409.931729 452.144286 
L 428.49801 434.183982 
L 399.259893 425.126485 
z
" clip-path="url(#pdb71c354ec)" style="fill: #67364f"/>
    <path d="M 428.49801 434.183982 
L 458.030158 443.352516 
L 476.938105 382.239705 
L 447.608516 355.050417 
z
" clip-path="url(#pdb71c354ec)" style="fill: #da72a9"/>
    <path d="M 498.320712 217.500588 
L 529.727496 199.128169 
L 540.773326 384.814186 
L 511.267609 382.647484 
z
" clip-path="url(#pdb71c354ec)" style="fill: #6f3a56"/>
    <path d="M 458.030158 443.352516 
L 487.859322 452.681572 
L 505.899055 426.163777 
L 476.938105 382.239705 
z
" clip-path="url(#pdb71c354ec)" style="fill: #da72a8"/>
    <path d="M 254.196015 451.215493 
L 283.119218 460.528933 
L 303.010701 442.367901 
L 274.269725 433.245749 
z
" clip-path="url(#pdb71c354ec)" style="fill: #f27ebb"/>
    <path d="M 332.042324 451.555378 
L 361.369564 460.826774 
L 380.502558 441.29291 
L 351.364089 433.729223 
z
" clip-path="url(#pdb71c354ec)" style="fill: #de74ab"/>
    <path d="M 409.931729 452.144286 
L 439.66281 461.420889 
L 458.030158 443.352516 
L 428.49801 434.183982 
z
" clip-path="url(#pdb71c354ec)" style="fill: #a1547c"/>
    <path d="M 447.608516 355.050417 
L 476.938105 382.239705 
L 498.320712 217.500588 
L 466.256424 306.604333 
z
" clip-path="url(#pdb71c354ec)" style="fill: #d26ea3"/>
    <path d="M 283.119218 460.528933 
L 312.338527 469.98349 
L 332.042324 451.555378 
L 303.010701 442.367901 
z
" clip-path="url(#pdb71c354ec)" style="fill: #d670a5"/>
    <path d="M 361.369564 460.826774 
L 390.996085 470.495611 
L 409.931729 452.144286 
L 380.502558 441.29291 
z
" clip-path="url(#pdb71c354ec)" style="fill: #6e3955"/>
    <path d="M 439.66281 461.420889 
L 469.693806 471.027188 
L 487.859322 452.681572 
L 458.030158 443.352516 
z
" clip-path="url(#pdb71c354ec)" style="fill: #6a3852"/>
    <path d="M 476.938105 382.239705 
L 505.899055 426.163777 
L 529.727496 199.128169 
L 498.320712 217.500588 
z
" clip-path="url(#pdb71c354ec)" style="fill: #d06ca1"/>
    <path d="M 312.338527 469.98349 
L 341.857349 479.534783 
L 361.369564 460.826774 
L 332.042324 451.555378 
z
" clip-path="url(#pdb71c354ec)" style="fill: #dfdf2d"/>
    <path d="M 390.996085 470.495611 
L 420.926517 479.976889 
L 439.66281 461.420889 
L 409.931729 452.144286 
z
" clip-path="url(#pdb71c354ec)" style="fill: #f07dba"/>
    <path d="M 341.857349 479.534783 
L 371.680268 489.10569 
L 390.996085 470.495611 
L 361.369564 460.826774 
z
" clip-path="url(#pdb71c354ec)" style="fill: #995076"/>
    <path d="M 420.926517 479.976889 
L 451.164297 489.686449 
L 469.693806 471.027188 
L 439.66281 461.420889 
z
" clip-path="url(#pdb71c354ec)" style="fill: #502a3e"/>
    <path d="M 371.680268 489.10569 
L 401.812182 498.92906 
L 420.926517 479.976889 
L 390.996085 470.495611 
z
" clip-path="url(#pdb71c354ec)" style="fill: #964f74"/>
    <path d="M 401.812182 498.92906 
L 432.258001 508.758879 
L 451.164297 489.686449 
L 420.926517 479.976889 
z
" clip-path="url(#pdb71c354ec)" style="fill: #a7a721"/>
   </g>
   <g id="text_4">
    <!-- phylum -->
    <g transform="translate(344.870637 20.88) scale(0.12 -0.12)">
     <use xlink:href="#DejaVuSans-70"/>
     <use xlink:href="#DejaVuSans-68" x="63.476562"/>
     <use xlink:href="#DejaVuSans-79" x="126.855469"/>
     <use xlink:href="#DejaVuSans-6c" x="186.035156"/>
     <use xlink:href="#DejaVuSans-75" x="213.818359"/>
     <use xlink:href="#DejaVuSans-6d" x="277.197266"/>
    </g>
   </g>
  </g>
  <g id="axes_2">
   <g id="patch_6">
    <path d="M 675.6139 565.2 
L 702.5299 565.2 
L 702.5299 26.88 
L 675.6139 26.88 
z
" style="fill: #ffffff"/>
   </g>
   <g id="QuadMesh_1">
    <path d="M 675.6139 565.2 
L 702.5299 565.2 
L 702.5299 497.91 
L 675.6139 497.91 
L 675.6139 565.2 
" clip-path="url(#p2a79b10f86)" style="fill: #e41a1c"/>
    <path d="M 675.6139 497.91 
L 702.5299 497.91 
L 702.5299 430.62 
L 675.6139 430.62 
L 675.6139 497.91 
" clip-path="url(#p2a79b10f86)" style="fill: #377eb8"/>
    <path d="M 675.6139 430.62 
L 702.5299 430.62 
L 702.5299 363.33 
L 675.6139 363.33 
L 675.6139 430.62 
" clip-path="url(#p2a79b10f86)" style="fill: #4daf4a"/>
    <path d="M 675.6139 363.33 
L 702.5299 363.33 
L 702.5299 296.04 
L 675.6139 296.04 
L 675.6139 363.33 
" clip-path="url(#p2a79b10f86)" style="fill: #984ea3"/>
    <path d="M 675.6139 296.04 
L 702.5299 296.04 
L 702.5299 228.75 
L 675.6139 228.75 
L 675.6139 296.04 
" clip-path="url(#p2a79b10f86)" style="fill: #ff7f00"/>
    <path d="M 675.6139 228.75 
L 702.5299 228.75 
L 702.5299 161.46 
L 675.6139 161.46 
L 675.6139 228.75 
" clip-path="url(#p2a79b10f86)" style="fill: #ffff33"/>
    <path d="M 675.6139 161.46 
L 702.5299 161.46 
L 702.5299 94.17 
L 675.6139 94.17 
L 675.6139 161.46 
" clip-path="url(#p2a79b10f86)" style="fill: #a65628"/>
    <path d="M 675.6139 94.17 
L 702.5299 94.17 
L 702.5299 26.88 
L 675.6139 26.88 
L 675.6139 94.17 
" clip-path="url(#p2a79b10f86)" style="fill: #f781bf"/>
   </g>
   <g id="matplotlib.axis_1"/>
   <g id="matplotlib.axis_2">
    <g id="ytick_1">
     <g id="line2d_4">
      <defs>
       <path id="m65caf09d48" d="M 0 0 
L 3.5 0 
" style="stroke: #000000; stroke-width: 0.8"/>
      </defs>
      <g>
       <use xlink:href="#m65caf09d48" x="702.5299" y="531.555" style="stroke: #000000; stroke-width: 0.8"/>
      </g>
     </g>
     <g id="text_5">
      <!-- Not seen in this sample -->
      <g transform="translate(709.5299 535.354219) scale(0.1 -0.1)">
       <use xlink:href="#DejaVuSans-4e"/>
       <use xlink:href="#DejaVuSans-6f" x="74.804688"/>
       <use xlink:href="#DejaVuSans-74" x="135.986328"/>
       <use xlink:href="#DejaVuSans-20" x="175.195312"/>
       <use xlink:href="#DejaVuSans-73" x="206.982422"/>
       <use xlink:href="#DejaVuSans-65" x="259.082031"/>
       <use xlink:href="#DejaVuSans-65" x="320.605469"/>
       <use xlink:href="#DejaVuSans-6e" x="382.128906"/>
       <use xlink:href="#DejaVuSans-20" x="445.507812"/>
       <use xlink:href="#DejaVuSans-69" x="477.294922"/>
       <use xlink:href="#DejaVuSans-6e" x="505.078125"/>
       <use xlink:href="#DejaVuSans-20" x="568.457031"/>
       <use xlink:href="#DejaVuSans-74" x="600.244141"/>
       <use xlink:href="#DejaVuSans-68" x="639.453125"/>
       <use xlink:href="#DejaVuSans-69" x="702.832031"/>
       <use xlink:href="#DejaVuSans-73" x="730.615234"/>
       <use xlink:href="#DejaVuSans-20" x="782.714844"/>
       <use xlink:href="#DejaVuSans-73" x="814.501953"/>
       <use xlink:href="#DejaVuSans-61" x="866.601562"/>
       <use xlink:href="#DejaVuSans-6d" x="927.880859"/>
       <use xlink:href="#DejaVuSans-70" x="1025.292969"/>
       <use xlink:href="#DejaVuSans-6c" x="1088.769531"/>
       <use xlink:href="#DejaVuSans-65" x="1116.552734"/>
      </g>
     </g>
    </g>
    <g id="ytick_2">
     <g id="line2d_5">
      <g>
       <use xlink:href="#m65caf09d48" x="702.5299" y="464.265" style="stroke: #000000; stroke-width: 0.8"/>
      </g>
     </g>
     <g id="text_6">
      <!-- MGI Only -->
      <g transform="translate(709.5299 468.064219) scale(0.1 -0.1)">
       <defs>
        <path id="DejaVuSans-4f" d="M 2522 4238 
Q 1834 4238 1429 3725 
Q 1025 3213 1025 2328 
Q 1025 1447 1429 934 
Q 1834 422 2522 422 
Q 3209 422 3611 934 
Q 4013 1447 4013 2328 
Q 4013 3213 3611 3725 
Q 3209 4238 2522 4238 
z
M 2522 4750 
Q 3503 4750 4090 4092 
Q 4678 3434 4678 2328 
Q 4678 1225 4090 567 
Q 3503 -91 2522 -91 
Q 1538 -91 948 565 
Q 359 1222 359 2328 
Q 359 3434 948 4092 
Q 1538 4750 2522 4750 
z
" transform="scale(0.015625)"/>
       </defs>
       <use xlink:href="#DejaVuSans-4d"/>
       <use xlink:href="#DejaVuSans-47" x="86.279297"/>
       <use xlink:href="#DejaVuSans-49" x="163.769531"/>
       <use xlink:href="#DejaVuSans-20" x="193.261719"/>
       <use xlink:href="#DejaVuSans-4f" x="225.048828"/>
       <use xlink:href="#DejaVuSans-6e" x="303.759766"/>
       <use xlink:href="#DejaVuSans-6c" x="367.138672"/>
       <use xlink:href="#DejaVuSans-79" x="394.921875"/>
      </g>
     </g>
    </g>
    <g id="ytick_3">
     <g id="line2d_6">
      <g>
       <use xlink:href="#m65caf09d48" x="702.5299" y="396.975" style="stroke: #000000; stroke-width: 0.8"/>
      </g>
     </g>
     <g id="text_7">
      <!-- MinION Only -->
      <g transform="translate(709.5299 400.774219) scale(0.1 -0.1)">
       <use xlink:href="#DejaVuSans-4d"/>
       <use xlink:href="#DejaVuSans-69" x="86.279297"/>
       <use xlink:href="#DejaVuSans-6e" x="114.0625"/>
       <use xlink:href="#DejaVuSans-49" x="177.441406"/>
       <use xlink:href="#DejaVuSans-4f" x="206.933594"/>
       <use xlink:href="#DejaVuSans-4e" x="285.644531"/>
       <use xlink:href="#DejaVuSans-20" x="360.449219"/>
       <use xlink:href="#DejaVuSans-4f" x="392.236328"/>
       <use xlink:href="#DejaVuSans-6e" x="470.947266"/>
       <use xlink:href="#DejaVuSans-6c" x="534.326172"/>
       <use xlink:href="#DejaVuSans-79" x="562.109375"/>
      </g>
     </g>
    </g>
    <g id="ytick_4">
     <g id="line2d_7">
      <g>
       <use xlink:href="#m65caf09d48" x="702.5299" y="329.685" style="stroke: #000000; stroke-width: 0.8"/>
      </g>
     </g>
     <g id="text_8">
      <!-- MGI + MinION -->
      <g transform="translate(709.5299 333.484219) scale(0.1 -0.1)">
       <defs>
        <path id="DejaVuSans-2b" d="M 2944 4013 
L 2944 2272 
L 4684 2272 
L 4684 1741 
L 2944 1741 
L 2944 0 
L 2419 0 
L 2419 1741 
L 678 1741 
L 678 2272 
L 2419 2272 
L 2419 4013 
L 2944 4013 
z
" transform="scale(0.015625)"/>
       </defs>
       <use xlink:href="#DejaVuSans-4d"/>
       <use xlink:href="#DejaVuSans-47" x="86.279297"/>
       <use xlink:href="#DejaVuSans-49" x="163.769531"/>
       <use xlink:href="#DejaVuSans-20" x="193.261719"/>
       <use xlink:href="#DejaVuSans-2b" x="225.048828"/>
       <use xlink:href="#DejaVuSans-20" x="308.837891"/>
       <use xlink:href="#DejaVuSans-4d" x="340.625"/>
       <use xlink:href="#DejaVuSans-69" x="426.904297"/>
       <use xlink:href="#DejaVuSans-6e" x="454.6875"/>
       <use xlink:href="#DejaVuSans-49" x="518.066406"/>
       <use xlink:href="#DejaVuSans-4f" x="547.558594"/>
       <use xlink:href="#DejaVuSans-4e" x="626.269531"/>
      </g>
     </g>
    </g>
    <g id="ytick_5">
     <g id="line2d_8">
      <g>
       <use xlink:href="#m65caf09d48" x="702.5299" y="262.395" style="stroke: #000000; stroke-width: 0.8"/>
      </g>
     </g>
     <g id="text_9">
      <!-- Promethion Only -->
      <g transform="translate(709.5299 266.194219) scale(0.1 -0.1)">
       <defs>
        <path id="DejaVuSans-50" d="M 1259 4147 
L 1259 2394 
L 2053 2394 
Q 2494 2394 2734 2622 
Q 2975 2850 2975 3272 
Q 2975 3691 2734 3919 
Q 2494 4147 2053 4147 
L 1259 4147 
z
M 628 4666 
L 2053 4666 
Q 2838 4666 3239 4311 
Q 3641 3956 3641 3272 
Q 3641 2581 3239 2228 
Q 2838 1875 2053 1875 
L 1259 1875 
L 1259 0 
L 628 0 
L 628 4666 
z
" transform="scale(0.015625)"/>
       </defs>
       <use xlink:href="#DejaVuSans-50"/>
       <use xlink:href="#DejaVuSans-72" x="58.552734"/>
       <use xlink:href="#DejaVuSans-6f" x="97.416016"/>
       <use xlink:href="#DejaVuSans-6d" x="158.597656"/>
       <use xlink:href="#DejaVuSans-65" x="256.009766"/>
       <use xlink:href="#DejaVuSans-74" x="317.533203"/>
       <use xlink:href="#DejaVuSans-68" x="356.742188"/>
       <use xlink:href="#DejaVuSans-69" x="420.121094"/>
       <use xlink:href="#DejaVuSans-6f" x="447.904297"/>
       <use xlink:href="#DejaVuSans-6e" x="509.085938"/>
       <use xlink:href="#DejaVuSans-20" x="572.464844"/>
       <use xlink:href="#DejaVuSans-4f" x="604.251953"/>
       <use xlink:href="#DejaVuSans-6e" x="682.962891"/>
       <use xlink:href="#DejaVuSans-6c" x="746.341797"/>
       <use xlink:href="#DejaVuSans-79" x="774.125"/>
      </g>
     </g>
    </g>
    <g id="ytick_6">
     <g id="line2d_9">
      <g>
       <use xlink:href="#m65caf09d48" x="702.5299" y="195.105" style="stroke: #000000; stroke-width: 0.8"/>
      </g>
     </g>
     <g id="text_10">
      <!-- MGI + Promethion -->
      <g transform="translate(709.5299 198.904219) scale(0.1 -0.1)">
       <use xlink:href="#DejaVuSans-4d"/>
       <use xlink:href="#DejaVuSans-47" x="86.279297"/>
       <use xlink:href="#DejaVuSans-49" x="163.769531"/>
       <use xlink:href="#DejaVuSans-20" x="193.261719"/>
       <use xlink:href="#DejaVuSans-2b" x="225.048828"/>
       <use xlink:href="#DejaVuSans-20" x="308.837891"/>
       <use xlink:href="#DejaVuSans-50" x="340.625"/>
       <use xlink:href="#DejaVuSans-72" x="399.177734"/>
       <use xlink:href="#DejaVuSans-6f" x="438.041016"/>
       <use xlink:href="#DejaVuSans-6d" x="499.222656"/>
       <use xlink:href="#DejaVuSans-65" x="596.634766"/>
       <use xlink:href="#DejaVuSans-74" x="658.158203"/>
       <use xlink:href="#DejaVuSans-68" x="697.367188"/>
       <use xlink:href="#DejaVuSans-69" x="760.746094"/>
       <use xlink:href="#DejaVuSans-6f" x="788.529297"/>
       <use xlink:href="#DejaVuSans-6e" x="849.710938"/>
      </g>
     </g>
    </g>
    <g id="ytick_7">
     <g id="line2d_10">
      <g>
       <use xlink:href="#m65caf09d48" x="702.5299" y="127.815" style="stroke: #000000; stroke-width: 0.8"/>
      </g>
     </g>
     <g id="text_11">
      <!-- MinION + Promethion -->
      <g transform="translate(709.5299 131.614219) scale(0.1 -0.1)">
       <use xlink:href="#DejaVuSans-4d"/>
       <use xlink:href="#DejaVuSans-69" x="86.279297"/>
       <use xlink:href="#DejaVuSans-6e" x="114.0625"/>
       <use xlink:href="#DejaVuSans-49" x="177.441406"/>
       <use xlink:href="#DejaVuSans-4f" x="206.933594"/>
       <use xlink:href="#DejaVuSans-4e" x="285.644531"/>
       <use xlink:href="#DejaVuSans-20" x="360.449219"/>
       <use xlink:href="#DejaVuSans-2b" x="392.236328"/>
       <use xlink:href="#DejaVuSans-20" x="476.025391"/>
       <use xlink:href="#DejaVuSans-50" x="507.8125"/>
       <use xlink:href="#DejaVuSans-72" x="566.365234"/>
       <use xlink:href="#DejaVuSans-6f" x="605.228516"/>
       <use xlink:href="#DejaVuSans-6d" x="666.410156"/>
       <use xlink:href="#DejaVuSans-65" x="763.822266"/>
       <use xlink:href="#DejaVuSans-74" x="825.345703"/>
       <use xlink:href="#DejaVuSans-68" x="864.554688"/>
       <use xlink:href="#DejaVuSans-69" x="927.933594"/>
       <use xlink:href="#DejaVuSans-6f" x="955.716797"/>
       <use xlink:href="#DejaVuSans-6e" x="1016.898438"/>
      </g>
     </g>
    </g>
    <g id="ytick_8">
     <g id="line2d_11">
      <g>
       <use xlink:href="#m65caf09d48" x="702.5299" y="60.525" style="stroke: #000000; stroke-width: 0.8"/>
      </g>
     </g>
     <g id="text_12">
      <!-- All -->
      <g transform="translate(709.5299 64.324219) scale(0.1 -0.1)">
       <defs>
        <path id="DejaVuSans-41" d="M 2188 4044 
L 1331 1722 
L 3047 1722 
L 2188 4044 
z
M 1831 4666 
L 2547 4666 
L 4325 0 
L 3669 0 
L 3244 1197 
L 1141 1197 
L 716 0 
L 50 0 
L 1831 4666 
z
" transform="scale(0.015625)"/>
       </defs>
       <use xlink:href="#DejaVuSans-41"/>
       <use xlink:href="#DejaVuSans-6c" x="68.408203"/>
       <use xlink:href="#DejaVuSans-6c" x="96.191406"/>
      </g>
     </g>
    </g>
    <g id="text_13">
     <!-- How the taxa were detected -->
     <g transform="translate(838.933025 366.990781) rotate(-90) scale(0.1 -0.1)">
      <defs>
       <path id="DejaVuSans-48" d="M 628 4666 
L 1259 4666 
L 1259 2753 
L 3553 2753 
L 3553 4666 
L 4184 4666 
L 4184 0 
L 3553 0 
L 3553 2222 
L 1259 2222 
L 1259 0 
L 628 0 
L 628 4666 
z
" transform="scale(0.015625)"/>
       <path id="DejaVuSans-63" d="M 3122 3366 
L 3122 2828 
Q 2878 2963 2633 3030 
Q 2388 3097 2138 3097 
Q 1578 3097 1268 2742 
Q 959 2388 959 1747 
Q 959 1106 1268 751 
Q 1578 397 2138 397 
Q 2388 397 2633 464 
Q 2878 531 3122 666 
L 3122 134 
Q 2881 22 2623 -34 
Q 2366 -91 2075 -91 
Q 1284 -91 818 406 
Q 353 903 353 1747 
Q 353 2603 823 3093 
Q 1294 3584 2113 3584 
Q 2378 3584 2631 3529 
Q 2884 3475 3122 3366 
z
" transform="scale(0.015625)"/>
      </defs>
      <use xlink:href="#DejaVuSans-48"/>
      <use xlink:href="#DejaVuSans-6f" x="75.195312"/>
      <use xlink:href="#DejaVuSans-77" x="136.376953"/>
      <use xlink:href="#DejaVuSans-20" x="218.164062"/>
      <use xlink:href="#DejaVuSans-74" x="249.951172"/>
      <use xlink:href="#DejaVuSans-68" x="289.160156"/>
      <use xlink:href="#DejaVuSans-65" x="352.539062"/>
      <use xlink:href="#DejaVuSans-20" x="414.0625"/>
      <use xlink:href="#DejaVuSans-74" x="445.849609"/>
      <use xlink:href="#DejaVuSans-61" x="485.058594"/>
      <use xlink:href="#DejaVuSans-78" x="546.337891"/>
      <use xlink:href="#DejaVuSans-61" x="605.517578"/>
      <use xlink:href="#DejaVuSans-20" x="666.796875"/>
      <use xlink:href="#DejaVuSans-77" x="698.583984"/>
      <use xlink:href="#DejaVuSans-65" x="780.371094"/>
      <use xlink:href="#DejaVuSans-72" x="841.894531"/>
      <use xlink:href="#DejaVuSans-65" x="880.757812"/>
      <use xlink:href="#DejaVuSans-20" x="942.28125"/>
      <use xlink:href="#DejaVuSans-64" x="974.068359"/>
      <use xlink:href="#DejaVuSans-65" x="1037.544922"/>
      <use xlink:href="#DejaVuSans-74" x="1099.068359"/>
      <use xlink:href="#DejaVuSans-65" x="1138.277344"/>
      <use xlink:href="#DejaVuSans-63" x="1199.800781"/>
      <use xlink:href="#DejaVuSans-74" x="1254.78125"/>
      <use xlink:href="#DejaVuSans-65" x="1293.990234"/>
      <use xlink:href="#DejaVuSans-64" x="1355.513672"/>
     </g>
    </g>
   </g>
   <g id="LineCollection_1"/>
   <g id="patch_7">
    <path d="M 675.6139 565.2 
L 689.0719 565.2 
L 702.5299 565.2 
L 702.5299 26.88 
L 689.0719 26.88 
L 675.6139 26.88 
L 675.6139 565.2 
z
" style="fill: none; stroke: #000000; stroke-width: 0.8; stroke-linejoin: miter; stroke-linecap: square"/>
   </g>
  </g>
 </g>
 <defs>
  <clipPath id="pdb71c354ec">
   <rect x="98.1872" y="26.88" width="538.32" height="538.32"/>
  </clipPath>
  <clipPath id="p2a79b10f86">
   <rect x="675.6139" y="26.88" width="26.916" height="538.32"/>
  </clipPath>
 </defs>
</svg>
